<svg width="128" height="58" viewBox="0 0 128 58" fill="none" xmlns="http://www.w3.org/2000/svg">
<mask id="path-1-outside-1_25491_3" maskUnits="userSpaceOnUse" x="12.6562" y="11.2168" width="24" height="47" fill="black">
<rect fill="white" x="12.6562" y="11.2168" width="24" height="47"/>
<path d="M35.5169 53.292V57.2168H14.5639V53.292H23.1244V16.5161C22.3415 17.6081 20.8684 18.7927 18.7051 20.0701C16.5624 21.3269 14.6979 21.9552 13.1115 21.9552V17.9068C13.9356 17.9068 14.8421 17.7008 15.831 17.2887C16.8199 16.8767 17.7162 16.3822 18.5197 15.8053C19.3232 15.2079 20.0855 14.6001 20.8066 13.982C21.5277 13.3639 22.0839 12.8488 22.4754 12.4368C22.8668 12.0247 23.0832 11.7775 23.1244 11.6951H27.4818V53.292H35.5169Z"/>
</mask>
<path d="M35.5169 53.292V57.2168H14.5639V53.292H23.1244V16.5161C22.3415 17.6081 20.8684 18.7927 18.7051 20.0701C16.5624 21.3269 14.6979 21.9552 13.1115 21.9552V17.9068C13.9356 17.9068 14.8421 17.7008 15.831 17.2887C16.8199 16.8767 17.7162 16.3822 18.5197 15.8053C19.3232 15.2079 20.0855 14.6001 20.8066 13.982C21.5277 13.3639 22.0839 12.8488 22.4754 12.4368C22.8668 12.0247 23.0832 11.7775 23.1244 11.6951H27.4818V53.292H35.5169Z" fill="white"/>
<path d="M35.5169 53.292H35.8852V52.9237H35.5169V53.292ZM35.5169 57.2168V57.5851H35.8852V57.2168H35.5169ZM14.5639 57.2168H14.1957V57.5851H14.5639V57.2168ZM14.5639 53.292V52.9237H14.1957V53.292H14.5639ZM23.1244 53.292V53.6603H23.4927V53.292H23.1244ZM23.1244 16.5161H23.4927V15.3704L22.8251 16.3015L23.1244 16.5161ZM18.7051 20.0701L18.8914 20.3878L18.8924 20.3872L18.7051 20.0701ZM13.1115 21.9552H12.7432V22.3235H13.1115V21.9552ZM13.1115 17.9068V17.5385H12.7432V17.9068H13.1115ZM18.5197 15.8053L18.7345 16.1045L18.7394 16.1009L18.5197 15.8053ZM23.1244 11.6951V11.3268H22.8968L22.795 11.5304L23.1244 11.6951ZM27.4818 11.6951H27.8501V11.3268H27.4818V11.6951ZM27.4818 53.292H27.1136V53.6603H27.4818V53.292ZM35.5169 53.292H35.1486V57.2168H35.5169H35.8852V53.292H35.5169ZM35.5169 57.2168V56.8485H14.5639V57.2168V57.5851H35.5169V57.2168ZM14.5639 57.2168H14.9322V53.292H14.5639H14.1957V57.2168H14.5639ZM14.5639 53.292V53.6603H23.1244V53.292V52.9237H14.5639V53.292ZM23.1244 53.292H23.4927V16.5161H23.1244H22.7561V53.292H23.1244ZM23.1244 16.5161L22.8251 16.3015C22.0878 17.3298 20.6688 18.4829 18.5178 19.753L18.7051 20.0701L18.8924 20.3872C21.068 19.1026 22.5951 17.8863 23.4237 16.7307L23.1244 16.5161ZM18.7051 20.0701L18.5188 19.7524C16.4034 20.9931 14.6053 21.587 13.1115 21.587V21.9552V22.3235C14.7904 22.3235 16.7214 21.6606 18.8914 20.3878L18.7051 20.0701ZM13.1115 21.9552H13.4797V17.9068H13.1115H12.7432V21.9552H13.1115ZM13.1115 17.9068V18.2751C13.9964 18.2751 14.9517 18.0541 15.9727 17.6287L15.831 17.2887L15.6894 16.9488C14.7325 17.3475 13.8747 17.5385 13.1115 17.5385V17.9068ZM15.831 17.2887L15.9727 17.6287C16.9853 17.2067 17.9064 16.699 18.7345 16.1045L18.5197 15.8053L18.3049 15.5062C17.5259 16.0654 16.6546 16.5466 15.6894 16.9488L15.831 17.2887ZM18.5197 15.8053L18.7394 16.1009C19.5494 15.4986 20.3184 14.8855 21.0462 14.2616L20.8066 13.982L20.5669 13.7024C19.8526 14.3146 19.097 14.9171 18.2999 15.5098L18.5197 15.8053ZM20.8066 13.982L21.0462 14.2616C21.7715 13.64 22.3385 13.1156 22.7424 12.6904L22.4754 12.4368L22.2084 12.1831C21.8294 12.5821 21.2838 13.0878 20.5669 13.7024L20.8066 13.982ZM22.4754 12.4368L22.7424 12.6904C22.9395 12.483 23.0954 12.314 23.2084 12.1848C23.2648 12.1204 23.3128 12.0633 23.3509 12.0145C23.384 11.9721 23.4256 11.9161 23.4538 11.8598L23.1244 11.6951L22.795 11.5304C22.8025 11.5152 22.8016 11.5211 22.7704 11.5611C22.7441 11.5948 22.7059 11.6406 22.6541 11.6998C22.5507 11.8179 22.4027 11.9785 22.2084 12.1831L22.4754 12.4368ZM23.1244 11.6951V12.0634H27.4818V11.6951V11.3268H23.1244V11.6951ZM27.4818 11.6951H27.1136V53.292H27.4818H27.8501V11.6951H27.4818ZM27.4818 53.292V53.6603H35.5169V53.292V52.9237H27.4818V53.292Z" fill="white" mask="url(#path-1-outside-1_25491_3)"/>
<mask id="path-3-outside-2_25491_3" maskUnits="userSpaceOnUse" x="41.8594" y="31.2573" width="83" height="26" fill="black">
<rect fill="white" x="41.8594" y="31.2573" width="83" height="26"/>
<path d="M43.1697 56.7327L43.6916 54.1679H42.9908V51.2601H45.0038V54.1679L44.2433 56.7327H43.1697ZM58.8569 54.2573V48.4567H48.195V46.5927L59.4981 32.5756H60.9296V46.5629H63.6137V48.4567H60.9296V54.2573H58.8569ZM50.4317 46.5629H59.0358V35.8115L50.4317 46.5629ZM72.9783 54.5556C71.4474 54.5556 70.0606 54.1828 68.8179 53.4372C67.5852 52.6816 66.6507 51.6627 66.0145 50.3803L67.4162 49.3364C67.9729 50.3504 68.7533 51.1606 69.7574 51.7671C70.7614 52.3735 71.845 52.6767 73.0081 52.6767C74.5391 52.6767 75.8165 52.1846 76.8404 51.2004C77.8644 50.2162 78.3764 48.9537 78.3764 47.4128C78.3764 45.9316 77.8793 44.7138 76.8852 43.7594C75.8911 42.7952 74.6584 42.313 73.1871 42.313C72.2327 42.313 71.333 42.5267 70.488 42.9542C69.653 43.3817 68.967 43.9831 68.4302 44.7585H66.4768L68.9074 32.5756H79.3904V34.4992H70.4731L68.9521 42.2832C70.0655 41.0803 71.5617 40.4789 73.4406 40.4789C75.4288 40.4789 77.0989 41.13 78.4509 42.4323C79.8129 43.7247 80.4938 45.3749 80.4938 47.383C80.4938 48.7748 80.1558 50.0224 79.4798 51.1259C78.8038 52.2293 77.8942 53.0793 76.751 53.6758C75.6177 54.2623 74.3601 54.5556 72.9783 54.5556ZM95.4056 54.2573L89.5154 46.1006L86.1305 49.2768V54.2573H84.0577V31.9642H86.1305V47.0549L95.1372 38.3763H97.4336L90.9171 44.8778L97.6722 54.2573H95.4056ZM123.917 54.2573H121.844V45.3699C121.844 41.7712 120.671 39.9719 118.325 39.9719C117.132 39.9719 116.058 40.3944 115.104 41.2394C114.16 42.0844 113.494 43.1878 113.106 44.5498V54.2573H111.033V45.3699C111.033 43.501 110.745 42.1341 110.168 41.2692C109.602 40.4043 108.727 39.9719 107.544 39.9719C106.361 39.9719 105.292 40.3894 104.338 41.2244C103.393 42.0595 102.722 43.158 102.325 44.5199V54.2573H100.252V38.3465H102.146V41.9551C102.802 40.7224 103.657 39.7681 104.711 39.0921C105.774 38.4161 106.942 38.0781 108.215 38.0781C109.517 38.0781 110.581 38.4509 111.406 39.1964C112.231 39.942 112.738 40.9312 112.927 42.1639C114.408 39.44 116.451 38.0781 119.056 38.0781C120.766 38.0781 122.003 38.6745 122.769 39.8675C123.534 41.0505 123.917 42.7405 123.917 44.9375V54.2573Z"/>
</mask>
<path d="M43.1697 56.7327L43.6916 54.1679H42.9908V51.2601H45.0038V54.1679L44.2433 56.7327H43.1697ZM58.8569 54.2573V48.4567H48.195V46.5927L59.4981 32.5756H60.9296V46.5629H63.6137V48.4567H60.9296V54.2573H58.8569ZM50.4317 46.5629H59.0358V35.8115L50.4317 46.5629ZM72.9783 54.5556C71.4474 54.5556 70.0606 54.1828 68.8179 53.4372C67.5852 52.6816 66.6507 51.6627 66.0145 50.3803L67.4162 49.3364C67.9729 50.3504 68.7533 51.1606 69.7574 51.7671C70.7614 52.3735 71.845 52.6767 73.0081 52.6767C74.5391 52.6767 75.8165 52.1846 76.8404 51.2004C77.8644 50.2162 78.3764 48.9537 78.3764 47.4128C78.3764 45.9316 77.8793 44.7138 76.8852 43.7594C75.8911 42.7952 74.6584 42.313 73.1871 42.313C72.2327 42.313 71.333 42.5267 70.488 42.9542C69.653 43.3817 68.967 43.9831 68.4302 44.7585H66.4768L68.9074 32.5756H79.3904V34.4992H70.4731L68.9521 42.2832C70.0655 41.0803 71.5617 40.4789 73.4406 40.4789C75.4288 40.4789 77.0989 41.13 78.4509 42.4323C79.8129 43.7247 80.4938 45.3749 80.4938 47.383C80.4938 48.7748 80.1558 50.0224 79.4798 51.1259C78.8038 52.2293 77.8942 53.0793 76.751 53.6758C75.6177 54.2623 74.3601 54.5556 72.9783 54.5556ZM95.4056 54.2573L89.5154 46.1006L86.1305 49.2768V54.2573H84.0577V31.9642H86.1305V47.0549L95.1372 38.3763H97.4336L90.9171 44.8778L97.6722 54.2573H95.4056ZM123.917 54.2573H121.844V45.3699C121.844 41.7712 120.671 39.9719 118.325 39.9719C117.132 39.9719 116.058 40.3944 115.104 41.2394C114.16 42.0844 113.494 43.1878 113.106 44.5498V54.2573H111.033V45.3699C111.033 43.501 110.745 42.1341 110.168 41.2692C109.602 40.4043 108.727 39.9719 107.544 39.9719C106.361 39.9719 105.292 40.3894 104.338 41.2244C103.393 42.0595 102.722 43.158 102.325 44.5199V54.2573H100.252V38.3465H102.146V41.9551C102.802 40.7224 103.657 39.7681 104.711 39.0921C105.774 38.4161 106.942 38.0781 108.215 38.0781C109.517 38.0781 110.581 38.4509 111.406 39.1964C112.231 39.942 112.738 40.9312 112.927 42.1639C114.408 39.44 116.451 38.0781 119.056 38.0781C120.766 38.0781 122.003 38.6745 122.769 39.8675C123.534 41.0505 123.917 42.7405 123.917 44.9375V54.2573Z" fill="white"/>
<path d="M43.1697 56.7327L42.6866 56.6344L42.5663 57.2256H43.1697V56.7327ZM43.6916 54.1679L44.1747 54.2661L44.295 53.6749H43.6916V54.1679ZM42.9908 54.1679H42.4978V54.6608H42.9908V54.1679ZM42.9908 51.2601V50.7671H42.4978V51.2601H42.9908ZM45.0038 51.2601H45.4968V50.7671H45.0038V51.2601ZM45.0038 54.1679L45.4765 54.308L45.4968 54.2394V54.1679H45.0038ZM44.2433 56.7327V57.2256H44.6113L44.716 56.8728L44.2433 56.7327ZM43.1697 56.7327L43.6528 56.831L44.1747 54.2661L43.6916 54.1679L43.2086 54.0696L42.6866 56.6344L43.1697 56.7327ZM43.6916 54.1679V53.6749H42.9908V54.1679V54.6608H43.6916V54.1679ZM42.9908 54.1679H43.4837V51.2601H42.9908H42.4978V54.1679H42.9908ZM42.9908 51.2601V51.753H45.0038V51.2601V50.7671H42.9908V51.2601ZM45.0038 51.2601H44.5109V54.1679H45.0038H45.4968V51.2601H45.0038ZM45.0038 54.1679L44.5312 54.0277L43.7707 56.5925L44.2433 56.7327L44.716 56.8728L45.4765 54.308L45.0038 54.1679ZM44.2433 56.7327V56.2397H43.1697V56.7327V57.2256H44.2433V56.7327ZM58.8569 54.2573H58.3639V54.7503H58.8569V54.2573ZM58.8569 48.4567H59.3498V47.9637H58.8569V48.4567ZM48.195 48.4567H47.702V48.9496H48.195V48.4567ZM48.195 46.5927L47.8112 46.2832L47.702 46.4187V46.5927H48.195ZM59.4981 32.5756V32.0827H59.2623L59.1143 32.2662L59.4981 32.5756ZM60.9296 32.5756H61.4226V32.0827H60.9296V32.5756ZM60.9296 46.5629H60.4367V47.0558H60.9296V46.5629ZM63.6137 46.5629H64.1067V46.0699H63.6137V46.5629ZM63.6137 48.4567V48.9496H64.1067V48.4567H63.6137ZM60.9296 48.4567V47.9637H60.4367V48.4567H60.9296ZM60.9296 54.2573V54.7503H61.4226V54.2573H60.9296ZM50.4317 46.5629L50.0468 46.2548L49.4059 47.0558H50.4317V46.5629ZM59.0358 46.5629V47.0558H59.5288V46.5629H59.0358ZM59.0358 35.8115H59.5288V34.4066L58.6509 35.5035L59.0358 35.8115ZM58.8569 54.2573H59.3498V48.4567H58.8569H58.3639V54.2573H58.8569ZM58.8569 48.4567V47.9637H48.195V48.4567V48.9496H58.8569V48.4567ZM48.195 48.4567H48.6879V46.5927H48.195H47.702V48.4567H48.195ZM48.195 46.5927L48.5787 46.9021L59.8818 32.8851L59.4981 32.5756L59.1143 32.2662L47.8112 46.2832L48.195 46.5927ZM59.4981 32.5756V33.0686H60.9296V32.5756V32.0827H59.4981V32.5756ZM60.9296 32.5756H60.4367V46.5629H60.9296H61.4226V32.5756H60.9296ZM60.9296 46.5629V47.0558H63.6137V46.5629V46.0699H60.9296V46.5629ZM63.6137 46.5629H63.1208V48.4567H63.6137H64.1067V46.5629H63.6137ZM63.6137 48.4567V47.9637H60.9296V48.4567V48.9496H63.6137V48.4567ZM60.9296 48.4567H60.4367V54.2573H60.9296H61.4226V48.4567H60.9296ZM60.9296 54.2573V53.7644H58.8569V54.2573V54.7503H60.9296V54.2573ZM50.4317 46.5629V47.0558H59.0358V46.5629V46.0699H50.4317V46.5629ZM59.0358 46.5629H59.5288V35.8115H59.0358H58.5429V46.5629H59.0358ZM59.0358 35.8115L58.6509 35.5035L50.0468 46.2548L50.4317 46.5629L50.8166 46.8709L59.4207 36.1195L59.0358 35.8115ZM68.8179 53.4372L68.5603 53.8575L68.5643 53.8599L68.8179 53.4372ZM66.0145 50.3803L65.7201 49.9849L65.39 50.2307L65.5729 50.5994L66.0145 50.3803ZM67.4162 49.3364L67.8483 49.0992L67.5759 48.6029L67.1218 48.9411L67.4162 49.3364ZM76.8852 43.7594L76.542 44.1133L76.5438 44.1151L76.8852 43.7594ZM70.488 42.9542L70.2655 42.5143L70.2634 42.5154L70.488 42.9542ZM68.4302 44.7585V45.2515H68.6885L68.8355 45.0391L68.4302 44.7585ZM66.4768 44.7585L65.9934 44.6621L65.8758 45.2515H66.4768V44.7585ZM68.9074 32.5756V32.0827H68.5031L68.424 32.4792L68.9074 32.5756ZM79.3904 32.5756H79.8833V32.0827H79.3904V32.5756ZM79.3904 34.4992V34.9922H79.8833V34.4992H79.3904ZM70.4731 34.4992V34.0063H70.0672L69.9893 34.4047L70.4731 34.4992ZM68.9521 42.2832L68.4683 42.1886L68.1357 43.8909L69.3139 42.618L68.9521 42.2832ZM78.4509 42.4323L78.1089 42.7873L78.1116 42.7899L78.4509 42.4323ZM79.4798 51.1259L79.9002 51.3834L79.4798 51.1259ZM76.751 53.6758L76.9776 54.1136L76.979 54.1128L76.751 53.6758ZM72.9783 54.5556V54.0626C71.5315 54.0626 70.2332 53.7115 69.0715 53.0145L68.8179 53.4372L68.5643 53.8599C69.8879 54.6541 71.3633 55.0485 72.9783 55.0485V54.5556ZM68.8179 53.4372L69.0755 53.0169C67.921 52.3093 67.0507 51.3597 66.4561 50.1612L66.0145 50.3803L65.5729 50.5994C66.2508 51.9657 67.2494 53.054 68.5603 53.8575L68.8179 53.4372ZM66.0145 50.3803L66.3089 50.7756L67.7106 49.7318L67.4162 49.3364L67.1218 48.9411L65.7201 49.9849L66.0145 50.3803ZM67.4162 49.3364L66.9841 49.5737C67.5832 50.6649 68.4252 51.5384 69.5025 52.189L69.7574 51.7671L70.0122 51.3451C69.0814 50.7829 68.3626 50.036 67.8483 49.0992L67.4162 49.3364ZM69.7574 51.7671L69.5025 52.189C70.5828 52.8415 71.7544 53.1696 73.0081 53.1696V52.6767V52.1837C71.9356 52.1837 70.9401 51.9055 70.0122 51.3451L69.7574 51.7671ZM73.0081 52.6767V53.1696C74.6555 53.1696 76.0587 52.6355 77.182 51.5558L76.8404 51.2004L76.4988 50.845C75.5743 51.7337 74.4226 52.1837 73.0081 52.1837V52.6767ZM76.8404 51.2004L77.182 51.5558C78.3114 50.4703 78.8693 49.0752 78.8693 47.4128H78.3764H77.8834C77.8834 48.8322 77.4173 49.9622 76.4988 50.845L76.8404 51.2004ZM78.3764 47.4128H78.8693C78.8693 45.8085 78.3253 44.4586 77.2266 43.4038L76.8852 43.7594L76.5438 44.1151C77.4333 44.969 77.8834 46.0546 77.8834 47.4128H78.3764ZM76.8852 43.7594L77.2284 43.4056C76.1362 42.3461 74.7777 41.8201 73.1871 41.8201V42.313V42.806C74.539 42.806 75.646 43.2442 76.542 44.1133L76.8852 43.7594ZM73.1871 42.313V41.8201C72.156 41.8201 71.1801 42.0517 70.2655 42.5143L70.488 42.9542L70.7106 43.3941C71.486 43.0018 72.3094 42.806 73.1871 42.806V42.313ZM70.488 42.9542L70.2634 42.5154C69.3556 42.9801 68.6077 43.6361 68.0249 44.4779L68.4302 44.7585L68.8355 45.0391C69.3263 44.3302 69.9504 43.7832 70.7127 43.393L70.488 42.9542ZM68.4302 44.7585V44.2656H66.4768V44.7585V45.2515H68.4302V44.7585ZM66.4768 44.7585L66.9602 44.855L69.3908 32.6721L68.9074 32.5756L68.424 32.4792L65.9934 44.6621L66.4768 44.7585ZM68.9074 32.5756V33.0686H79.3904V32.5756V32.0827H68.9074V32.5756ZM79.3904 32.5756H78.8974V34.4992H79.3904H79.8833V32.5756H79.3904ZM79.3904 34.4992V34.0063H70.4731V34.4992V34.9922H79.3904V34.4992ZM70.4731 34.4992L69.9893 34.4047L68.4683 42.1886L68.9521 42.2832L69.4359 42.3777L70.9569 34.5938L70.4731 34.4992ZM68.9521 42.2832L69.3139 42.618C70.32 41.5311 71.6769 40.9718 73.4406 40.9718V40.4789V39.9859C71.4464 39.9859 69.8111 40.6295 68.5904 41.9483L68.9521 42.2832ZM73.4406 40.4789V40.9718C75.3096 40.9718 76.8546 41.5791 78.1089 42.7873L78.4509 42.4323L78.7929 42.0773C77.3432 40.6809 75.548 39.9859 73.4406 39.9859V40.4789ZM78.4509 42.4323L78.1116 42.7899C79.3681 43.9822 80.0009 45.4996 80.0009 47.383H80.4938H80.9868C80.9868 45.2502 80.2576 43.4671 78.7902 42.0747L78.4509 42.4323ZM80.4938 47.383H80.0009C80.0009 48.691 79.6844 49.8482 79.0595 50.8683L79.4798 51.1259L79.9002 51.3834C80.6272 50.1965 80.9868 48.8585 80.9868 47.383H80.4938ZM79.4798 51.1259L79.0595 50.8683C78.43 51.8959 77.5867 52.6837 76.523 53.2387L76.751 53.6758L76.979 54.1128C78.2017 53.4749 79.1777 52.5627 79.9002 51.3834L79.4798 51.1259ZM76.751 53.6758L76.5244 53.238C75.4668 53.7853 74.288 54.0626 72.9783 54.0626V54.5556V55.0485C74.4323 55.0485 75.7685 54.7393 76.9776 54.1136L76.751 53.6758ZM95.4056 54.2573L95.0059 54.5459L95.1535 54.7503H95.4056V54.2573ZM89.5154 46.1006L89.9151 45.812L89.5869 45.3575L89.1781 45.7411L89.5154 46.1006ZM86.1305 49.2768L85.7932 48.9173L85.6375 49.0634V49.2768H86.1305ZM86.1305 54.2573V54.7503H86.6234V54.2573H86.1305ZM84.0577 54.2573H83.5648V54.7503H84.0577V54.2573ZM84.0577 31.9642V31.4713H83.5648V31.9642H84.0577ZM86.1305 31.9642H86.6234V31.4713H86.1305V31.9642ZM86.1305 47.0549H85.6375V48.2145L86.4725 47.4099L86.1305 47.0549ZM95.1372 38.3763V37.8834H94.9383L94.7951 38.0213L95.1372 38.3763ZM97.4336 38.3763L97.7818 38.7253L98.6256 37.8834H97.4336V38.3763ZM90.9171 44.8778L90.569 44.5289L90.2718 44.8253L90.5171 45.1659L90.9171 44.8778ZM97.6722 54.2573V54.7503H98.6347L98.0722 53.9692L97.6722 54.2573ZM95.4056 54.2573L95.8052 53.9687L89.9151 45.812L89.5154 46.1006L89.1158 46.3892L95.0059 54.5459L95.4056 54.2573ZM89.5154 46.1006L89.1781 45.7411L85.7932 48.9173L86.1305 49.2768L86.4678 49.6363L89.8528 46.4601L89.5154 46.1006ZM86.1305 49.2768H85.6375V54.2573H86.1305H86.6234V49.2768H86.1305ZM86.1305 54.2573V53.7644H84.0577V54.2573V54.7503H86.1305V54.2573ZM84.0577 54.2573H84.5507V31.9642H84.0577H83.5648V54.2573H84.0577ZM84.0577 31.9642V32.4572H86.1305V31.9642V31.4713H84.0577V31.9642ZM86.1305 31.9642H85.6375V47.0549H86.1305H86.6234V31.9642H86.1305ZM86.1305 47.0549L86.4725 47.4099L95.4792 38.7313L95.1372 38.3763L94.7951 38.0213L85.7884 46.7L86.1305 47.0549ZM95.1372 38.3763V38.8693H97.4336V38.3763V37.8834H95.1372V38.3763ZM97.4336 38.3763L97.0854 38.0273L90.569 44.5289L90.9171 44.8778L91.2653 45.2268L97.7818 38.7253L97.4336 38.3763ZM90.9171 44.8778L90.5171 45.1659L97.2722 54.5454L97.6722 54.2573L98.0722 53.9692L91.3172 44.5897L90.9171 44.8778ZM97.6722 54.2573V53.7644H95.4056V54.2573V54.7503H97.6722V54.2573ZM123.917 54.2573V54.7503H124.41V54.2573H123.917ZM121.844 54.2573H121.351V54.7503H121.844V54.2573ZM115.104 41.2394L114.777 40.8703L114.775 40.872L115.104 41.2394ZM113.106 44.5498L112.632 44.4148L112.613 44.481V44.5498H113.106ZM113.106 54.2573V54.7503H113.599V54.2573H113.106ZM111.033 54.2573H110.54V54.7503H111.033V54.2573ZM110.168 41.2692L109.756 41.5393L109.758 41.5426L110.168 41.2692ZM104.338 41.2244L104.013 40.8535L104.011 40.8552L104.338 41.2244ZM102.325 44.5199L101.851 44.3818L101.832 44.4495V44.5199H102.325ZM102.325 54.2573V54.7503H102.818V54.2573H102.325ZM100.252 54.2573H99.759V54.7503H100.252V54.2573ZM100.252 38.3465V37.8535H99.759V38.3465H100.252ZM102.146 38.3465H102.639V37.8535H102.146V38.3465ZM102.146 41.9551H101.653L102.581 42.1867L102.146 41.9551ZM104.711 39.0921L104.446 38.676L104.444 38.6772L104.711 39.0921ZM112.927 42.1639L112.44 42.2386L112.661 43.6844L113.36 42.3994L112.927 42.1639ZM122.769 39.8675L122.354 40.1337L122.355 40.1353L122.769 39.8675ZM123.917 54.2573V53.7644H121.844V54.2573V54.7503H123.917V54.2573ZM121.844 54.2573H122.337V45.3699H121.844H121.351V54.2573H121.844ZM121.844 45.3699H122.337C122.337 43.5327 122.041 42.0695 121.377 41.0522C120.69 39.9983 119.646 39.4789 118.325 39.4789V39.9719V40.4648C119.35 40.4648 120.065 40.8451 120.551 41.5906C121.061 42.3726 121.351 43.6084 121.351 45.3699H121.844ZM118.325 39.9719V39.4789C117.003 39.4789 115.815 39.9514 114.777 40.8703L115.104 41.2394L115.431 41.6084C116.302 40.8373 117.261 40.4648 118.325 40.4648V39.9719ZM115.104 41.2394L114.775 40.872C113.753 41.7863 113.042 42.9741 112.632 44.4148L113.106 44.5498L113.58 44.6847C113.945 43.4016 114.566 42.3824 115.433 41.6067L115.104 41.2394ZM113.106 44.5498H112.613V54.2573H113.106H113.599V44.5498H113.106ZM113.106 54.2573V53.7644H111.033V54.2573V54.7503H113.106V54.2573ZM111.033 54.2573H111.526V45.3699H111.033H110.54V54.2573H111.033ZM111.033 45.3699H111.526C111.526 43.4711 111.237 41.9838 110.578 40.9957L110.168 41.2692L109.758 41.5426C110.253 42.2844 110.54 43.5308 110.54 45.3699H111.033ZM110.168 41.2692L110.581 40.999C109.908 39.9732 108.865 39.4789 107.544 39.4789V39.9719V40.4648C108.589 40.4648 109.295 40.8354 109.756 41.5393L110.168 41.2692ZM107.544 39.9719V39.4789C106.232 39.4789 105.05 39.9459 104.013 40.8535L104.338 41.2244L104.662 41.5954C105.534 40.8329 106.489 40.4648 107.544 40.4648V39.9719ZM104.338 41.2244L104.011 40.8552C102.989 41.7594 102.272 42.942 101.851 44.3818L102.325 44.5199L102.798 44.6581C103.173 43.374 103.798 42.3596 104.664 41.5937L104.338 41.2244ZM102.325 44.5199H101.832V54.2573H102.325H102.818V44.5199H102.325ZM102.325 54.2573V53.7644H100.252V54.2573V54.7503H102.325V54.2573ZM100.252 54.2573H100.745V38.3465H100.252H99.759V54.2573H100.252ZM100.252 38.3465V38.8394H102.146V38.3465V37.8535H100.252V38.3465ZM102.146 38.3465H101.653V41.9551H102.146H102.639V38.3465H102.146ZM102.146 41.9551L102.581 42.1867C103.202 41.0198 104.002 40.1323 104.977 39.507L104.711 39.0921L104.444 38.6772C103.312 39.4039 102.402 40.425 101.711 41.7235L102.146 41.9551ZM104.711 39.0921L104.975 39.5081C105.959 38.8829 107.035 38.571 108.215 38.571V38.0781V37.5851C106.85 37.5851 105.59 37.9493 104.446 38.676L104.711 39.0921ZM108.215 38.0781V38.571C109.417 38.571 110.356 38.9122 111.075 39.5622L111.406 39.1964L111.736 38.8307C110.805 37.9895 109.617 37.5851 108.215 37.5851V38.0781ZM111.406 39.1964L111.075 39.5622C111.806 40.2224 112.266 41.1036 112.44 42.2386L112.927 42.1639L113.414 42.0892C113.21 40.7588 112.656 39.6616 111.736 38.8307L111.406 39.1964ZM112.927 42.1639L113.36 42.3994C114.775 39.798 116.669 38.571 119.056 38.571V38.0781V37.5851C116.233 37.5851 114.042 39.082 112.494 41.9284L112.927 42.1639ZM119.056 38.0781V38.571C120.638 38.571 121.699 39.1127 122.354 40.1337L122.769 39.8675L123.184 39.6013C122.308 38.2364 120.893 37.5851 119.056 37.5851V38.0781ZM122.769 39.8675L122.355 40.1353C123.047 41.2055 123.424 42.7866 123.424 44.9375H123.917H124.41C124.41 42.6944 124.021 40.8955 123.183 39.5997L122.769 39.8675ZM123.917 44.9375H123.424V54.2573H123.917H124.41V44.9375H123.917Z" fill="white" mask="url(#path-3-outside-2_25491_3)"/>
</svg>
