<svg width="128" height="58" viewBox="0 0 128 58" fill="none" xmlns="http://www.w3.org/2000/svg">
<mask id="path-1-outside-1_25491_4" maskUnits="userSpaceOnUse" x="7.34375" y="11.2168" width="32" height="47" fill="black">
<rect fill="white" x="7.34375" y="11.2168" width="32" height="47"/>
<path d="M7.94701 57.2168C7.8852 54.6415 8.09123 52.3237 8.56509 50.2634C9.03896 48.1825 9.77035 46.3695 10.7593 44.8243C11.7482 43.2585 12.8814 41.909 14.1587 40.7758C15.4567 39.6221 16.971 38.5816 18.7016 37.6545C19.5463 37.1807 20.6383 36.6347 21.9775 36.0166C23.3372 35.3779 24.4807 34.8422 25.4078 34.4096C26.3555 33.9769 27.3754 33.4207 28.4673 32.7408C29.5593 32.0609 30.4349 31.3707 31.0942 30.6702C31.7741 29.9697 32.3406 29.1044 32.7939 28.0743C33.2472 27.0441 33.4738 25.911 33.4738 24.6748C33.4738 22.1407 32.6394 20.0289 30.9706 18.3395C29.3017 16.6294 26.9015 15.7744 23.7699 15.7744C22.2247 15.7744 20.7516 15.9805 19.3506 16.3925C17.9702 16.8046 16.7547 17.3608 15.7039 18.0613C14.6738 18.7618 13.8085 19.4417 13.108 20.101C12.4075 20.7603 11.7688 21.4608 11.1919 22.2025L8.34877 19.4211C8.69901 18.9885 9.06986 18.5558 9.46131 18.1231C9.85276 17.6905 10.5533 17.0518 11.5628 16.2071C12.5929 15.3624 13.654 14.6413 14.7459 14.0438C15.8585 13.4463 17.2594 12.9107 18.9489 12.4368C20.6589 11.9423 22.4204 11.6951 24.2335 11.6951C26.4792 11.6951 28.5085 12.0453 30.3216 12.7458C32.1346 13.4257 33.5974 14.3734 34.7099 15.589C35.8431 16.784 36.7084 18.154 37.3059 19.6992C37.9034 21.2238 38.2021 22.8618 38.2021 24.613C38.2021 25.4783 38.1197 26.3127 37.9549 27.1162C37.79 27.9197 37.584 28.6408 37.3368 29.2795C37.1102 29.9182 36.7702 30.5466 36.317 31.1647C35.8843 31.7621 35.4722 32.2875 35.0808 32.7408C34.6893 33.194 34.1743 33.6679 33.5356 34.1624C32.8969 34.6362 32.3406 35.0277 31.8668 35.3367C31.4135 35.6251 30.8057 35.9754 30.0434 36.3874C29.3017 36.7789 28.7043 37.0879 28.251 37.3146C27.7977 37.5206 27.1796 37.809 26.3967 38.1799C25.6138 38.5301 25.037 38.798 24.6661 38.9834C22.5646 39.9311 20.7619 40.9097 19.2579 41.9193C17.7745 42.9082 16.6105 43.8456 15.7657 44.7315C14.9416 45.5969 14.2926 46.5549 13.8188 47.6056C13.3449 48.6564 13.0359 49.5938 12.8917 50.4179C12.7474 51.2214 12.665 52.1794 12.6444 53.292H38.2639V57.2168H7.94701Z"/>
</mask>
<path d="M7.94701 57.2168C7.8852 54.6415 8.09123 52.3237 8.56509 50.2634C9.03896 48.1825 9.77035 46.3695 10.7593 44.8243C11.7482 43.2585 12.8814 41.909 14.1587 40.7758C15.4567 39.6221 16.971 38.5816 18.7016 37.6545C19.5463 37.1807 20.6383 36.6347 21.9775 36.0166C23.3372 35.3779 24.4807 34.8422 25.4078 34.4096C26.3555 33.9769 27.3754 33.4207 28.4673 32.7408C29.5593 32.0609 30.4349 31.3707 31.0942 30.6702C31.7741 29.9697 32.3406 29.1044 32.7939 28.0743C33.2472 27.0441 33.4738 25.911 33.4738 24.6748C33.4738 22.1407 32.6394 20.0289 30.9706 18.3395C29.3017 16.6294 26.9015 15.7744 23.7699 15.7744C22.2247 15.7744 20.7516 15.9805 19.3506 16.3925C17.9702 16.8046 16.7547 17.3608 15.7039 18.0613C14.6738 18.7618 13.8085 19.4417 13.108 20.101C12.4075 20.7603 11.7688 21.4608 11.1919 22.2025L8.34877 19.4211C8.69901 18.9885 9.06986 18.5558 9.46131 18.1231C9.85276 17.6905 10.5533 17.0518 11.5628 16.2071C12.5929 15.3624 13.654 14.6413 14.7459 14.0438C15.8585 13.4463 17.2594 12.9107 18.9489 12.4368C20.6589 11.9423 22.4204 11.6951 24.2335 11.6951C26.4792 11.6951 28.5085 12.0453 30.3216 12.7458C32.1346 13.4257 33.5974 14.3734 34.7099 15.589C35.8431 16.784 36.7084 18.154 37.3059 19.6992C37.9034 21.2238 38.2021 22.8618 38.2021 24.613C38.2021 25.4783 38.1197 26.3127 37.9549 27.1162C37.79 27.9197 37.584 28.6408 37.3368 29.2795C37.1102 29.9182 36.7702 30.5466 36.317 31.1647C35.8843 31.7621 35.4722 32.2875 35.0808 32.7408C34.6893 33.194 34.1743 33.6679 33.5356 34.1624C32.8969 34.6362 32.3406 35.0277 31.8668 35.3367C31.4135 35.6251 30.8057 35.9754 30.0434 36.3874C29.3017 36.7789 28.7043 37.0879 28.251 37.3146C27.7977 37.5206 27.1796 37.809 26.3967 38.1799C25.6138 38.5301 25.037 38.798 24.6661 38.9834C22.5646 39.9311 20.7619 40.9097 19.2579 41.9193C17.7745 42.9082 16.6105 43.8456 15.7657 44.7315C14.9416 45.5969 14.2926 46.5549 13.8188 47.6056C13.3449 48.6564 13.0359 49.5938 12.8917 50.4179C12.7474 51.2214 12.665 52.1794 12.6444 53.292H38.2639V57.2168H7.94701Z" fill="white"/>
<path d="M7.94701 57.2168L7.57883 57.2256L7.58745 57.5851H7.94701V57.2168ZM8.56509 50.2634L8.92402 50.3459L8.92419 50.3452L8.56509 50.2634ZM10.7593 44.8243L11.0695 45.0228L11.0707 45.0209L10.7593 44.8243ZM14.1587 40.7758L14.4031 41.0513L14.4034 41.0511L14.1587 40.7758ZM18.7016 37.6545L18.8756 37.9792L18.8818 37.9757L18.7016 37.6545ZM21.9775 36.0166L22.1318 36.351L22.134 36.35L21.9775 36.0166ZM25.4078 34.4096L25.2549 34.0745L25.2521 34.0758L25.4078 34.4096ZM31.0942 30.6702L30.8299 30.4137L30.826 30.4178L31.0942 30.6702ZM30.9706 18.3395L30.707 18.5967L30.7085 18.5983L30.9706 18.3395ZM19.3506 16.3925L19.2467 16.0392L19.2453 16.0396L19.3506 16.3925ZM15.7039 18.0613L15.4996 17.7549L15.4968 17.7568L15.7039 18.0613ZM11.1919 22.2025L10.9344 22.4657L11.2293 22.7543L11.4827 22.4286L11.1919 22.2025ZM8.34877 19.4211L8.06251 19.1894L7.85158 19.4499L8.09122 19.6844L8.34877 19.4211ZM11.5628 16.2071L11.3293 15.9223L11.3264 15.9246L11.5628 16.2071ZM14.7459 14.0438L14.5717 13.7193L14.5691 13.7207L14.7459 14.0438ZM18.9489 12.4368L19.0483 12.7914L19.0512 12.7906L18.9489 12.4368ZM30.3216 12.7458L30.1888 13.0894L30.1922 13.0907L30.3216 12.7458ZM34.7099 15.589L34.4382 15.8377L34.4427 15.8424L34.7099 15.589ZM37.3059 19.6992L36.9624 19.8321L36.963 19.8336L37.3059 19.6992ZM37.3368 29.2795L36.9932 29.1465L36.9897 29.1564L37.3368 29.2795ZM36.317 31.1647L36.02 30.9469L36.0187 30.9487L36.317 31.1647ZM33.5356 34.1624L33.7551 34.4582L33.761 34.4536L33.5356 34.1624ZM31.8668 35.3367L32.0645 35.6474L32.068 35.6452L31.8668 35.3367ZM30.0434 36.3874L30.2153 36.7132L30.2186 36.7114L30.0434 36.3874ZM28.251 37.3146L28.4035 37.6501L28.4157 37.644L28.251 37.3146ZM26.3967 38.1799L26.5472 38.5161L26.5544 38.5127L26.3967 38.1799ZM24.6661 38.9834L24.8175 39.3191L24.8242 39.3161L24.8308 39.3128L24.6661 38.9834ZM19.2579 41.9193L19.4622 42.2257L19.4632 42.2251L19.2579 41.9193ZM15.7657 44.7315L15.4992 44.4774L15.4991 44.4776L15.7657 44.7315ZM12.8917 50.4179L13.2542 50.483L13.2544 50.4814L12.8917 50.4179ZM12.6444 53.292L12.2762 53.2852L12.2693 53.6603H12.6444V53.292ZM38.2639 53.292H38.6322V52.9237H38.2639V53.292ZM38.2639 57.2168V57.5851H38.6322V57.2168H38.2639ZM7.94701 57.2168L8.3152 57.208C8.25397 54.6569 8.45835 52.3706 8.92401 50.3459L8.56509 50.2634L8.20617 50.1808C7.72412 52.2767 7.51644 54.626 7.57883 57.2256L7.94701 57.2168ZM8.56509 50.2634L8.92419 50.3452C9.39013 48.2991 10.1069 46.5269 11.0695 45.0228L10.7593 44.8243L10.4491 44.6257C9.43383 46.2121 8.68779 48.0659 8.206 50.1816L8.56509 50.2634ZM10.7593 44.8243L11.0707 45.0209C12.0426 43.482 13.1538 42.1596 14.4031 41.0513L14.1587 40.7758L13.9143 40.5003C12.6089 41.6583 11.4538 43.035 10.4479 44.6276L10.7593 44.8243ZM14.1587 40.7758L14.4034 41.0511C15.6772 39.9188 17.1671 38.8944 18.8755 37.9792L18.7016 37.6545L18.5277 37.3299C16.7749 38.2689 15.2362 39.3253 13.9141 40.5006L14.1587 40.7758ZM18.7016 37.6545L18.8818 37.9757C19.7149 37.5084 20.7974 36.9669 22.1318 36.351L21.9775 36.0166L21.8231 35.6822C20.4792 36.3025 19.3777 36.853 18.5214 37.3333L18.7016 37.6545ZM21.9775 36.0166L22.134 36.35C23.4937 35.7113 24.6368 35.1758 25.5636 34.7433L25.4078 34.4096L25.2521 34.0758C24.3246 34.5087 23.1808 35.0445 21.8209 35.6832L21.9775 36.0166ZM25.4078 34.4096L25.5608 34.7446C26.5257 34.3041 27.5596 33.7398 28.662 33.0534L28.4673 32.7408L28.2727 32.4281C27.1911 33.1015 26.1854 33.6498 25.2549 34.0746L25.4078 34.4096ZM28.4673 32.7408L28.662 33.0534C29.7725 32.362 30.6754 31.6525 31.3624 30.9226L31.0942 30.6702L30.826 30.4178C30.1944 31.0888 29.3461 31.7598 28.2727 32.4281L28.4673 32.7408ZM31.0942 30.6702L31.3584 30.9267C32.0731 30.1904 32.6627 29.2868 33.131 28.2226L32.7939 28.0743L32.4568 27.9259C32.0185 28.922 31.475 29.749 30.8299 30.4137L31.0942 30.6702ZM32.7939 28.0743L33.131 28.2226C33.6068 27.1413 33.8421 25.957 33.8421 24.6748H33.4738H33.1055C33.1055 25.865 32.8875 26.947 32.4568 27.9259L32.7939 28.0743ZM33.4738 24.6748H33.8421C33.8421 22.051 32.9744 19.844 31.2326 18.0806L30.9706 18.3395L30.7085 18.5983C32.3044 20.2138 33.1055 22.2304 33.1055 24.6748H33.4738ZM30.9706 18.3395L31.2341 18.0822C29.4764 16.2811 26.9686 15.4061 23.7699 15.4061V15.7744V16.1427C26.8344 16.1427 29.1271 16.9778 30.707 18.5967L30.9706 18.3395ZM23.7699 15.7744V15.4061C22.1916 15.4061 20.6833 15.6166 19.2467 16.0392L19.3506 16.3925L19.4545 16.7458C20.8199 16.3443 22.2578 16.1427 23.7699 16.1427V15.7744ZM19.3506 16.3925L19.2453 16.0396C17.8346 16.4607 16.5848 17.0314 15.4996 17.7549L15.7039 18.0613L15.9082 18.3678C16.9245 17.6902 18.1058 17.1484 19.456 16.7454L19.3506 16.3925ZM15.7039 18.0613L15.4968 17.7568C14.4551 18.4652 13.5736 19.157 12.8556 19.8328L13.108 20.101L13.3604 20.3692C14.0434 19.7264 14.8925 19.0585 15.911 18.3659L15.7039 18.0613ZM13.108 20.101L12.8556 19.8328C12.1416 20.5048 11.49 21.2193 10.9012 21.9764L11.1919 22.2025L11.4827 22.4286C12.0476 21.7022 12.6734 21.0158 13.3604 20.3692L13.108 20.101ZM11.1919 22.2025L11.4495 21.9392L8.60631 19.1578L8.34877 19.4211L8.09122 19.6844L10.9344 22.4657L11.1919 22.2025ZM8.34877 19.4211L8.63502 19.6528C8.98082 19.2257 9.34727 18.7981 9.73441 18.3702L9.46131 18.1231L9.18821 17.876C8.79245 18.3135 8.4172 18.7512 8.06251 19.1894L8.34877 19.4211ZM9.46131 18.1231L9.73441 18.3702C10.1073 17.9581 10.7906 17.3334 11.7991 16.4895L11.5628 16.2071L11.3264 15.9246C10.3159 16.7702 9.59822 17.4229 9.18821 17.876L9.46131 18.1231ZM11.5628 16.2071L11.7963 16.4919C12.81 15.6607 13.8522 14.9527 14.9227 14.3669L14.7459 14.0438L14.5691 13.7207C13.4558 14.3299 12.3759 15.0641 11.3293 15.9223L11.5628 16.2071ZM14.7459 14.0438L14.9202 14.3683C16.0018 13.7874 17.3756 13.2606 19.0483 12.7914L18.9489 12.4368L18.8494 12.0822C17.1433 12.5607 15.7151 13.1053 14.5717 13.7193L14.7459 14.0438ZM18.9489 12.4368L19.0512 12.7906C20.7273 12.3059 22.4544 12.0634 24.2335 12.0634V11.6951V11.3268C22.3865 11.3268 20.5905 11.5787 18.8466 12.083L18.9489 12.4368ZM24.2335 11.6951V12.0634C26.4407 12.0634 28.4242 12.4076 30.1888 13.0894L30.3216 12.7458L30.4543 12.4023C28.5929 11.6831 26.5176 11.3268 24.2335 11.3268V11.6951ZM30.3216 12.7458L30.1922 13.0907C31.9604 13.7537 33.3712 14.6718 34.4383 15.8377L34.7099 15.589L34.9816 15.3404C33.8236 14.0751 32.3088 13.0977 30.4509 12.401L30.3216 12.7458ZM34.7099 15.589L34.4427 15.8424C35.5426 17.0023 36.3821 18.3314 36.9624 19.8321L37.3059 19.6992L37.6494 19.5664C37.0347 17.9767 36.1436 16.5656 34.9772 15.3356L34.7099 15.589ZM37.3059 19.6992L36.963 19.8336C37.5425 21.3125 37.8338 22.9045 37.8338 24.613H38.2021H38.5704C38.5704 22.819 38.2642 21.1352 37.6488 19.5649L37.3059 19.6992ZM38.2021 24.613H37.8338C37.8338 25.4548 37.7537 26.2644 37.5941 27.0422L37.9549 27.1162L38.3157 27.1902C38.4857 26.3611 38.5704 25.5018 38.5704 24.613H38.2021ZM37.9549 27.1162L37.5941 27.0422C37.4326 27.8294 37.2319 28.5303 36.9933 29.1466L37.3368 29.2795L37.6802 29.4125C37.9362 28.7513 38.1475 28.01 38.3157 27.1902L37.9549 27.1162ZM37.3368 29.2795L36.9897 29.1564C36.7765 29.7571 36.4547 30.354 36.02 30.9469L36.317 31.1647L36.6139 31.3825C37.0857 30.7392 37.4438 30.0793 37.6839 29.4027L37.3368 29.2795ZM36.317 31.1647L36.0187 30.9487C35.5908 31.5395 35.1853 32.0563 34.8021 32.5L35.0808 32.7408L35.3595 32.9815C35.7592 32.5187 36.1778 31.9848 36.6152 31.3807L36.317 31.1647ZM35.0808 32.7408L34.8021 32.5C34.4311 32.9296 33.9357 33.3869 33.3101 33.8711L33.5356 34.1624L33.761 34.4536C34.4129 33.9489 34.9476 33.4585 35.3595 32.9815L35.0808 32.7408ZM33.5356 34.1624L33.3161 33.8666C32.6812 34.3376 32.1313 34.7245 31.6656 35.0282L31.8668 35.3367L32.068 35.6452C32.5499 35.3308 33.1126 34.9348 33.755 34.4581L33.5356 34.1624ZM31.8668 35.3367L31.669 35.026C31.2262 35.3078 30.6269 35.6534 29.8683 36.0635L30.0434 36.3874L30.2186 36.7114C30.9845 36.2974 31.6008 35.9425 32.0645 35.6474L31.8668 35.3367ZM30.0434 36.3874L29.8715 36.0617C29.1309 36.4526 28.5361 36.7603 28.0863 36.9852L28.251 37.3146L28.4157 37.644C28.8724 37.4156 29.4726 37.1052 30.2153 36.7132L30.0434 36.3874ZM28.251 37.3146L28.0986 36.9793C27.6427 37.1865 27.0227 37.4759 26.2391 37.847L26.3967 38.1799L26.5544 38.5127C27.3366 38.1422 27.9527 37.8547 28.4034 37.6499L28.251 37.3146ZM26.3967 38.1799L26.2463 37.8437C25.4626 38.1943 24.8797 38.4648 24.5014 38.654L24.6661 38.9834L24.8308 39.3128C25.1942 39.1311 25.7651 38.8659 26.5471 38.5161L26.3967 38.1799ZM24.6661 38.9834L24.5147 38.6477C22.3993 39.6017 20.5776 40.5899 19.0526 41.6135L19.2579 41.9193L19.4632 42.2251C20.9462 41.2296 22.73 40.2606 24.8175 39.3191L24.6661 38.9834ZM19.2579 41.9193L19.0536 41.6128C17.5569 42.6107 16.369 43.5651 15.4992 44.4774L15.7657 44.7315L16.0323 44.9857C16.8519 44.1261 17.9921 43.2057 19.4622 42.2257L19.2579 41.9193ZM15.7657 44.7315L15.4991 44.4776C14.6474 45.3718 13.9746 46.3643 13.4831 47.4542L13.8188 47.6056L14.1545 47.757C14.6107 46.7455 15.2359 45.8219 16.0324 44.9855L15.7657 44.7315ZM13.8188 47.6056L13.4831 47.4542C13.0009 48.5233 12.68 49.491 12.5289 50.3544L12.8917 50.4179L13.2544 50.4814C13.3918 49.6966 13.6889 48.7894 14.1545 47.757L13.8188 47.6056ZM12.8917 50.4179L12.5292 50.3528C12.3805 51.1811 12.297 52.1596 12.2762 53.2852L12.6444 53.292L13.0127 53.2988C13.033 52.1993 13.1144 51.2618 13.2542 50.483L12.8917 50.4179ZM12.6444 53.292V53.6603H38.2639V53.292V52.9237H12.6444V53.292ZM38.2639 53.292H37.8956V57.2168H38.2639H38.6322V53.292H38.2639ZM38.2639 57.2168V56.8485H7.94701V57.2168V57.5851H38.2639V57.2168Z" fill="white" mask="url(#path-1-outside-1_25491_4)"/>
<mask id="path-3-outside-2_25491_4" maskUnits="userSpaceOnUse" x="41.5469" y="31.2573" width="83" height="26" fill="black">
<rect fill="white" x="41.5469" y="31.2573" width="83" height="26"/>
<path d="M42.4695 56.7327L42.9914 54.1679H42.2906V51.2601H44.3036V54.1679L43.5431 56.7327H42.4695ZM48.1658 54.2573C48.136 53.0147 48.2354 51.8963 48.464 50.9022C48.6927 49.8981 49.0456 49.0233 49.5228 48.2777C49.9999 47.5222 50.5467 46.871 51.1631 46.3243C51.7893 45.7676 52.52 45.2655 53.3551 44.8182C53.7627 44.5895 54.2896 44.3261 54.9357 44.0279C55.5918 43.7197 56.1436 43.4612 56.5909 43.2524C57.0482 43.0437 57.5403 42.7753 58.0672 42.4472C58.5941 42.1192 59.0166 41.7861 59.3347 41.4481C59.6628 41.1101 59.9361 40.6926 60.1548 40.1955C60.3735 39.6985 60.4829 39.1517 60.4829 38.5552C60.4829 37.3325 60.0803 36.3135 59.275 35.4983C58.4698 34.6732 57.3117 34.2607 55.8006 34.2607C55.055 34.2607 54.3442 34.3601 53.6682 34.5589C53.0022 34.7577 52.4156 35.0261 51.9086 35.3641C51.4116 35.7021 50.9941 36.0302 50.6561 36.3483C50.3181 36.6664 50.0099 37.0044 49.7315 37.3623L48.3596 36.0202C48.5286 35.8115 48.7076 35.6027 48.8965 35.394C49.0853 35.1852 49.4233 34.877 49.9105 34.4694C50.4075 34.0618 50.9195 33.7139 51.4464 33.4256C51.9832 33.1373 52.6592 32.8788 53.4744 32.6502C54.2995 32.4116 55.1495 32.2923 56.0243 32.2923C57.1079 32.2923 58.0871 32.4613 58.9619 32.7993C59.8367 33.1274 60.5425 33.5847 61.0794 34.1712C61.6261 34.7478 62.0437 35.4089 62.332 36.1545C62.6203 36.8901 62.7644 37.6804 62.7644 38.5254C62.7644 38.9429 62.7246 39.3456 62.6451 39.7333C62.5656 40.121 62.4662 40.4689 62.3469 40.7771C62.2375 41.0853 62.0735 41.3885 61.8548 41.6867C61.646 41.975 61.4472 42.2285 61.2583 42.4472C61.0694 42.6659 60.8209 42.8946 60.5127 43.1332C60.2045 43.3618 59.9361 43.5507 59.7075 43.6998C59.4888 43.839 59.1955 44.008 58.8277 44.2068C58.4698 44.3957 58.1815 44.5448 57.9628 44.6542C57.7441 44.7536 57.4459 44.8927 57.0681 45.0717C56.6903 45.2407 56.412 45.3699 56.233 45.4594C55.219 45.9167 54.3492 46.3889 53.6235 46.876C52.9077 47.3532 52.3461 47.8055 51.9385 48.233C51.5408 48.6505 51.2277 49.1128 50.999 49.6198C50.7704 50.1268 50.6213 50.5791 50.5517 50.9767C50.4821 51.3644 50.4423 51.8267 50.4324 52.3635H62.7942V54.2573H48.1658ZM75.9017 54.2573V48.4567H65.2398V46.5927L76.5429 32.5756H77.9744V46.5629H80.6585V48.4567H77.9744V54.2573H75.9017ZM67.4765 46.5629H76.0806V35.8115L67.4765 46.5629ZM95.4808 54.2573L89.5907 46.1006L86.2057 49.2768V54.2573H84.1329V31.9642H86.2057V47.0549L95.2124 38.3763H97.5088L90.9924 44.8778L97.7474 54.2573H95.4808ZM123.992 54.2573H121.919V45.3699C121.919 41.7712 120.746 39.9719 118.4 39.9719C117.207 39.9719 116.134 40.3944 115.179 41.2394C114.235 42.0844 113.569 43.1878 113.181 44.5498V54.2573H111.108V45.3699C111.108 43.501 110.82 42.1341 110.243 41.2692C109.677 40.4043 108.802 39.9719 107.619 39.9719C106.436 39.9719 105.367 40.3894 104.413 41.2244C103.469 42.0595 102.797 43.158 102.4 44.5199V54.2573H100.327V38.3465H102.221V41.9551C102.877 40.7224 103.732 39.7681 104.786 39.0921C105.849 38.4161 107.018 38.0781 108.29 38.0781C109.592 38.0781 110.656 38.4509 111.481 39.1964C112.306 39.942 112.813 40.9312 113.002 42.1639C114.483 39.44 116.526 38.0781 119.131 38.0781C120.841 38.0781 122.078 38.6745 122.844 39.8675C123.609 41.0505 123.992 42.7405 123.992 44.9375V54.2573Z"/>
</mask>
<path d="M42.4695 56.7327L42.9914 54.1679H42.2906V51.2601H44.3036V54.1679L43.5431 56.7327H42.4695ZM48.1658 54.2573C48.136 53.0147 48.2354 51.8963 48.464 50.9022C48.6927 49.8981 49.0456 49.0233 49.5228 48.2777C49.9999 47.5222 50.5467 46.871 51.1631 46.3243C51.7893 45.7676 52.52 45.2655 53.3551 44.8182C53.7627 44.5895 54.2896 44.3261 54.9357 44.0279C55.5918 43.7197 56.1436 43.4612 56.5909 43.2524C57.0482 43.0437 57.5403 42.7753 58.0672 42.4472C58.5941 42.1192 59.0166 41.7861 59.3347 41.4481C59.6628 41.1101 59.9361 40.6926 60.1548 40.1955C60.3735 39.6985 60.4829 39.1517 60.4829 38.5552C60.4829 37.3325 60.0803 36.3135 59.275 35.4983C58.4698 34.6732 57.3117 34.2607 55.8006 34.2607C55.055 34.2607 54.3442 34.3601 53.6682 34.5589C53.0022 34.7577 52.4156 35.0261 51.9086 35.3641C51.4116 35.7021 50.9941 36.0302 50.6561 36.3483C50.3181 36.6664 50.0099 37.0044 49.7315 37.3623L48.3596 36.0202C48.5286 35.8115 48.7076 35.6027 48.8965 35.394C49.0853 35.1852 49.4233 34.877 49.9105 34.4694C50.4075 34.0618 50.9195 33.7139 51.4464 33.4256C51.9832 33.1373 52.6592 32.8788 53.4744 32.6502C54.2995 32.4116 55.1495 32.2923 56.0243 32.2923C57.1079 32.2923 58.0871 32.4613 58.9619 32.7993C59.8367 33.1274 60.5425 33.5847 61.0794 34.1712C61.6261 34.7478 62.0437 35.4089 62.332 36.1545C62.6203 36.8901 62.7644 37.6804 62.7644 38.5254C62.7644 38.9429 62.7246 39.3456 62.6451 39.7333C62.5656 40.121 62.4662 40.4689 62.3469 40.7771C62.2375 41.0853 62.0735 41.3885 61.8548 41.6867C61.646 41.975 61.4472 42.2285 61.2583 42.4472C61.0694 42.6659 60.8209 42.8946 60.5127 43.1332C60.2045 43.3618 59.9361 43.5507 59.7075 43.6998C59.4888 43.839 59.1955 44.008 58.8277 44.2068C58.4698 44.3957 58.1815 44.5448 57.9628 44.6542C57.7441 44.7536 57.4459 44.8927 57.0681 45.0717C56.6903 45.2407 56.412 45.3699 56.233 45.4594C55.219 45.9167 54.3492 46.3889 53.6235 46.876C52.9077 47.3532 52.3461 47.8055 51.9385 48.233C51.5408 48.6505 51.2277 49.1128 50.999 49.6198C50.7704 50.1268 50.6213 50.5791 50.5517 50.9767C50.4821 51.3644 50.4423 51.8267 50.4324 52.3635H62.7942V54.2573H48.1658ZM75.9017 54.2573V48.4567H65.2398V46.5927L76.5429 32.5756H77.9744V46.5629H80.6585V48.4567H77.9744V54.2573H75.9017ZM67.4765 46.5629H76.0806V35.8115L67.4765 46.5629ZM95.4808 54.2573L89.5907 46.1006L86.2057 49.2768V54.2573H84.1329V31.9642H86.2057V47.0549L95.2124 38.3763H97.5088L90.9924 44.8778L97.7474 54.2573H95.4808ZM123.992 54.2573H121.919V45.3699C121.919 41.7712 120.746 39.9719 118.4 39.9719C117.207 39.9719 116.134 40.3944 115.179 41.2394C114.235 42.0844 113.569 43.1878 113.181 44.5498V54.2573H111.108V45.3699C111.108 43.501 110.82 42.1341 110.243 41.2692C109.677 40.4043 108.802 39.9719 107.619 39.9719C106.436 39.9719 105.367 40.3894 104.413 41.2244C103.469 42.0595 102.797 43.158 102.4 44.5199V54.2573H100.327V38.3465H102.221V41.9551C102.877 40.7224 103.732 39.7681 104.786 39.0921C105.849 38.4161 107.018 38.0781 108.29 38.0781C109.592 38.0781 110.656 38.4509 111.481 39.1964C112.306 39.942 112.813 40.9312 113.002 42.1639C114.483 39.44 116.526 38.0781 119.131 38.0781C120.841 38.0781 122.078 38.6745 122.844 39.8675C123.609 41.0505 123.992 42.7405 123.992 44.9375V54.2573Z" fill="white"/>
<path d="M42.4695 56.7327L41.9864 56.6344L41.8661 57.2256H42.4695V56.7327ZM42.9914 54.1679L43.4745 54.2661L43.5948 53.6749H42.9914V54.1679ZM42.2906 54.1679H41.7976V54.6608H42.2906V54.1679ZM42.2906 51.2601V50.7671H41.7976V51.2601H42.2906ZM44.3036 51.2601H44.7966V50.7671H44.3036V51.2601ZM44.3036 54.1679L44.7763 54.308L44.7966 54.2394V54.1679H44.3036ZM43.5431 56.7327V57.2256H43.9111L44.0158 56.8728L43.5431 56.7327ZM42.4695 56.7327L42.9525 56.831L43.4745 54.2661L42.9914 54.1679L42.5084 54.0696L41.9864 56.6344L42.4695 56.7327ZM42.9914 54.1679V53.6749H42.2906V54.1679V54.6608H42.9914V54.1679ZM42.2906 54.1679H42.7835V51.2601H42.2906H41.7976V54.1679H42.2906ZM42.2906 51.2601V51.753H44.3036V51.2601V50.7671H42.2906V51.2601ZM44.3036 51.2601H43.8107V54.1679H44.3036H44.7966V51.2601H44.3036ZM44.3036 54.1679L43.831 54.0277L43.0705 56.5925L43.5431 56.7327L44.0158 56.8728L44.7763 54.308L44.3036 54.1679ZM43.5431 56.7327V56.2397H42.4695V56.7327V57.2256H43.5431V56.7327ZM48.1658 54.2573L47.673 54.2692L47.6845 54.7503H48.1658V54.2573ZM48.464 50.9022L48.9444 51.0127L48.9447 51.0116L48.464 50.9022ZM49.5228 48.2777L49.938 48.5434L49.9395 48.5409L49.5228 48.2777ZM51.1631 46.3243L51.4902 46.693L51.4906 46.6927L51.1631 46.3243ZM53.3551 44.8182L53.5879 45.2528L53.5963 45.2481L53.3551 44.8182ZM54.9357 44.0279L55.1423 44.4754L55.1453 44.474L54.9357 44.0279ZM56.5909 43.2524L56.3862 42.804L56.3825 42.8057L56.5909 43.2524ZM59.3347 41.4481L58.9809 41.1048L58.9757 41.1103L59.3347 41.4481ZM59.275 35.4983L58.9222 35.8426L58.9243 35.8448L59.275 35.4983ZM53.6682 34.5589L53.5291 34.086L53.5272 34.0865L53.6682 34.5589ZM51.9086 35.3641L51.6352 34.9539L51.6314 34.9565L51.9086 35.3641ZM49.7315 37.3623L49.3868 37.7147L49.7816 38.1009L50.1206 37.6649L49.7315 37.3623ZM48.3596 36.0202L47.9765 35.7101L47.6942 36.0588L48.0149 36.3726L48.3596 36.0202ZM49.9105 34.4694L49.5979 34.0882L49.5941 34.0914L49.9105 34.4694ZM51.4464 33.4256L51.2131 32.9913L51.2098 32.9932L51.4464 33.4256ZM53.4744 32.6502L53.6075 33.1248L53.6113 33.1237L53.4744 32.6502ZM58.9619 32.7993L58.7842 33.2592L58.7888 33.2609L58.9619 32.7993ZM61.0794 34.1712L60.7157 34.5041L60.7217 34.5104L61.0794 34.1712ZM62.332 36.1545L61.8722 36.3322L61.873 36.3343L62.332 36.1545ZM62.6451 39.7333L62.1622 39.6342L62.6451 39.7333ZM62.3469 40.7771L61.887 40.5991L61.8823 40.6122L62.3469 40.7771ZM61.8548 41.6867L61.4573 41.3952L61.4555 41.3976L61.8548 41.6867ZM60.5127 43.1332L60.8065 43.5291L60.8145 43.5229L60.5127 43.1332ZM59.7075 43.6998L59.9722 44.1157L59.9768 44.1127L59.7075 43.6998ZM58.8277 44.2068L59.0578 44.6428L59.0621 44.6405L58.8277 44.2068ZM57.9628 44.6542L58.1668 45.1029L58.1751 45.0991L58.1833 45.0951L57.9628 44.6542ZM57.0681 45.0717L57.2695 45.5218L57.2791 45.5172L57.0681 45.0717ZM56.233 45.4594L56.4357 45.9088L56.4447 45.9047L56.4535 45.9003L56.233 45.4594ZM53.6235 46.876L53.8969 47.2862L53.8982 47.2853L53.6235 46.876ZM51.9385 48.233L51.5817 47.8928L51.5815 47.893L51.9385 48.233ZM50.5517 50.9767L51.0369 51.0638L51.0372 51.0617L50.5517 50.9767ZM50.4324 52.3635L49.9395 52.3544L49.9302 52.8565H50.4324V52.3635ZM62.7942 52.3635H63.2872V51.8706H62.7942V52.3635ZM62.7942 54.2573V54.7503H63.2872V54.2573H62.7942ZM48.1658 54.2573L48.6586 54.2455C48.6296 53.0354 48.7268 51.9591 48.9444 51.0127L48.464 50.9022L47.9836 50.7917C47.744 51.8335 47.6424 52.994 47.673 54.2692L48.1658 54.2573ZM48.464 50.9022L48.9447 51.0116C49.1627 50.0542 49.496 49.234 49.938 48.5434L49.5228 48.2777L49.1076 48.012C48.5952 48.8126 48.2226 49.7421 47.9834 50.7927L48.464 50.9022ZM49.5228 48.2777L49.9395 48.5409C50.394 47.8213 50.9113 47.2065 51.4902 46.693L51.1631 46.3243L50.8359 45.9555C50.1821 46.5355 49.6058 47.223 49.106 48.0145L49.5228 48.2777ZM51.1631 46.3243L51.4906 46.6927C52.0845 46.1647 52.7825 45.6841 53.5879 45.2527L53.3551 44.8182L53.1223 44.3837C52.2575 44.8469 51.4942 45.3704 50.8356 45.9558L51.1631 46.3243ZM53.3551 44.8182L53.5963 45.2481C53.9883 45.0282 54.5025 44.7707 55.1423 44.4754L54.9357 44.0279L54.7292 43.5803C54.0766 43.8815 53.537 44.1509 53.1139 44.3883L53.3551 44.8182ZM54.9357 44.0279L55.1453 44.474C55.8012 44.166 56.3525 43.9077 56.7994 43.6992L56.5909 43.2524L56.3825 42.8057C55.9346 43.0147 55.3825 43.2734 54.7262 43.5817L54.9357 44.0279ZM56.5909 43.2524L56.7957 43.7009C57.276 43.4816 57.7869 43.2024 58.3277 42.8657L58.0672 42.4472L57.8066 42.0287C57.2937 42.3481 56.8204 42.6058 56.3862 42.804L56.5909 43.2524ZM58.0672 42.4472L58.3277 42.8657C58.8795 42.5222 59.3384 42.1634 59.6937 41.786L59.3347 41.4481L58.9757 41.1103C58.6947 41.4089 58.3087 41.7161 57.8066 42.0287L58.0672 42.4472ZM59.3347 41.4481L59.6884 41.7915C60.0631 41.4055 60.3673 40.9367 60.606 40.3941L60.1548 40.1955L59.7036 39.997C59.505 40.4485 59.2624 40.8148 58.981 41.1048L59.3347 41.4481ZM60.1548 40.1955L60.606 40.3941C60.8549 39.8285 60.9759 39.2133 60.9759 38.5552H60.4829H59.9899C59.9899 39.0901 59.8922 39.5684 59.7036 39.997L60.1548 40.1955ZM60.4829 38.5552H60.9759C60.9759 37.2124 60.5287 36.066 59.6257 35.1519L59.275 35.4983L58.9243 35.8448C59.6319 36.561 59.9899 37.4525 59.9899 38.5552H60.4829ZM59.275 35.4983L59.6278 35.154C58.7036 34.2069 57.4014 33.7677 55.8006 33.7677V34.2607V34.7536C57.2219 34.7536 58.2361 35.1395 58.9223 35.8426L59.275 35.4983ZM55.8006 34.2607V33.7677C55.0107 33.7677 54.2529 33.8731 53.5291 34.086L53.6682 34.5589L53.8073 35.0318C54.4356 34.847 55.0994 34.7536 55.8006 34.7536V34.2607ZM53.6682 34.5589L53.5272 34.0865C52.8207 34.2975 52.1883 34.5852 51.6352 34.954L51.9086 35.3641L52.1821 35.7743C52.643 35.467 53.1837 35.218 53.8092 35.0312L53.6682 34.5589ZM51.9086 35.3641L51.6314 34.9565C51.1188 35.3051 50.6797 35.6491 50.3182 35.9893L50.6561 36.3483L50.9939 36.7073C51.3084 36.4112 51.7043 36.0992 52.1858 35.7718L51.9086 35.3641ZM50.6561 36.3483L50.3182 35.9893C49.9621 36.3245 49.6367 36.6812 49.3424 37.0597L49.7315 37.3623L50.1206 37.6649C50.383 37.3276 50.674 37.0084 50.9939 36.7073L50.6561 36.3483ZM49.7315 37.3623L50.0762 37.0099L48.7044 35.6679L48.3596 36.0202L48.0149 36.3726L49.3868 37.7147L49.7315 37.3623ZM48.3596 36.0202L48.7428 36.3304C48.9058 36.129 49.0789 35.9271 49.262 35.7247L48.8965 35.394L48.5309 35.0632C48.3363 35.2784 48.1514 35.494 47.9765 35.7101L48.3596 36.0202ZM48.8965 35.394L49.262 35.7247C49.426 35.5434 49.741 35.254 50.2268 34.8475L49.9105 34.4694L49.5941 34.0914C49.1057 34.5001 48.7446 34.827 48.5309 35.0632L48.8965 35.394ZM49.9105 34.4694L50.223 34.8506C50.6981 34.4611 51.1848 34.1307 51.683 33.858L51.4464 33.4256L51.2098 32.9932C50.6542 33.2971 50.117 33.6626 49.5979 34.0882L49.9105 34.4694ZM51.4464 33.4256L51.6796 33.8599C52.175 33.5938 52.8147 33.3472 53.6075 33.1248L53.4744 32.6502L53.3412 32.1756C52.5037 32.4105 51.7914 32.6808 51.2131 32.9913L51.4464 33.4256ZM53.4744 32.6502L53.6113 33.1237C54.3911 32.8983 55.1949 32.7853 56.0243 32.7853V32.2923V31.7994C55.104 31.7994 54.2079 31.9249 53.3374 32.1766L53.4744 32.6502ZM56.0243 32.2923V32.7853C57.0564 32.7853 57.9742 32.9461 58.7842 33.2591L58.9619 32.7993L59.1396 32.3395C58.2 31.9765 57.1593 31.7994 56.0243 31.7994V32.2923ZM58.9619 32.7993L58.7888 33.2609C59.6036 33.5664 60.2398 33.9841 60.7157 34.504L61.0794 34.1712L61.443 33.8384C60.8453 33.1853 60.0699 32.6883 59.135 32.3377L58.9619 32.7993ZM61.0794 34.1712L60.7217 34.5104C61.2239 35.04 61.6069 35.6462 61.8722 36.3322L62.332 36.1545L62.7917 35.9767C62.4804 35.1715 62.0283 34.4555 61.4371 33.832L61.0794 34.1712ZM62.332 36.1545L61.873 36.3343C62.1373 37.0088 62.2714 37.7377 62.2714 38.5254H62.7644H63.2574C63.2574 37.6232 63.1032 36.7714 62.7909 35.9746L62.332 36.1545ZM62.7644 38.5254H62.2714C62.2714 38.9115 62.2347 39.2808 62.1622 39.6342L62.6451 39.7333L63.128 39.8323C63.2146 39.4103 63.2574 38.9744 63.2574 38.5254H62.7644ZM62.6451 39.7333L62.1622 39.6342C62.0872 40.0001 61.9948 40.321 61.8872 40.5991L62.3469 40.7771L62.8066 40.955C62.9375 40.6168 63.044 40.2418 63.128 39.8323L62.6451 39.7333ZM62.3469 40.7771L61.8823 40.6122C61.791 40.8697 61.6512 41.1307 61.4573 41.3952L61.8548 41.6867L62.2523 41.9782C62.4958 41.6462 62.6841 41.3009 62.8114 40.9419L62.3469 40.7771ZM61.8548 41.6867L61.4555 41.3976C61.2532 41.677 61.0631 41.9191 60.8852 42.125L61.2583 42.4472L61.6314 42.7694C61.8313 42.538 62.0388 42.273 62.254 41.9758L61.8548 41.6867ZM61.2583 42.4472L60.8852 42.125C60.7238 42.312 60.5015 42.5184 60.211 42.7434L60.5127 43.1332L60.8145 43.5229C61.1403 43.2707 61.4151 43.0198 61.6314 42.7694L61.2583 42.4472ZM60.5127 43.1332L60.219 42.7373C59.9159 42.9622 59.656 43.1449 59.4382 43.2869L59.7075 43.6998L59.9768 44.1127C60.2163 43.9565 60.4932 43.7614 60.8064 43.529L60.5127 43.1332ZM59.7075 43.6998L59.4428 43.2839C59.2381 43.4142 58.9562 43.577 58.5933 43.7731L58.8277 44.2068L59.0621 44.6405C59.4348 44.439 59.7395 44.2637 59.9721 44.1157L59.7075 43.6998ZM58.8277 44.2068L58.5976 43.7708C58.2411 43.959 57.9564 44.1062 57.7424 44.2132L57.9628 44.6542L58.1833 45.0951C58.4066 44.9834 58.6985 44.8324 59.0578 44.6428L58.8277 44.2068ZM57.9628 44.6542L57.7588 44.2054C57.5367 44.3064 57.2358 44.4468 56.8571 44.6262L57.0681 45.0717L57.2791 45.5172C57.656 45.3387 57.9515 45.2008 58.1668 45.1029L57.9628 44.6542ZM57.0681 45.0717L56.8668 44.6217C56.4879 44.7912 56.2015 44.924 56.0126 45.0185L56.233 45.4594L56.4535 45.9003C56.6225 45.8158 56.8928 45.6901 57.2694 45.5217L57.0681 45.0717ZM56.233 45.4594L56.0304 45.01C54.9977 45.4757 54.1025 45.9608 53.3488 46.4667L53.6235 46.876L53.8982 47.2853C54.5959 46.817 55.4404 46.3576 56.4357 45.9088L56.233 45.4594ZM53.6235 46.876L53.3501 46.4658C52.6164 46.9549 52.0229 47.43 51.5817 47.8928L51.9385 48.233L52.2952 48.5731C52.6692 48.181 53.199 47.7514 53.8969 47.2862L53.6235 46.876ZM51.9385 48.233L51.5815 47.893C51.147 48.3493 50.802 48.8576 50.5497 49.4171L50.999 49.6198L51.4484 49.8224C51.6534 49.3679 51.9347 48.9517 52.2954 48.5729L51.9385 48.233ZM50.999 49.6198L50.5497 49.4171C50.3099 49.9486 50.1449 50.4415 50.0661 50.8918L50.5517 50.9767L51.0372 51.0617C51.0976 50.7167 51.2308 50.3049 51.4484 49.8224L50.999 49.6198ZM50.5517 50.9767L50.0665 50.8897C49.9909 51.3104 49.9498 51.8001 49.9395 52.3544L50.4324 52.3635L50.9252 52.3727C50.9349 51.8533 50.9732 51.4185 51.0369 51.0638L50.5517 50.9767ZM50.4324 52.3635V52.8565H62.7942V52.3635V51.8706H50.4324V52.3635ZM62.7942 52.3635H62.3013V54.2573H62.7942H63.2872V52.3635H62.7942ZM62.7942 54.2573V53.7644H48.1658V54.2573V54.7503H62.7942V54.2573ZM75.9017 54.2573H75.4087V54.7503H75.9017V54.2573ZM75.9017 48.4567H76.3946V47.9637H75.9017V48.4567ZM65.2398 48.4567H64.7468V48.9496H65.2398V48.4567ZM65.2398 46.5927L64.856 46.2832L64.7468 46.4187V46.5927H65.2398ZM76.5429 32.5756V32.0827H76.3071L76.1591 32.2662L76.5429 32.5756ZM77.9744 32.5756H78.4673V32.0827H77.9744V32.5756ZM77.9744 46.5629H77.4814V47.0558H77.9744V46.5629ZM80.6585 46.5629H81.1515V46.0699H80.6585V46.5629ZM80.6585 48.4567V48.9496H81.1515V48.4567H80.6585ZM77.9744 48.4567V47.9637H77.4814V48.4567H77.9744ZM77.9744 54.2573V54.7503H78.4673V54.2573H77.9744ZM67.4765 46.5629L67.0916 46.2548L66.4506 47.0558H67.4765V46.5629ZM76.0806 46.5629V47.0558H76.5736V46.5629H76.0806ZM76.0806 35.8115H76.5736V34.4066L75.6957 35.5035L76.0806 35.8115ZM75.9017 54.2573H76.3946V48.4567H75.9017H75.4087V54.2573H75.9017ZM75.9017 48.4567V47.9637H65.2398V48.4567V48.9496H75.9017V48.4567ZM65.2398 48.4567H65.7327V46.5927H65.2398H64.7468V48.4567H65.2398ZM65.2398 46.5927L65.6235 46.9021L76.9266 32.8851L76.5429 32.5756L76.1591 32.2662L64.856 46.2832L65.2398 46.5927ZM76.5429 32.5756V33.0686H77.9744V32.5756V32.0827H76.5429V32.5756ZM77.9744 32.5756H77.4814V46.5629H77.9744H78.4673V32.5756H77.9744ZM77.9744 46.5629V47.0558H80.6585V46.5629V46.0699H77.9744V46.5629ZM80.6585 46.5629H80.1656V48.4567H80.6585H81.1515V46.5629H80.6585ZM80.6585 48.4567V47.9637H77.9744V48.4567V48.9496H80.6585V48.4567ZM77.9744 48.4567H77.4814V54.2573H77.9744H78.4673V48.4567H77.9744ZM77.9744 54.2573V53.7644H75.9017V54.2573V54.7503H77.9744V54.2573ZM67.4765 46.5629V47.0558H76.0806V46.5629V46.0699H67.4765V46.5629ZM76.0806 46.5629H76.5736V35.8115H76.0806H75.5876V46.5629H76.0806ZM76.0806 35.8115L75.6957 35.5035L67.0916 46.2548L67.4765 46.5629L67.8614 46.8709L76.4655 36.1195L76.0806 35.8115ZM95.4808 54.2573L95.0811 54.5459L95.2287 54.7503H95.4808V54.2573ZM89.5907 46.1006L89.9903 45.812L89.6621 45.3575L89.2533 45.7411L89.5907 46.1006ZM86.2057 49.2768L85.8684 48.9173L85.7127 49.0634V49.2768H86.2057ZM86.2057 54.2573V54.7503H86.6986V54.2573H86.2057ZM84.1329 54.2573H83.64V54.7503H84.1329V54.2573ZM84.1329 31.9642V31.4713H83.64V31.9642H84.1329ZM86.2057 31.9642H86.6986V31.4713H86.2057V31.9642ZM86.2057 47.0549H85.7127V48.2145L86.5477 47.4099L86.2057 47.0549ZM95.2124 38.3763V37.8834H95.0135L94.8703 38.0213L95.2124 38.3763ZM97.5088 38.3763L97.857 38.7253L98.7008 37.8834H97.5088V38.3763ZM90.9924 44.8778L90.6442 44.5289L90.3471 44.8253L90.5923 45.1659L90.9924 44.8778ZM97.7474 54.2573V54.7503H98.7099L98.1474 53.9692L97.7474 54.2573ZM95.4808 54.2573L95.8804 53.9687L89.9903 45.812L89.5907 46.1006L89.191 46.3892L95.0811 54.5459L95.4808 54.2573ZM89.5907 46.1006L89.2533 45.7411L85.8684 48.9173L86.2057 49.2768L86.543 49.6363L89.928 46.4601L89.5907 46.1006ZM86.2057 49.2768H85.7127V54.2573H86.2057H86.6986V49.2768H86.2057ZM86.2057 54.2573V53.7644H84.1329V54.2573V54.7503H86.2057V54.2573ZM84.1329 54.2573H84.6259V31.9642H84.1329H83.64V54.2573H84.1329ZM84.1329 31.9642V32.4572H86.2057V31.9642V31.4713H84.1329V31.9642ZM86.2057 31.9642H85.7127V47.0549H86.2057H86.6986V31.9642H86.2057ZM86.2057 47.0549L86.5477 47.4099L95.5544 38.7313L95.2124 38.3763L94.8703 38.0213L85.8636 46.7L86.2057 47.0549ZM95.2124 38.3763V38.8693H97.5088V38.3763V37.8834H95.2124V38.3763ZM97.5088 38.3763L97.1606 38.0273L90.6442 44.5289L90.9924 44.8778L91.3405 45.2268L97.857 38.7253L97.5088 38.3763ZM90.9924 44.8778L90.5923 45.1659L97.3474 54.5454L97.7474 54.2573L98.1474 53.9692L91.3924 44.5897L90.9924 44.8778ZM97.7474 54.2573V53.7644H95.4808V54.2573V54.7503H97.7474V54.2573ZM123.992 54.2573V54.7503H124.485V54.2573H123.992ZM121.919 54.2573H121.426V54.7503H121.919V54.2573ZM115.179 41.2394L114.852 40.8703L114.851 40.872L115.179 41.2394ZM113.181 44.5498L112.707 44.4148L112.688 44.481V44.5498H113.181ZM113.181 54.2573V54.7503H113.674V54.2573H113.181ZM111.108 54.2573H110.615V54.7503H111.108V54.2573ZM110.243 41.2692L109.831 41.5393L109.833 41.5426L110.243 41.2692ZM104.413 41.2244L104.088 40.8535L104.086 40.8552L104.413 41.2244ZM102.4 44.5199L101.927 44.3818L101.907 44.4495V44.5199H102.4ZM102.4 54.2573V54.7503H102.893V54.2573H102.4ZM100.327 54.2573H99.8342V54.7503H100.327V54.2573ZM100.327 38.3465V37.8535H99.8342V38.3465H100.327ZM102.221 38.3465H102.714V37.8535H102.221V38.3465ZM102.221 41.9551H101.728L102.656 42.1867L102.221 41.9551ZM104.786 39.0921L104.521 38.676L104.52 38.6772L104.786 39.0921ZM113.002 42.1639L112.515 42.2386L112.736 43.6844L113.435 42.3994L113.002 42.1639ZM122.844 39.8675L122.429 40.1337L122.43 40.1353L122.844 39.8675ZM123.992 54.2573V53.7644H121.919V54.2573V54.7503H123.992V54.2573ZM121.919 54.2573H122.412V45.3699H121.919H121.426V54.2573H121.919ZM121.919 45.3699H122.412C122.412 43.5327 122.116 42.0695 121.452 41.0522C120.765 39.9983 119.722 39.4789 118.4 39.4789V39.9719V40.4648C119.425 40.4648 120.141 40.8451 120.627 41.5906C121.136 42.3726 121.426 43.6084 121.426 45.3699H121.919ZM118.4 39.9719V39.4789C117.078 39.4789 115.89 39.9514 114.852 40.8703L115.179 41.2394L115.506 41.6084C116.377 40.8373 117.336 40.4648 118.4 40.4648V39.9719ZM115.179 41.2394L114.851 40.872C113.829 41.7863 113.117 42.9741 112.707 44.4148L113.181 44.5498L113.655 44.6847C114.02 43.4016 114.641 42.3824 115.508 41.6067L115.179 41.2394ZM113.181 44.5498H112.688V54.2573H113.181H113.674V44.5498H113.181ZM113.181 54.2573V53.7644H111.108V54.2573V54.7503H113.181V54.2573ZM111.108 54.2573H111.601V45.3699H111.108H110.615V54.2573H111.108ZM111.108 45.3699H111.601C111.601 43.4711 111.312 41.9838 110.654 40.9957L110.243 41.2692L109.833 41.5426C110.328 42.2844 110.615 43.5308 110.615 45.3699H111.108ZM110.243 41.2692L110.656 40.999C109.984 39.9732 108.94 39.4789 107.619 39.4789V39.9719V40.4648C108.664 40.4648 109.37 40.8354 109.831 41.5393L110.243 41.2692ZM107.619 39.9719V39.4789C106.308 39.4789 105.126 39.9459 104.088 40.8535L104.413 41.2244L104.738 41.5954C105.609 40.8329 106.564 40.4648 107.619 40.4648V39.9719ZM104.413 41.2244L104.086 40.8552C103.064 41.7594 102.347 42.942 101.927 44.3818L102.4 44.5199L102.873 44.6581C103.248 43.374 103.873 42.3596 104.739 41.5937L104.413 41.2244ZM102.4 44.5199H101.907V54.2573H102.4H102.893V44.5199H102.4ZM102.4 54.2573V53.7644H100.327V54.2573V54.7503H102.4V54.2573ZM100.327 54.2573H100.82V38.3465H100.327H99.8342V54.2573H100.327ZM100.327 38.3465V38.8394H102.221V38.3465V37.8535H100.327V38.3465ZM102.221 38.3465H101.728V41.9551H102.221H102.714V38.3465H102.221ZM102.221 41.9551L102.656 42.1867C103.277 41.0198 104.077 40.1323 105.052 39.507L104.786 39.0921L104.52 38.6772C103.387 39.4039 102.477 40.425 101.786 41.7235L102.221 41.9551ZM104.786 39.0921L105.05 39.5081C106.034 38.8829 107.11 38.571 108.29 38.571V38.0781V37.5851C106.925 37.5851 105.665 37.9493 104.521 38.676L104.786 39.0921ZM108.29 38.0781V38.571C109.492 38.571 110.431 38.9122 111.151 39.5622L111.481 39.1964L111.812 38.8307C110.881 37.9895 109.692 37.5851 108.29 37.5851V38.0781ZM111.481 39.1964L111.151 39.5622C111.881 40.2224 112.341 41.1036 112.515 42.2386L113.002 42.1639L113.489 42.0892C113.286 40.7588 112.731 39.6616 111.812 38.8307L111.481 39.1964ZM113.002 42.1639L113.435 42.3994C114.85 39.798 116.745 38.571 119.131 38.571V38.0781V37.5851C116.308 37.5851 114.117 39.082 112.569 41.9284L113.002 42.1639ZM119.131 38.0781V38.571C120.713 38.571 121.774 39.1127 122.429 40.1337L122.844 39.8675L123.259 39.6013C122.383 38.2364 120.969 37.5851 119.131 37.5851V38.0781ZM122.844 39.8675L122.43 40.1353C123.122 41.2055 123.499 42.7866 123.499 44.9375H123.992H124.485C124.485 42.6944 124.096 40.8955 123.258 39.5997L122.844 39.8675ZM123.992 44.9375H123.499V54.2573H123.992H124.485V44.9375H123.992Z" fill="white" mask="url(#path-3-outside-2_25491_4)"/>
</svg>
