<svg width="128" height="59" viewBox="0 0 128 59" fill="none" xmlns="http://www.w3.org/2000/svg">
<mask id="path-1-outside-1_25491_5" maskUnits="userSpaceOnUse" x="7.5" y="11.2168" width="32" height="47" fill="black">
<rect fill="white" x="7.5" y="11.2168" width="32" height="47"/>
<path d="M22.8445 57.8349C19.6717 57.8349 16.7976 57.0623 14.2223 55.5171C11.6675 53.9513 9.73088 51.8395 8.4123 49.1817L11.3173 47.0185C12.471 49.1199 14.0884 50.7991 16.1692 52.0558C18.2501 53.3126 20.4958 53.941 22.9063 53.941C26.0791 53.941 28.7266 52.9211 30.8487 50.8815C32.9707 48.8418 34.0318 46.2252 34.0318 43.0318C34.0318 39.962 33.0016 37.4382 30.9414 35.4603C28.8811 33.4619 26.3264 32.4626 23.2772 32.4626C21.2993 32.4626 19.4348 32.9056 17.6835 33.7915C15.9529 34.6774 14.5313 35.9239 13.4188 37.5309H9.37033L14.4077 12.2823H36.1333V16.2689H17.6526L14.5004 32.4008C16.8079 29.9079 19.9086 28.6614 23.8025 28.6614C27.9231 28.6614 31.3843 30.0109 34.1863 32.7099C37.0089 35.3882 38.4202 38.8083 38.4202 42.97C38.4202 45.8544 37.7197 48.44 36.3187 50.7269C34.9177 53.0138 33.0326 54.7754 30.6632 56.0115C28.3145 57.2271 25.7083 57.8349 22.8445 57.8349Z"/>
</mask>
<path d="M22.8445 57.8349C19.6717 57.8349 16.7976 57.0623 14.2223 55.5171C11.6675 53.9513 9.73088 51.8395 8.4123 49.1817L11.3173 47.0185C12.471 49.1199 14.0884 50.7991 16.1692 52.0558C18.2501 53.3126 20.4958 53.941 22.9063 53.941C26.0791 53.941 28.7266 52.9211 30.8487 50.8815C32.9707 48.8418 34.0318 46.2252 34.0318 43.0318C34.0318 39.962 33.0016 37.4382 30.9414 35.4603C28.8811 33.4619 26.3264 32.4626 23.2772 32.4626C21.2993 32.4626 19.4348 32.9056 17.6835 33.7915C15.9529 34.6774 14.5313 35.9239 13.4188 37.5309H9.37033L14.4077 12.2823H36.1333V16.2689H17.6526L14.5004 32.4008C16.8079 29.9079 19.9086 28.6614 23.8025 28.6614C27.9231 28.6614 31.3843 30.0109 34.1863 32.7099C37.0089 35.3882 38.4202 38.8083 38.4202 42.97C38.4202 45.8544 37.7197 48.44 36.3187 50.7269C34.9177 53.0138 33.0326 54.7754 30.6632 56.0115C28.3145 57.2271 25.7083 57.8349 22.8445 57.8349Z" fill="white"/>
<path d="M14.2223 55.5171L14.0298 55.8311L14.0328 55.8329L14.2223 55.5171ZM8.4123 49.1817L8.19234 48.8864L7.94574 49.07L8.08238 49.3454L8.4123 49.1817ZM11.3173 47.0185L11.6401 46.8412L11.4366 46.4704L11.0973 46.7231L11.3173 47.0185ZM30.9414 35.4603L30.6849 35.7247L30.6863 35.726L30.9414 35.4603ZM17.6835 33.7915L17.5173 33.4629L17.5157 33.4637L17.6835 33.7915ZM13.4188 37.5309V37.8992H13.6117L13.7216 37.7405L13.4188 37.5309ZM9.37033 37.5309L9.00916 37.4588L8.9213 37.8992H9.37033V37.5309ZM14.4077 12.2823V11.914H14.1056L14.0465 12.2102L14.4077 12.2823ZM36.1333 12.2823H36.5016V11.914H36.1333V12.2823ZM36.1333 16.2689V16.6372H36.5016V16.2689H36.1333ZM17.6526 16.2689V15.9006H17.3493L17.2912 16.1983L17.6526 16.2689ZM14.5004 32.4008L14.139 32.3302L13.8904 33.602L14.7707 32.651L14.5004 32.4008ZM34.1863 32.7099L33.9308 32.9751L33.9328 32.977L34.1863 32.7099ZM36.3187 50.7269L36.6327 50.9193L36.3187 50.7269ZM30.6632 56.0115L30.8325 56.3386L30.8336 56.3381L30.6632 56.0115ZM22.8445 57.8349V57.4666C19.7345 57.4666 16.9266 56.7102 14.4118 55.2013L14.2223 55.5171L14.0328 55.8329C16.6686 57.4144 19.6089 58.2032 22.8445 58.2032V57.8349ZM14.2223 55.5171L14.4147 55.2031C11.9184 53.6731 10.0297 51.6131 8.74222 49.0181L8.4123 49.1817L8.08238 49.3454C9.43206 52.0659 11.4167 54.2295 14.0298 55.8311L14.2223 55.5171ZM8.4123 49.1817L8.63227 49.4771L11.5373 47.3138L11.3173 47.0185L11.0973 46.7231L8.19234 48.8864L8.4123 49.1817ZM11.3173 47.0185L10.9945 47.1957C12.1799 49.3549 13.8432 51.0813 15.9788 52.3711L16.1692 52.0558L16.3596 51.7406C14.3335 50.5168 12.7622 48.885 11.6401 46.8412L11.3173 47.0185ZM16.1692 52.0558L15.9788 52.3711C18.1166 53.6622 20.4281 54.3093 22.9063 54.3093V53.941V53.5727C20.5635 53.5727 18.3836 52.9629 16.3596 51.7406L16.1692 52.0558ZM22.9063 53.941V54.3093C26.1661 54.3093 28.9075 53.258 31.1039 51.147L30.8487 50.8815L30.5935 50.6159C28.5456 52.5842 25.9921 53.5727 22.9063 53.5727V53.941ZM30.8487 50.8815L31.1039 51.147C33.3047 49.0316 34.4001 46.316 34.4001 43.0318H34.0318H33.6635C33.6635 46.1345 32.6367 48.652 30.5935 50.6159L30.8487 50.8815ZM34.0318 43.0318H34.4001C34.4001 39.8701 33.3349 37.2475 31.1964 35.1946L30.9414 35.4603L30.6863 35.726C32.6684 37.6288 33.6635 40.0539 33.6635 43.0318H34.0318ZM30.9414 35.4603L31.1978 35.196C29.0642 33.1264 26.4155 32.0943 23.2772 32.0943V32.4626V32.8309C26.2372 32.8309 28.698 33.7973 30.6849 35.7247L30.9414 35.4603ZM23.2772 32.4626V32.0943C21.242 32.0943 19.3205 32.5507 17.5173 33.4629L17.6835 33.7915L17.8498 34.1201C19.5491 33.2605 21.3566 32.8309 23.2772 32.8309V32.4626ZM17.6835 33.7915L17.5157 33.4637C15.7307 34.3774 14.2629 35.6646 13.116 37.3213L13.4188 37.5309L13.7216 37.7405C14.7997 36.1832 16.1751 34.9774 17.8513 34.1193L17.6835 33.7915ZM13.4188 37.5309V37.1626H9.37033V37.5309V37.8992H13.4188V37.5309ZM9.37033 37.5309L9.7315 37.603L14.7689 12.3543L14.4077 12.2823L14.0465 12.2102L9.00916 37.4588L9.37033 37.5309ZM14.4077 12.2823V12.6506H36.1333V12.2823V11.914H14.4077V12.2823ZM36.1333 12.2823H35.765V16.2689H36.1333H36.5016V12.2823H36.1333ZM36.1333 16.2689V15.9006H17.6526V16.2689V16.6372H36.1333V16.2689ZM17.6526 16.2689L17.2912 16.1983L14.139 32.3302L14.5004 32.4008L14.8619 32.4715L18.0141 16.3395L17.6526 16.2689ZM14.5004 32.4008L14.7707 32.651C16.998 30.2447 19.9947 29.0297 23.8025 29.0297V28.6614V28.2931C19.8225 28.2931 16.6178 29.5711 14.2301 32.1506L14.5004 32.4008ZM23.8025 28.6614V29.0297C27.834 29.0297 31.2018 30.3465 33.9308 32.9751L34.1863 32.7099L34.4418 32.4446C31.5669 29.6754 28.0121 28.2931 23.8025 28.2931V28.6614ZM34.1863 32.7099L33.9328 32.977C36.6766 35.5806 38.0519 38.9014 38.0519 42.97H38.4202H38.7885C38.7885 38.7151 37.3412 35.1958 34.4398 32.4427L34.1863 32.7099ZM38.4202 42.97H38.0519C38.0519 45.7918 37.3675 48.3099 36.0046 50.5346L36.3187 50.7269L36.6327 50.9193C38.0719 48.5701 38.7885 45.917 38.7885 42.97H38.4202ZM36.3187 50.7269L36.0046 50.5346C34.6384 52.7648 32.8028 54.4798 30.4929 55.685L30.6632 56.0115L30.8336 56.3381C33.2623 55.0709 35.197 53.2629 36.6327 50.9193L36.3187 50.7269ZM30.6632 56.0115L30.494 55.6845C28.2018 56.8707 25.6544 57.4666 22.8445 57.4666V57.8349V58.2032C25.7622 58.2032 28.4272 57.5835 30.8325 56.3386L30.6632 56.0115Z" fill="white" mask="url(#path-1-outside-1_25491_5)"/>
<mask id="path-3-outside-2_25491_5" maskUnits="userSpaceOnUse" x="40.7031" y="31.2573" width="85" height="26" fill="black">
<rect fill="white" x="40.7031" y="31.2573" width="85" height="26"/>
<path d="M41.7907 56.7327L42.3126 54.1679H41.6117V51.2601H43.6248V54.1679L42.8643 56.7327H41.7907ZM55.6437 39.778C57.0057 39.778 58.2582 40.1061 59.4015 40.7622C60.5447 41.4084 61.4444 42.2931 62.1005 43.4165C62.7666 44.5398 63.0996 45.7725 63.0996 47.1146C63.0996 49.1824 62.354 50.9419 60.8628 52.3934C59.3816 53.8348 57.5624 54.5556 55.4051 54.5556C53.0888 54.5556 51.2099 53.7404 49.7685 52.11C48.327 50.4797 47.6063 48.2727 47.6063 45.4892C47.6063 41.2046 48.322 37.9588 49.7536 35.7518C51.195 33.535 53.1485 32.4265 55.6139 32.4265C57.0454 32.4265 58.3328 32.7844 59.476 33.5002C60.6193 34.2159 61.4891 35.2001 62.0856 36.4527L60.7435 37.6754C60.3161 36.6316 59.6401 35.8015 58.7155 35.1852C57.791 34.5688 56.7571 34.2607 55.6139 34.2607C53.7947 34.2607 52.3432 35.0957 51.2597 36.7658C50.186 38.4359 49.6442 40.7522 49.6343 43.7147C50.0717 42.5218 50.8372 41.5674 51.9307 40.8517C53.0342 40.1359 54.2718 39.778 55.6437 39.778ZM49.7834 47.1146C49.7834 48.6455 50.3451 49.9677 51.4684 51.0811C52.5918 52.1846 53.9239 52.7363 55.4648 52.7363C57.0057 52.7363 58.3328 52.1846 59.4462 51.0811C60.5596 49.9776 61.1163 48.6555 61.1163 47.1146C61.1163 45.5737 60.5546 44.2515 59.4313 43.1481C58.3179 42.0446 56.9858 41.4929 55.4349 41.4929C53.8941 41.4929 52.5669 42.0446 51.4535 43.1481C50.3401 44.2515 49.7834 45.5737 49.7834 47.1146ZM74.0448 39.778C75.4068 39.778 76.6593 40.1061 77.8026 40.7622C78.9458 41.4084 79.8455 42.2931 80.5016 43.4165C81.1677 44.5398 81.5007 45.7725 81.5007 47.1146C81.5007 49.1824 80.7551 50.9419 79.2639 52.3934C77.7827 53.8348 75.9635 54.5556 73.8062 54.5556C71.4899 54.5556 69.6111 53.7404 68.1696 52.11C66.7281 50.4797 66.0074 48.2727 66.0074 45.4892C66.0074 41.2046 66.7231 37.9588 68.1547 35.7518C69.5961 33.535 71.5496 32.4265 74.015 32.4265C75.4465 32.4265 76.7339 32.7844 77.8771 33.5002C79.0204 34.2159 79.8902 35.2001 80.4867 36.4527L79.1446 37.6754C78.7172 36.6316 78.0412 35.8015 77.1166 35.1852C76.1921 34.5688 75.1582 34.2607 74.015 34.2607C72.1958 34.2607 70.7443 35.0957 69.6608 36.7658C68.5871 38.4359 68.0453 40.7522 68.0354 43.7147C68.4728 42.5218 69.2383 41.5674 70.3318 40.8517C71.4353 40.1359 72.6729 39.778 74.0448 39.778ZM68.1845 47.1146C68.1845 48.6455 68.7462 49.9677 69.8695 51.0811C70.9929 52.1846 72.325 52.7363 73.8659 52.7363C75.4068 52.7363 76.7339 52.1846 77.8473 51.0811C78.9607 49.9776 79.5174 48.6555 79.5174 47.1146C79.5174 45.5737 78.9558 44.2515 77.8324 43.1481C76.719 42.0446 75.3869 41.4929 73.8361 41.4929C72.2952 41.4929 70.968 42.0446 69.8546 43.1481C68.7412 44.2515 68.1845 45.5737 68.1845 47.1146ZM96.4721 54.2573L90.582 46.1006L87.197 49.2768V54.2573H85.1243V31.9642H87.197V47.0549L96.2037 38.3763H98.5001L91.9837 44.8778L98.7387 54.2573H96.4721ZM124.983 54.2573H122.911V45.3699C122.911 41.7712 121.738 39.9719 119.391 39.9719C118.199 39.9719 117.125 40.3944 116.171 41.2394C115.226 42.0844 114.56 43.1878 114.172 44.5498V54.2573H112.1V45.3699C112.1 43.501 111.811 42.1341 111.235 41.2692C110.668 40.4043 109.793 39.9719 108.61 39.9719C107.427 39.9719 106.359 40.3894 105.404 41.2244C104.46 42.0595 103.789 43.158 103.391 44.5199V54.2573H101.318V38.3465H103.212V41.9551C103.868 40.7224 104.723 39.7681 105.777 39.0921C106.841 38.4161 108.009 38.0781 109.281 38.0781C110.584 38.0781 111.647 38.4509 112.472 39.1964C113.298 39.942 113.805 40.9312 113.993 42.1639C115.475 39.44 117.518 38.0781 120.122 38.0781C121.832 38.0781 123.07 38.6745 123.835 39.8675C124.601 41.0505 124.983 42.7405 124.983 44.9375V54.2573Z"/>
</mask>
<path d="M41.7907 56.7327L42.3126 54.1679H41.6117V51.2601H43.6248V54.1679L42.8643 56.7327H41.7907ZM55.6437 39.778C57.0057 39.778 58.2582 40.1061 59.4015 40.7622C60.5447 41.4084 61.4444 42.2931 62.1005 43.4165C62.7666 44.5398 63.0996 45.7725 63.0996 47.1146C63.0996 49.1824 62.354 50.9419 60.8628 52.3934C59.3816 53.8348 57.5624 54.5556 55.4051 54.5556C53.0888 54.5556 51.2099 53.7404 49.7685 52.11C48.327 50.4797 47.6063 48.2727 47.6063 45.4892C47.6063 41.2046 48.322 37.9588 49.7536 35.7518C51.195 33.535 53.1485 32.4265 55.6139 32.4265C57.0454 32.4265 58.3328 32.7844 59.476 33.5002C60.6193 34.2159 61.4891 35.2001 62.0856 36.4527L60.7435 37.6754C60.3161 36.6316 59.6401 35.8015 58.7155 35.1852C57.791 34.5688 56.7571 34.2607 55.6139 34.2607C53.7947 34.2607 52.3432 35.0957 51.2597 36.7658C50.186 38.4359 49.6442 40.7522 49.6343 43.7147C50.0717 42.5218 50.8372 41.5674 51.9307 40.8517C53.0342 40.1359 54.2718 39.778 55.6437 39.778ZM49.7834 47.1146C49.7834 48.6455 50.3451 49.9677 51.4684 51.0811C52.5918 52.1846 53.9239 52.7363 55.4648 52.7363C57.0057 52.7363 58.3328 52.1846 59.4462 51.0811C60.5596 49.9776 61.1163 48.6555 61.1163 47.1146C61.1163 45.5737 60.5546 44.2515 59.4313 43.1481C58.3179 42.0446 56.9858 41.4929 55.4349 41.4929C53.8941 41.4929 52.5669 42.0446 51.4535 43.1481C50.3401 44.2515 49.7834 45.5737 49.7834 47.1146ZM74.0448 39.778C75.4068 39.778 76.6593 40.1061 77.8026 40.7622C78.9458 41.4084 79.8455 42.2931 80.5016 43.4165C81.1677 44.5398 81.5007 45.7725 81.5007 47.1146C81.5007 49.1824 80.7551 50.9419 79.2639 52.3934C77.7827 53.8348 75.9635 54.5556 73.8062 54.5556C71.4899 54.5556 69.6111 53.7404 68.1696 52.11C66.7281 50.4797 66.0074 48.2727 66.0074 45.4892C66.0074 41.2046 66.7231 37.9588 68.1547 35.7518C69.5961 33.535 71.5496 32.4265 74.015 32.4265C75.4465 32.4265 76.7339 32.7844 77.8771 33.5002C79.0204 34.2159 79.8902 35.2001 80.4867 36.4527L79.1446 37.6754C78.7172 36.6316 78.0412 35.8015 77.1166 35.1852C76.1921 34.5688 75.1582 34.2607 74.015 34.2607C72.1958 34.2607 70.7443 35.0957 69.6608 36.7658C68.5871 38.4359 68.0453 40.7522 68.0354 43.7147C68.4728 42.5218 69.2383 41.5674 70.3318 40.8517C71.4353 40.1359 72.6729 39.778 74.0448 39.778ZM68.1845 47.1146C68.1845 48.6455 68.7462 49.9677 69.8695 51.0811C70.9929 52.1846 72.325 52.7363 73.8659 52.7363C75.4068 52.7363 76.7339 52.1846 77.8473 51.0811C78.9607 49.9776 79.5174 48.6555 79.5174 47.1146C79.5174 45.5737 78.9558 44.2515 77.8324 43.1481C76.719 42.0446 75.3869 41.4929 73.8361 41.4929C72.2952 41.4929 70.968 42.0446 69.8546 43.1481C68.7412 44.2515 68.1845 45.5737 68.1845 47.1146ZM96.4721 54.2573L90.582 46.1006L87.197 49.2768V54.2573H85.1243V31.9642H87.197V47.0549L96.2037 38.3763H98.5001L91.9837 44.8778L98.7387 54.2573H96.4721ZM124.983 54.2573H122.911V45.3699C122.911 41.7712 121.738 39.9719 119.391 39.9719C118.199 39.9719 117.125 40.3944 116.171 41.2394C115.226 42.0844 114.56 43.1878 114.172 44.5498V54.2573H112.1V45.3699C112.1 43.501 111.811 42.1341 111.235 41.2692C110.668 40.4043 109.793 39.9719 108.61 39.9719C107.427 39.9719 106.359 40.3894 105.404 41.2244C104.46 42.0595 103.789 43.158 103.391 44.5199V54.2573H101.318V38.3465H103.212V41.9551C103.868 40.7224 104.723 39.7681 105.777 39.0921C106.841 38.4161 108.009 38.0781 109.281 38.0781C110.584 38.0781 111.647 38.4509 112.472 39.1964C113.298 39.942 113.805 40.9312 113.993 42.1639C115.475 39.44 117.518 38.0781 120.122 38.0781C121.832 38.0781 123.07 38.6745 123.835 39.8675C124.601 41.0505 124.983 42.7405 124.983 44.9375V54.2573Z" fill="white"/>
<path d="M41.7907 56.7327L41.3076 56.6344L41.1873 57.2256H41.7907V56.7327ZM42.3126 54.1679L42.7957 54.2661L42.916 53.6749H42.3126V54.1679ZM41.6117 54.1679H41.1188V54.6608H41.6117V54.1679ZM41.6117 51.2601V50.7671H41.1188V51.2601H41.6117ZM43.6248 51.2601H44.1178V50.7671H43.6248V51.2601ZM43.6248 54.1679L44.0974 54.308L44.1178 54.2394V54.1679H43.6248ZM42.8643 56.7327V57.2256H43.2323L43.3369 56.8728L42.8643 56.7327ZM41.7907 56.7327L42.2737 56.831L42.7957 54.2661L42.3126 54.1679L41.8295 54.0696L41.3076 56.6344L41.7907 56.7327ZM42.3126 54.1679V53.6749H41.6117V54.1679V54.6608H42.3126V54.1679ZM41.6117 54.1679H42.1047V51.2601H41.6117H41.1188V54.1679H41.6117ZM41.6117 51.2601V51.753H43.6248V51.2601V50.7671H41.6117V51.2601ZM43.6248 51.2601H43.1319V54.1679H43.6248H44.1178V51.2601H43.6248ZM43.6248 54.1679L43.1522 54.0277L42.3917 56.5925L42.8643 56.7327L43.3369 56.8728L44.0974 54.308L43.6248 54.1679ZM42.8643 56.7327V56.2397H41.7907V56.7327V57.2256H42.8643V56.7327ZM59.4015 40.7622L59.1561 41.1897L59.1589 41.1913L59.4015 40.7622ZM62.1005 43.4165L61.6748 43.6651L61.6765 43.6679L62.1005 43.4165ZM60.8628 52.3934L61.2066 52.7466L61.2067 52.7466L60.8628 52.3934ZM49.7536 35.7518L49.3403 35.4831L49.34 35.4836L49.7536 35.7518ZM62.0856 36.4527L62.4176 36.8171L62.6878 36.5708L62.5307 36.2407L62.0856 36.4527ZM60.7435 37.6754L60.2873 37.8623L60.5545 38.5146L61.0755 38.0398L60.7435 37.6754ZM51.2597 36.7658L50.8461 36.4975L50.845 36.4993L51.2597 36.7658ZM49.6343 43.7147L49.1413 43.7131L50.0971 43.8844L49.6343 43.7147ZM51.9307 40.8517L51.6624 40.4381L51.6607 40.4392L51.9307 40.8517ZM51.4684 51.0811L51.1214 51.4312L51.123 51.4328L51.4684 51.0811ZM59.4313 43.1481L59.0843 43.4982L59.0859 43.4997L59.4313 43.1481ZM55.6437 39.778V40.271C56.9225 40.271 58.0901 40.5779 59.1561 41.1897L59.4015 40.7622L59.6468 40.3346C58.4264 39.6342 57.0888 39.2851 55.6437 39.2851V39.778ZM59.4015 40.7622L59.1589 41.1913C60.227 41.795 61.0631 42.6178 61.6748 43.6651L62.1005 43.4165L62.5262 43.1679C61.8256 41.9684 60.8624 41.0217 59.644 40.333L59.4015 40.7622ZM62.1005 43.4165L61.6765 43.6679C62.2961 44.713 62.6066 45.8584 62.6066 47.1146H63.0996H63.5925C63.5925 45.6866 63.237 44.3667 62.5245 43.1651L62.1005 43.4165ZM63.0996 47.1146H62.6066C62.6066 49.0484 61.9155 50.6808 60.519 52.0401L60.8628 52.3934L61.2067 52.7466C62.7925 51.2031 63.5925 49.3164 63.5925 47.1146H63.0996ZM60.8628 52.3934L60.519 52.0401C59.1342 53.3877 57.4402 54.0626 55.4051 54.0626V54.5556V55.0485C57.6845 55.0485 59.629 54.2819 61.2066 52.7466L60.8628 52.3934ZM55.4051 54.5556V54.0626C53.2198 54.0626 51.4791 53.3006 50.1378 51.7835L49.7685 52.11L49.3992 52.4366C50.9408 54.1802 52.9579 55.0485 55.4051 55.0485V54.5556ZM49.7685 52.11L50.1378 51.7835C48.7962 50.2662 48.0992 48.187 48.0992 45.4892H47.6063H47.1133C47.1133 48.3585 47.8578 50.6932 49.3992 52.4366L49.7685 52.11ZM47.6063 45.4892H48.0992C48.0992 41.2456 48.8106 38.1114 50.1671 36.0201L49.7536 35.7518L49.34 35.4836C47.8335 37.8061 47.1133 41.1635 47.1133 45.4892H47.6063ZM49.7536 35.7518L50.1668 36.0206C51.5252 33.9314 53.3293 32.9195 55.6139 32.9195V32.4265V31.9336C52.9677 31.9336 50.8648 33.1385 49.3403 35.4831L49.7536 35.7518ZM55.6139 32.4265V32.9195C56.9588 32.9195 58.1545 33.2544 59.2144 33.918L59.476 33.5002L59.7376 33.0823C58.5111 32.3144 57.132 31.9336 55.6139 31.9336V32.4265ZM59.476 33.5002L59.2144 33.918C60.2758 34.5825 61.0832 35.4942 61.6405 36.6646L62.0856 36.4527L62.5307 36.2407C61.8951 34.906 60.9627 33.8494 59.7376 33.0823L59.476 33.5002ZM62.0856 36.4527L61.7536 36.0883L60.4115 37.3111L60.7435 37.6754L61.0755 38.0398L62.4176 36.8171L62.0856 36.4527ZM60.7435 37.6754L61.1997 37.4886C60.7356 36.3553 59.9966 35.4468 58.989 34.775L58.7155 35.1852L58.4421 35.5953C59.2835 36.1563 59.8965 36.908 60.2873 37.8623L60.7435 37.6754ZM58.7155 35.1852L58.989 34.775C57.981 34.1031 56.8515 33.7677 55.6139 33.7677V34.2607V34.7536C56.6628 34.7536 57.601 35.0346 58.4421 35.5953L58.7155 35.1852ZM55.6139 34.2607V33.7677C53.6098 33.7677 52.0104 34.703 50.8461 36.4975L51.2597 36.7658L51.6732 37.0341C52.6761 35.4884 53.9795 34.7536 55.6139 34.7536V34.2607ZM51.2597 36.7658L50.845 36.4993C49.7013 38.2783 49.1514 40.6999 49.1413 43.7131L49.6343 43.7147L50.1272 43.7164C50.137 40.8046 50.6707 38.5936 51.6743 37.0324L51.2597 36.7658ZM49.6343 43.7147L50.0971 43.8844C50.4969 42.794 51.1931 41.9236 52.2007 41.2641L51.9307 40.8517L51.6607 40.4392C50.4812 41.2113 49.6465 42.2495 49.1715 43.545L49.6343 43.7147ZM51.9307 40.8517L52.1989 41.2652C53.219 40.6036 54.3627 40.271 55.6437 40.271V39.778V39.2851C54.1809 39.2851 52.8493 39.6682 51.6624 40.4381L51.9307 40.8517ZM49.7834 47.1146H49.2904C49.2904 48.7818 49.9081 50.2287 51.1214 51.4312L51.4684 51.0811L51.8154 50.731C50.782 49.7067 50.2763 48.5092 50.2763 47.1146H49.7834ZM51.4684 51.0811L51.123 51.4328C52.3362 52.6246 53.7915 53.2293 55.4648 53.2293V52.7363V52.2434C54.0562 52.2434 52.8473 51.7446 51.8139 50.7295L51.4684 51.0811ZM55.4648 52.7363V53.2293C57.1381 53.2293 58.5893 52.6244 59.7932 51.4312L59.4462 51.0811L59.0992 50.731C58.0763 51.7447 56.8732 52.2434 55.4648 52.2434V52.7363ZM59.4462 51.0811L59.7932 51.4312C60.9982 50.237 61.6093 48.7895 61.6093 47.1146H61.1163H60.6234C60.6234 48.5214 60.121 49.7183 59.0992 50.731L59.4462 51.0811ZM61.1163 47.1146H61.6093C61.6093 45.4382 60.9921 43.9903 59.7767 42.7964L59.4313 43.1481L59.0859 43.4997C60.1172 44.5128 60.6234 45.7092 60.6234 47.1146H61.1163ZM59.4313 43.1481L59.7783 42.7979C58.5737 41.6041 57.1173 40.9999 55.4349 40.9999V41.4929V41.9858C56.8542 41.9858 58.0621 42.4851 59.0843 43.4982L59.4313 43.1481ZM55.4349 41.4929V40.9999C53.7616 40.9999 52.3104 41.6048 51.1065 42.7979L51.4535 43.1481L51.8005 43.4982C52.8234 42.4844 54.0265 41.9858 55.4349 41.9858V41.4929ZM51.4535 43.1481L51.1065 42.7979C49.9015 43.9922 49.2904 45.4397 49.2904 47.1146H49.7834H50.2763C50.2763 45.7078 50.7787 44.5109 51.8005 43.4982L51.4535 43.1481ZM77.8026 40.7622L77.5572 41.1897L77.56 41.1913L77.8026 40.7622ZM80.5016 43.4165L80.0759 43.6651L80.0776 43.6679L80.5016 43.4165ZM79.2639 52.3934L79.6077 52.7466L79.6078 52.7466L79.2639 52.3934ZM68.1547 35.7518L67.7414 35.4831L67.7411 35.4836L68.1547 35.7518ZM80.4867 36.4527L80.8187 36.8171L81.089 36.5708L80.9318 36.2407L80.4867 36.4527ZM79.1446 37.6754L78.6885 37.8623L78.9556 38.5146L79.4766 38.0398L79.1446 37.6754ZM69.6608 36.7658L69.2472 36.4975L69.2461 36.4993L69.6608 36.7658ZM68.0354 43.7147L67.5424 43.7131L68.4982 43.8844L68.0354 43.7147ZM70.3318 40.8517L70.0635 40.4381L70.0618 40.4392L70.3318 40.8517ZM69.8695 51.0811L69.5225 51.4312L69.5241 51.4328L69.8695 51.0811ZM77.8324 43.1481L77.4854 43.4982L77.487 43.4997L77.8324 43.1481ZM74.0448 39.778V40.271C75.3236 40.271 76.4912 40.5779 77.5572 41.1897L77.8026 40.7622L78.048 40.3346C76.8275 39.6342 75.4899 39.2851 74.0448 39.2851V39.778ZM77.8026 40.7622L77.56 41.1913C78.6281 41.795 79.4643 42.6178 80.0759 43.6651L80.5016 43.4165L80.9273 43.1679C80.2267 41.9684 79.2636 41.0217 78.0451 40.333L77.8026 40.7622ZM80.5016 43.4165L80.0776 43.6679C80.6972 44.713 81.0077 45.8584 81.0077 47.1146H81.5007H81.9936C81.9936 45.6866 81.6381 44.3667 80.9256 43.1651L80.5016 43.4165ZM81.5007 47.1146H81.0077C81.0077 49.0484 80.3166 50.6808 78.9201 52.0401L79.2639 52.3934L79.6078 52.7466C81.1936 51.2031 81.9936 49.3164 81.9936 47.1146H81.5007ZM79.2639 52.3934L78.9201 52.0401C77.5353 53.3877 75.8413 54.0626 73.8062 54.0626V54.5556V55.0485C76.0856 55.0485 78.0301 54.2819 79.6077 52.7466L79.2639 52.3934ZM73.8062 54.5556V54.0626C71.6209 54.0626 69.8802 53.3006 68.5389 51.7835L68.1696 52.11L67.8003 52.4366C69.3419 54.1802 71.359 55.0485 73.8062 55.0485V54.5556ZM68.1696 52.11L68.5389 51.7835C67.1973 50.2662 66.5003 48.187 66.5003 45.4892H66.0074H65.5144C65.5144 48.3585 66.2589 50.6932 67.8003 52.4366L68.1696 52.11ZM66.0074 45.4892H66.5003C66.5003 41.2456 67.2117 38.1114 68.5682 36.0201L68.1547 35.7518L67.7411 35.4836C66.2346 37.8061 65.5144 41.1635 65.5144 45.4892H66.0074ZM68.1547 35.7518L68.5679 36.0206C69.9264 33.9314 71.7304 32.9195 74.015 32.9195V32.4265V31.9336C71.3688 31.9336 69.2659 33.1385 67.7414 35.4831L68.1547 35.7518ZM74.015 32.4265V32.9195C75.3599 32.9195 76.5556 33.2544 77.6156 33.918L77.8771 33.5002L78.1387 33.0823C76.9122 32.3144 75.5331 31.9336 74.015 31.9336V32.4265ZM77.8771 33.5002L77.6156 33.918C78.6769 34.5825 79.4843 35.4942 80.0416 36.6646L80.4867 36.4527L80.9318 36.2407C80.2962 34.906 79.3638 33.8494 78.1387 33.0823L77.8771 33.5002ZM80.4867 36.4527L80.1547 36.0883L78.8126 37.3111L79.1446 37.6754L79.4766 38.0398L80.8187 36.8171L80.4867 36.4527ZM79.1446 37.6754L79.6008 37.4886C79.1367 36.3553 78.3977 35.4468 77.3901 34.775L77.1166 35.1852L76.8432 35.5953C77.6846 36.1563 78.2977 36.908 78.6885 37.8623L79.1446 37.6754ZM77.1166 35.1852L77.3901 34.775C76.3821 34.1031 75.2526 33.7677 74.015 33.7677V34.2607V34.7536C75.0639 34.7536 76.0021 35.0346 76.8432 35.5953L77.1166 35.1852ZM74.015 34.2607V33.7677C72.0109 33.7677 70.4115 34.703 69.2472 36.4975L69.6608 36.7658L70.0743 37.0341C71.0772 35.4884 72.3806 34.7536 74.015 34.7536V34.2607ZM69.6608 36.7658L69.2461 36.4993C68.1024 38.2783 67.5525 40.6999 67.5424 43.7131L68.0354 43.7147L68.5283 43.7164C68.5381 40.8046 69.0718 38.5936 70.0754 37.0324L69.6608 36.7658ZM68.0354 43.7147L68.4982 43.8844C68.898 42.794 69.5942 41.9236 70.6018 41.2641L70.3318 40.8517L70.0618 40.4392C68.8823 41.2113 68.0476 42.2495 67.5726 43.545L68.0354 43.7147ZM70.3318 40.8517L70.6 41.2652C71.6201 40.6036 72.7638 40.271 74.0448 40.271V39.778V39.2851C72.582 39.2851 71.2504 39.6682 70.0635 40.4381L70.3318 40.8517ZM68.1845 47.1146H67.6915C67.6915 48.7818 68.3092 50.2287 69.5225 51.4312L69.8695 51.0811L70.2165 50.731C69.1831 49.7067 68.6775 48.5092 68.6775 47.1146H68.1845ZM69.8695 51.0811L69.5241 51.4328C70.7374 52.6246 72.1926 53.2293 73.8659 53.2293V52.7363V52.2434C72.4573 52.2434 71.2484 51.7446 70.215 50.7295L69.8695 51.0811ZM73.8659 52.7363V53.2293C75.5392 53.2293 76.9904 52.6244 78.1943 51.4312L77.8473 51.0811L77.5003 50.731C76.4774 51.7447 75.2743 52.2434 73.8659 52.2434V52.7363ZM77.8473 51.0811L78.1943 51.4312C79.3993 50.237 80.0104 48.7895 80.0104 47.1146H79.5174H79.0245C79.0245 48.5214 78.5221 49.7183 77.5003 50.731L77.8473 51.0811ZM79.5174 47.1146H80.0104C80.0104 45.4382 79.3932 43.9903 78.1778 42.7964L77.8324 43.1481L77.487 43.4997C78.5183 44.5128 79.0245 45.7092 79.0245 47.1146H79.5174ZM77.8324 43.1481L78.1794 42.7979C76.9748 41.6041 75.5184 40.9999 73.8361 40.9999V41.4929V41.9858C75.2553 41.9858 76.4632 42.4851 77.4854 43.4982L77.8324 43.1481ZM73.8361 41.4929V40.9999C72.1627 40.9999 70.7115 41.6048 69.5076 42.7979L69.8546 43.1481L70.2016 43.4982C71.2245 42.4844 72.4276 41.9858 73.8361 41.9858V41.4929ZM69.8546 43.1481L69.5076 42.7979C68.3026 43.9922 67.6915 45.4397 67.6915 47.1146H68.1845H68.6775C68.6775 45.7078 69.1798 44.5109 70.2016 43.4982L69.8546 43.1481ZM96.4721 54.2573L96.0725 54.5459L96.22 54.7503H96.4721V54.2573ZM90.582 46.1006L90.9816 45.812L90.6534 45.3575L90.2447 45.7411L90.582 46.1006ZM87.197 49.2768L86.8597 48.9173L86.704 49.0634V49.2768H87.197ZM87.197 54.2573V54.7503H87.6899V54.2573H87.197ZM85.1243 54.2573H84.6313V54.7503H85.1243V54.2573ZM85.1243 31.9642V31.4713H84.6313V31.9642H85.1243ZM87.197 31.9642H87.6899V31.4713H87.197V31.9642ZM87.197 47.0549H86.704V48.2145L87.539 47.4099L87.197 47.0549ZM96.2037 38.3763V37.8834H96.0048L95.8616 38.0213L96.2037 38.3763ZM98.5001 38.3763L98.8483 38.7253L99.6921 37.8834H98.5001V38.3763ZM91.9837 44.8778L91.6355 44.5289L91.3384 44.8253L91.5837 45.1659L91.9837 44.8778ZM98.7387 54.2573V54.7503H99.7012L99.1387 53.9692L98.7387 54.2573ZM96.4721 54.2573L96.8717 53.9687L90.9816 45.812L90.582 46.1006L90.1823 46.3892L96.0725 54.5459L96.4721 54.2573ZM90.582 46.1006L90.2447 45.7411L86.8597 48.9173L87.197 49.2768L87.5343 49.6363L90.9193 46.4601L90.582 46.1006ZM87.197 49.2768H86.704V54.2573H87.197H87.6899V49.2768H87.197ZM87.197 54.2573V53.7644H85.1243V54.2573V54.7503H87.197V54.2573ZM85.1243 54.2573H85.6172V31.9642H85.1243H84.6313V54.2573H85.1243ZM85.1243 31.9642V32.4572H87.197V31.9642V31.4713H85.1243V31.9642ZM87.197 31.9642H86.704V47.0549H87.197H87.6899V31.9642H87.197ZM87.197 47.0549L87.539 47.4099L96.5457 38.7313L96.2037 38.3763L95.8616 38.0213L86.8549 46.7L87.197 47.0549ZM96.2037 38.3763V38.8693H98.5001V38.3763V37.8834H96.2037V38.3763ZM98.5001 38.3763L98.1519 38.0273L91.6355 44.5289L91.9837 44.8778L92.3318 45.2268L98.8483 38.7253L98.5001 38.3763ZM91.9837 44.8778L91.5837 45.1659L98.3387 54.5454L98.7387 54.2573L99.1387 53.9692L92.3837 44.5897L91.9837 44.8778ZM98.7387 54.2573V53.7644H96.4721V54.2573V54.7503H98.7387V54.2573ZM124.983 54.2573V54.7503H125.476V54.2573H124.983ZM122.911 54.2573H122.418V54.7503H122.911V54.2573ZM116.171 41.2394L115.844 40.8703L115.842 40.872L116.171 41.2394ZM114.172 44.5498L113.698 44.4148L113.679 44.481V44.5498H114.172ZM114.172 54.2573V54.7503H114.665V54.2573H114.172ZM112.1 54.2573H111.607V54.7503H112.1V54.2573ZM111.235 41.2692L110.822 41.5393L110.825 41.5426L111.235 41.2692ZM105.404 41.2244L105.08 40.8535L105.078 40.8552L105.404 41.2244ZM103.391 44.5199L102.918 44.3818L102.898 44.4495V44.5199H103.391ZM103.391 54.2573V54.7503H103.884V54.2573H103.391ZM101.318 54.2573H100.825V54.7503H101.318V54.2573ZM101.318 38.3465V37.8535H100.825V38.3465H101.318ZM103.212 38.3465H103.705V37.8535H103.212V38.3465ZM103.212 41.9551H102.719L103.647 42.1867L103.212 41.9551ZM105.777 39.0921L105.513 38.676L105.511 38.6772L105.777 39.0921ZM113.993 42.1639L113.506 42.2386L113.728 43.6844L114.426 42.3994L113.993 42.1639ZM123.835 39.8675L123.42 40.1337L123.421 40.1353L123.835 39.8675ZM124.983 54.2573V53.7644H122.911V54.2573V54.7503H124.983V54.2573ZM122.911 54.2573H123.404V45.3699H122.911H122.418V54.2573H122.911ZM122.911 45.3699H123.404C123.404 43.5327 123.107 42.0695 122.444 41.0522C121.757 39.9983 120.713 39.4789 119.391 39.4789V39.9719V40.4648C120.416 40.4648 121.132 40.8451 121.618 41.5906C122.128 42.3726 122.418 43.6084 122.418 45.3699H122.911ZM119.391 39.9719V39.4789C118.069 39.4789 116.882 39.9514 115.844 40.8703L116.171 41.2394L116.497 41.6084C117.368 40.8373 118.328 40.4648 119.391 40.4648V39.9719ZM116.171 41.2394L115.842 40.872C114.82 41.7863 114.108 42.9741 113.698 44.4148L114.172 44.5498L114.646 44.6847C115.012 43.4016 115.632 42.3824 116.499 41.6067L116.171 41.2394ZM114.172 44.5498H113.679V54.2573H114.172H114.665V44.5498H114.172ZM114.172 54.2573V53.7644H112.1V54.2573V54.7503H114.172V54.2573ZM112.1 54.2573H112.593V45.3699H112.1H111.607V54.2573H112.1ZM112.1 45.3699H112.593C112.593 43.4711 112.304 41.9838 111.645 40.9957L111.235 41.2692L110.825 41.5426C111.319 42.2844 111.607 43.5308 111.607 45.3699H112.1ZM111.235 41.2692L111.647 40.999C110.975 39.9732 109.931 39.4789 108.61 39.4789V39.9719V40.4648C109.655 40.4648 110.361 40.8354 110.822 41.5393L111.235 41.2692ZM108.61 39.9719V39.4789C107.299 39.4789 106.117 39.9459 105.08 40.8535L105.404 41.2244L105.729 41.5954C106.6 40.8329 107.556 40.4648 108.61 40.4648V39.9719ZM105.404 41.2244L105.078 40.8552C104.055 41.7594 103.338 42.942 102.918 44.3818L103.391 44.5199L103.864 44.6581C104.239 43.374 104.865 42.3596 105.731 41.5937L105.404 41.2244ZM103.391 44.5199H102.898V54.2573H103.391H103.884V44.5199H103.391ZM103.391 54.2573V53.7644H101.318V54.2573V54.7503H103.391V54.2573ZM101.318 54.2573H101.811V38.3465H101.318H100.825V54.2573H101.318ZM101.318 38.3465V38.8394H103.212V38.3465V37.8535H101.318V38.3465ZM103.212 38.3465H102.719V41.9551H103.212H103.705V38.3465H103.212ZM103.212 41.9551L103.647 42.1867C104.268 41.0198 105.068 40.1323 106.043 39.507L105.777 39.0921L105.511 38.6772C104.378 39.4039 103.468 40.425 102.777 41.7235L103.212 41.9551ZM105.777 39.0921L106.041 39.5081C107.025 38.8829 108.102 38.571 109.281 38.571V38.0781V37.5851C107.916 37.5851 106.656 37.9493 105.513 38.676L105.777 39.0921ZM109.281 38.0781V38.571C110.484 38.571 111.423 38.9122 112.142 39.5622L112.472 39.1964L112.803 38.8307C111.872 37.9895 110.684 37.5851 109.281 37.5851V38.0781ZM112.472 39.1964L112.142 39.5622C112.873 40.2224 113.332 41.1036 113.506 42.2386L113.993 42.1639L114.481 42.0892C114.277 40.7588 113.722 39.6616 112.803 38.8307L112.472 39.1964ZM113.993 42.1639L114.426 42.3994C115.841 39.798 117.736 38.571 120.122 38.571V38.0781V37.5851C117.299 37.5851 115.108 39.082 113.56 41.9284L113.993 42.1639ZM120.122 38.0781V38.571C121.704 38.571 122.765 39.1127 123.42 40.1337L123.835 39.8675L124.25 39.6013C123.374 38.2364 121.96 37.5851 120.122 37.5851V38.0781ZM123.835 39.8675L123.421 40.1353C124.114 41.2055 124.49 42.7866 124.49 44.9375H124.983H125.476C125.476 42.6944 125.087 40.8955 124.249 39.5997L123.835 39.8675ZM124.983 44.9375H124.49V54.2573H124.983H125.476V44.9375H124.983Z" fill="white" mask="url(#path-3-outside-2_25491_5)"/>
</svg>
