<svg width="122" height="59" viewBox="0 0 122 59" fill="none" xmlns="http://www.w3.org/2000/svg">
<mask id="path-1-outside-1_25489_2" maskUnits="userSpaceOnUse" x="2.67188" y="11.2168" width="34" height="47" fill="black">
<rect fill="white" x="2.67188" y="11.2168" width="34" height="47"/>
<path d="M19.9931 27.2089C22.8157 27.2089 25.4116 27.8888 27.7809 29.2486C30.1502 30.5878 32.0148 32.4214 33.3746 34.7495C34.7549 37.0776 35.4451 39.6324 35.4451 42.4137C35.4451 46.6991 33.8999 50.3458 30.8095 53.3538C27.7397 56.3412 23.9694 57.8349 19.4986 57.8349C14.6982 57.8349 10.8043 56.1455 7.8169 52.7666C4.8295 49.3878 3.3358 44.814 3.3358 39.0452C3.3358 30.1654 4.8192 23.4386 7.78599 18.8648C10.7734 14.2704 14.8218 11.9732 19.9313 11.9732C22.8981 11.9732 25.5661 12.7149 27.9355 14.1983C30.3048 15.6817 32.1075 17.7214 33.3437 20.3173L30.5623 22.8515C29.6764 20.6882 28.2754 18.9679 26.3593 17.6905C24.4433 16.4131 22.3006 15.7744 19.9313 15.7744C16.161 15.7744 13.153 17.5051 10.9073 20.9663C8.68221 24.4276 7.55936 29.228 7.53876 35.3676C8.44528 32.8953 10.0317 30.9174 12.298 29.434C14.5849 27.9506 17.1499 27.2089 19.9931 27.2089ZM7.8478 42.4137C7.8478 45.5866 9.01185 48.3267 11.34 50.6342C13.6681 52.9211 16.4288 54.0646 19.6223 54.0646C22.8157 54.0646 25.5661 52.9211 27.8736 50.6342C30.1811 48.3473 31.3349 45.6072 31.3349 42.4137C31.3349 39.2203 30.1708 36.4802 27.8427 34.1933C25.5352 31.9064 22.7745 30.7629 19.5604 30.7629C16.367 30.7629 13.6166 31.9064 11.3091 34.1933C9.00155 36.4802 7.8478 39.2203 7.8478 42.4137Z"/>
</mask>
<path d="M19.9931 27.2089C22.8157 27.2089 25.4116 27.8888 27.7809 29.2486C30.1502 30.5878 32.0148 32.4214 33.3746 34.7495C34.7549 37.0776 35.4451 39.6324 35.4451 42.4137C35.4451 46.6991 33.8999 50.3458 30.8095 53.3538C27.7397 56.3412 23.9694 57.8349 19.4986 57.8349C14.6982 57.8349 10.8043 56.1455 7.8169 52.7666C4.8295 49.3878 3.3358 44.814 3.3358 39.0452C3.3358 30.1654 4.8192 23.4386 7.78599 18.8648C10.7734 14.2704 14.8218 11.9732 19.9313 11.9732C22.8981 11.9732 25.5661 12.7149 27.9355 14.1983C30.3048 15.6817 32.1075 17.7214 33.3437 20.3173L30.5623 22.8515C29.6764 20.6882 28.2754 18.9679 26.3593 17.6905C24.4433 16.4131 22.3006 15.7744 19.9313 15.7744C16.161 15.7744 13.153 17.5051 10.9073 20.9663C8.68221 24.4276 7.55936 29.228 7.53876 35.3676C8.44528 32.8953 10.0317 30.9174 12.298 29.434C14.5849 27.9506 17.1499 27.2089 19.9931 27.2089ZM7.8478 42.4137C7.8478 45.5866 9.01185 48.3267 11.34 50.6342C13.6681 52.9211 16.4288 54.0646 19.6223 54.0646C22.8157 54.0646 25.5661 52.9211 27.8736 50.6342C30.1811 48.3473 31.3349 45.6072 31.3349 42.4137C31.3349 39.2203 30.1708 36.4802 27.8427 34.1933C25.5352 31.9064 22.7745 30.7629 19.5604 30.7629C16.367 30.7629 13.6166 31.9064 11.3091 34.1933C9.00155 36.4802 7.8478 39.2203 7.8478 42.4137Z" fill="white"/>
<path d="M27.7809 29.2486L27.5976 29.568L27.5997 29.5692L27.7809 29.2486ZM33.3746 34.7495L33.0565 34.9353L33.0578 34.9374L33.3746 34.7495ZM30.8095 53.3538L31.0664 53.6177L31.0664 53.6177L30.8095 53.3538ZM7.78599 18.8648L7.47723 18.6641L7.47701 18.6644L7.78599 18.8648ZM33.3437 20.3173L33.5917 20.5896L33.7936 20.4056L33.6762 20.159L33.3437 20.3173ZM30.5623 22.8515L30.2215 22.991L30.4211 23.4784L30.8103 23.1237L30.5623 22.8515ZM10.9073 20.9663L10.5983 20.7659L10.5975 20.7672L10.9073 20.9663ZM7.53876 35.3676L7.17047 35.3664L7.88454 35.4944L7.53876 35.3676ZM12.298 29.434L12.0976 29.125L12.0963 29.1259L12.298 29.434ZM11.34 50.6342L11.0807 50.8958L11.0819 50.897L11.34 50.6342ZM27.8427 34.1933L27.5835 34.4548L27.5847 34.456L27.8427 34.1933ZM19.9931 27.2089V27.5772C22.7536 27.5772 25.286 28.2414 27.5976 29.568L27.7809 29.2486L27.9643 28.9292C25.5372 27.5363 22.8778 26.8406 19.9931 26.8406V27.2089ZM27.7809 29.2486L27.5997 29.5692C29.9129 30.8767 31.73 32.664 33.0565 34.9353L33.3746 34.7495L33.6926 34.5638C32.2996 32.1789 30.3876 30.2989 27.9622 28.928L27.7809 29.2486ZM33.3746 34.7495L33.0578 34.9374C34.4035 37.207 35.0769 39.6966 35.0769 42.4137H35.4451H35.8134C35.8134 39.5682 35.1064 36.9483 33.6914 34.5617L33.3746 34.7495ZM35.4451 42.4137H35.0769C35.0769 46.599 33.5723 50.1507 30.5527 53.0899L30.8095 53.3538L31.0664 53.6177C34.2275 50.5409 35.8134 46.7992 35.8134 42.4137H35.4451ZM30.8095 53.3538L30.5527 53.0898C27.5549 56.0072 23.8781 57.4666 19.4986 57.4666V57.8349V58.2032C24.0607 58.2032 27.9246 56.6752 31.0664 53.6177L30.8095 53.3538ZM19.4986 57.8349V57.4666C14.7961 57.4666 11.0054 55.8169 8.09281 52.5227L7.8169 52.7666L7.54098 53.0106C10.6032 56.4741 14.6004 58.2032 19.4986 58.2032V57.8349ZM7.8169 52.7666L8.09281 52.5227C5.18006 49.2282 3.7041 44.7499 3.7041 39.0452H3.3358H2.96751C2.96751 44.878 4.47894 49.5473 7.54098 53.0106L7.8169 52.7666ZM3.3358 39.0452H3.7041C3.7041 30.1961 5.18422 23.5527 8.09497 19.0653L7.78599 18.8648L7.47701 18.6644C4.45418 23.3246 2.96751 30.1348 2.96751 39.0452H3.3358ZM7.78599 18.8648L8.09475 19.0656C11.0201 14.5666 14.9569 12.3415 19.9313 12.3415V11.9732V11.6049C14.6868 11.6049 10.5267 13.9742 7.47723 18.6641L7.78599 18.8648ZM19.9313 11.9732V12.3415C22.8334 12.3415 25.4329 13.066 27.74 14.5105L27.9354 14.1983L28.1309 13.8862C25.6993 12.3638 22.9628 11.6049 19.9313 11.6049V11.9732ZM27.9354 14.1983L27.74 14.5105C30.0482 15.9556 31.8042 17.9411 33.0111 20.4757L33.3437 20.3173L33.6762 20.159C32.4108 17.5017 30.5614 15.4079 28.1309 13.8862L27.9354 14.1983ZM33.3437 20.3173L33.0956 20.0451L30.3143 22.5792L30.5623 22.8515L30.8103 23.1237L33.5917 20.5896L33.3437 20.3173ZM30.5623 22.8515L30.9031 22.7119C29.9898 20.4817 28.5418 18.7028 26.5636 17.384L26.3593 17.6905L26.1551 17.9969C28.009 19.2329 29.363 20.8946 30.2215 22.991L30.5623 22.8515ZM26.3593 17.6905L26.5636 17.384C24.5853 16.0651 22.3711 15.4061 19.9313 15.4061V15.7744V16.1427C22.2301 16.1427 24.3013 16.7611 26.1551 17.9969L26.3593 17.6905ZM19.9313 15.7744V15.4061C16.0229 15.4061 12.9043 17.2117 10.5983 20.7659L10.9073 20.9663L11.2163 21.1668C13.4017 17.7985 16.2991 16.1427 19.9313 16.1427V15.7744ZM10.9073 20.9663L10.5975 20.7672C8.3201 24.3098 7.1912 29.1889 7.17047 35.3664L7.53876 35.3676L7.90705 35.3689C7.92752 29.2671 9.04432 24.5454 11.2171 21.1655L10.9073 20.9663ZM7.53876 35.3676L7.88454 35.4944C8.76296 33.0987 10.2976 31.1835 12.4997 29.7422L12.298 29.434L12.0963 29.1259C9.76574 30.6513 8.1276 32.6919 7.19298 35.2408L7.53876 35.3676ZM12.298 29.434L12.4984 29.743C14.723 28.3 17.2178 27.5772 19.9931 27.5772V27.2089V26.8406C17.082 26.8406 14.4468 27.6012 12.0976 29.125L12.298 29.434ZM7.8478 42.4137H7.47951C7.47951 45.6884 8.6854 48.5217 11.0807 50.8958L11.34 50.6342L11.5992 50.3727C9.33831 48.1317 8.21609 45.4847 8.21609 42.4137H7.8478ZM11.34 50.6342L11.0819 50.897C13.4772 53.2499 16.33 54.4329 19.6223 54.4329V54.0646V53.6963C16.5277 53.6963 13.859 52.5924 11.598 50.3715L11.34 50.6342ZM19.6223 54.0646V54.4329C22.9146 54.4329 25.7578 53.2497 28.1329 50.8958L27.8736 50.6342L27.6144 50.3726C25.3745 52.5925 22.7167 53.6963 19.6223 53.6963V54.0646ZM27.8736 50.6342L28.1329 50.8958C30.5088 48.5411 31.7032 45.7073 31.7032 42.4137H31.3349H30.9666C30.9666 45.507 29.8535 48.1536 27.6144 50.3726L27.8736 50.6342ZM31.3349 42.4137H31.7032C31.7032 39.1191 30.4977 36.285 28.1008 33.9305L27.8427 34.1933L27.5847 34.456C29.844 36.6754 30.9666 39.3215 30.9666 42.4137H31.3349ZM27.8427 34.1933L28.102 33.9317C25.7264 31.5772 22.8727 30.3946 19.5604 30.3946V30.7629V31.1312C22.6762 31.1312 25.3441 32.2355 27.5835 34.4548L27.8427 34.1933ZM19.5604 30.7629V30.3946C16.268 30.3946 13.4249 31.5777 11.0498 33.9317L11.3091 34.1933L11.5683 34.4548C13.8082 32.235 16.466 31.1312 19.5604 31.1312V30.7629ZM11.3091 34.1933L11.0498 33.9317C8.67388 36.2864 7.47951 39.1202 7.47951 42.4137H7.8478H8.21609C8.21609 39.3205 9.32923 36.6739 11.5683 34.4548L11.3091 34.1933Z" fill="white" mask="url(#path-1-outside-1_25489_2)"/>
<mask id="path-3-outside-2_25489_2" maskUnits="userSpaceOnUse" x="35.4297" y="31.2573" width="83" height="26" fill="black">
<rect fill="white" x="35.4297" y="31.2573" width="83" height="26"/>
<path d="M36.5163 56.7327L37.0382 54.1679H36.3374V51.2601H38.3505V54.1679L37.59 56.7327H36.5163ZM49.4597 54.5257C47.5312 54.5257 45.8958 54.0635 44.5538 53.1389C43.2217 52.2144 42.4413 51.0016 42.2126 49.5005L43.495 48.3374C43.5746 49.4408 44.176 50.425 45.2994 51.2899C46.4227 52.1448 47.8095 52.5723 49.4597 52.5723C51.0205 52.5723 52.3129 52.1846 53.3368 51.4092C54.3707 50.6238 54.8876 49.6198 54.8876 48.397C54.8876 47.0649 54.2613 46.0161 53.0087 45.2506C51.7562 44.4752 50.0612 44.0875 47.9238 44.0875H46.8949V42.2832H47.9238C49.9419 42.2832 51.5076 41.9502 52.621 41.2841C53.7444 40.618 54.3061 39.6488 54.3061 38.3763C54.3061 37.1237 53.8189 36.1097 52.8447 35.3343C51.8705 34.549 50.6875 34.1563 49.2957 34.1563C47.9934 34.1563 46.8552 34.4446 45.8809 35.0212C44.9166 35.5977 44.2357 36.3384 43.838 37.243L42.4065 35.8413C42.9632 34.7577 43.8728 33.8978 45.1353 33.2616C46.3979 32.6154 47.7747 32.2923 49.2659 32.2923C51.3337 32.2923 53.0535 32.8689 54.4254 34.0221C55.7972 35.1752 56.4832 36.6068 56.4832 38.3167C56.4832 39.5494 56.1203 40.5733 55.3946 41.3885C54.6689 42.1937 53.6152 42.7653 52.2333 43.1033C53.6748 43.3817 54.8329 44.0328 55.7078 45.0568C56.5925 46.0708 57.0349 47.2637 57.0349 48.6356C57.0349 49.8086 56.682 50.8525 55.9762 51.7671C55.2803 52.6717 54.3607 53.3576 53.2175 53.8249C52.0743 54.2921 50.8217 54.5257 49.4597 54.5257ZM66.7723 54.5556C65.2414 54.5556 63.8546 54.1828 62.6119 53.4372C61.3792 52.6816 60.4447 51.6627 59.8085 50.3803L61.2102 49.3364C61.7669 50.3504 62.5473 51.1606 63.5514 51.7671C64.5554 52.3735 65.639 52.6767 66.8021 52.6767C68.3331 52.6767 69.6105 52.1846 70.6344 51.2004C71.6584 50.2162 72.1704 48.9537 72.1704 47.4128C72.1704 45.9316 71.6733 44.7138 70.6792 43.7594C69.6851 42.7952 68.4524 42.313 66.9811 42.313C66.0267 42.313 65.127 42.5267 64.282 42.9542C63.447 43.3817 62.761 43.9831 62.2242 44.7585H60.2708L62.7014 32.5756H73.1844V34.4992H64.2671L62.7461 42.2832C63.8595 41.0803 65.3557 40.4789 67.2346 40.4789C69.2228 40.4789 70.8929 41.13 72.2449 42.4323C73.6068 43.7247 74.2878 45.3749 74.2878 47.383C74.2878 48.7748 73.9498 50.0224 73.2738 51.1259C72.5978 52.2293 71.6882 53.0793 70.545 53.6758C69.4117 54.2623 68.1541 54.5556 66.7723 54.5556ZM89.1996 54.2573L83.3094 46.1006L79.9245 49.2768V54.2573H77.8517V31.9642H79.9245V47.0549L88.9312 38.3763H91.2276L84.7111 44.8778L91.4662 54.2573H89.1996ZM117.711 54.2573H115.638V45.3699C115.638 41.7712 114.465 39.9719 112.119 39.9719C110.926 39.9719 109.852 40.3944 108.898 41.2394C107.954 42.0844 107.288 43.1878 106.9 44.5498V54.2573H104.827V45.3699C104.827 43.501 104.539 42.1341 103.962 41.2692C103.396 40.4043 102.521 39.9719 101.338 39.9719C100.155 39.9719 99.0861 40.3894 98.1317 41.2244C97.1873 42.0595 96.5163 43.158 96.1186 44.5199V54.2573H94.0459V38.3465H95.9397V41.9551C96.5958 40.7224 97.4508 39.7681 98.5045 39.0921C99.5682 38.4161 100.736 38.0781 102.009 38.0781C103.311 38.0781 104.375 38.4509 105.2 39.1964C106.025 39.942 106.532 40.9312 106.721 42.1639C108.202 39.44 110.245 38.0781 112.85 38.0781C114.56 38.0781 115.797 38.6745 116.563 39.8675C117.328 41.0505 117.711 42.7405 117.711 44.9375V54.2573Z"/>
</mask>
<path d="M36.5163 56.7327L37.0382 54.1679H36.3374V51.2601H38.3505V54.1679L37.59 56.7327H36.5163ZM49.4597 54.5257C47.5312 54.5257 45.8958 54.0635 44.5538 53.1389C43.2217 52.2144 42.4413 51.0016 42.2126 49.5005L43.495 48.3374C43.5746 49.4408 44.176 50.425 45.2994 51.2899C46.4227 52.1448 47.8095 52.5723 49.4597 52.5723C51.0205 52.5723 52.3129 52.1846 53.3368 51.4092C54.3707 50.6238 54.8876 49.6198 54.8876 48.397C54.8876 47.0649 54.2613 46.0161 53.0087 45.2506C51.7562 44.4752 50.0612 44.0875 47.9238 44.0875H46.8949V42.2832H47.9238C49.9419 42.2832 51.5076 41.9502 52.621 41.2841C53.7444 40.618 54.3061 39.6488 54.3061 38.3763C54.3061 37.1237 53.8189 36.1097 52.8447 35.3343C51.8705 34.549 50.6875 34.1563 49.2957 34.1563C47.9934 34.1563 46.8552 34.4446 45.8809 35.0212C44.9166 35.5977 44.2357 36.3384 43.838 37.243L42.4065 35.8413C42.9632 34.7577 43.8728 33.8978 45.1353 33.2616C46.3979 32.6154 47.7747 32.2923 49.2659 32.2923C51.3337 32.2923 53.0535 32.8689 54.4254 34.0221C55.7972 35.1752 56.4832 36.6068 56.4832 38.3167C56.4832 39.5494 56.1203 40.5733 55.3946 41.3885C54.6689 42.1937 53.6152 42.7653 52.2333 43.1033C53.6748 43.3817 54.8329 44.0328 55.7078 45.0568C56.5925 46.0708 57.0349 47.2637 57.0349 48.6356C57.0349 49.8086 56.682 50.8525 55.9762 51.7671C55.2803 52.6717 54.3607 53.3576 53.2175 53.8249C52.0743 54.2921 50.8217 54.5257 49.4597 54.5257ZM66.7723 54.5556C65.2414 54.5556 63.8546 54.1828 62.6119 53.4372C61.3792 52.6816 60.4447 51.6627 59.8085 50.3803L61.2102 49.3364C61.7669 50.3504 62.5473 51.1606 63.5514 51.7671C64.5554 52.3735 65.639 52.6767 66.8021 52.6767C68.3331 52.6767 69.6105 52.1846 70.6344 51.2004C71.6584 50.2162 72.1704 48.9537 72.1704 47.4128C72.1704 45.9316 71.6733 44.7138 70.6792 43.7594C69.6851 42.7952 68.4524 42.313 66.9811 42.313C66.0267 42.313 65.127 42.5267 64.282 42.9542C63.447 43.3817 62.761 43.9831 62.2242 44.7585H60.2708L62.7014 32.5756H73.1844V34.4992H64.2671L62.7461 42.2832C63.8595 41.0803 65.3557 40.4789 67.2346 40.4789C69.2228 40.4789 70.8929 41.13 72.2449 42.4323C73.6068 43.7247 74.2878 45.3749 74.2878 47.383C74.2878 48.7748 73.9498 50.0224 73.2738 51.1259C72.5978 52.2293 71.6882 53.0793 70.545 53.6758C69.4117 54.2623 68.1541 54.5556 66.7723 54.5556ZM89.1996 54.2573L83.3094 46.1006L79.9245 49.2768V54.2573H77.8517V31.9642H79.9245V47.0549L88.9312 38.3763H91.2276L84.7111 44.8778L91.4662 54.2573H89.1996ZM117.711 54.2573H115.638V45.3699C115.638 41.7712 114.465 39.9719 112.119 39.9719C110.926 39.9719 109.852 40.3944 108.898 41.2394C107.954 42.0844 107.288 43.1878 106.9 44.5498V54.2573H104.827V45.3699C104.827 43.501 104.539 42.1341 103.962 41.2692C103.396 40.4043 102.521 39.9719 101.338 39.9719C100.155 39.9719 99.0861 40.3894 98.1317 41.2244C97.1873 42.0595 96.5163 43.158 96.1186 44.5199V54.2573H94.0459V38.3465H95.9397V41.9551C96.5958 40.7224 97.4508 39.7681 98.5045 39.0921C99.5682 38.4161 100.736 38.0781 102.009 38.0781C103.311 38.0781 104.375 38.4509 105.2 39.1964C106.025 39.942 106.532 40.9312 106.721 42.1639C108.202 39.44 110.245 38.0781 112.85 38.0781C114.56 38.0781 115.797 38.6745 116.563 39.8675C117.328 41.0505 117.711 42.7405 117.711 44.9375V54.2573Z" fill="white"/>
<path d="M36.5163 56.7327L36.0333 56.6344L35.913 57.2256H36.5163V56.7327ZM37.0382 54.1679L37.5213 54.2661L37.6416 53.6749H37.0382V54.1679ZM36.3374 54.1679H35.8444V54.6608H36.3374V54.1679ZM36.3374 51.2601V50.7671H35.8444V51.2601H36.3374ZM38.3505 51.2601H38.8434V50.7671H38.3505V51.2601ZM38.3505 54.1679L38.8231 54.308L38.8434 54.2394V54.1679H38.3505ZM37.59 56.7327V57.2256H37.958L38.0626 56.8728L37.59 56.7327ZM36.5163 56.7327L36.9994 56.831L37.5213 54.2661L37.0382 54.1679L36.5552 54.0696L36.0333 56.6344L36.5163 56.7327ZM37.0382 54.1679V53.6749H36.3374V54.1679V54.6608H37.0382V54.1679ZM36.3374 54.1679H36.8303V51.2601H36.3374H35.8444V54.1679H36.3374ZM36.3374 51.2601V51.753H38.3505V51.2601V50.7671H36.3374V51.2601ZM38.3505 51.2601H37.8575V54.1679H38.3505H38.8434V51.2601H38.3505ZM38.3505 54.1679L37.8779 54.0277L37.1174 56.5925L37.59 56.7327L38.0626 56.8728L38.8231 54.308L38.3505 54.1679ZM37.59 56.7327V56.2397H36.5163V56.7327V57.2256H37.59V56.7327ZM44.5538 53.1389L44.2727 53.5439L44.2741 53.5449L44.5538 53.1389ZM42.2126 49.5005L41.8815 49.1353L41.6855 49.3131L41.7253 49.5747L42.2126 49.5005ZM43.495 48.3374L43.9867 48.3019L43.9139 47.2919L43.1639 47.9722L43.495 48.3374ZM45.2994 51.2899L44.9986 51.6805L45.0008 51.6822L45.2994 51.2899ZM53.3368 51.4092L53.6344 51.8022L53.635 51.8017L53.3368 51.4092ZM53.0087 45.2506L52.7493 45.6698L52.7517 45.6712L53.0087 45.2506ZM46.8949 44.0875H46.402V44.5805H46.8949V44.0875ZM46.8949 42.2832V41.7902H46.402V42.2832H46.8949ZM52.621 41.2841L52.3696 40.8601L52.368 40.8611L52.621 41.2841ZM52.8447 35.3343L52.5353 35.7181L52.5377 35.72L52.8447 35.3343ZM45.8809 35.0212L45.6298 34.5969L45.6279 34.5981L45.8809 35.0212ZM43.838 37.243L43.4931 37.5952L44.0024 38.0939L44.2893 37.4414L43.838 37.243ZM42.4065 35.8413L41.968 35.616L41.8019 35.9393L42.0616 36.1935L42.4065 35.8413ZM45.1353 33.2616L45.3572 33.7018L45.3599 33.7004L45.1353 33.2616ZM55.3946 41.3885L55.7608 41.7185L55.7628 41.7163L55.3946 41.3885ZM52.2333 43.1033L52.1162 42.6245L52.1399 43.5873L52.2333 43.1033ZM55.7078 45.0568L55.333 45.377L55.3363 45.3809L55.7078 45.0568ZM55.9762 51.7671L55.5859 51.4659L55.5855 51.4665L55.9762 51.7671ZM49.4597 54.5257V54.0328C47.6123 54.0328 46.079 53.5911 44.8334 52.733L44.5538 53.1389L44.2741 53.5449C45.7126 54.5359 47.45 55.0187 49.4597 55.0187V54.5257ZM44.5538 53.1389L44.8348 52.734C43.6056 51.8808 42.9067 50.7836 42.7 49.4262L42.2126 49.5005L41.7253 49.5747C41.9758 51.2196 42.8378 52.548 44.2727 53.5439L44.5538 53.1389ZM42.2126 49.5005L42.5438 49.8656L43.8262 48.7025L43.495 48.3374L43.1639 47.9722L41.8815 49.1353L42.2126 49.5005ZM43.495 48.3374L43.0034 48.3728C43.0957 49.6537 43.7974 50.7556 44.9986 51.6805L45.2994 51.2899L45.6001 50.8993C44.5547 50.0944 44.0535 49.228 43.9867 48.3019L43.495 48.3374ZM45.2994 51.2899L45.0008 51.6822C46.2239 52.613 47.7206 53.0652 49.4597 53.0652V52.5723V52.0793C47.8984 52.0793 46.6215 51.6766 45.5979 50.8976L45.2994 51.2899ZM49.4597 52.5723V53.0652C51.1042 53.0652 52.5077 52.6554 53.6344 51.8022L53.3368 51.4092L53.0392 51.0162C52.1181 51.7138 50.9368 52.0793 49.4597 52.0793V52.5723ZM53.3368 51.4092L53.635 51.8017C54.7828 50.9299 55.3806 49.7846 55.3806 48.397H54.8876H54.3947C54.3947 49.4549 53.9586 50.3178 53.0386 51.0166L53.3368 51.4092ZM54.8876 48.397H55.3806C55.3806 46.8732 54.647 45.6741 53.2658 44.83L53.0087 45.2506L52.7517 45.6712C53.8757 46.3581 54.3947 47.2566 54.3947 48.397H54.8876ZM53.0087 45.2506L53.2682 44.8315C51.9101 43.9908 50.1139 43.5946 47.9238 43.5946V44.0875V44.5805C50.0085 44.5805 51.6022 44.9597 52.7493 45.6698L53.0087 45.2506ZM47.9238 44.0875V43.5946H46.8949V44.0875V44.5805H47.9238V44.0875ZM46.8949 44.0875H47.3879V42.2832H46.8949H46.402V44.0875H46.8949ZM46.8949 42.2832V42.7761H47.9238V42.2832V41.7902H46.8949V42.2832ZM47.9238 42.2832V42.7761C49.9857 42.7761 51.6529 42.4376 52.8741 41.7071L52.621 41.2841L52.368 40.8611C51.3623 41.4627 49.8981 41.7902 47.9238 41.7902V42.2832ZM52.621 41.2841L52.8724 41.7081C54.1407 40.9562 54.799 39.8284 54.799 38.3763H54.3061H53.8131C53.8131 39.4691 53.3481 40.2799 52.3696 40.8601L52.621 41.2841ZM54.3061 38.3763H54.799C54.799 36.9746 54.2443 35.8182 53.1517 34.9486L52.8447 35.3343L52.5377 35.72C53.3936 36.4012 53.8131 37.2728 53.8131 38.3763H54.3061ZM52.8447 35.3343L53.1541 34.9505C52.0823 34.0865 50.7866 33.6633 49.2957 33.6633V34.1563V34.6492C50.5883 34.6492 51.6586 35.0114 52.5353 35.7181L52.8447 35.3343ZM49.2957 34.1563V33.6633C47.9186 33.6633 46.6909 33.9689 45.6299 34.5969L45.8809 35.0212L46.132 35.4454C47.0194 34.9202 48.0683 34.6492 49.2957 34.6492V34.1563ZM45.8809 35.0212L45.6279 34.5981C44.5883 35.2197 43.831 36.0338 43.3867 37.0446L43.838 37.243L44.2893 37.4414C44.6403 36.6429 45.2449 35.9758 46.1339 35.4442L45.8809 35.0212ZM43.838 37.243L44.1829 36.8908L42.7514 35.4891L42.4065 35.8413L42.0616 36.1935L43.4931 37.5952L43.838 37.243ZM42.4065 35.8413L42.845 36.0666C43.3466 35.0901 44.1723 34.2989 45.3572 33.7018L45.1353 33.2616L44.9135 32.8214C43.5733 33.4967 42.5797 34.4254 41.968 35.616L42.4065 35.8413ZM45.1353 33.2616L45.3599 33.7004C46.5493 33.0916 47.8487 32.7853 49.2659 32.7853V32.2923V31.7994C47.7008 31.7994 46.2464 32.1392 44.9107 32.8228L45.1353 33.2616ZM49.2659 32.2923V32.7853C51.2365 32.7853 52.8385 33.3322 54.1082 34.3994L54.4254 34.0221L54.7425 33.6447C53.2684 32.4056 51.4308 31.7994 49.2659 31.7994V32.2923ZM54.4254 34.0221L54.1082 34.3994C55.3748 35.4641 55.9902 36.7602 55.9902 38.3167H56.4832H56.9761C56.9761 36.4534 56.2197 34.8864 54.7425 33.6447L54.4254 34.0221ZM56.4832 38.3167H55.9902C55.9902 39.4453 55.6613 40.3476 55.0264 41.0607L55.3946 41.3885L55.7628 41.7163C56.5794 40.799 56.9761 39.6535 56.9761 38.3167H56.4832ZM55.3946 41.3885L55.0284 41.0585C54.3868 41.7704 53.4316 42.3027 52.1162 42.6245L52.2333 43.1033L52.3505 43.5822C53.7987 43.2279 54.951 42.617 55.7608 41.7185L55.3946 41.3885ZM52.2333 43.1033L52.1399 43.5873C53.4822 43.8466 54.5373 44.4457 55.333 45.377L55.7078 45.0568L56.0826 44.7366C55.1285 43.6199 53.8674 42.9168 52.3268 42.6193L52.2333 43.1033ZM55.7078 45.0568L55.3363 45.3809C56.1411 46.3032 56.542 47.3803 56.542 48.6356H57.0349H57.5279C57.5279 47.1471 57.044 45.8384 56.0792 44.7327L55.7078 45.0568ZM57.0349 48.6356H56.542C56.542 49.7015 56.2241 50.639 55.5859 51.4659L55.9762 51.7671L56.3664 52.0682C57.1399 51.0659 57.5279 49.9158 57.5279 48.6356H57.0349ZM55.9762 51.7671L55.5855 51.4665C54.947 52.2965 54.1004 52.9315 53.031 53.3686L53.2175 53.8249L53.404 54.2812C54.621 53.7838 55.6136 53.0469 56.3669 52.0676L55.9762 51.7671ZM53.2175 53.8249L53.031 53.3686C51.9528 53.8092 50.7643 54.0328 49.4597 54.0328V54.5257V55.0187C50.879 55.0187 52.1958 54.775 53.404 54.2812L53.2175 53.8249ZM62.6119 53.4372L62.3543 53.8575L62.3583 53.8599L62.6119 53.4372ZM59.8085 50.3803L59.5141 49.9849L59.184 50.2307L59.3669 50.5994L59.8085 50.3803ZM61.2102 49.3364L61.6423 49.0992L61.3699 48.6029L60.9158 48.9411L61.2102 49.3364ZM70.6792 43.7594L70.3359 44.1133L70.3378 44.1151L70.6792 43.7594ZM64.282 42.9542L64.0595 42.5143L64.0574 42.5154L64.282 42.9542ZM62.2242 44.7585V45.2515H62.4825L62.6295 45.0391L62.2242 44.7585ZM60.2708 44.7585L59.7873 44.6621L59.6698 45.2515H60.2708V44.7585ZM62.7014 32.5756V32.0827H62.2971L62.218 32.4792L62.7014 32.5756ZM73.1843 32.5756H73.6773V32.0827H73.1843V32.5756ZM73.1843 34.4992V34.9922H73.6773V34.4992H73.1843ZM64.2671 34.4992V34.0063H63.8612L63.7833 34.4047L64.2671 34.4992ZM62.7461 42.2832L62.2623 42.1886L61.9297 43.8909L63.1079 42.618L62.7461 42.2832ZM72.2449 42.4323L71.9029 42.7873L71.9056 42.7899L72.2449 42.4323ZM73.2738 51.1259L73.6942 51.3834L73.2738 51.1259ZM70.545 53.6758L70.7715 54.1136L70.773 54.1128L70.545 53.6758ZM66.7723 54.5556V54.0626C65.3254 54.0626 64.0272 53.7115 62.8655 53.0145L62.6119 53.4372L62.3583 53.8599C63.6819 54.6541 65.1573 55.0485 66.7723 55.0485V54.5556ZM62.6119 53.4372L62.8695 53.0169C61.715 52.3093 60.8447 51.3597 60.2501 50.1612L59.8085 50.3803L59.3669 50.5994C60.0448 51.9657 61.0434 53.054 62.3543 53.8575L62.6119 53.4372ZM59.8085 50.3803L60.1029 50.7756L61.5046 49.7318L61.2102 49.3364L60.9158 48.9411L59.5141 49.9849L59.8085 50.3803ZM61.2102 49.3364L60.7781 49.5737C61.3772 50.6649 62.2192 51.5384 63.2965 52.189L63.5514 51.7671L63.8062 51.3451C62.8754 50.7829 62.1566 50.036 61.6423 49.0992L61.2102 49.3364ZM63.5514 51.7671L63.2965 52.189C64.3768 52.8415 65.5484 53.1696 66.8021 53.1696V52.6767V52.1837C65.7296 52.1837 64.7341 51.9055 63.8062 51.3451L63.5514 51.7671ZM66.8021 52.6767V53.1696C68.4495 53.1696 69.8527 52.6355 70.976 51.5558L70.6344 51.2004L70.2928 50.845C69.3683 51.7337 68.2166 52.1837 66.8021 52.1837V52.6767ZM70.6344 51.2004L70.976 51.5558C72.1054 50.4703 72.6633 49.0752 72.6633 47.4128H72.1703H71.6774C71.6774 48.8322 71.2113 49.9622 70.2928 50.845L70.6344 51.2004ZM72.1703 47.4128H72.6633C72.6633 45.8085 72.1193 44.4586 71.0206 43.4038L70.6792 43.7594L70.3378 44.1151C71.2273 44.969 71.6774 46.0546 71.6774 47.4128H72.1703ZM70.6792 43.7594L71.0224 43.4056C69.9302 42.3461 68.5717 41.8201 66.9811 41.8201V42.313V42.806C68.333 42.806 69.44 43.2442 70.336 44.1133L70.6792 43.7594ZM66.9811 42.313V41.8201C65.95 41.8201 64.9741 42.0517 64.0595 42.5143L64.282 42.9542L64.5046 43.3941C65.28 43.0018 66.1034 42.806 66.9811 42.806V42.313ZM64.282 42.9542L64.0574 42.5154C63.1496 42.9801 62.4017 43.6361 61.8189 44.4779L62.2242 44.7585L62.6295 45.0391C63.1203 44.3302 63.7443 43.7832 64.5067 43.393L64.282 42.9542ZM62.2242 44.7585V44.2656H60.2708V44.7585V45.2515H62.2242V44.7585ZM60.2708 44.7585L60.7542 44.855L63.1848 32.6721L62.7014 32.5756L62.218 32.4792L59.7873 44.6621L60.2708 44.7585ZM62.7014 32.5756V33.0686H73.1843V32.5756V32.0827H62.7014V32.5756ZM73.1843 32.5756H72.6914V34.4992H73.1843H73.6773V32.5756H73.1843ZM73.1843 34.4992V34.0063H64.2671V34.4992V34.9922H73.1843V34.4992ZM64.2671 34.4992L63.7833 34.4047L62.2623 42.1886L62.7461 42.2832L63.2299 42.3777L64.7509 34.5938L64.2671 34.4992ZM62.7461 42.2832L63.1079 42.618C64.114 41.5311 65.4709 40.9718 67.2346 40.9718V40.4789V39.9859C65.2404 39.9859 63.6051 40.6295 62.3844 41.9483L62.7461 42.2832ZM67.2346 40.4789V40.9718C69.1036 40.9718 70.6486 41.5791 71.9029 42.7873L72.2449 42.4323L72.5869 42.0773C71.1372 40.6809 69.342 39.9859 67.2346 39.9859V40.4789ZM72.2449 42.4323L71.9056 42.7899C73.1621 43.9822 73.7949 45.4996 73.7949 47.383H74.2878H74.7808C74.7808 45.2502 74.0516 43.4671 72.5842 42.0747L72.2449 42.4323ZM74.2878 47.383H73.7949C73.7949 48.691 73.4784 49.8482 72.8535 50.8683L73.2738 51.1259L73.6942 51.3834C74.4212 50.1965 74.7808 48.8585 74.7808 47.383H74.2878ZM73.2738 51.1259L72.8535 50.8683C72.224 51.8959 71.3807 52.6837 70.3169 53.2387L70.545 53.6758L70.773 54.1128C71.9957 53.4749 72.9717 52.5627 73.6942 51.3834L73.2738 51.1259ZM70.545 53.6758L70.3184 53.238C69.2608 53.7853 68.0819 54.0626 66.7723 54.0626V54.5556V55.0485C68.2263 55.0485 69.5625 54.7393 70.7715 54.1136L70.545 53.6758ZM89.1996 54.2573L88.7999 54.5459L88.9475 54.7503H89.1996V54.2573ZM83.3094 46.1006L83.7091 45.812L83.3809 45.3575L82.9721 45.7411L83.3094 46.1006ZM79.9245 49.2768L79.5872 48.9173L79.4315 49.0634V49.2768H79.9245ZM79.9245 54.2573V54.7503H80.4174V54.2573H79.9245ZM77.8517 54.2573H77.3588V54.7503H77.8517V54.2573ZM77.8517 31.9642V31.4713H77.3588V31.9642H77.8517ZM79.9245 31.9642H80.4174V31.4713H79.9245V31.9642ZM79.9245 47.0549H79.4315V48.2145L80.2665 47.4099L79.9245 47.0549ZM88.9312 38.3763V37.8834H88.7323L88.5891 38.0213L88.9312 38.3763ZM91.2276 38.3763L91.5757 38.7253L92.4196 37.8834H91.2276V38.3763ZM84.7111 44.8778L84.363 44.5289L84.0658 44.8253L84.3111 45.1659L84.7111 44.8778ZM91.4662 54.2573V54.7503H92.4287L91.8662 53.9692L91.4662 54.2573ZM89.1996 54.2573L89.5992 53.9687L83.7091 45.812L83.3094 46.1006L82.9098 46.3892L88.7999 54.5459L89.1996 54.2573ZM83.3094 46.1006L82.9721 45.7411L79.5872 48.9173L79.9245 49.2768L80.2618 49.6363L83.6467 46.4601L83.3094 46.1006ZM79.9245 49.2768H79.4315V54.2573H79.9245H80.4174V49.2768H79.9245ZM79.9245 54.2573V53.7644H77.8517V54.2573V54.7503H79.9245V54.2573ZM77.8517 54.2573H78.3447V31.9642H77.8517H77.3588V54.2573H77.8517ZM77.8517 31.9642V32.4572H79.9245V31.9642V31.4713H77.8517V31.9642ZM79.9245 31.9642H79.4315V47.0549H79.9245H80.4174V31.9642H79.9245ZM79.9245 47.0549L80.2665 47.4099L89.2732 38.7313L88.9312 38.3763L88.5891 38.0213L79.5824 46.7L79.9245 47.0549ZM88.9312 38.3763V38.8693H91.2276V38.3763V37.8834H88.9312V38.3763ZM91.2276 38.3763L90.8794 38.0273L84.363 44.5289L84.7111 44.8778L85.0593 45.2268L91.5757 38.7253L91.2276 38.3763ZM84.7111 44.8778L84.3111 45.1659L91.0662 54.5454L91.4662 54.2573L91.8662 53.9692L85.1112 44.5897L84.7111 44.8778ZM91.4662 54.2573V53.7644H89.1996V54.2573V54.7503H91.4662V54.2573ZM117.711 54.2573V54.7503H118.204V54.2573H117.711ZM115.638 54.2573H115.145V54.7503H115.638V54.2573ZM108.898 41.2394L108.571 40.8703L108.569 40.872L108.898 41.2394ZM106.9 44.5498L106.426 44.4148L106.407 44.481V44.5498H106.9ZM106.9 54.2573V54.7503H107.393V54.2573H106.9ZM104.827 54.2573H104.334V54.7503H104.827V54.2573ZM103.962 41.2692L103.55 41.5393L103.552 41.5426L103.962 41.2692ZM98.1317 41.2244L97.8071 40.8535L97.8052 40.8552L98.1317 41.2244ZM96.1186 44.5199L95.6454 44.3818L95.6257 44.4495V44.5199H96.1186ZM96.1186 54.2573V54.7503H96.6116V54.2573H96.1186ZM94.0459 54.2573H93.5529V54.7503H94.0459V54.2573ZM94.0459 38.3465V37.8535H93.5529V38.3465H94.0459ZM95.9397 38.3465H96.4326V37.8535H95.9397V38.3465ZM95.9397 41.9551H95.4467L96.3748 42.1867L95.9397 41.9551ZM98.5045 39.0921L98.2401 38.676L98.2383 38.6772L98.5045 39.0921ZM106.721 42.1639L106.234 42.2386L106.455 43.6844L107.154 42.3994L106.721 42.1639ZM116.563 39.8675L116.148 40.1337L116.149 40.1353L116.563 39.8675ZM117.711 54.2573V53.7644H115.638V54.2573V54.7503H117.711V54.2573ZM115.638 54.2573H116.131V45.3699H115.638H115.145V54.2573H115.638ZM115.638 45.3699H116.131C116.131 43.5327 115.834 42.0695 115.171 41.0522C114.484 39.9983 113.44 39.4789 112.119 39.4789V39.9719V40.4648C113.144 40.4648 113.859 40.8451 114.345 41.5906C114.855 42.3726 115.145 43.6084 115.145 45.3699H115.638ZM112.119 39.9719V39.4789C110.797 39.4789 109.609 39.9514 108.571 40.8703L108.898 41.2394L109.225 41.6084C110.096 40.8373 111.055 40.4648 112.119 40.4648V39.9719ZM108.898 41.2394L108.569 40.872C107.547 41.7863 106.836 42.9741 106.426 44.4148L106.9 44.5498L107.374 44.6847C107.739 43.4016 108.36 42.3824 109.227 41.6067L108.898 41.2394ZM106.9 44.5498H106.407V54.2573H106.9H107.393V44.5498H106.9ZM106.9 54.2573V53.7644H104.827V54.2573V54.7503H106.9V54.2573ZM104.827 54.2573H105.32V45.3699H104.827H104.334V54.2573H104.827ZM104.827 45.3699H105.32C105.32 43.4711 105.031 41.9838 104.372 40.9957L103.962 41.2692L103.552 41.5426C104.047 42.2844 104.334 43.5308 104.334 45.3699H104.827ZM103.962 41.2692L104.375 40.999C103.702 39.9732 102.659 39.4789 101.338 39.4789V39.9719V40.4648C102.383 40.4648 103.089 40.8354 103.55 41.5393L103.962 41.2692ZM101.338 39.9719V39.4789C100.026 39.4789 98.8443 39.9459 97.8071 40.8535L98.1317 41.2244L98.4563 41.5954C99.3278 40.8329 100.283 40.4648 101.338 40.4648V39.9719ZM98.1317 41.2244L97.8052 40.8552C96.7826 41.7594 96.0658 42.942 95.6454 44.3818L96.1186 44.5199L96.5918 44.6581C96.9668 43.374 97.5921 42.3596 98.4583 41.5937L98.1317 41.2244ZM96.1186 44.5199H95.6257V54.2573H96.1186H96.6116V44.5199H96.1186ZM96.1186 54.2573V53.7644H94.0459V54.2573V54.7503H96.1186V54.2573ZM94.0459 54.2573H94.5389V38.3465H94.0459H93.5529V54.2573H94.0459ZM94.0459 38.3465V38.8394H95.9397V38.3465V37.8535H94.0459V38.3465ZM95.9397 38.3465H95.4467V41.9551H95.9397H96.4326V38.3465H95.9397ZM95.9397 41.9551L96.3748 42.1867C96.9959 41.0198 97.796 40.1323 98.7707 39.507L98.5045 39.0921L98.2383 38.6772C97.1055 39.4039 96.1957 40.425 95.5045 41.7235L95.9397 41.9551ZM98.5045 39.0921L98.7689 39.5081C99.7528 38.8829 100.829 38.571 102.009 38.571V38.0781V37.5851C100.644 37.5851 99.3837 37.9493 98.2401 38.676L98.5045 39.0921ZM102.009 38.0781V38.571C103.211 38.571 104.15 38.9122 104.869 39.5622L105.2 39.1964L105.53 38.8307C104.599 37.9895 103.411 37.5851 102.009 37.5851V38.0781ZM105.2 39.1964L104.869 39.5622C105.6 40.2224 106.06 41.1036 106.234 42.2386L106.721 42.1639L107.208 42.0892C107.004 40.7588 106.45 39.6616 105.53 38.8307L105.2 39.1964ZM106.721 42.1639L107.154 42.3994C108.569 39.798 110.463 38.571 112.85 38.571V38.0781V37.5851C110.027 37.5851 107.836 39.082 106.288 41.9284L106.721 42.1639ZM112.85 38.0781V38.571C114.432 38.571 115.493 39.1127 116.148 40.1337L116.563 39.8675L116.978 39.6013C116.102 38.2364 114.687 37.5851 112.85 37.5851V38.0781ZM116.563 39.8675L116.149 40.1353C116.841 41.2055 117.218 42.7866 117.218 44.9375H117.711H118.204C118.204 42.6944 117.815 40.8955 116.977 39.5997L116.563 39.8675ZM117.711 44.9375H117.218V54.2573H117.711H118.204V44.9375H117.711Z" fill="white" mask="url(#path-3-outside-2_25489_2)"/>
</svg>
