<svg width="38" height="37" viewBox="0 0 38 37" fill="none" xmlns="http://www.w3.org/2000/svg">
<path d="M25.5716 3.38449L25.5797 4.78093C24.7195 4.91534 24.9601 6.30506 24.0368 6.20695C23.6712 6.16797 23.5234 5.89379 22.9656 5.94486C21.6229 6.06985 21.5261 7.20421 21.4052 8.29153C21.3393 8.88559 21.2815 9.82775 21.26 10.4379C21.2399 11.0266 21.2466 11.2417 21.7049 11.6166C22.2143 12.0333 25.1012 13.7254 25.6187 13.6918C26.0421 13.6636 26.366 13.3504 26.9762 13.4674C27.8565 13.6367 27.3861 14.3437 27.5017 14.8181C27.5742 15.1138 27.8874 15.1326 28.05 15.349C29.1481 16.8194 27.5057 18.1311 26.2396 18.6405C26.2396 19.072 26.8485 19.0451 27.038 19.3206C27.3028 19.705 27.1993 20.7318 27.6535 21.1243C28.0742 21.1565 27.6173 20.6216 27.7342 20.2749C27.9519 19.627 28.6737 20.0356 28.257 20.8555C29.7328 20.6472 30.9464 20.5383 32.4221 20.9254C38.8506 22.6068 39.9648 31.6588 34.2635 34.9946L32.4235 35.7728L35.8481 36.0443L37.1262 36.3104H0.841572L2.1184 36.0443C3.05787 36.0269 4.01079 35.9852 4.94757 35.9166C5.1774 35.8992 5.3911 35.9301 5.54432 35.707C1.89932 34.742 -0.365363 31.101 0.0485968 27.3888C0.445084 23.8379 3.44629 21.0262 6.82383 20.6727C8.563 20.4899 10.4352 20.9684 11.911 21.9173C12.0427 21.8944 13.6676 20.1055 13.7187 19.9563C13.8625 19.5276 13.7442 19.4564 13.341 19.5115C13.1703 19.1781 13.6152 19.2749 13.6192 19.1687C13.6219 19.0948 13.2133 17.9107 13.1408 17.7629C12.2819 16.0291 10.6516 17.4927 9.59118 16.1931L9.70005 15.8033C10.0844 15.345 11.0011 15.8033 11.0548 15.7468C10.8613 15.2186 10.4312 14.8759 10.3089 14.2765C9.95541 12.5454 10.9406 10.8989 11.9432 9.57776C13.638 7.34399 16.7844 4.789 19.6042 4.33606C20.2466 4.23257 21.045 4.62099 21.1444 3.72184C21.2546 2.71785 20.8125 2.97456 20.5907 2.61705C20.1579 1.91816 20.834 1.51629 20.8622 1.02304C20.8783 0.750199 20.6767 0.453169 20.7318 0.157484C22.8419 -0.13417 25.1671 -0.24438 26.3122 1.90203C26.4762 2.20981 27.2315 3.86296 26.6415 3.72856L25.5716 3.38315V3.38449ZM19.2534 9.97022L16.8489 11.5293L15.3584 12.8585C16.8395 13.6098 18.4066 14.2012 19.7789 15.1555C20.6068 15.7307 21.8124 16.4592 21.4052 17.6285C21.506 17.7347 24.0973 17.021 24.2303 16.8933C24.7814 16.3638 23.3459 15.3463 24.0932 15.009C24.4507 14.8477 24.9991 15.1098 25.1671 14.6743C23.7048 14.2738 21.4562 13.8168 20.2009 12.9862C19.2856 12.3814 19.4321 10.95 19.2534 9.96887V9.97022ZM25.0408 15.6218C24.7921 15.9135 25.7813 17.1339 25.9198 17.4927C26.7987 17.2884 27.7369 16.2871 27.3175 15.3463C26.5891 16.2119 25.9829 15.1595 25.0408 15.6218ZM26.1093 18.3032C27.1952 18.0384 28.71 16.7549 27.7879 15.6165C27.7463 16.7589 27.0138 17.4645 26.0327 17.8986L26.1093 18.3045V18.3032ZM18.0478 18.3018C18.4187 18.3502 18.4658 17.8852 18.7144 17.697L17.5075 17.228L18.0464 18.3018H18.0478ZM23.69 18.3045C23.557 18.2037 20.6915 18.8596 20.424 19.0021C20.041 19.2077 19.9577 19.701 19.5719 19.9053L18.8529 19.3771C18.9147 19.9281 19.5182 20.3138 19.4846 20.9012C19.4362 21.7533 18.5787 23.9427 18.3247 24.9642C18.1553 25.6443 17.9201 26.327 17.912 27.0367C18.451 27.1455 18.3206 25.8055 18.4497 25.6926L18.9698 25.819L23.69 18.3018V18.3045ZM10.2498 35.6411H27.7221L25.2585 34.1412C21.7936 31.0257 21.8621 25.3983 25.4735 22.4307C25.8001 22.1632 26.7208 21.8017 26.7557 21.4321C26.7732 21.2412 26.3646 20.1445 26.2531 20.0114C26.0582 19.7762 25.7517 19.8717 25.6039 19.7507C25.4776 19.6472 25.4708 19.2265 25.237 19.1163C24.9574 19.0962 23.94 20.5168 23.7142 20.8165C22.0503 23.0234 20.6041 25.4225 19.0115 27.6818C19.033 28.4519 19.3004 29.046 18.8676 29.7785C19.2776 30.5526 20.838 30.4707 20.9764 31.3053C21.1014 32.0579 20.2735 32.0485 19.7265 32.0136C19.0558 31.9692 16.8906 31.6198 16.2589 31.4464C15.8785 31.3429 15.5869 31.054 15.47 30.683C14.6514 30.6467 14.7119 31.4814 14.3369 32.1372C13.9445 32.8254 13.3679 33.4181 12.8706 34.0256L10.2484 35.6438L10.2498 35.6411ZM16.5653 24.2156L17.1715 21.2426C16.5976 20.4294 16.1715 19.8085 15.0882 20.1848L15.3584 21.3931L16.1111 20.5934C17.2938 21.0746 16.5371 22.1646 16.4336 23.0745L16.5653 24.2156ZM15.4619 24.9964C15.5654 24.8325 15.474 24.5314 15.431 24.3432C15.2831 23.7048 14.5708 21.6283 14.2912 21.049C14.2187 20.8998 14.173 20.6727 13.9499 20.7238L12.4029 22.2681C13.3854 23.139 14.1918 24.1107 14.6864 25.358C14.8047 25.6577 15.1447 27.0353 15.22 27.1092C15.3732 27.2611 15.5156 27.2342 15.4874 26.9775C15.4377 26.5273 14.9337 25.4843 15.1541 25.1564C15.2106 25.0717 15.4229 25.0596 15.4619 24.9978V24.9964ZM10.6462 23.014C4.65861 19.7614 -1.42042 27.331 3.19093 32.4168C6.05102 35.5712 10.8478 34.8643 12.9351 31.2717C11.3035 31.058 8.71219 32.1829 7.15043 31.6816C6.23649 31.3886 7.13833 30.8913 7.22838 30.5473C7.35875 30.05 6.50799 30.0459 6.14779 29.7274C5.15724 28.8511 5.51744 27.167 6.65717 26.6066C7.15043 26.3647 7.55095 26.4789 8.03346 26.3794L10.5844 23.4091L10.6449 23.0126L10.6462 23.014ZM29.304 22.3715C28.7798 22.4522 28.4694 22.4603 28.5312 23.0624C28.5554 23.2949 29.5567 25.944 29.7086 26.1953C30.0204 26.7128 30.5217 26.4198 31.0875 26.5636C32.1964 26.8458 32.6748 28.4076 32.1399 29.3726C31.2058 31.0593 28.5608 30.5137 28.3887 28.5836C28.3202 27.8202 28.8659 27.159 28.7745 26.6025C28.7288 26.3243 27.4425 23.1471 27.253 23.143C20.8998 27.1052 25.8458 36.8185 32.7877 33.9167C39.0294 31.3066 36.6343 21.2439 29.3054 22.3702L29.304 22.3715ZM13.4754 27.3082C13.7402 26.5232 12.0454 23.6739 11.3922 23.6753L8.6974 26.6388C8.64633 26.7826 9.19873 27.3082 9.24174 27.3082H13.4754ZM13.4082 27.577H9.44334V27.9802C10.8411 27.9009 12.208 28.2073 13.6098 28.1146C13.6461 27.9372 13.5937 27.6294 13.4082 27.5783V27.577ZM7.83051 30.804C7.67326 30.9747 8.25119 31.441 8.45145 31.437L12.9728 30.769C13.3477 30.6131 13.9391 29.2597 13.2752 29.1898L9.53608 28.9371C9.31162 29.2893 8.8439 29.6239 8.63424 29.9236C8.38559 30.2758 8.563 30.8604 7.83185 30.804H7.83051ZM14.9538 30.3981C15.8382 30.5258 15.7683 29.7959 15.2885 29.3242L14.9538 30.3981Z" fill="white"/>
</svg>
