<svg width="18" height="37" viewBox="0 0 18 37" fill="none" xmlns="http://www.w3.org/2000/svg">
<path d="M16.9521 32.635C16.5627 32.795 15.1249 33.1253 14.7529 32.9654C14.3808 32.8054 13.8541 31.4285 13.7133 30.8427C13.5724 30.2568 12.9327 27.2196 12.7206 25.7054C12.5085 24.1929 12.0113 22.7256 11.8931 22.2058C11.7748 21.686 10.7109 18.7532 10.1441 17.4771C9.78426 16.6687 9.52 15.6047 9.38092 14.7268C9.95811 15.1336 10.9473 15.7734 10.9473 15.7734C10.9473 15.7734 11.7401 16.2932 11.9278 16.4357C12.1173 16.5783 12.0217 16.7069 12.2703 16.9329C12.5189 17.1572 12.8371 17.0859 12.8266 17.1937C12.8162 17.3015 12.6493 17.3119 12.4598 17.2285C12.2703 17.145 12.2234 17.2528 12.2946 17.4771C12.3659 17.7014 12.8266 17.9256 13.0283 17.6423C13.0283 17.6423 13.3829 17.903 13.5064 17.4406C13.4647 17.4058 13.9254 17.5588 13.9375 17.1798C14.0314 17.192 14.4347 16.9903 14.3096 16.6531C14.1861 16.3158 13.901 15.8203 13.5064 15.5369C13.11 15.2536 12.7675 15.2171 12.0582 14.9876C11.5714 14.8294 10.158 13.2178 9.30965 12.2147C9.32529 11.747 9.3392 11.375 9.3392 11.375C9.3392 11.375 10.3562 11.0916 10.3562 10.358C10.3562 9.62431 9.90769 9.1045 9.81207 8.56035C9.71819 8.0162 9.74079 7.56767 9.71819 6.90531C9.69559 6.24294 9.62431 6.10212 9.08016 6.0065C8.53602 5.91262 8.15876 6.17166 8.13442 5.86395C8.11878 5.67097 8.23526 5.10075 8.32392 4.70611C8.51342 4.72349 8.8785 4.73045 9.25054 4.58963C9.25054 4.58963 9.52522 4.43838 9.36875 4.18456C9.27488 4.03157 9.31486 3.90118 9.31486 3.90118C9.31486 3.90118 9.40874 3.85946 9.43308 3.72386C9.45742 3.58826 9.29052 3.57609 9.29052 3.57609C9.29052 3.57609 9.50262 3.53436 9.53913 3.46308C9.57564 3.39181 9.39483 3.20057 9.60693 3.1206C9.81903 3.04063 9.90769 2.89981 9.6869 2.67728C9.46611 2.45649 9.34963 2.0097 9.38614 1.78544C9.42091 1.56117 9.28009 1.04657 9.28009 1.04657C9.28009 1.04657 9.03149 0 7.66677 0C6.30205 0 5.46757 0.940526 5.30763 1.13524C5.2972 1.14741 5.28677 1.16479 5.2746 1.18565C5.01035 0.973558 4.534 0.669321 4.08894 0.780585C3.42658 0.945742 3.21448 1.56117 2.81289 1.75067C2.41129 1.94016 2.05664 1.65679 1.86714 2.29481C1.67765 2.93284 1.67765 3.35877 1.36993 3.54827C1.06222 3.73777 0.825786 3.83165 0.684967 4.54095C0.544149 5.25026 0 5.60491 0 5.60491C0.827524 5.74747 1.22912 5.65185 1.60811 5.1077C1.9871 4.56355 2.29308 4.04374 2.36435 4.04374C2.12792 4.75305 1.74893 5.39108 1.56117 5.50929C2.71901 5.22592 2.9085 4.77565 3.21622 3.9968C3.52393 3.21622 3.87858 3.098 3.87858 3.098C3.52393 3.97246 3.33444 4.35146 3.24056 4.46967C4.09242 3.97246 3.83165 3.12755 4.25758 3.211C4.61745 3.28054 4.35493 3.77427 4.63483 3.68387C4.6244 3.81774 4.6244 3.93422 4.63483 4.02636C4.72349 4.70089 5.59448 5.29894 6.22208 4.8052C6.14558 5.15812 6.01867 5.51799 5.80484 5.74573C5.27286 6.31248 4.12024 7.02178 4.06634 7.62504C4.06634 7.62504 2.15052 11.6097 2.29308 12.6024C2.39565 13.3204 3.78123 14.3339 4.59658 14.8589C4.52878 15.0345 4.44707 15.2205 4.34972 15.4274C3.85251 16.4914 3.35704 16.5974 3.39181 18.9027C3.42658 21.2079 3.03715 23.9391 2.57645 24.7197C2.11575 25.5003 1.08656 27.2735 0.945742 28.8695C0.803185 30.4654 0.7858 33.1966 0.625859 33.7286C0.465917 34.2605 0.28859 34.9525 0.271205 35.0585C0.25382 35.1646 0.271205 36.0877 0.271205 36.0877C0.271205 36.0877 0.997897 36.265 1.60115 36.0877C2.20441 35.9104 2.79898 36.0321 3.29967 36.1659C3.80035 36.2998 5.18246 35.933 5.55623 35.7035C5.92827 35.4723 5.4328 34.8169 4.70437 34.7821C3.97594 34.7473 2.64773 34.3683 2.52256 33.8363C2.39912 33.3044 2.69988 32.7376 2.75378 32.2404C2.80767 31.7432 3.85251 27.6647 4.63309 26.4599C5.41368 25.2551 5.16507 25.2534 5.83961 23.694C6.51414 22.1345 7.11566 20.8567 7.11566 20.8567C7.11566 20.8567 7.7902 22.4179 8.81765 23.8C9.84684 25.1838 10.3423 25.243 10.3788 26.1296C10.4136 27.0162 10.5561 28.706 11.3715 29.9126C12.1869 31.1191 12.2929 32.5603 12.4007 33.2348C12.5067 33.9094 12.5432 35.2202 12.7553 35.5401C12.9674 35.86 14.1566 35.5401 14.6347 35.328C15.1127 35.1159 14.918 35.0272 15.7525 34.7786C16.5853 34.53 17.4197 33.7494 17.6318 33.0053C17.8439 32.2613 17.3415 32.4734 16.9521 32.6333V32.635ZM4.52009 11.2568C4.60354 11.7783 4.68351 12.2547 4.74088 12.5971C4.74088 12.6076 4.74436 12.6163 4.74609 12.625L4.0646 11.8983L4.52183 11.255L4.52009 11.2568Z" fill="white"/>
</svg>
