<svg width="102" height="77" viewBox="0 0 102 77" fill="none" xmlns="http://www.w3.org/2000/svg">

<g style="mix-blend-mode:screen">
<path d="M69.5443 30.5678C65.5096 27.3522 57.5769 20.8273 51.1663 16.7306C46.336 18.6039 42.0121 20.4916 42.5505 21.0543C43.6711 22.2388 49.0317 25.7928 60.4933 34.1076C61.6322 34.9353 63.0499 35.305 64.4514 35.1374C64.9067 35.0827 65.3277 35.0229 65.5833 34.9558C67.3041 34.5291 69.7347 33.7526 72.2374 32.8465C71.4193 32.1018 70.5253 31.3369 69.5456 30.5592L69.5443 30.5678Z" fill="#131317"/>
</g>
<path d="M92.3092 53.536C92.7841 51.5904 93.1552 48.9894 92.7021 47.5627C91.8141 47.579 92.3092 53.536 92.3092 53.536Z" fill="#495DCF"/>
<path d="M92.5594 49.5981C92.985 48.4518 92.7573 46.8659 91.8096 45.8739C90.734 44.7399 91.1218 48.1295 91.4506 48.8625C91.7795 49.5956 92.5594 49.5981 92.5594 49.5981Z" fill="#5B73FF"/>
<path d="M9.8301 15.7403C10.0335 15.2008 10.2982 14.837 12.2075 13.325C14.1254 11.8143 20.4375 10.6445 20.4375 10.6445L12.7179 19.0037L9.8301 15.7403Z" fill="#546AEB"/>
<path d="M12.6357 29.2811L18.8893 26.3316L28.1446 34.0974L49.0393 56.8503L55.1892 54.0081L64.8905 62.6033L69.8336 37.5041L12.4179 13.7826L12.6357 29.2811Z" fill="#292929"/>
<path d="M57.6764 49.904L52.3099 52.0217L58.152 66.4931L63.537 64.3695L63.2152 55.3171L57.6764 49.904Z" fill="#333333"/>
<path d="M21.5341 21.1531L16.1589 23.2694L21.9248 37.7821L27.3184 35.6597L26.641 26.4052L21.5341 21.1531Z" fill="#333333"/>
<path d="M38.0056 4.59864C37.9925 4.92108 37.597 5.3968 37.021 5.90692C35.6505 7.15752 33.3184 8.6239 33.3184 8.6239L12.9977 12.7152L12.3739 12.8412C12.5796 12.6966 12.7952 12.5447 13.0194 12.3941C17.266 9.55674 25.5848 6.22322 31.4135 4.88483C31.9305 4.76921 32.4279 4.66818 32.8969 4.58045C33.6999 4.42865 34.8329 4.06315 37.2958 4.1857C37.8009 4.20858 38.0046 4.37054 37.9958 4.60594L38.0056 4.59864Z" fill="#5B73FF"/>
<path d="M89.782 57.6914C88.7694 58.0136 89.1754 57.82 87.4051 56.4069L86.9036 56.0075L87.2702 53.5548C87.8738 49.5155 85.7536 44.1661 82.5326 41.6069C79.3201 39.0489 76.2208 40.2516 75.6172 44.2909L75.2507 46.7436L50.7626 27.2676L51.1291 24.8149C51.7328 20.7756 49.6126 15.4262 46.4001 12.8682C43.1791 10.309 40.0811 11.5031 39.4762 15.551L38.8495 19.7447C38.0113 19.0758 37.5489 18.7086 37.5489 18.7086C37.5489 18.7086 34.2617 15.7713 33.1815 13.2601C32.9725 12.7818 32.8473 6.69594 33.3964 5.60314C33.9455 4.51034 35.5698 4.02537 38.2347 4.20441C40.43 4.35713 48.6886 8.467 48.6886 8.467C48.6886 8.467 56.8452 7.27482 61.5388 10.247C66.9543 13.669 85.5747 27.7617 86.7543 29.3144C89.0854 32.3719 91.6892 40.7044 91.9858 42.8266C92 42.9077 91.8424 47.9517 91.8709 48.2892C91.971 49.4965 92.331 49.1996 92.3916 50.0854C92.4448 50.9613 90.7958 57.3607 89.782 57.6914Z" fill="#5B73FF"/>
<path d="M83.9239 32.2192C83.9239 32.2192 86.768 35.5988 90.0056 37.1084C89.149 34.1573 87.9887 30.9503 86.7435 29.3089C85.564 27.7561 66.9423 13.672 61.5281 10.2414C56.8344 7.26926 48.6779 8.46144 48.6779 8.46144L50.1016 9.61232L83.9239 32.2192Z" fill="#2E2F35"/>
<path d="M92.6134 49.643C92.5529 48.7572 91.9608 49.4929 91.8606 48.2855C91.8356 47.9837 91.959 44.048 91.9765 43.0511C89.9012 41.3908 86.198 37.5408 83.6201 35.6651C80.1791 33.1694 70.1785 26.695 68.2003 25.3824C66.2221 24.0697 53.6303 16.6295 48.7804 12.4152C43.9219 8.19972 39.6529 8.60511 38.8056 8.58371C37.9584 8.56231 35.3751 7.13295 33.3887 5.58234C32.831 6.67386 32.9647 12.761 33.1738 13.2393C34.254 15.7505 37.5412 18.6878 37.5412 18.6878C37.5412 18.6878 38.0036 19.055 38.8418 19.7239L39.4685 15.5302C40.0721 11.4909 43.1714 10.2882 46.3924 12.8475C49.6134 15.4067 51.725 20.7548 51.1214 24.7941L50.7549 27.2468L75.243 46.7228L75.6095 44.2701C76.2131 40.2308 79.3124 39.0281 82.5248 41.5861C85.7459 44.1453 87.866 49.4947 87.2624 53.534L86.8959 55.9867L87.3973 56.3861C89.1603 57.7893 89.8189 57.7825 90.6547 57.1183C92.633 55.5552 92.5675 50.3025 92.6173 49.6173L92.6134 49.643Z" fill="#495DCF"/>
<path d="M50.2875 24.1576C49.7685 27.6309 47.1068 28.6622 44.341 26.4603C41.5751 24.2584 39.7541 19.6639 40.2732 16.1906C40.7922 12.7174 43.4538 11.686 46.2197 13.8879C48.9856 16.0898 50.8065 20.6843 50.2875 24.1576Z" fill="#1F2024"/>
<path d="M86.436 52.9037C85.9169 56.377 83.2553 57.4083 80.4894 55.2064C77.7235 53.0045 75.9026 48.41 76.4216 44.9367C76.9406 41.4635 79.6023 40.4321 82.3682 42.634C85.1341 44.8359 86.955 49.4304 86.436 52.9037Z" fill="#1F2024"/>
<path d="M91.854 48.4432C91.854 48.4432 91.8416 48.4677 91.8317 48.475C91.8305 48.4835 91.8193 48.4994 91.8009 48.5054C91.791 48.5127 91.7726 48.5187 91.7542 48.5247C91.4841 48.572 90.8028 47.9091 90.7525 46.7794C90.7589 46.7365 90.7469 46.6996 90.7533 46.6567C90.7524 46.604 90.7515 46.5513 90.7506 46.4985C90.7451 45.8314 90.8641 45.4458 90.9383 44.7731C90.9639 44.6015 90.9763 44.4017 90.9839 44.1749C91.0115 43.6968 91.0056 43.091 90.9631 42.2605C90.7921 39.2978 87.0031 30.8584 86.4482 29.8198C85.9211 28.8292 80.7465 24.3823 80.2574 23.9586C83.7143 26.6407 86.3408 28.7779 86.7592 29.3227C88.6428 31.796 90.6979 37.1708 91.5768 40.2655L91.5755 40.2741C91.7302 40.8233 91.8522 41.2974 91.9185 41.6756C91.9507 41.8119 91.9683 41.9285 91.9787 42.0353C92.0467 42.5189 92.0727 43.0488 92.0705 43.592C92.0662 43.6791 92.0705 43.7674 92.0663 43.8545C92.0647 44.0997 92.0559 44.3351 92.0457 44.5791C92.0381 44.8059 92.0219 45.0314 92.007 45.2484C91.9425 46.3259 91.8367 47.3271 91.8508 47.9956C91.8526 48.1011 91.8569 48.1894 91.8599 48.2863C91.8681 48.3489 91.8604 48.4003 91.8382 48.4321L91.854 48.4432Z" fill="#2E2F35"/>
<path d="M51.87 25.4162L51.5035 27.869L50.7519 27.2657L51.1184 24.8129C51.7221 20.7736 49.6019 15.4243 46.3894 12.8663C43.1684 10.3071 40.0704 11.5012 39.4655 15.549L38.8388 19.7427L38.0873 19.1394L38.714 14.9458C39.3958 10.3833 42.8946 9.02992 46.5317 11.9144C50.1675 14.8074 52.5616 20.8465 51.8798 25.4089L51.87 25.4162Z" fill="#5B73FF"/>
<path d="M88.0035 54.1521L87.6383 56.5963C87.5589 56.5406 87.4723 56.4751 87.3856 56.4095L86.8842 56.0102L87.2507 53.5574C87.8543 49.5181 85.7341 44.1687 82.5131 41.6095C79.3007 39.0516 76.2014 40.2542 75.5978 44.2935L75.2312 46.7463L74.4797 46.143L74.8462 43.6902C75.528 39.1278 79.0281 37.7658 82.6639 40.6589C86.2998 43.5519 88.6939 49.591 88.0108 54.162L88.0035 54.1521Z" fill="#5B73FF"/>
<path d="M91.9187 44.5392C91.9296 44.1726 91.9367 43.8317 91.9434 43.5522C91.9472 43.3511 91.9556 43.177 91.9564 43.0543C91.6111 42.7836 91.1963 42.4498 90.7412 42.0924C90.4667 41.8761 90.9166 41.3296 90.5726 41.0502C89.993 40.5866 89.3342 40.0673 88.7388 39.5926C88.1262 39.1153 87.5137 38.6379 86.9012 38.1606C86.9381 38.324 87.1384 39.2131 87.2547 39.4322C87.5513 40.0288 89.3124 42.5014 89.9077 42.9762C90.3616 43.3421 91.4562 44.172 91.9285 44.5319L91.9187 44.5392Z" fill="#2E2F35"/>
<path d="M50.0725 9.61717C50.0725 9.61717 55.8256 15.8251 56.5381 16.3962C57.2506 16.9674 76.8482 30.154 76.8482 30.154L83.9046 32.2167C83.9046 32.2167 81.7327 26.3335 80.885 25.4353C80.1492 24.6678 65.0431 13.2834 60.6957 10.6348C56.375 8.98084 50.0725 9.61717 50.0725 9.61717Z" fill="#1F2024"/>
<path d="M69.1129 16.4956L67.7892 24.0045L69.5645 25.2079L69.9112 17.0796L69.1129 16.4956Z" fill="#2E2F35"/>
<path d="M60.3625 10.5127L54.3605 14.1837L56.0925 16.0294L61.0813 10.8656L60.3625 10.5127Z" fill="#2E2F35"/>
<path d="M90.6566 57.1453C90.6566 57.1453 87.8741 59.0441 86.9426 59.5274C83.7719 61.149 77.0399 63.5448 73.6675 64.6979C71.3496 65.4826 64.4586 67.2409 64.4586 67.2409C64.4586 67.2409 63.1754 58.9304 66.6375 57.7644C70.0995 56.5984 91.8651 48.2954 91.8651 48.2954L90.6553 57.1539L90.6566 57.1453Z" fill="#495DCF"/>
<path d="M48.6778 8.47184L36.3196 18.8295L29.1129 24.8717L12.9884 16.4301L12.7769 16.3196L10.2555 15.0047C10.3309 14.9107 11.7372 13.2446 12.3505 12.8366C12.4195 12.7855 12.4971 12.7357 12.5747 12.6859C13.2347 12.2585 14.0028 11.8122 14.8605 11.3529C14.8605 11.3529 14.8901 11.331 14.9085 11.325C14.9085 11.325 14.9085 11.325 14.9184 11.3177C19.9489 8.63261 27.7808 5.68225 32.1924 5.02638C32.9007 4.9218 36.8175 4.17444 36.8175 4.17444L48.6606 8.46928L48.6778 8.47184Z" fill="#5B73FF"/>
<path d="M23.4158 17.0851C17.9642 14.3153 13.1951 15.0756 12.432 13.7867C12.4071 13.6602 13.0035 12.8375 13.0043 12.7149C13.0012 12.618 13.0067 12.5224 13.0208 12.428C13.0221 12.4194 13.0247 12.4023 13.0272 12.3851C17.2739 9.54781 25.5926 6.21429 31.4214 4.8759C31.7216 4.92075 32.7409 4.49443 33.0398 4.54786C34.6778 4.79264 34.6212 4.81925 36.0869 5.16103C39.0857 5.86341 43.4977 7.43454 44.4938 8.3374C46.1934 9.87144 31.7439 14.393 23.4145 17.0937L23.4158 17.0851Z" fill="#5B84FF"/>
<path d="M22.343 18.8462C22.343 18.8462 24.3773 16.2043 25.087 15.6791C29.2988 12.5473 36.591 9.80558 41.8758 8.76291C43.402 8.46493 51.1917 8.26126 51.1917 8.26126C51.1917 8.26126 55.4685 7.97978 58.9787 9.42492C62.489 10.8701 82.2611 25.7047 82.2611 25.7047L86.0763 30.4482L61.0247 41.1447L22.343 18.8462Z" fill="#3D3C51"/>
<path d="M38.6331 16.7672L36.3527 18.0046C36.3527 18.0046 34.1399 17.3232 31.2247 17.1769C29.2926 17.0811 26.9966 17.1325 25.673 17.189C25.2143 17.2081 24.9391 16.7023 25.188 16.3274L25.7553 15.4653L28.9863 13.616C29.4848 13.331 30.0051 13.0756 30.5375 12.8571L36.8746 10.2883C37.6024 9.99374 38.3458 9.77166 39.1145 9.61473C40.2995 9.37097 42.0911 8.99867 42.8537 8.82331C44.0438 8.54525 48.3828 8.31689 48.3828 8.31689C48.3828 8.31689 46.5914 8.27715 46.0876 8.2457C45.5838 8.21425 42.4044 8.13368 41.8308 8.27592C41.2572 8.41815 35.3719 9.78316 30.8769 11.7592C26.382 13.7353 24.6698 14.9261 24.3261 15.3482C22.5373 17.5796 22.3489 18.8403 22.3489 18.8403C23.7362 18.5917 29.2974 18.0462 32.7234 18.2952C34.3446 18.4761 36.3253 18.8334 36.3253 18.8334L38.6245 16.7659L38.6331 16.7672Z" fill="#2E2F35"/>
<path d="M60.3861 10.5234L61.1049 10.8763C60.9766 10.7957 60.8484 10.7152 60.736 10.6458C56.4153 8.99186 50.1128 9.62819 50.1128 9.62819C50.1128 9.62819 52.5071 12.2042 54.3927 14.1956L60.3946 10.5246L60.3861 10.5234Z" fill="#626082"/>
<path d="M36.2817 18.8067C36.2817 18.8067 37.9735 17.1657 38.6469 16.7666C42.8881 14.2003 52.2177 10.4391 57.0837 9.50047C57.7872 9.36888 59.9182 9.4243 59.9182 9.4243L62.3719 10.7817L80.2321 23.9191L86.7728 29.3153L60.3179 39.8985L36.289 18.8166L36.2817 18.8067Z" fill="#2E2F35"/>
<path d="M67.6138 59.8609C67.6138 59.8609 70.5627 59.5475 71.5208 59.2962C74.2049 58.5838 82.3639 55.4982 82.3639 55.4982C82.3639 55.4982 89.17 53.017 91.2054 51.5414C91.5886 51.2655 92.4129 50.0911 92.4129 50.0911L91.8922 48.2948L67.103 58.0573L67.6236 59.8536L67.6138 59.8609Z" fill="#495DCF"/>
<path d="M67.1024 58.0649C67.4532 58.2401 70.8683 58.2682 73.8913 57.1067C78.4031 55.3699 84.6093 52.7377 88.7228 50.9676C91.299 49.8621 91.8916 48.3024 91.8916 48.3024C91.8916 48.3024 91.0266 47.989 91.0796 46.8133C91.1325 45.6376 91.5655 42.3882 91.412 41.6551C91.2585 40.922 86.7763 29.3191 86.7763 29.3191L63.123 38.6376C63.123 38.6376 65.4512 44.8247 66.0883 48.7162C66.7353 52.6005 65.8459 54.563 67.0938 58.0636L67.1024 58.0649Z" fill="#2E2F35"/>
<path d="M65.6946 67.001C65.7499 66.983 62.2087 67.6813 61.0642 66.7738L60.5628 66.3744L60.9293 63.9217C61.5329 59.8824 59.4127 54.533 56.1917 51.9738C52.9793 49.4158 49.88 50.6185 49.2764 54.6578L49.0366 56.8489L24.5485 37.3729L24.7883 35.1818C25.3919 31.1425 23.2717 25.7931 20.0593 23.2352C16.8383 20.6759 13.7403 21.87 13.1354 25.9179L12.6317 29.2883C11.7935 28.6194 11.4092 28.3165 11.4092 28.3165C11.4092 28.3165 9.41505 26.0546 9.09412 23.3325C9.03123 22.8146 9.25989 16.8255 9.80896 15.7327C10.3666 14.6412 11.0106 16.1402 13.68 15.9956C15.8795 15.8859 22.3465 18.8425 22.3465 18.8425C22.3465 18.8425 34.1491 17.2483 37.8793 19.568C43.3196 22.9411 61.9152 37.0826 63.0948 38.6354C65.4259 41.6929 66.8937 50.4693 67.189 52.6001C67.2032 52.6812 67.0457 57.7253 67.0741 58.0627C67.1743 59.27 67.5343 58.9731 67.5948 59.8589C67.648 60.7349 66.7059 66.6875 65.692 67.0182L65.6946 67.001Z" fill="#546AEB"/>
<path d="M57.6091 42.5984C57.6091 42.5984 61.7945 45.4508 65.0321 46.9604C64.1755 44.0093 64.348 40.2738 63.1028 38.6323C61.9233 37.0795 43.3362 22.9392 37.8873 19.5649C33.9469 17.1261 22.3545 18.8394 22.3545 18.8394L23.7782 19.9903L57.6104 42.5898L57.6091 42.5984Z" fill="#5B84FF"/>
<path d="M67.6247 59.8645C67.5642 58.9787 67.2042 59.2756 67.104 58.0683C67.079 57.7664 67.2025 53.8307 67.2199 52.8338C65.1446 51.1735 59.9033 47.9354 57.3169 46.0584C53.8759 43.5627 43.8753 37.0883 41.8971 35.7757C39.9189 34.463 29.3146 27.2759 24.4535 23.0776C18.9631 18.338 16.463 18.2888 13.2234 18.6113C12.3865 18.6967 9.87498 19.8381 9.83885 15.7383C9.2812 16.8298 8.78118 21.3493 8.84406 21.8672C9.16627 24.5807 11.4404 28.3135 11.4404 28.3135C11.4404 28.3135 11.8247 28.6165 12.6629 29.2853L13.1665 25.9149C13.7702 21.8756 16.8695 20.6729 20.0905 23.2322C23.3115 25.7914 25.4231 31.1395 24.8195 35.1788L24.5797 37.3699L49.0678 56.8459L49.3076 54.6548C49.9112 50.6155 53.0105 49.4128 56.2229 51.9708C59.4439 54.53 61.5641 59.8794 60.9605 63.9187L60.594 66.3715L61.0954 66.7708C62.2399 67.6783 65.7725 66.9787 65.7258 66.9981C66.7383 66.6759 67.5689 60.5313 67.6285 59.8388L67.6247 59.8645Z" fill="#495DCF"/>
<path d="M90.678 57.1484C90.5585 57.2445 90.4513 57.3162 90.3369 57.378C90.3369 57.378 90.3356 57.3866 90.327 57.3853C89.5375 57.9161 87.7061 59.1417 86.9753 59.5147C83.8046 61.1363 77.0726 63.5321 73.7001 64.6852C71.8345 65.3182 67.1528 66.9595 65.2398 67.1471C65.0336 67.1777 64.8102 67.2056 64.5808 67.2152C64.5538 67.2199 64.5268 67.2247 64.5011 67.2208C63.5295 67.2685 62.2259 67.6611 61.1059 66.7661L60.6044 66.3667L60.9709 63.914C61.5746 59.8747 59.4544 54.5253 56.2346 51.9575C53.0222 49.3995 49.9229 50.6022 49.3193 54.6415L49.0795 56.8326L25.3516 37.9612L24.5987 37.3665L24.8385 35.1754C25.4421 31.1361 23.3305 25.788 20.1095 23.2287C16.8885 20.6695 13.799 21.8649 13.1941 25.9128L12.6905 29.2831C12.3769 29.0346 12.1268 28.8307 11.939 28.6798C11.6168 28.43 11.468 28.3114 11.468 28.3114C11.468 28.3114 9.32793 25.8523 9.00571 23.1388C8.98334 22.9952 8.90468 22.6415 8.87166 21.865C9.71496 23.2623 11.0285 24.388 11.9675 25.2034C12.3726 23.6069 13.3468 18.9654 17.4435 20.1825C21.5414 21.3911 25.1134 25.239 25.9103 30.2328C26.7157 35.2279 25.8466 36.1151 25.9121 36.6159C25.9775 37.1166 44.7825 51.4999 45.7814 51.9736C46.7631 52.4447 48.644 52.2961 49.3006 51.0703C49.9572 49.8446 52.3939 47.5609 55.7257 49.672C59.0575 51.7831 63.0775 56.9167 64.2261 58.4999C64.4802 58.8535 64.753 59.1398 65.0336 59.3746C65.8314 60.0198 66.7143 60.2132 67.5994 60.2753C67.8077 60.2889 68.0174 60.2939 68.2185 60.2976C69.6274 60.3153 72.4745 59.6273 78.8209 57.6999C82.3117 56.6347 85.1216 55.4326 87.1847 54.417C88.8688 53.5902 90.0591 52.9001 90.7102 52.5327C90.9786 52.38 91.219 52.1792 91.4063 52.0406C92.1297 51.4823 92.5239 51.0152 92.6496 50.3501C92.5734 52.0922 92.2938 55.8994 90.7123 57.1535L90.678 57.1484Z" fill="#4052B5"/>
<path d="M48.6611 53.3495C49.9513 48.764 53.0361 47.717 56.7712 49.4763C60.5063 51.2356 63.9619 55.4519 61.7789 62.1397C60.6128 54.6884 56.4827 50.2924 52.1114 50.2091C50.8607 50.1888 48.6598 53.3581 48.6598 53.3581L48.6611 53.3495Z" fill="#5B73FF"/>
<path d="M47.696 52.1586C47.3158 52.356 45.2847 52.2191 44.549 51.6269C40.3071 48.2137 27.1891 38.31 26.8729 37.9033C25.0738 35.6267 39.986 46.0791 42.5042 47.7091C44.8795 49.2389 48.3334 51.8242 47.696 52.1586Z" fill="#5B73FF"/>
<path d="M13.9638 21.8291C21.9709 20.0535 24.7203 28.2324 25.6502 35.0346C26.8574 26.956 23.9406 23.0657 20.3475 20.7665C15.9215 17.9396 13.9638 21.8291 13.9638 21.8291Z" fill="#5B73FF"/>
<path d="M23.9906 34.5399C23.4716 38.0132 20.81 39.0445 18.0441 36.8426C15.2782 34.6407 13.4573 30.0463 13.9763 26.573C14.4953 23.0997 17.157 22.0683 19.9229 24.2702C22.6887 26.4721 24.5097 31.0666 23.9906 34.5399Z" fill="#1F2024"/>
<path d="M60.1391 63.2865C59.62 66.7598 56.9584 67.7911 54.1925 65.5892C51.4266 63.3873 49.6057 58.7928 50.1247 55.3195C50.6438 51.8463 53.3054 50.8149 56.0713 53.0168C58.8372 55.2187 60.6581 59.8132 60.1391 63.2865Z" fill="#1F2024"/>
<path d="M47.8772 55.2275L47.9169 54.9616C47.9169 54.9616 48.3157 51.1197 50.3759 49.5951C51.1349 49.0335 52.0473 48.8542 53.0541 49.0397C53.0798 49.0435 53.1056 49.0474 53.1227 49.0499C53.8431 49.1576 55.0214 48.4306 55.5078 48.1088C56.4242 47.4917 57.3863 46.6272 57.4683 46.0784C57.9066 43.1454 57.7897 37.1221 57.7901 37.0608L57.4908 37.0687C57.4904 37.13 57.6026 43.1262 57.1682 46.0335C57.1118 46.4108 56.328 47.1968 55.3341 47.8636C54.3881 48.5026 53.5201 48.8551 53.1148 48.7507C52.0089 48.524 51.0216 48.736 50.1923 49.3573C48.3378 50.7372 47.7739 53.7479 47.6368 54.6655C39.4554 48.2788 27.3581 38.7031 27.0164 38.0558C26.9333 37.4384 27.3997 27.1011 27.5516 26.5539C27.6535 26.1658 29.4119 24.8417 30.4886 24.0907L30.3148 23.8456C29.8356 24.1773 27.426 25.8688 27.2566 26.4747C27.097 27.0734 26.6208 37.418 26.7266 38.1177C26.823 38.7634 42.7731 51.2471 47.6576 55.0544L47.8699 55.2176L47.8772 55.2275Z" fill="#4255BA"/>
<path d="M40.0947 49.0548L40.3927 49.0555L40.4163 47.4896C40.4335 45.9666 41.9236 36.2294 42.0233 35.7972C42.0977 35.4751 42.6485 34.3124 42.8609 33.8883L42.592 33.7517C42.556 33.8164 41.8339 35.3042 41.7356 35.7279C41.6333 36.1773 40.1397 45.8789 40.1183 47.4889L40.0947 49.0548Z" fill="#4255BA"/>
<path d="M67.1112 58.0684C67.0111 56.8611 67.5227 54.7281 67.2261 52.6059C66.9296 50.4837 65.4618 41.7072 63.1319 38.6411C62.823 38.2442 59.0865 34.0298 56.9868 32.3571C56.1791 31.7191 55.3942 32.1016 56.5997 33.2461C56.6083 33.2474 61.5773 38.0143 62.1543 39.4332C62.5961 40.525 66.073 49.0581 66.1998 52.0229C66.2893 54.1229 66.2342 54.4917 66.2971 55.9478C66.3601 57.4038 67.1456 58.0735 67.1112 58.0684Z" fill="#2E2F35"/>
<path d="M92.089 44.7985C92.0647 44.9615 91.9365 45.0563 91.7522 45.1164C91.5052 45.1847 91.1644 45.1776 90.9045 45.1563C90.6961 45.1427 90.5431 45.1111 90.5431 45.1111C91.4652 44.1617 91.9995 43.4612 92.0026 42.0326C92.0496 42.5394 92.0824 42.9651 92.1058 43.3368C92.1313 43.7527 92.1328 44.0949 92.1261 44.3745C92.1202 44.5314 92.1095 44.6613 92.0989 44.7912L92.089 44.7985Z" fill="#2E2F35"/>
<path d="M25.5597 35.7843L25.3199 37.9754L24.5671 37.3807L24.8069 35.1896C25.4105 31.1503 23.2989 25.8022 20.0779 23.2429C16.8569 20.6837 13.7674 21.8791 13.1625 25.927L12.6589 29.2973C12.3453 29.0488 12.0952 28.8449 11.9073 28.6941L12.411 25.3237C13.0928 20.7612 16.5916 19.4079 20.2287 22.2923C23.8658 25.1767 26.2586 31.2244 25.5769 35.7869L25.5597 35.7843Z" fill="#495DCF"/>
<path d="M61.7145 64.5354L61.3492 66.9796C61.2699 66.9239 61.1832 66.8584 61.0966 66.7928L60.5951 66.3935L60.9616 63.9407C61.5653 59.9014 59.4451 54.552 56.2241 51.9928C53.0116 49.4349 49.9123 50.6375 49.3087 54.6768L49.0689 56.868L48.3174 56.2647L48.5572 54.0735C49.239 49.5111 52.7391 48.1491 56.3749 51.0422C60.0107 53.9352 62.4048 59.9743 61.7217 64.5453L61.7145 64.5354Z" fill="#495DCF"/>
<path d="M67.1295 65.8182C67.6791 65.7776 68.9471 65.2131 69.4079 65.0627C70.4218 64.732 69.3783 64.1465 69.4379 63.454C68.231 63.4928 67.7294 64.4437 67.178 65.1416C66.6921 65.7528 67.078 65.8105 67.1295 65.8182Z" fill="#2E2F35"/>
<path d="M23.8003 20.0028C23.8003 20.0028 29.7656 26.0232 30.266 26.7818C31.053 27.9691 51.3946 40.6356 51.3407 40.233L57.6252 42.5924C57.6252 42.5924 58.1371 35.6462 57.2795 34.7552C56.5438 33.9877 41.4377 22.6033 37.0903 19.9547C32.7696 18.3008 23.793 19.9929 23.793 19.9929L23.8003 20.0028Z" fill="#2E2F35"/>
<path d="M51.1926 39.6658C48.808 38.4327 31.5323 27.6622 30.6445 26.5037C30.2145 25.8608 26.3878 21.9573 24.7735 20.322C26.7302 20.0182 31.4432 19.3986 34.9165 19.9177C35.6626 20.0292 36.3226 20.1892 36.8621 20.3925C41.2082 23.0498 56.135 34.2846 56.9171 35.0941C57.3067 35.5381 57.3552 38.8507 57.1687 41.9178L51.1913 39.6743L51.1926 39.6658Z" fill="#3D3C51"/>
<path d="M45.4776 25.8173L41.5345 34.0745L43.3111 35.2694L46.2758 26.4013L45.4776 25.8173Z" fill="#2E2F35"/>
<path d="M35.1516 19.5571L27.6195 23.5518L29.3514 25.3975L35.8704 19.91L35.1516 19.5571Z" fill="#2E2F35"/>
<path d="M88.0378 57.6129C88.5875 57.5723 88.5306 57.8356 88.9515 57.6004C90.7338 56.5866 90.8568 55.7633 91.0189 55.1475C91.0817 54.7273 90.9225 54.5019 90.6371 54.6521C89.7352 55.1135 88.9447 56.179 88.4923 56.7427C88.0064 57.3539 88.0164 57.6973 88.028 57.6202L88.0378 57.6129Z" fill="#2E2F35"/>
<path d="M90.2883 55.1306C90.2883 55.1306 88.527 56.8839 87.7383 57.2921C84.944 58.742 83.1991 59.8577 73.7877 62.8176C72.2602 63.2995 69.4386 63.4652 69.4386 63.4652C69.4386 63.4652 66.0176 65.8824 67.2957 65.8366C68.5738 65.7909 78.5346 62.2644 81.4741 61.1343C87.1034 58.9595 89.5241 57.2521 89.5241 57.2521L90.2969 55.1318L90.2883 55.1306Z" fill="#2E2F35"/>
<path d="M89.4967 42.3128C89.4967 42.3128 89.2915 42.5715 89.1942 42.6358C87.344 43.9287 82.5647 45.8711 78.4875 47.3397C76.1988 48.1638 74.1343 48.8372 72.918 49.1728C72.4512 49.3046 71.0093 49.4486 71.0093 49.4486C70.4717 49.5261 69.9374 49.4638 69.4395 49.2754C69.4224 49.2729 69.4151 49.263 69.3979 49.2605C68.8769 49.0511 68.4119 48.701 68.0605 48.2364C68.0605 48.2364 66.6212 43.0239 65.9477 40.0212C65.7642 39.1959 66.2808 38.3788 67.1074 38.1867C68.7125 37.8304 71.2093 37.2566 72.2793 36.9606C72.9931 36.7604 73.6824 36.5478 74.3585 36.3069C76.9554 35.4149 79.3687 34.2851 81.8956 33.0407C82.4825 32.7514 83.8383 32.0684 84.6988 31.3554C85.2487 30.9027 86.7828 30.904 87.2046 31.4843C89.0231 33.983 90.3297 38.2639 90.4054 38.5207C90.4054 38.5207 90.4054 38.5207 90.4041 38.5293C90.417 38.6189 90.4398 38.7012 90.4527 38.7908C90.4514 38.7994 90.4574 38.8178 90.4561 38.8264C90.5695 39.8867 90.1048 41.5883 89.4736 42.2918L89.4967 42.3128Z" fill="#3D3C51"/>
<path d="M87.2995 45.0749C86.9682 45.2972 82.2714 47.3922 78.8848 48.6396C77.9113 48.9939 77.0522 49.2863 76.4233 49.4466C74.1375 50.0168 72.123 50.5312 69.4575 49.2999C69.4404 49.2974 69.4331 49.2875 69.4159 49.285C69.4159 49.285 73.2418 47.0335 77.6332 44.5773C83.4214 41.3391 90.1978 37.7663 90.4392 38.5564C90.4392 38.5564 90.4392 38.5564 90.4379 38.565C90.4508 38.6546 90.4736 38.7369 90.4865 38.8265C90.4852 38.835 90.4912 38.8535 90.49 38.8621C90.9834 41.8378 89.8184 43.3559 87.2909 45.0736L87.2995 45.0749Z" fill="#3D3C51"/>
<g style="mix-blend-mode:screen">
<path d="M77.8643 55.5042C77.5441 53.4223 78.2663 51.3471 78.373 50.3986C78.4852 49.3545 77.0382 39.4414 75.1128 38.1279C74.2214 37.5213 71.3633 36.6996 68.7618 36.3898L64.1231 38.2129C64.1738 38.3432 64.2318 38.4833 64.3154 38.6274C66.6211 42.7945 67.9727 49.239 68.0834 50.3164C68.1942 51.3938 68.0278 54.385 68.3296 55.1227C68.4756 55.4953 68.6912 56.8689 68.9727 58.0946C70.3087 58.0137 72.1561 57.7374 73.8686 57.0727C75.0968 56.5987 76.4578 56.0568 77.8669 55.4871L77.8643 55.5042Z" fill="#131317"/>
</g>
<g style="mix-blend-mode:screen">
<path d="M78.2677 48.8487C77.5449 49.1089 76.901 49.3108 76.4084 49.4388C74.1226 50.009 72.1081 50.5234 69.4426 49.2922C69.4255 49.2896 69.4182 49.2797 69.4011 49.2772C68.88 49.0678 68.415 48.7178 68.0636 48.2532C68.0636 48.2532 66.6244 43.0406 65.9508 40.0379C65.7673 39.2126 66.2839 38.3956 67.1105 38.2034C68.6247 37.8686 70.9213 37.3438 72.0809 37.0349C73.4583 37.381 74.6059 37.798 75.1065 38.1446C76.093 38.8181 76.9595 41.7619 77.5519 44.6034C77.7599 45.6165 77.935 46.6158 78.0753 47.496C78.1506 47.9895 78.2126 48.4547 78.2677 48.8487Z" fill="#131317"/>
</g>
<path d="M81.4453 54.0337C81.4453 54.0337 71.4164 57.664 69.0155 57.2438C67.5541 56.9904 66.2221 54.1699 66.2221 54.1699L64.9671 57.2877L67.1278 58.4347C67.1278 58.4347 72.4418 58.1942 73.3262 57.9669C74.2205 57.7323 81.4453 54.0337 81.4453 54.0337Z" fill="#495DCF"/>
<path d="M91.9642 46.2781C91.9642 46.2781 91.6302 48.6305 90.3595 49.6242C88.9014 50.7565 86.3256 51.9761 86.3256 51.9761C86.3256 51.9761 88.2228 51.7774 89.0267 51.6783C89.8306 51.5793 91.8664 50.0423 91.9483 48.5553C92.0302 47.0683 91.9728 46.2794 91.9728 46.2794L91.9642 46.2781Z" fill="#495DCF"/>
<path d="M13.4427 13.0017C12.9264 14.3449 13.8369 15.5856 13.6957 16.0029C13.6743 16.0874 13.3862 16.2548 13.0086 16.4351C12.5842 16.6347 12.0334 16.8592 11.576 17.0451C11.0633 17.2491 10.4864 16.9437 10.3661 16.3996C10.2599 15.9366 10.191 15.4003 10.2856 15.0023C10.361 14.9084 11.7673 13.2423 12.3806 12.8342C12.4496 12.7831 12.5272 12.7334 12.6048 12.6836C13.2648 12.2562 14.0329 11.8098 14.8906 11.3506C14.5705 11.557 13.5982 12.6655 13.444 12.9931L13.4427 13.0017Z" fill="#CCDFF2"/>
<path d="M13.7028 16.0033C13.8303 15.619 13.094 14.5621 13.3446 13.3545C12.8533 14.2368 12.5715 14.9487 12.4928 15.1824C12.4063 15.4676 12.05 16.1508 12.3504 16.7218C12.584 16.6252 12.8104 16.5187 13.0084 16.4255C13.386 16.2453 13.6741 16.0779 13.6955 15.9934L13.7028 16.0033Z" fill="#9BACBF"/>
<path d="M63.5811 38.8216C65.4308 41.2285 66.9967 42.7777 68.307 42.8683C69.6174 42.9589 74.7567 41.6577 78.9187 39.9738C83.0806 38.2899 86.8553 36.3815 87.8923 35.3091C88.9293 34.2366 88.5773 33.4826 87.736 32.5415C86.8947 31.6004 85.0069 29.3894 85.0069 29.3894C85.0069 29.3894 83.0903 31.8297 80.4962 33.2306C77.9021 34.6315 70.291 37.5711 68.8308 37.8964C67.3706 38.2218 65.6977 38.4453 64.6716 38.3884C64.3406 38.374 63.5884 38.8315 63.5884 38.8315L63.5811 38.8216Z" fill="#232429"/>
<path d="M61.5932 37.2399C65.1655 40.0884 67.2032 41.2959 68.5149 41.378C69.8252 41.4686 74.9645 40.1674 79.1265 38.4835C83.2885 36.7996 87.5144 34.5115 88.5514 33.4391C89.5884 32.3666 89.2364 31.6126 88.3951 30.6715C87.5538 29.7304 85.2147 27.8991 85.2147 27.8991C85.2147 27.8991 83.2982 30.3394 80.7041 31.7403C78.11 33.1413 70.4989 36.0808 69.0387 36.4062C67.5785 36.7315 65.0336 37.3332 64.0072 37.3376C62.9794 37.3506 61.6018 37.2412 61.6018 37.2412L61.5932 37.2399Z" fill="#2E2F35"/>
<path d="M63.2427 12.3141C66.7165 14.4727 72.2429 18.3847 82.3296 26.9236C82.7735 27.2968 82.7519 27.7933 82.3178 28.1756C81.8738 28.5652 81.2065 28.9827 80.9111 29.1402C77.3029 31.1085 69.5305 33.9538 65.541 34.9533C65.2855 35.0204 64.8645 35.0802 64.4091 35.1349C63.0076 35.3025 61.5899 34.9328 60.4511 34.105C48.9809 25.789 43.6202 22.235 42.5082 21.0518C41.3353 19.8068 63.2415 12.3227 63.2415 12.3227L63.2427 12.3141Z" fill="#3D3C51"/>
<path d="M69.6055 16.8571L69.8036 17.0009C69.74 16.9562 69.6777 16.903 69.6055 16.8571Z" fill="#626082"/>
<path d="M82.3482 28.1872C81.9978 27.3633 81.6398 26.5909 81.3342 26.0543C78.9582 24.0597 76.8503 22.3243 74.9616 20.8234C73.3934 19.6422 71.6566 18.3568 69.9271 17.0814L69.5805 25.2097L67.8039 24.0148L69.119 16.5047C66.9928 14.9507 64.9262 13.4671 63.2559 12.3232C63.2559 12.3232 60.9368 13.1164 57.8601 14.226L56.1379 16.0115C56.3365 16.2077 56.4815 16.3522 56.5682 16.4177C57.2807 16.9889 76.8782 30.1754 76.8782 30.1754L78.0961 30.5328C79.1845 30.0554 80.1575 29.5871 80.9402 29.1605C81.2355 29.0029 81.893 28.5927 82.337 28.2031L82.3482 28.1872Z" fill="#626082"/>
<path d="M74.9679 20.8252L65.5009 13.9483C64.4045 13.1883 63.0238 12.9819 61.5867 13.3283C57.0214 14.4259 48.4073 17.9169 44.3057 20.1359C43.4184 20.6171 42.8756 21.3162 43.4547 21.8412L46.3363 23.9727L44.3639 23.0905L40.2417 20.5193L63.7052 11.7073L68.6188 15.3787L74.9606 20.8153L74.9679 20.8252Z" fill="#2E2F35"/>
<path d="M72.9775 57.2479C69.8894 57.8473 67.9746 57.9294 67.0074 57.3026C66.2967 56.837 64.1786 55.3456 64.9742 57.2969C65.6865 59.0429 67.3746 59.8913 68.4816 59.7586C69.5899 59.6174 71.779 59.4009 77.9882 57.4531C84.1973 55.5052 88.8366 53.2087 90.3882 52.2132C91.947 51.2274 92.7708 49.939 92.5423 49.2385C92.3066 48.5282 91.9836 46.8754 91.9836 46.8754C91.9836 46.8754 92.1273 48.3786 90.5413 49.9565C88.9553 51.5344 82.6097 54.1019 80.3432 54.8942C78.0867 55.6792 72.9591 57.2539 72.9591 57.2539L72.9775 57.2479Z" fill="#5B73FF"/>
<path d="M23.9828 34.5375C23.4638 38.0107 20.8022 39.0421 18.0363 36.8402C15.2704 34.6383 13.4495 30.0438 13.9685 26.5705C14.4875 23.0972 17.1492 22.0659 19.915 24.2678C22.6809 26.4697 24.5019 31.0642 23.9828 34.5375Z" fill="#393843"/>
<path d="M23.6584 34.42C23.1598 37.756 20.6002 38.75 17.9356 36.6334C15.2795 34.5181 13.5213 30.0907 14.0198 26.7547C14.5183 23.4186 17.0779 22.4246 19.7426 24.5412C22.3987 26.6566 24.1569 31.0839 23.6584 34.42Z" fill="#2D2C37"/>
<path d="M22.9691 33.893C22.5437 36.7402 20.3664 37.5809 18.102 35.7784C15.8375 33.9758 14.3485 30.2112 14.774 27.364C15.1995 24.5167 17.3767 23.676 19.6411 25.4786C21.9056 27.2811 23.3946 31.0457 22.9691 33.893Z" fill="#504F58"/>
<path d="M22.8782 33.5684C22.4758 36.2613 20.4091 37.0659 18.2618 35.3598C16.1144 33.6536 14.7014 30.0845 15.1051 27.383C15.5088 24.6816 17.5742 23.8855 19.7215 25.5917C21.8688 27.2978 23.2819 30.867 22.8782 33.5684Z" fill="#BABABE"/>
<path d="M15.2754 28.2507C15.2249 29.8213 15.7327 31.7033 16.7489 33.293C17.7664 34.8742 19.0407 35.7923 20.1659 35.8903C20.6598 35.9291 21.1241 35.8143 21.5184 35.5226C21.6453 35.4363 21.7674 35.3231 21.875 35.1901C21.896 35.1669 21.917 35.1438 21.9392 35.112C22.0146 35.0181 22.0913 34.9156 22.1522 34.8019C22.2353 34.6565 22.3111 34.5012 22.3783 34.3447C22.4918 34.0548 22.5748 33.734 22.626 33.391C22.6491 33.2366 22.6734 33.0737 22.6721 32.9069C22.6849 32.8211 22.6793 32.7414 22.6822 32.6629C22.6899 32.6115 22.6817 32.5489 22.6808 32.4961C22.6885 32.4447 22.6791 32.3907 22.6782 32.3379C22.6755 32.1797 22.6729 32.0215 22.653 31.8607C22.6474 31.781 22.6405 31.7098 22.6263 31.6288C22.6194 31.5576 22.6113 31.495 22.6031 31.4324C22.5914 31.3342 22.5798 31.236 22.5583 31.1452C22.5428 31.0727 22.536 31.0015 22.5205 30.9291C22.4611 30.6221 22.3761 30.3113 22.2824 29.9992C22.2657 29.9354 22.2403 29.8702 22.2236 29.8063C22.1501 29.5937 22.0754 29.3896 21.9848 29.1744C21.9668 29.1191 21.9389 29.0711 21.9209 29.0158C21.8822 28.9224 21.835 28.8277 21.7878 28.7329C21.6221 28.375 21.4208 28.0205 21.2084 27.6819C21.1015 27.5169 20.9861 27.3506 20.8767 27.2027C20.8269 27.1252 20.7673 27.0549 20.7162 26.9859C20.7016 26.9662 20.6784 26.9452 20.6639 26.9254C20.6201 26.8663 20.575 26.8157 20.53 26.7652C19.9774 26.1215 19.3893 25.6566 18.8 25.3756C17.7681 24.8883 16.7692 25.002 16.081 25.7935C16.06 25.8166 16.039 25.8398 16.018 25.863C15.8882 26.0277 15.773 26.2121 15.6822 26.409C15.4286 26.9322 15.2995 27.5617 15.2742 28.2593L15.2754 28.2507Z" fill="url(#paint0_linear_25400_334)"/>
<path d="M20.741 27.7446L20.6058 28.943C21.0569 28.9754 21.5092 28.9991 21.9298 29.0006C21.8912 28.9072 21.844 28.8124 21.7968 28.7177C21.6311 28.3598 21.4298 28.0053 21.2173 27.6667C21.1105 27.5017 20.9951 27.3354 20.8857 27.1875C20.8359 27.1099 20.7762 27.0396 20.7252 26.9706C20.7106 26.9509 20.6874 26.9299 20.6728 26.9102C20.6291 26.8511 20.584 26.8005 20.539 26.7499C19.9864 26.1062 19.3983 25.6414 18.809 25.3604C17.7771 24.873 16.7782 24.9868 16.09 25.7782C19.3363 25.1762 20.7325 27.7433 20.7325 27.7433L20.741 27.7446Z" fill="#393843"/>
<path d="M15.5394 28.2742C15.5394 28.2742 16.3647 29.7915 17.3743 30.3106C18.3839 30.8297 20.0632 33.6145 20.0632 33.6145L20.6034 28.9432C18.1581 28.7619 15.5492 28.2669 15.5492 28.2669L15.5394 28.2742Z" fill="#393843"/>
<path d="M17.788 27.7873C17.7438 29.1397 18.1859 30.7576 19.0514 32.1232C19.5346 32.8792 20.0889 33.453 20.6469 33.8258C21.0999 34.1389 21.5562 34.3123 21.9803 34.3494C22.0146 34.3545 22.0489 34.3597 22.0759 34.3549C22.1788 34.3703 22.277 34.3587 22.3752 34.347C22.4886 34.0571 22.5716 33.7364 22.6229 33.3933C22.646 33.239 22.6703 33.076 22.6689 32.9092C22.6817 32.8235 22.6761 32.7437 22.6791 32.6653C22.6868 32.6138 22.6786 32.5512 22.6777 32.4985C22.6854 32.447 22.6759 32.393 22.675 32.3403C22.6724 32.182 22.6697 32.0238 22.6499 31.8631C22.6443 31.7833 22.6374 31.7121 22.6232 31.6311C22.6163 31.5599 22.6081 31.4973 22.5999 31.4347C22.5883 31.3366 22.5767 31.2384 22.5552 31.1475C22.5397 31.075 22.5328 31.0039 22.5173 30.9314C22.458 30.6245 22.3729 30.3137 22.2793 30.0016C22.2625 29.9377 22.2372 29.8725 22.2204 29.8087C22.147 29.596 22.0723 29.392 21.9817 29.1768C21.925 29.028 21.8499 28.8853 21.7847 28.7353C21.619 28.3773 21.4177 28.0229 21.2052 27.6843C21.0984 27.5192 20.983 27.3529 20.8735 27.2051C20.8238 27.1275 20.7641 27.0572 20.7131 26.9882C20.6985 26.9685 20.6753 26.9475 20.6607 26.9278C20.617 26.8686 20.5719 26.8181 20.5269 26.7675C19.9743 26.1238 19.3862 25.6589 18.7969 25.378C18.6589 25.4801 18.5269 25.6006 18.4082 25.7495C18.2994 25.891 18.1978 26.0425 18.1195 26.2149C18.0038 26.4606 17.9187 26.7372 17.8554 27.0434C17.8109 27.2822 17.781 27.5408 17.767 27.8105L17.788 27.7873Z" fill="url(#paint1_linear_25400_334)"/>
<path d="M20.512 30.4735L21.3038 30.1622L21.997 29.1611C21.9403 29.0123 21.8652 28.8696 21.7999 28.7196C21.6342 28.3616 21.433 28.0072 21.2205 27.6686C21.1137 27.5035 20.9982 27.3372 20.8888 27.1894C20.8391 27.1118 20.7794 27.0415 20.7284 26.9725C20.7138 26.9528 20.6906 26.9318 20.676 26.9121C20.5174 26.9761 20.3957 27.028 20.3858 27.0353L21.1385 28.2174L20.512 30.4735Z" fill="url(#paint2_linear_25400_334)"/>
<path d="M20.5101 30.4757L20.2675 31.3951L20.6406 33.8268L20.8015 34.9205C20.8784 35.1687 20.4756 35.6346 20.6253 35.6306C20.8731 35.6151 21.5259 35.3532 21.8753 35.1862C21.8963 35.163 21.9173 35.1398 21.9396 35.1081C22.015 35.0142 22.0917 34.9116 22.1525 34.798C22.1602 34.7465 22.1434 34.6827 22.1267 34.6188L22.0806 34.3401L21.3452 30.2848L21.3031 30.1558L20.5114 30.4671L20.5101 30.4757Z" fill="url(#paint3_linear_25400_334)"/>
<path d="M16.6345 26.3524C16.6996 26.3271 16.7841 26.3485 16.8622 26.4128L20.1236 28.4082L20.209 28.4823L19.9296 30.3519L19.2244 29.7906L16.512 28.2279C16.3473 28.0981 16.2387 27.8276 16.2622 27.6119C16.3065 27.1977 15.6847 27.0171 15.8144 26.677C15.8418 26.611 16.5792 26.3705 16.6345 26.3524Z" fill="url(#paint4_linear_25400_334)"/>
<path d="M19.5724 31.8535L21.5458 28.9745C21.6422 28.8574 21.6266 28.6096 21.5163 28.409C21.4 28.19 21.2824 27.9795 21.1463 27.7751C21.0103 27.5706 20.873 27.3747 20.7344 27.1874C20.6031 27.01 20.4243 26.9745 20.3365 27.0929L18.3631 29.9719L19.5712 31.862L19.5724 31.8535Z" fill="#DFDFE3"/>
<path d="M19.1795 30.6639L19.4588 28.7944L19.3649 28.719L16.1035 26.7236C15.9632 26.6062 15.8183 26.6371 15.7609 26.7864C15.6312 27.1264 15.5478 27.5085 15.5034 27.9227C15.48 28.1384 15.5886 28.4089 15.7533 28.5387L18.4657 30.1014L19.1709 30.6627L19.1795 30.6639Z" fill="#DFDFE3"/>
<path d="M21.2637 35.4214C21.3782 35.3596 21.4076 35.1624 21.3441 34.9424L20.5613 30.6171L20.5192 30.488L19.1679 30.6719L19.4849 31.7187L20.0189 35.2442C20.0958 35.4924 20.2713 35.6676 20.4295 35.665C20.7215 35.6472 21.004 35.5755 21.2624 35.43L21.2637 35.4214Z" fill="#DFDFE3"/>
<path d="M20.4977 35.196C20.4977 35.196 20.4698 35.148 20.4591 35.1026L19.907 31.5218L18.8058 29.7967L16.03 28.1895C15.9909 28.1573 15.9377 28.0442 15.948 27.9756C15.9753 27.7341 16.0184 27.5039 16.0676 27.292L19.4316 29.3641L20.5085 27.6137C20.6034 27.7419 20.6883 27.8773 20.7819 28.0141C20.902 28.2074 21.0209 28.4092 21.1299 28.6184C21.1578 28.6664 21.16 28.7106 21.1647 28.7376L20.0557 30.527L20.908 35.0908C20.7764 35.15 20.6401 35.1822 20.4977 35.196Z" fill="#4B4A4B"/>
<path d="M60.1078 63.2836C59.5888 66.7568 56.9272 67.7882 54.1613 65.5863C51.3954 63.3844 49.5744 58.7899 50.0935 55.3166C50.6125 51.8433 53.2741 50.812 56.04 53.0139C58.8059 55.2158 60.6269 59.8103 60.1078 63.2836Z" fill="#393843"/>
<path d="M59.7834 63.1729C59.2848 66.509 56.7252 67.503 54.0606 65.3863C51.4045 63.271 49.6463 58.8437 50.1448 55.5076C50.6433 52.1715 53.2029 51.1775 55.8676 53.2942C58.5237 55.4095 60.2819 59.8368 59.7834 63.1729Z" fill="#2D2C37"/>
<path d="M59.0941 62.6469C58.6687 65.4941 56.4914 66.3348 54.227 64.5323C51.9625 62.7297 50.4735 58.9651 50.899 56.1179C51.3245 53.2706 53.5017 52.4299 55.7661 54.2325C58.0306 56.035 59.5196 59.7996 59.0941 62.6469Z" fill="#504F58"/>
<path d="M58.9954 62.3291C58.5929 65.022 56.5263 65.8267 54.379 64.1205C52.2316 62.4143 50.8186 58.8452 51.2223 56.1438C51.626 53.4423 53.6913 52.6463 55.8387 54.3524C57.986 56.0586 59.3991 59.6277 58.9954 62.3291Z" fill="#BABABE"/>
<path d="M51.4393 57.01C51.3887 58.5806 51.8965 60.4626 52.9127 62.0523C53.9302 63.6335 55.2046 64.5516 56.3297 64.6496C56.8237 64.6883 57.288 64.5736 57.6823 64.2818C57.8091 64.1956 57.9313 64.0823 58.0388 63.9493C58.0598 63.9262 58.0808 63.903 58.1031 63.8713C58.1785 63.7773 58.2552 63.6748 58.316 63.5611C58.3991 63.4157 58.4749 63.2605 58.5421 63.104C58.6556 62.814 58.7386 62.4933 58.7899 62.1502C58.8129 61.9959 58.8373 61.8329 58.8359 61.6661C58.8487 61.5804 58.8431 61.5006 58.8461 61.4222C58.8538 61.3707 58.8456 61.3081 58.8447 61.2554C58.8524 61.2039 58.8429 61.1499 58.842 61.0972C58.8394 60.939 58.8367 60.7807 58.8169 60.62C58.8113 60.5402 58.8044 60.4691 58.7902 60.388C58.7833 60.3169 58.7751 60.2543 58.7669 60.1917C58.7553 60.0935 58.7437 59.9953 58.7222 59.9044C58.7067 59.832 58.6998 59.7608 58.6843 59.6883C58.625 59.3814 58.5399 59.0706 58.4463 58.7585C58.4295 58.6946 58.4042 58.6294 58.3874 58.5656C58.314 58.3529 58.2393 58.1489 58.1487 57.9337C58.1307 57.8784 58.1028 57.8304 58.0847 57.7751C58.0461 57.6816 57.9989 57.5869 57.9516 57.4922C57.7859 57.1343 57.5847 56.7798 57.3722 56.4412C57.2654 56.2762 57.1499 56.1099 57.0405 55.962C56.9908 55.8844 56.9311 55.8141 56.8801 55.7451C56.8655 55.7254 56.8423 55.7044 56.8277 55.6847C56.7839 55.6256 56.7389 55.575 56.6938 55.5244C56.1412 54.8807 55.5531 54.4158 54.9639 54.1349C53.932 53.6475 52.9343 53.7527 52.2449 54.5527C52.2239 54.5759 52.2029 54.599 52.1819 54.6222C52.0521 54.7869 51.9368 54.9714 51.846 55.1682C51.5925 55.6914 51.4634 56.3209 51.438 57.0186L51.4393 57.01Z" fill="url(#paint5_linear_25400_334)"/>
<path d="M56.8658 56.497L56.7306 57.6954C57.1816 57.7278 57.634 57.7515 58.0546 57.753C58.016 57.6596 57.9688 57.5648 57.9215 57.4701C57.7558 57.1122 57.5546 56.7577 57.3421 56.4191C57.2353 56.2541 57.1199 56.0878 57.0104 55.9399C56.9607 55.8624 56.901 55.7921 56.85 55.7231C56.8354 55.7033 56.8122 55.6824 56.7976 55.6626C56.7538 55.6035 56.7088 55.5529 56.6638 55.5024C56.1111 54.8587 55.5231 54.3938 54.9338 54.1128C53.9019 53.6255 52.9042 53.7306 52.2148 54.5307C55.4611 53.9286 56.8572 56.4957 56.8572 56.4957L56.8658 56.497Z" fill="#393843"/>
<path d="M51.6644 57.0227C51.6644 57.0227 52.4897 58.5401 53.4993 59.0592C54.5089 59.5783 56.1882 62.363 56.1882 62.363L56.7284 57.6918C54.2831 57.5105 51.6742 57.0154 51.6742 57.0154L51.6644 57.0227Z" fill="#393843"/>
<path d="M53.9209 56.5481C53.8766 57.9004 54.3187 59.5183 55.1842 60.8839C55.6675 61.64 56.2217 62.2138 56.7798 62.5865C57.2327 62.8997 57.689 63.0731 58.1131 63.1102C58.1474 63.1153 58.1817 63.1204 58.2087 63.1157C58.3116 63.131 58.4098 63.1194 58.508 63.1078C58.6214 62.8179 58.7044 62.4971 58.7557 62.1541C58.7788 61.9997 58.8031 61.8368 58.8017 61.67C58.8146 61.5842 58.8089 61.5045 58.8119 61.426C58.8196 61.3745 58.8114 61.312 58.8105 61.2592C58.8182 61.2078 58.8087 61.1537 58.8079 61.101C58.8052 60.9428 58.8025 60.7846 58.7827 60.6238C58.7771 60.5441 58.7702 60.4729 58.756 60.3919C58.7491 60.3207 58.7409 60.2581 58.7328 60.1955C58.7211 60.0973 58.7095 59.9991 58.688 59.9082C58.6725 59.8358 58.6656 59.7646 58.6502 59.6922C58.5908 59.3852 58.5057 59.0744 58.4121 58.7623C58.3953 58.6984 58.37 58.6333 58.3533 58.5694C58.2798 58.3568 58.2051 58.1527 58.1145 57.9375C58.0578 57.7888 57.9827 57.646 57.9175 57.496C57.7518 57.1381 57.5505 56.7836 57.3381 56.445C57.2312 56.28 57.1158 56.1137 57.0064 55.9658C56.9566 55.8882 56.8969 55.818 56.8459 55.749C56.8313 55.7292 56.8081 55.7082 56.7935 55.6885C56.7498 55.6294 56.7047 55.5788 56.6597 55.5282C56.1071 54.8845 55.519 54.4197 54.9297 54.1387C54.7917 54.2408 54.6597 54.3614 54.541 54.5102C54.4322 54.6518 54.3307 54.8032 54.2523 54.9756C54.1367 55.2214 54.0515 55.498 53.9882 55.8041C53.9437 56.043 53.9139 56.3015 53.8999 56.5712L53.9209 56.5481Z" fill="url(#paint6_linear_25400_334)"/>
<path d="M56.6449 59.2333L57.4366 58.922L58.1298 57.9208C58.0731 57.7721 57.998 57.6294 57.9328 57.4793C57.7671 57.1214 57.5658 56.7669 57.3533 56.4283C57.2465 56.2633 57.1311 56.097 57.0216 55.9491C56.9719 55.8716 56.9122 55.8013 56.8612 55.7323C56.8466 55.7126 56.8234 55.6916 56.8088 55.6718C56.6502 55.7358 56.5285 55.7878 56.5186 55.7951L57.2713 56.9772L56.6449 59.2333Z" fill="url(#paint7_linear_25400_334)"/>
<path d="M56.6507 59.234L56.4081 60.1534L56.7812 62.5851L56.9421 63.6788C57.019 63.927 56.6162 64.3929 56.7659 64.3889C57.0137 64.3734 57.6666 64.1115 58.0159 63.9445C58.0369 63.9213 58.0579 63.8982 58.0802 63.8664C58.1556 63.7725 58.2323 63.6699 58.2931 63.5563C58.3008 63.5048 58.2841 63.441 58.2673 63.3771L58.2213 63.0984L57.4858 59.0431L57.4437 58.9141L56.652 59.2254L56.6507 59.234Z" fill="url(#paint8_linear_25400_334)"/>
<path d="M52.7829 55.1142C52.8481 55.0888 52.9326 55.1102 53.0106 55.1745L56.2721 57.1699L56.3574 57.244L56.078 59.1136L55.3728 58.5523L52.6605 56.9897C52.4958 56.8598 52.3871 56.5893 52.4106 56.3737C52.455 55.9594 51.8331 55.7788 51.9629 55.4388C51.9903 55.3727 52.7276 55.1322 52.7829 55.1142Z" fill="url(#paint9_linear_25400_334)"/>
<path d="M55.6818 60.5922L57.6551 57.7133C57.7515 57.5962 57.736 57.3484 57.6257 57.1478C57.5093 56.9287 57.3917 56.7183 57.2557 56.5138C57.1197 56.3094 56.9824 56.1135 56.8438 55.9262C56.7125 55.7488 56.5337 55.7133 56.4458 55.8317L54.4725 58.7106L55.6805 60.6008L55.6818 60.5922Z" fill="#DFDFE3"/>
<path d="M55.3045 59.4188L55.5838 57.5492L55.4899 57.4738L52.2285 55.4785C52.0882 55.361 51.9433 55.392 51.8859 55.5412C51.7562 55.8813 51.6728 56.2634 51.6284 56.6776C51.605 56.8933 51.7136 57.1638 51.8783 57.2936L54.5907 58.8562L55.2959 59.4175L55.3045 59.4188Z" fill="#DFDFE3"/>
<path d="M57.3965 64.167C57.511 64.1052 57.5405 63.908 57.4769 63.688L56.6941 59.3627L56.6521 59.2336L55.3007 59.4175L55.6177 60.4643L56.1517 63.9898C56.2286 64.238 56.4041 64.4132 56.5623 64.4106C56.8543 64.3928 57.1368 64.3211 57.3953 64.1756L57.3965 64.167Z" fill="#DFDFE3"/>
<path d="M56.6071 63.9372C56.6071 63.9372 56.5792 63.8892 56.5684 63.8438L56.0164 60.263L54.9152 58.5379L52.1394 56.9307C52.1003 56.8985 52.0471 56.7854 52.0573 56.7168C52.0846 56.4754 52.1278 56.2451 52.177 56.0333L55.541 58.1053L56.6179 56.3549C56.7127 56.4831 56.7977 56.6185 56.8913 56.7553C57.0114 56.9486 57.1303 57.1505 57.2393 57.3596C57.2672 57.4076 57.2694 57.4518 57.2741 57.4788L56.165 59.2682L57.0174 63.832C56.8858 63.8912 56.7494 63.9234 56.6071 63.9372Z" fill="#4B4A4B"/>
<path d="M12.5904 12.6902C12.5128 12.7399 12.4353 12.7897 12.3663 12.8408C11.7529 13.2489 10.3453 14.9235 10.2712 15.0089C10.2712 15.0089 11.5483 13.7969 12.2297 13.285C12.9112 12.7732 14.875 11.3657 14.875 11.3657C14.0173 11.825 13.2492 12.2713 12.5891 12.6987L12.5904 12.6902Z" fill="#F7FBFF"/>
<g style="mix-blend-mode:screen">
<path d="M13.3286 14.3524C13.2602 13.9301 13.2668 13.4752 13.444 12.9931C13.5982 12.6655 14.5692 11.5656 14.8906 11.3506C14.0329 11.8098 13.2648 12.2562 12.6048 12.6836C12.5555 12.7201 12.5075 12.748 12.4582 12.7844C12.2093 13.1593 12.0487 13.5299 12.165 13.7489C12.4753 14.3125 13.3273 14.3609 13.3273 14.3609L13.3286 14.3524Z" fill="#565E66"/>
</g>
<path d="M14.1484 12.0508C14.1484 12.0508 14.0737 12.1296 14.0306 12.1771C14.0724 12.1383 14.1067 12.0895 14.1484 12.0508Z" fill="#9BACBF"/>
<path d="M11.1915 16.8212C11.3115 16.8392 11.4269 16.8301 11.5435 16.8124L11.6455 16.7751L12.2105 16.4562L11.8916 15.8913L11.3845 16.175C11.3133 16.1819 11.1736 16.1785 11.1581 16.1061L11.1353 16.0237C11.0275 15.6306 10.7684 14.7239 11.6498 12.8742L11.0691 12.5945C10.0845 14.6656 10.3891 15.7369 10.5124 16.2025C10.613 16.5857 10.8926 16.7678 11.1842 16.8114L11.1915 16.8212Z" fill="white"/>
<path d="M74.5438 52.4615C74.1803 52.5475 72.6515 52.8626 70.0866 52.7774C69.2749 52.7526 66.6599 52.0637 65.6215 51.4438C64.5917 50.8253 61.4637 48.8761 61.4637 48.8761L61.5303 49.9557C61.5303 49.9557 64.4281 51.8617 65.4566 52.4888C66.4864 53.1074 69.11 53.7976 69.9216 53.8224C72.8973 53.9164 74.4698 53.485 74.4698 53.485L74.5438 52.4615Z" fill="#FF3838"/>
<path d="M92.0941 43.3406C92.1196 43.7565 92.1211 44.0986 92.1144 44.3782C92.0271 44.6106 91.9114 44.8564 91.7418 45.1116C91.7281 45.1446 91.7071 45.1678 91.6848 45.1995C91.4063 45.5963 91.2633 45.9081 90.9067 46.2405C90.4379 46.679 89.6535 47.1755 88.2498 48.0617C88.2241 48.0578 88.3175 47.0811 88.3175 47.0811C89.2587 46.4151 89.9556 45.9757 90.4043 45.6131C90.604 45.4501 90.7669 45.2991 90.8929 45.1601C91.2374 44.7907 91.4087 44.4656 91.6897 44.0517C91.8581 43.8051 91.9909 43.5619 92.0928 43.3492L92.0941 43.3406Z" fill="#FF3838"/>
<g style="mix-blend-mode:screen">
<path d="M74.1122 34.6148C74.0585 34.5629 73.9976 34.5012 73.944 34.4494C72.7364 33.2606 71.271 31.9194 69.5543 30.5582C64.1019 26.2101 51.49 15.7946 45.2086 13.5321C42.0472 12.3933 37.5739 11.7599 33.6322 11.618C32.839 11.5871 32.0775 11.5786 31.3405 11.5824C31.1917 11.6391 31.0601 11.6983 30.9186 11.7648C26.4237 13.7409 24.7115 14.9317 24.3691 15.3452C22.6 17.5621 22.403 18.8214 22.4004 18.8386C22.4004 18.8386 22.4544 18.8291 22.5526 18.8175C24.1436 18.5555 29.4519 18.0599 32.7749 18.2935C33.0592 18.3272 33.3607 18.3635 33.6535 18.3985C34.2406 18.4599 34.8151 18.5458 35.3516 18.6522C35.8318 18.724 36.1981 18.7963 36.3267 18.8155L36.4511 18.9217C37.0129 19.0934 37.5168 19.3002 37.926 19.5542C43.3761 22.92 61.9619 37.0689 63.1414 38.6216C63.1706 38.6611 63.1912 38.6992 63.2118 38.7374L63.4441 38.6493C65.9204 40.5011 67.4837 41.3046 68.5514 41.3765C69.7404 41.4577 74.0811 40.3967 77.9914 38.9294C77.9914 38.9294 76.6578 37.1169 74.1319 34.6002L74.1122 34.6148Z" fill="#131317"/>
</g>
<g style="mix-blend-mode:screen">
<path d="M69.5219 30.5608C65.5421 27.3884 57.7496 20.981 51.3845 16.8735C48.6462 18.0074 46.0584 19.1901 44.2949 20.1365C43.4077 20.6176 42.8734 21.3181 43.4439 21.8417C43.4439 21.8417 43.4439 21.8417 43.4525 21.843L46.3183 23.9634C49.2247 26.046 53.8198 29.2665 60.4722 34.092C61.6111 34.9197 63.0288 35.2894 64.4303 35.1218C64.8856 35.0671 65.3066 35.0073 65.5621 34.9403C67.283 34.5136 69.7136 33.737 72.2163 32.8309C71.3982 32.0862 70.5042 31.3213 69.5245 30.5437L69.5219 30.5608Z" fill="#131317"/>
</g>
<defs>
<linearGradient id="paint0_linear_25400_334" x1="21.0692" y1="35.7711" x2="16.8979" y2="25.1966" gradientUnits="userSpaceOnUse">
<stop offset="0.27" stop-color="#ECEEF7"/>
<stop offset="0.77" stop-color="#9C9AA8"/>
</linearGradient>
<linearGradient id="paint1_linear_25400_334" x1="18.6459" y1="32.2554" x2="22.1336" y2="27.8668" gradientUnits="userSpaceOnUse">
<stop offset="0.26" stop-color="#393843"/>
<stop offset="0.78" stop-color="#23222E"/>
</linearGradient>
<linearGradient id="paint2_linear_25400_334" x1="19.6021" y1="28.7594" x2="21.737" y2="29.7272" gradientUnits="userSpaceOnUse">
<stop stop-color="#ADAEB8"/>
<stop offset="0.08" stop-color="#BABBC5"/>
<stop offset="0.2" stop-color="#C9CBD3"/>
<stop offset="0.34" stop-color="#D2D4DC"/>
<stop offset="0.55" stop-color="#D5D7DF"/>
<stop offset="0.66" stop-color="#C0C1CA"/>
<stop offset="1" stop-color="#868490"/>
</linearGradient>
<linearGradient id="paint3_linear_25400_334" x1="20.0073" y1="33.136" x2="21.9172" y2="32.6762" gradientUnits="userSpaceOnUse">
<stop stop-color="#ADAEB8"/>
<stop offset="0.08" stop-color="#BABBC5"/>
<stop offset="0.2" stop-color="#C9CBD3"/>
<stop offset="0.34" stop-color="#D2D4DC"/>
<stop offset="0.55" stop-color="#D5D7DF"/>
<stop offset="0.66" stop-color="#C0C1CA"/>
<stop offset="1" stop-color="#868490"/>
</linearGradient>
<linearGradient id="paint4_linear_25400_334" x1="17.493" y1="28.997" x2="18.7999" y2="27.3511" gradientUnits="userSpaceOnUse">
<stop stop-color="#ADAEB8"/>
<stop offset="0.08" stop-color="#BABBC5"/>
<stop offset="0.2" stop-color="#C9CBD3"/>
<stop offset="0.34" stop-color="#D2D4DC"/>
<stop offset="0.55" stop-color="#D5D7DF"/>
<stop offset="0.66" stop-color="#C0C1CA"/>
<stop offset="1" stop-color="#868490"/>
</linearGradient>
<linearGradient id="paint5_linear_25400_334" x1="57.2245" y1="64.529" x2="53.0618" y2="53.9559" gradientUnits="userSpaceOnUse">
<stop offset="0.27" stop-color="#ECEEF7"/>
<stop offset="0.77" stop-color="#9C9AA8"/>
</linearGradient>
<linearGradient id="paint6_linear_25400_334" x1="54.78" y1="61.0076" x2="58.2677" y2="56.619" gradientUnits="userSpaceOnUse">
<stop offset="0.26" stop-color="#393843"/>
<stop offset="0.78" stop-color="#23222E"/>
</linearGradient>
<linearGradient id="paint7_linear_25400_334" x1="55.7362" y1="57.5106" x2="57.8699" y2="58.487" gradientUnits="userSpaceOnUse">
<stop stop-color="#ADAEB8"/>
<stop offset="0.08" stop-color="#BABBC5"/>
<stop offset="0.2" stop-color="#C9CBD3"/>
<stop offset="0.34" stop-color="#D2D4DC"/>
<stop offset="0.55" stop-color="#D5D7DF"/>
<stop offset="0.66" stop-color="#C0C1CA"/>
<stop offset="1" stop-color="#868490"/>
</linearGradient>
<linearGradient id="paint8_linear_25400_334" x1="56.1492" y1="61.8857" x2="58.0578" y2="61.4345" gradientUnits="userSpaceOnUse">
<stop stop-color="#ADAEB8"/>
<stop offset="0.08" stop-color="#BABBC5"/>
<stop offset="0.2" stop-color="#C9CBD3"/>
<stop offset="0.34" stop-color="#D2D4DC"/>
<stop offset="0.55" stop-color="#D5D7DF"/>
<stop offset="0.66" stop-color="#C0C1CA"/>
<stop offset="1" stop-color="#868490"/>
</linearGradient>
<linearGradient id="paint9_linear_25400_334" x1="53.6415" y1="57.7587" x2="54.9483" y2="56.1129" gradientUnits="userSpaceOnUse">
<stop stop-color="#ADAEB8"/>
<stop offset="0.08" stop-color="#BABBC5"/>
<stop offset="0.2" stop-color="#C9CBD3"/>
<stop offset="0.34" stop-color="#D2D4DC"/>
<stop offset="0.55" stop-color="#D5D7DF"/>
<stop offset="0.66" stop-color="#C0C1CA"/>
<stop offset="1" stop-color="#868490"/>
</linearGradient>
</defs>
</svg>
