<svg width="34" height="22" viewBox="0 0 34 22" fill="none" xmlns="http://www.w3.org/2000/svg">
<path d="M31.0516 6.92058C31.0293 6.89458 31.0107 6.87043 30.9847 6.84443L29.8239 5.72443C30.786 5.50712 31.8224 4.70102 31.8224 3.87263C31.8224 2.90865 30.487 2.56689 29.3447 2.56689C28.2024 2.56689 28.0129 3.38414 27.9981 3.96178L25.0058 1.07542C24.3985 0.473631 23.2451 0 22.3832 0H10.7226C9.86081 0 8.70923 0.473631 8.10001 1.07542L5.10778 3.96178C5.09292 3.38414 4.95362 2.56689 3.76119 2.56689C2.56875 2.56689 1.28159 2.90865 1.28159 3.87263C1.28159 4.69916 2.318 5.50526 3.28012 5.72443L2.11927 6.84443C2.09326 6.86857 2.07469 6.89458 2.0524 6.92058C0.809816 7.983 0 9.94996 0 11.3764V15.6187C0 16.6495 0.406765 17.5838 1.06242 18.2803V19.9241C1.06242 20.8862 1.86852 21.67 2.8585 21.67H5.02977C6.01975 21.67 6.824 20.8862 6.824 19.9241V19.5024H26.2781V19.9241C26.2781 20.888 27.0824 21.67 28.0742 21.67H30.2455C31.2373 21.67 32.0416 20.8862 32.0416 19.9241V18.2803C32.6972 17.5838 33.104 16.6495 33.104 15.6187V11.3764C33.104 9.9481 32.2942 7.98114 31.0535 6.92058H31.0516ZM9.19772 2.36072C9.61935 2.00968 10.3549 1.74408 10.7208 1.74408H22.3832C22.751 1.74408 23.4865 2.00968 23.9063 2.36072L27.8309 6.16463H5.27309L9.19772 2.36072ZM1.3466 10.7356C1.3466 9.69178 2.16384 8.84296 3.17425 8.84296C4.18467 8.84296 7.47965 10.7783 7.47965 11.8222C7.47965 12.866 4.18281 12.6246 3.17425 12.6246C2.1657 12.6246 1.3466 11.7795 1.3466 10.7338V10.7356ZM6.824 17.6432H6.12748L4.06394 17.6469C3.49187 17.4686 3.08696 17.2606 2.80092 17.0377C2.65605 16.9244 2.54646 16.8074 2.45916 16.6904C2.37187 16.5734 2.30872 16.4563 2.26786 16.3412C2.01154 15.615 2.54089 14.9482 2.54089 14.9482H6.06433L8.41205 17.6432H6.824ZM21.6161 17.6451H11.486C10.4292 17.6451 9.57291 16.7888 9.57291 15.732H23.5292C23.5292 16.7888 22.6711 17.6451 21.6161 17.6451ZM22.06 14.4281H11.0421C9.89424 14.4281 8.96184 13.0128 8.96184 11.265H24.1422C24.1422 13.0128 23.2098 14.4281 22.0619 14.4281H22.06ZM30.8343 16.3393C30.7916 16.4563 30.7284 16.5715 30.6411 16.6885C30.5557 16.8055 30.4442 16.9225 30.2994 17.0358C30.0152 17.2587 29.6103 17.4686 29.0363 17.6451L26.9728 17.6413H24.6882L27.0378 14.9463H30.5594C30.5594 14.9463 31.0906 15.6112 30.8343 16.3375V16.3393ZM29.9297 12.6246C28.9212 12.6246 25.6262 12.8642 25.6262 11.8222C25.6262 10.7802 28.923 8.84296 29.9297 8.84296C30.9364 8.84296 31.7574 9.68993 31.7574 10.7356C31.7574 11.7813 30.9402 12.6264 29.9297 12.6264V12.6246Z" fill="white"/>
</svg>
