<svg width="1127" height="459" viewBox="0 0 1127 459" fill="none" xmlns="http://www.w3.org/2000/svg">
<path d="M2.65625 48.0004C7.82292 43.8337 21.8562 35.6002 36.6562 32.0002C55.1562 27.5002 90.7034 20.9455 100.156 20.0002C110.156 19.0002 136.656 18.5002 136.656 18.5002C161.656 18.5002 181.256 14.5004 191.656 12.5004C204.656 10.0004 273.656 -2.9998 280.656 6.50037C284.24 11.3642 279.156 49.5003 285.656 52.5003C292.156 55.5003 311.656 58.5003 341.156 58.0003C370.656 57.5003 417.156 57.5003 471.156 77.5003C505.156 88.5003 558.656 90.5003 596.156 92.0003C633.656 93.5003 706.156 86.0003 731.656 101.5C752.056 113.9 789.656 148 996.656 188.5C1007.16 181.5 1056.16 181.235 1088.66 187.5C1134.26 196.292 1125.25 210.5 1114.66 216.5C1102.66 223.3 1050.82 220.333 1027.16 217.5L870.656 295.5C860.156 301 848.156 307.5 848.156 318C848.156 335.586 832.219 363.5 1022.22 455.5" stroke="#F7FF07" stroke-width="6"/>
</svg>
