<svg width="45" height="34" viewBox="0 0 45 34" fill="none" xmlns="http://www.w3.org/2000/svg">
<g style="mix-blend-mode:screen">
<path d="M14.1815 14.5011C16.0448 13.016 19.7083 10.0028 22.6688 8.11084C24.8995 8.97599 26.8963 9.84774 26.6477 10.1076C26.1302 10.6546 23.6545 12.2959 18.3614 16.1358C17.8355 16.518 17.1808 16.6888 16.5335 16.6114C16.3232 16.5861 16.1288 16.5585 16.0108 16.5275C15.2161 16.3305 14.0936 15.9718 12.9378 15.5534C13.3156 15.2095 13.7285 14.8563 14.1809 14.4971L14.1815 14.5011Z" fill="#131317"/>
</g>
<path d="M3.67127 25.1087C3.45197 24.2102 3.28056 23.009 3.48983 22.3501C3.8999 22.3577 3.67127 25.1087 3.67127 25.1087Z" fill="#495DCF"/>
<path d="M3.55208 23.29C3.35555 22.7606 3.4607 22.0282 3.89836 21.5701C4.39506 21.0464 4.21599 22.6118 4.06413 22.9503C3.91226 23.2888 3.55208 23.29 3.55208 23.29Z" fill="#5B73FF"/>
<path d="M41.758 7.65406C41.6641 7.40491 41.5418 7.23693 40.6601 6.53866C39.7744 5.84098 36.8594 5.30078 36.8594 5.30078L40.4244 9.16117L41.758 7.65406Z" fill="#546AEB"/>
<path d="M40.4682 13.9075L37.5802 12.5454L33.3059 16.1318L23.6565 26.6394L20.8163 25.3268L16.3362 29.2962L14.0534 17.7051L40.5688 6.75014L40.4682 13.9075Z" fill="#292929"/>
<path d="M19.6708 23.4311L22.1491 24.4091L19.4511 31.0922L16.9642 30.1115L17.1129 25.931L19.6708 23.4311Z" fill="#333333"/>
<path d="M36.3578 10.1536L38.8401 11.131L36.1774 17.8331L33.6865 16.853L33.9994 12.5791L36.3578 10.1536Z" fill="#333333"/>
<path d="M28.7492 2.50888C28.7553 2.65779 28.9379 2.87748 29.2039 3.11306C29.8368 3.69061 30.9138 4.3678 30.9138 4.3678L40.2983 6.25724L40.5863 6.31541C40.4913 6.24863 40.3918 6.17848 40.2882 6.10892C38.3271 4.7986 34.4854 3.25913 31.7936 2.64105C31.5548 2.58765 31.3251 2.54099 31.1085 2.50048C30.7377 2.43038 30.2144 2.26158 29.077 2.31818C28.8438 2.32874 28.7497 2.40354 28.7538 2.51225L28.7492 2.50888Z" fill="#5B73FF"/>
<path d="M4.84025 27.0277C5.30786 27.1765 5.1204 27.0871 5.93794 26.4345L6.16952 26.2501L6.00025 25.1174C5.72149 23.252 6.70063 20.7816 8.18813 19.5997C9.67168 18.4184 11.103 18.9738 11.3817 20.8392L11.551 21.9719L22.86 12.9776L22.6907 11.8449C22.4119 9.97948 23.3911 7.50906 24.8746 6.32776C26.3621 5.14587 27.7928 5.69732 28.0722 7.56669L28.3616 9.50338C28.7487 9.1945 28.9622 9.02492 28.9622 9.02492C28.9622 9.02492 30.4803 7.66841 30.9791 6.50874C31.0757 6.28781 31.1335 3.47729 30.8799 2.97263C30.6263 2.46796 29.8762 2.24399 28.6455 2.32667C27.6317 2.3972 23.8178 4.2952 23.8178 4.2952C23.8178 4.2952 20.0509 3.74463 17.8834 5.11723C15.3824 6.69755 6.78322 13.2057 6.23849 13.9228C5.16193 15.3348 3.95947 19.1829 3.8225 20.163C3.81595 20.2004 3.88872 22.5298 3.87556 22.6856C3.82932 23.2432 3.66306 23.1061 3.63512 23.5152C3.61054 23.9197 4.37204 26.875 4.84025 27.0277Z" fill="#5B73FF"/>
<path d="M7.54138 15.2644C7.54138 15.2644 6.22791 16.8252 4.73275 17.5224C5.12833 16.1595 5.66417 14.6785 6.23921 13.9204C6.78394 13.2033 15.3837 6.6991 17.8841 5.11482C20.0517 3.74222 23.8185 4.29279 23.8185 4.29279L23.161 4.82428L7.54138 15.2644Z" fill="#2E2F35"/>
<path d="M3.53027 23.3112C3.55822 22.9021 3.83168 23.2419 3.87793 22.6843C3.88949 22.5449 3.83247 20.7274 3.82441 20.267C4.78281 19.5002 6.49301 17.7222 7.68352 16.856C9.27259 15.7035 13.891 12.7135 14.8046 12.1073C15.7181 11.5011 21.5332 8.06509 23.773 6.1189C26.0167 4.17212 27.9882 4.35933 28.3795 4.34945C28.7707 4.33957 29.9637 3.67947 30.8811 2.96338C31.1386 3.46745 31.0769 6.27856 30.9803 6.49949C30.4815 7.65916 28.9634 9.01567 28.9634 9.01567C28.9634 9.01567 28.7499 9.18525 28.3628 9.49413L28.0734 7.55744C27.7946 5.69203 26.3633 5.13662 24.8758 6.31851C23.3883 7.5004 22.4131 9.97023 22.6919 11.8356L22.8611 12.9683L11.5522 21.9626L11.3829 20.8299C11.1042 18.9645 9.67286 18.4091 8.18932 19.5904C6.70181 20.7723 5.72267 23.2427 6.00143 25.1081L6.1707 26.2408L5.93913 26.4253C5.12495 27.0733 4.82081 27.0702 4.43486 26.7634C3.52124 26.0416 3.55149 23.6158 3.5285 23.2993L3.53027 23.3112Z" fill="#495DCF"/>
<path d="M23.0793 11.5414C23.319 13.1454 24.5481 13.6217 25.8255 12.6048C27.1028 11.588 27.9437 9.46617 27.704 7.86216C27.4643 6.25815 26.2351 5.78185 24.9578 6.79872C23.6805 7.81558 22.8396 9.93739 23.0793 11.5414Z" fill="#1F2024"/>
<path d="M6.38395 24.8168C6.62364 26.4208 7.85282 26.8971 9.13015 25.8802C10.4075 24.8634 11.2484 22.7416 11.0087 21.1375C10.769 19.5335 9.53984 19.0572 8.26251 20.0741C6.98518 21.091 6.14425 23.2128 6.38395 24.8168Z" fill="#1F2024"/>
<path d="M3.87959 22.757C3.87959 22.757 3.88532 22.7683 3.88988 22.7717C3.89047 22.7757 3.89561 22.783 3.90412 22.7858C3.90868 22.7891 3.91719 22.7919 3.9257 22.7947C4.05044 22.8165 4.36505 22.5104 4.3883 21.9887C4.38534 21.9689 4.3909 21.9518 4.38794 21.932C4.38835 21.9077 4.38876 21.8833 4.38917 21.859C4.39171 21.5509 4.33676 21.3728 4.30248 21.0621C4.29064 20.9829 4.28495 20.8906 4.28145 20.7859C4.2687 20.5651 4.27143 20.2853 4.29104 19.9018C4.37001 18.5336 6.11979 14.6361 6.37609 14.1565C6.61949 13.699 9.00922 11.6454 9.23506 11.4497C7.63861 12.6883 6.42566 13.6753 6.23246 13.9269C5.36256 15.0691 4.41352 17.5513 4.0076 18.9805L4.0082 18.9844C3.93677 19.238 3.88042 19.457 3.84983 19.6316C3.83494 19.6946 3.82679 19.7485 3.82201 19.7978C3.79061 20.0211 3.77859 20.2658 3.77964 20.5167C3.7816 20.5569 3.7796 20.5977 3.78155 20.6379C3.78228 20.7512 3.78638 20.8599 3.79107 20.9725C3.79458 21.0773 3.80204 21.1814 3.80892 21.2816C3.83874 21.7793 3.88759 22.2416 3.88109 22.5503C3.88027 22.599 3.87827 22.6398 3.87685 22.6846C3.87308 22.7135 3.87663 22.7372 3.88692 22.7519L3.87959 22.757Z" fill="#2E2F35"/>
<path d="M22.3436 12.1225L22.5129 13.2552L22.86 12.9766L22.6907 11.8439C22.4119 9.97851 23.3911 7.50809 24.8746 6.32679C26.3621 5.1449 27.7928 5.69635 28.0722 7.56572L28.3616 9.50241L28.7087 9.22381L28.4192 7.28711C28.1044 5.18011 26.4886 4.55509 24.8089 5.88717C23.1298 7.22321 22.0242 10.0122 22.3391 12.1192L22.3436 12.1225Z" fill="#5B73FF"/>
<path d="M5.65579 25.3933L5.82446 26.522C5.86111 26.4963 5.90112 26.466 5.94114 26.4357L6.17271 26.2513L6.00344 25.1186C5.72468 23.2532 6.70382 20.7828 8.19133 19.6009C9.67487 18.4196 11.1062 18.975 11.3849 20.8404L11.5542 21.9731L11.9013 21.6945L11.732 20.5618C11.4171 18.4548 9.80074 17.8258 8.12167 19.1619C6.4426 20.4979 5.33696 23.2868 5.65242 25.3978L5.65579 25.3933Z" fill="#5B73FF"/>
<path d="M3.85267 20.9537C3.84762 20.7844 3.84434 20.627 3.84124 20.4979C3.83951 20.405 3.8356 20.3246 3.83523 20.268C3.9947 20.1429 4.18626 19.9888 4.39644 19.8237C4.52322 19.7238 4.31545 19.4714 4.47432 19.3424C4.74195 19.1283 5.04623 18.8885 5.32119 18.6693C5.60407 18.4488 5.88695 18.2284 6.16983 18.008C6.15276 18.0834 6.06026 18.494 6.00654 18.5952C5.86956 18.8707 5.0563 20.0126 4.78134 20.2319C4.57176 20.4008 4.06622 20.7841 3.84812 20.9503L3.85267 20.9537Z" fill="#2E2F35"/>
<path d="M23.1743 4.82641C23.1743 4.82641 20.5174 7.69332 20.1884 7.95708C19.8594 8.22085 10.8089 14.3106 10.8089 14.3106L7.55016 15.2632C7.55016 15.2632 8.55319 12.5463 8.94469 12.1315C9.28447 11.777 16.2607 6.51954 18.2684 5.29635C20.2638 4.53254 23.1743 4.82641 23.1743 4.82641Z" fill="#1F2024"/>
<path d="M14.3859 8.00321L14.9972 11.4709L14.1773 12.0267L14.0172 8.2729L14.3859 8.00321Z" fill="#2E2F35"/>
<path d="M18.4266 5.23991L21.1984 6.93521L20.3986 7.7876L18.0947 5.40289L18.4266 5.23991Z" fill="#2E2F35"/>
<path d="M4.43772 26.7756C4.43772 26.7756 5.72272 27.6525 6.15287 27.8757C7.61714 28.6246 10.7261 29.731 12.2835 30.2635C13.354 30.6259 16.5363 31.4379 16.5363 31.4379C16.5363 31.4379 17.1289 27.6 15.5301 27.0615C13.9312 26.5231 3.87961 22.6886 3.87961 22.6886L4.43832 26.7796L4.43772 26.7756Z" fill="#495DCF"/>
<path d="M23.8189 4.29737L29.5261 9.08067L32.8543 11.8711L40.3008 7.97261L40.3984 7.92158L41.5629 7.31433C41.528 7.27095 40.8786 6.50152 40.5953 6.31306C40.5635 6.28947 40.5276 6.26649 40.4918 6.2435C40.187 6.04611 39.8323 5.83999 39.4362 5.6279C39.4362 5.6279 39.4225 5.61779 39.414 5.61501C39.414 5.61501 39.414 5.61501 39.4094 5.61164C37.0863 4.37161 33.4694 3.00909 31.4321 2.7062C31.105 2.65791 29.2961 2.31277 29.2961 2.31277L23.8268 4.29618L23.8189 4.29737Z" fill="#5B73FF"/>
<path d="M35.4883 8.27523C38.0059 6.99609 40.2084 7.34719 40.5608 6.75197C40.5723 6.69356 40.2969 6.31363 40.2965 6.257C40.2979 6.21225 40.2954 6.16809 40.2889 6.12452C40.2883 6.12056 40.2871 6.11264 40.2859 6.10472C38.3247 4.7944 34.483 3.25493 31.7912 2.63685C31.6526 2.65756 31.1818 2.46068 31.0438 2.48535C30.2874 2.59839 30.3135 2.61068 29.6366 2.76852C28.2517 3.09289 26.2142 3.81846 25.7542 4.23541C24.9693 4.94386 31.6423 7.03199 35.4889 8.27919L35.4883 8.27523Z" fill="#5B84FF"/>
<path d="M35.9814 9.0882C35.9814 9.0882 35.0419 7.86814 34.7141 7.62559C32.7691 6.17924 29.4014 4.9131 26.9608 4.43158C26.256 4.29397 22.6586 4.19991 22.6586 4.19991C22.6586 4.19991 20.6835 4.06991 19.0625 4.7373C17.4414 5.40469 8.31034 12.2555 8.31034 12.2555L6.54843 14.4461L18.1176 19.3859L35.9814 9.0882Z" fill="#3D3C51"/>
<path d="M28.4557 8.12807L29.5088 8.69951C29.5088 8.69951 30.5307 8.38484 31.877 8.31727C32.7693 8.27302 33.8296 8.29677 34.4408 8.32285C34.6527 8.33168 34.7797 8.09809 34.6648 7.92497L34.4029 7.52683L32.9107 6.67278C32.6805 6.54117 32.4402 6.42323 32.1943 6.3223L29.2678 5.136C28.9317 4.99998 28.5884 4.89742 28.2334 4.82495C27.6861 4.71237 26.8587 4.54044 26.5065 4.45946C25.9569 4.33104 23.9531 4.22559 23.9531 4.22559C23.9531 4.22559 24.7804 4.20723 25.0131 4.19271C25.2458 4.17818 26.714 4.14097 26.9789 4.20666C27.2438 4.27235 29.9618 4.90273 32.0376 5.81531C34.1134 6.72789 34.9042 7.27781 35.0628 7.47274C35.889 8.50324 35.976 9.08544 35.976 9.08544C35.3353 8.97063 32.767 8.71873 31.1849 8.8337C30.4361 8.91724 29.5214 9.08227 29.5214 9.08227L28.4597 8.12748L28.4557 8.12807Z" fill="#2E2F35"/>
<path d="M18.4134 5.24456L18.0814 5.40754C18.1407 5.37034 18.1999 5.33315 18.2518 5.3011C20.2472 4.53729 23.1577 4.83116 23.1577 4.83116C23.1577 4.83116 22.052 6.02078 21.1812 6.94046L18.4094 5.24515L18.4134 5.24456Z" fill="#626082"/>
<path d="M29.5456 9.06996C29.5456 9.06996 28.7643 8.31214 28.4533 8.12782C26.4947 6.94265 22.1861 5.2057 19.939 4.77221C19.6141 4.71144 18.6299 4.73703 18.6299 4.73703L17.4968 5.3639L9.24871 11.4309L6.22808 13.923L18.4454 18.8105L29.5422 9.07451L29.5456 9.06996Z" fill="#2E2F35"/>
<path d="M15.0764 28.0293C15.0764 28.0293 13.7146 27.8846 13.2721 27.7685C12.0325 27.4395 8.26458 26.0146 8.26458 26.0146C8.26458 26.0146 5.12141 24.8687 4.18144 24.1873C4.00449 24.0598 3.62381 23.5175 3.62381 23.5175L3.86426 22.6879L15.3123 27.1964L15.0718 28.0259L15.0764 28.0293Z" fill="#495DCF"/>
<path d="M15.3107 27.2003C15.1487 27.2812 13.5715 27.2942 12.1754 26.7578C10.0918 25.9557 7.22572 24.7402 5.32607 23.9227C4.13631 23.4122 3.86267 22.6919 3.86267 22.6919C3.86267 22.6919 4.26213 22.5472 4.23768 22.0042C4.21323 21.4612 4.01327 19.9606 4.08415 19.6221C4.15503 19.2835 6.22501 13.9251 6.22501 13.9251L17.1484 18.2285C17.1484 18.2285 16.0732 21.0858 15.779 22.883C15.4802 24.6768 15.891 25.5831 15.3146 27.1997L15.3107 27.2003Z" fill="#2E2F35"/>
<path d="M15.9639 31.3271C15.9383 31.3188 17.5737 31.6413 18.1023 31.2222L18.3338 31.0378L18.1646 29.905C17.8858 28.0396 18.8649 25.5692 20.3524 24.3873C21.836 23.206 23.2673 23.7614 23.5461 25.6268L23.6568 26.6387L34.9657 17.6444L34.855 16.6325C34.5762 14.7671 35.5554 12.2967 37.0389 11.1154C38.5264 9.93352 39.9571 10.485 40.2365 12.3543L40.4691 13.9108C40.8562 13.602 41.0337 13.4621 41.0337 13.4621C41.0337 13.4621 41.9546 12.4175 42.1028 11.1604C42.1318 10.9212 42.0262 8.15535 41.7727 7.65068C41.5151 7.1466 41.2177 7.83888 39.985 7.77206C38.9692 7.72141 35.9827 9.08682 35.9827 9.08682C35.9827 9.08682 30.5321 8.35058 28.8094 9.42185C26.297 10.9796 17.7092 17.5104 17.1645 18.2275C16.0879 19.6395 15.4101 23.6926 15.2737 24.6766C15.2672 24.714 15.3399 27.0434 15.3268 27.1993C15.2805 27.7568 15.1143 27.6197 15.0863 28.0288C15.0618 28.4333 15.4969 31.1823 15.9651 31.335L15.9639 31.3271Z" fill="#546AEB"/>
<path d="M19.6967 20.0578C19.6967 20.0578 17.7637 21.375 16.2686 22.0722C16.6642 20.7093 16.5845 18.9842 17.1596 18.2261C17.7043 17.5091 26.2881 10.9789 28.8044 9.42054C30.6242 8.29428 35.9777 9.08551 35.9777 9.08551L35.3202 9.617L19.6961 20.0538L19.6967 20.0578Z" fill="#5B84FF"/>
<path d="M15.0707 28.0315C15.0986 27.6225 15.2649 27.7596 15.3111 27.202C15.3227 27.0626 15.2657 25.2451 15.2576 24.7847C16.216 24.0179 18.6365 22.5225 19.831 21.6557C21.4201 20.5032 26.0385 17.5132 26.9521 16.907C27.8656 16.3008 32.7628 12.9817 35.0078 11.0428C37.5433 8.85403 38.6979 8.8313 40.194 8.98023C40.5805 9.01965 41.7403 9.5468 41.757 7.65344C42.0145 8.15752 42.2455 10.2447 42.2164 10.4838C42.0676 11.737 41.0174 13.4609 41.0174 13.4609C41.0174 13.4609 40.8399 13.6008 40.4528 13.9096L40.2202 12.3531C39.9415 10.4877 38.5102 9.93233 37.0227 11.1142C35.5352 12.2961 34.56 14.7659 34.8387 16.6313L34.9495 17.6432L23.6405 26.6375L23.5298 25.6256C23.251 23.7602 21.8197 23.2048 20.3362 24.3861C18.8487 25.568 17.8696 28.0384 18.1483 29.9038L18.3176 31.0366L18.086 31.221C17.5575 31.6401 15.9261 31.317 15.9476 31.3259C15.48 31.1772 15.0965 28.3395 15.0689 28.0197L15.0707 28.0315Z" fill="#495DCF"/>
<path d="M4.42699 26.7771C4.48221 26.8215 4.53169 26.8546 4.58455 26.8832C4.58455 26.8832 4.58514 26.8871 4.5891 26.8865C4.9537 27.1317 5.79948 27.6977 6.13699 27.8699C7.60126 28.6188 10.7102 29.7252 12.2676 30.2577C13.1292 30.5501 15.2913 31.3081 16.1747 31.3947C16.27 31.4088 16.3731 31.4217 16.4791 31.4261C16.4915 31.4283 16.504 31.4305 16.5159 31.4287C16.9646 31.4508 17.5666 31.6321 18.0838 31.2187L18.3154 31.0343L18.1462 29.9016C17.8674 28.0362 18.8465 25.5658 20.3334 24.3799C21.817 23.1986 23.2483 23.754 23.5271 25.6194L23.6378 26.6313L34.5957 17.9162L34.9434 17.6416L34.8326 16.6297C34.5539 14.7643 35.529 12.2944 37.0166 11.1126C38.5041 9.93066 39.9308 10.4827 40.2102 12.3521L40.4428 13.9086C40.5876 13.7938 40.7031 13.6996 40.7898 13.63C40.9386 13.5146 41.0073 13.4598 41.0073 13.4598C41.0073 13.4598 41.9956 12.3241 42.1444 11.071C42.1548 11.0047 42.1911 10.8414 42.2063 10.4828C41.8169 11.1281 41.2103 11.6479 40.7767 12.0245C40.5895 11.2872 40.1397 9.14368 38.2478 9.70578C36.3553 10.2639 34.7057 12.0409 34.3377 14.3472C33.9657 16.654 34.3671 17.0637 34.3368 17.2949C34.3066 17.5262 25.6222 24.1686 25.1609 24.3873C24.7076 24.6049 23.8389 24.5363 23.5357 23.9702C23.2324 23.4041 22.1071 22.3495 20.5685 23.3244C19.0298 24.2994 17.1733 26.6701 16.6429 27.4013C16.5255 27.5646 16.3995 27.6968 16.27 27.8052C15.9015 28.1032 15.4938 28.1925 15.0851 28.2212C14.9888 28.2275 14.892 28.2298 14.7991 28.2315C14.1485 28.2397 12.8337 27.9219 9.90281 27.0318C8.29069 26.5399 6.99304 25.9847 6.04028 25.5157C5.26251 25.1339 4.71281 24.8152 4.41213 24.6456C4.28821 24.575 4.17718 24.4823 4.09068 24.4183C3.75659 24.1605 3.57454 23.9447 3.51649 23.6376C3.55169 24.4421 3.68081 26.2003 4.41115 26.7795L4.42699 26.7771Z" fill="#4052B5"/>
<path d="M23.8264 25.0228C23.2306 22.9051 21.806 22.4216 20.0811 23.2341C18.3562 24.0466 16.7603 25.9937 17.7685 29.0822C18.307 25.6411 20.2143 23.611 22.2331 23.5725C22.8107 23.5631 23.827 25.0268 23.827 25.0268L23.8264 25.0228Z" fill="#5B73FF"/>
<path d="M24.2772 24.4725C24.4528 24.5636 25.3908 24.5004 25.7305 24.2269C27.6895 22.6507 33.7476 18.077 33.8936 17.8892C34.7245 16.8378 27.8378 21.6649 26.6749 22.4176C25.5779 23.1241 23.9829 24.318 24.2772 24.4725Z" fill="#5B73FF"/>
<path d="M39.8486 10.4662C36.1508 9.64619 34.8811 13.4233 34.4517 16.5647C33.8942 12.8339 35.2412 11.0373 36.9005 9.9755C38.9445 8.66996 39.8486 10.4662 39.8486 10.4662Z" fill="#5B73FF"/>
<path d="M35.2199 16.3363C35.4596 17.9403 36.6888 18.4166 37.9661 17.3998C39.2434 16.3829 40.0843 14.2611 39.8447 12.6571C39.605 11.0531 38.3758 10.5768 37.0984 11.5936C35.8211 12.6105 34.9802 14.7323 35.2199 16.3363Z" fill="#1F2024"/>
<path d="M18.5246 29.6117C18.7643 31.2157 19.9935 31.692 21.2708 30.6752C22.5481 29.6583 23.389 27.5365 23.1493 25.9325C22.9096 24.3285 21.6805 23.8522 20.4031 24.869C19.1258 25.8859 18.2849 28.0077 18.5246 29.6117Z" fill="#1F2024"/>
<path d="M24.1875 25.8899L24.1691 25.7672C24.1691 25.7672 23.985 23.9929 23.0335 23.2889C22.683 23.0295 22.2617 22.9467 21.7967 23.0323C21.7848 23.0341 21.7729 23.0359 21.765 23.0371C21.4323 23.0868 20.8882 22.7511 20.6635 22.6024C20.2403 22.3175 19.796 21.9182 19.7581 21.6648C19.5557 20.3103 19.6097 17.5286 19.6096 17.5003L19.7478 17.504C19.7479 17.5323 19.6961 20.3014 19.8968 21.644C19.9228 21.8183 20.2848 22.1813 20.7438 22.4892C21.1806 22.7843 21.5815 22.9471 21.7686 22.8989C22.2794 22.7942 22.7353 22.8921 23.1183 23.179C23.9748 23.8163 24.2352 25.2066 24.2985 25.6304C28.0768 22.681 33.6635 18.2587 33.8213 17.9598C33.8596 17.6747 33.6443 12.9008 33.5741 12.6481C33.5271 12.4689 32.715 11.8573 32.2178 11.5106L32.298 11.3973C32.5193 11.5505 33.6321 12.3317 33.7104 12.6115C33.7841 12.888 34.004 17.6653 33.9551 17.9884C33.9106 18.2866 26.5446 24.0517 24.2889 25.81L24.1908 25.8854L24.1875 25.8899Z" fill="#4255BA"/>
<path d="M27.784 23.0394L27.6464 23.0397L27.6355 22.3166C27.6275 21.6132 26.9394 17.1164 26.8933 16.9168C26.859 16.7681 26.6046 16.2312 26.5065 16.0353L26.6307 15.9722C26.6473 16.0021 26.9808 16.6892 27.0262 16.8848C27.0734 17.0924 27.7632 21.5727 27.7731 22.3162L27.784 23.0394Z" fill="#4255BA"/>
<path d="M15.3042 27.202C15.3505 26.6444 15.1142 25.6594 15.2511 24.6793C15.3881 23.6992 16.066 19.6461 17.1419 18.2302C17.2846 18.0469 19.0101 16.1006 19.9798 15.3281C20.3528 15.0335 20.7153 15.2101 20.1586 15.7387C20.1546 15.7393 17.8599 17.9407 17.5934 18.5959C17.3894 19.1001 15.7837 23.0408 15.7251 24.4101C15.6838 25.3799 15.7093 25.5502 15.6802 26.2226C15.6511 26.895 15.2884 27.2043 15.3042 27.202Z" fill="#2E2F35"/>
<path d="M3.77574 21.0736C3.78698 21.1488 3.84616 21.1926 3.93129 21.2204C4.04533 21.2519 4.20275 21.2487 4.32275 21.2388C4.41898 21.2325 4.48968 21.2179 4.48968 21.2179C4.06381 20.7795 3.81707 20.456 3.81565 19.7962C3.79394 20.0303 3.77878 20.2269 3.76799 20.3986C3.7562 20.5906 3.75552 20.7486 3.75862 20.8777C3.76135 20.9502 3.76627 21.0102 3.77118 21.0702L3.77574 21.0736Z" fill="#2E2F35"/>
<path d="M34.4959 16.9106L34.6066 17.9225L34.9542 17.6478L34.8435 16.636C34.5648 14.7705 35.5399 12.3007 37.0274 11.1188C38.5149 9.93693 39.9417 10.489 40.221 12.3583L40.4536 13.9148C40.5985 13.8001 40.7139 13.7059 40.8007 13.6362L40.5681 12.0797C40.2533 9.97274 38.6374 9.34772 36.9578 10.6798C35.2781 12.0119 34.1731 14.8048 34.4879 16.9118L34.4959 16.9106Z" fill="#495DCF"/>
<path d="M17.7964 30.1887L17.9651 31.3174C18.0017 31.2917 18.0417 31.2614 18.0818 31.2311L18.3133 31.0467L18.1441 29.914C17.8653 28.0486 18.8444 25.5782 20.332 24.3963C21.8155 23.215 23.2468 23.7704 23.5256 25.6358L23.6363 26.6477L23.9834 26.3691L23.8726 25.3572C23.5578 23.2502 21.9414 22.6212 20.2623 23.9573C18.5832 25.2933 17.4776 28.0823 17.793 30.1932L17.7964 30.1887Z" fill="#495DCF"/>
<path d="M15.2974 30.7809C15.0436 30.7622 14.458 30.5014 14.2452 30.432C13.777 30.2793 14.2589 30.0089 14.2313 29.6891C14.7887 29.707 15.0204 30.1461 15.275 30.4684C15.4994 30.7507 15.3212 30.7774 15.2974 30.7809Z" fill="#2E2F35"/>
<path d="M35.3072 9.62245C35.3072 9.62245 32.5524 12.4028 32.3213 12.7531C31.9578 13.3014 22.5638 19.151 22.5887 18.9651L19.6864 20.0547C19.6864 20.0547 19.45 16.8468 19.846 16.4354C20.1858 16.0809 27.162 10.8234 29.1697 9.60025C31.1651 8.83644 35.3106 9.61789 35.3106 9.61789L35.3072 9.62245Z" fill="#2E2F35"/>
<path d="M22.6611 18.7035C23.7623 18.1341 31.7405 13.1601 32.1505 12.6251C32.3491 12.3282 34.1163 10.5255 34.8618 9.77031C33.9582 9.63001 31.7816 9.34388 30.1776 9.58357C29.8331 9.63506 29.5283 9.70895 29.2791 9.80287C27.272 11.03 20.3786 16.2184 20.0174 16.5923C19.8375 16.7973 19.8151 18.3271 19.9013 19.7435L22.6617 18.7075L22.6611 18.7035Z" fill="#3D3C51"/>
<path d="M25.2985 12.3079L27.1194 16.1212L26.299 16.673L24.9298 12.5776L25.2985 12.3079Z" fill="#2E2F35"/>
<path d="M30.0673 9.41667L33.5457 11.2615L32.7459 12.1138L29.7353 9.57964L30.0673 9.41667Z" fill="#2E2F35"/>
<path d="M5.64565 26.9913C5.39181 26.9725 5.41808 27.0941 5.22369 26.9855C4.40063 26.5173 4.34381 26.1371 4.26892 25.8528C4.23992 25.6587 4.31344 25.5546 4.44527 25.6239C4.86177 25.837 5.22683 26.3291 5.43578 26.5894C5.66017 26.8717 5.65553 27.0303 5.6502 26.9946L5.64565 26.9913Z" fill="#2E2F35"/>
<path d="M4.60552 25.8451C4.60552 25.8451 5.4189 26.6548 5.78313 26.8433C7.07359 27.5129 7.8794 28.0282 12.2258 29.3951C12.9311 29.6176 14.2342 29.6942 14.2342 29.6942C14.2342 29.6942 15.8141 30.8104 15.2238 30.7893C14.6336 30.7682 10.0335 29.1396 8.67606 28.6177C6.07635 27.6134 4.95843 26.8249 4.95843 26.8249L4.60156 25.8457L4.60552 25.8451Z" fill="#2E2F35"/>
<path d="M4.97144 19.9254C4.97144 19.9254 5.06622 20.0449 5.11115 20.0746C5.96563 20.6717 8.17275 21.5687 10.0556 22.2469C11.1126 22.6275 12.066 22.9385 12.6277 23.0934C12.8433 23.1544 13.5092 23.2209 13.5092 23.2209C13.7575 23.2566 14.0042 23.2279 14.2341 23.1409C14.2421 23.1397 14.2454 23.1351 14.2534 23.1339C14.494 23.0373 14.7087 22.8756 14.871 22.661C14.871 22.661 15.5357 20.2538 15.8467 18.8671C15.9315 18.486 15.6929 18.1087 15.3112 18.0199C14.5699 17.8554 13.4169 17.5904 12.9227 17.4537C12.5931 17.3612 12.2747 17.2631 11.9625 17.1518C10.7632 16.7399 9.64869 16.2181 8.48174 15.6434C8.21074 15.5098 7.58461 15.1944 7.18719 14.8651C6.93325 14.6561 6.22478 14.6567 6.02998 14.9247C5.19018 16.0786 4.58675 18.0556 4.55183 18.1742C4.55183 18.1742 4.55183 18.1742 4.55242 18.1782C4.54646 18.2195 4.53594 18.2575 4.52998 18.2989C4.53057 18.3029 4.5278 18.3114 4.52839 18.3154C4.47604 18.805 4.69065 19.5908 4.98214 19.9157L4.97144 19.9254Z" fill="#3D3C51"/>
<path d="M5.99016 21.2011C6.14316 21.3038 8.31222 22.2713 9.87618 22.8473C10.3258 23.0109 10.7225 23.146 11.0129 23.22C12.0686 23.4834 12.9989 23.7209 14.2298 23.1523C14.2378 23.1511 14.2411 23.1466 14.2491 23.1454C14.2491 23.1454 12.4822 22.1056 10.4542 20.9713C7.78111 19.4759 4.65169 17.8259 4.54021 18.1908C4.54021 18.1908 4.54021 18.1908 4.5408 18.1947C4.53483 18.2361 4.52432 18.2741 4.51836 18.3155C4.51895 18.3195 4.51617 18.328 4.51676 18.3319C4.28889 19.7062 4.82689 20.4072 5.99412 21.2005L5.99016 21.2011Z" fill="#3D3C51"/>
<g style="mix-blend-mode:screen">
<path d="M10.3476 26.0178C10.4955 25.0563 10.1619 24.098 10.1127 23.66C10.0609 23.1778 10.7291 18.5998 11.6183 17.9932C12.0299 17.713 13.3499 17.3335 14.5513 17.1905L16.6935 18.0324C16.6701 18.0926 16.6433 18.1573 16.6047 18.2238C15.5399 20.1483 14.9157 23.1244 14.8645 23.622C14.8134 24.1196 14.8902 25.5009 14.7508 25.8416C14.6834 26.0136 14.5839 26.648 14.4539 27.214C13.8369 27.1767 12.9837 27.0491 12.1929 26.7421C11.6257 26.5232 10.9971 26.273 10.3464 26.0099L10.3476 26.0178Z" fill="#131317"/>
</g>
<g style="mix-blend-mode:screen">
<path d="M10.1569 22.9439C10.4907 23.064 10.7881 23.1573 11.0156 23.2164C12.0712 23.4798 13.0015 23.7173 14.2325 23.1487C14.2404 23.1475 14.2438 23.1429 14.2517 23.1418C14.4923 23.0451 14.707 22.8834 14.8693 22.6689C14.8693 22.6689 15.534 20.2616 15.845 18.8749C15.9298 18.4938 15.6912 18.1165 15.3095 18.0278C14.6102 17.8731 13.5496 17.6308 13.0141 17.4881C12.378 17.6479 11.848 17.8405 11.6168 18.0006C11.1612 18.3116 10.7611 19.6711 10.4875 20.9834C10.3914 21.4512 10.3106 21.9127 10.2458 22.3192C10.211 22.5471 10.1824 22.7619 10.1569 22.9439Z" fill="#131317"/>
</g>
<path d="M8.6875 25.3384C8.6875 25.3384 13.319 27.0149 14.4278 26.8209C15.1027 26.7038 15.7178 25.4013 15.7178 25.4013L16.2974 26.8411L15.2995 27.3708C15.2995 27.3708 12.8454 27.2598 12.437 27.1548C12.024 27.0465 8.6875 25.3384 8.6875 25.3384Z" fill="#495DCF"/>
<path d="M3.82972 21.7569C3.82972 21.7569 3.98396 22.8432 4.57081 23.3022C5.24415 23.8251 6.43368 24.3883 6.43368 24.3883C6.43368 24.3883 5.55754 24.2965 5.18629 24.2508C4.81505 24.205 3.87489 23.4952 3.83706 22.8085C3.79922 22.1218 3.82576 21.7575 3.82576 21.7575L3.82972 21.7569Z" fill="#495DCF"/>
<path d="M40.0905 6.38946C40.329 7.00976 39.9085 7.58277 39.9737 7.77547C39.9836 7.81448 40.1166 7.89178 40.291 7.97504C40.487 8.06722 40.7414 8.17092 40.9526 8.25677C41.1894 8.35096 41.4558 8.20992 41.5114 7.95868C41.5604 7.74486 41.5922 7.49716 41.5486 7.31339C41.5137 7.27 40.8643 6.50058 40.581 6.31211C40.5492 6.28853 40.5133 6.26554 40.4775 6.24255C40.1727 6.04517 39.818 5.83904 39.4219 5.62695C39.5697 5.72228 40.0187 6.23418 40.0899 6.3855L40.0905 6.38946Z" fill="#CCDFF2"/>
<path d="M39.9738 7.77556C39.9149 7.59812 40.255 7.11001 40.1393 6.55235C40.3661 6.95978 40.4963 7.28855 40.5326 7.39649C40.5726 7.52818 40.7371 7.84371 40.5984 8.10738C40.4905 8.06277 40.386 8.0136 40.2945 7.97058C40.1201 7.88732 39.9871 7.81003 39.9772 7.77101L39.9738 7.77556Z" fill="#9BACBF"/>
<path d="M16.9402 18.3133C16.0859 19.4248 15.3628 20.1402 14.7577 20.1821C14.1525 20.2239 11.7791 19.623 9.85706 18.8454C7.93502 18.0677 6.19183 17.1864 5.71292 16.6911C5.23401 16.1958 5.39657 15.8476 5.7851 15.413C6.17364 14.9784 7.04545 13.9573 7.04545 13.9573C7.04545 13.9573 7.93052 15.0843 9.12852 15.7313C10.3265 16.3782 13.8414 17.7358 14.5158 17.886C15.1901 18.0363 15.9627 18.1395 16.4365 18.1132C16.5894 18.1066 16.9368 18.3178 16.9368 18.3178L16.9402 18.3133Z" fill="#232429"/>
<path d="M17.859 17.5828C16.2092 18.8983 15.2682 19.4559 14.6624 19.4938C14.0573 19.5357 11.6839 18.9348 9.76185 18.1571C7.8398 17.3795 5.88821 16.3228 5.4093 15.8275C4.93039 15.3322 5.09295 14.984 5.48148 14.5494C5.87002 14.1148 6.95023 13.2691 6.95023 13.2691C6.95023 13.2691 7.83531 14.3961 9.03331 15.043C10.2313 15.69 13.7462 17.0475 14.4206 17.1978C15.0949 17.348 16.2701 17.6259 16.7442 17.6279C17.2188 17.6339 17.855 17.5834 17.855 17.5834L17.859 17.5828Z" fill="#2E2F35"/>
<path d="M17.0957 6.07183C15.4915 7.06872 12.9394 8.87533 8.28118 12.8187C8.07614 12.9911 8.08611 13.2204 8.2866 13.3969C8.49164 13.5768 8.79983 13.7696 8.93622 13.8424C10.6026 14.7514 14.192 16.0654 16.0344 16.527C16.1524 16.5579 16.3468 16.5855 16.5571 16.6108C17.2043 16.6882 17.859 16.5175 18.385 16.1352C23.6821 12.2948 26.1577 10.6534 26.6712 10.107C27.2129 9.53209 17.0963 6.07579 17.0963 6.07579L17.0957 6.07183Z" fill="#3D3C51"/>
<path d="M14.1617 8.16975L14.0702 8.23615C14.0996 8.21554 14.1284 8.19095 14.1617 8.16975Z" fill="#626082"/>
<path d="M8.27673 13.4018C8.43852 13.0213 8.60386 12.6646 8.74498 12.4168C9.84226 11.4957 10.8157 10.6943 11.6879 10.0011C12.4122 9.4556 13.2142 8.86201 14.0129 8.27298L14.173 12.0267L14.9935 11.4749L14.3861 8.00666C15.3681 7.28902 16.3225 6.60384 17.0938 6.07558C17.0938 6.07558 18.1648 6.44189 19.5857 6.95433L20.381 7.77889C20.2893 7.86953 20.2223 7.93622 20.1823 7.96649C19.8533 8.23026 10.8028 14.32 10.8028 14.32L10.2404 14.485C9.73777 14.2646 9.28841 14.0483 8.92695 13.8513C8.79056 13.7785 8.48692 13.5891 8.28188 13.4092L8.27673 13.4018Z" fill="#626082"/>
<path d="M11.6894 10.0021L16.0614 6.82623C16.5677 6.47524 17.2054 6.37996 17.869 6.53992C19.9773 7.0468 23.9554 8.65901 25.8496 9.68377C26.2594 9.90596 26.5101 10.2289 26.2426 10.4713L24.9119 11.4556L25.8227 11.0482L27.7265 9.86083L16.8907 5.7913L14.6215 7.48679L11.6928 9.99752L11.6894 10.0021Z" fill="#2E2F35"/>
<path d="M12.5958 26.8228C14.0219 27.0996 14.9062 27.1375 15.3529 26.8481C15.6811 26.633 16.6593 25.9443 16.2919 26.8454C15.9629 27.6517 15.1833 28.0436 14.6721 27.9823C14.1603 27.9171 13.1493 27.8171 10.2818 26.9176C7.41435 26.018 5.27188 24.9575 4.55534 24.4977C3.83542 24.0425 3.45498 23.4474 3.5605 23.1239C3.66939 22.7959 3.81851 22.0327 3.81851 22.0327C3.81851 22.0327 3.75219 22.7268 4.48463 23.4555C5.21706 24.1842 8.14754 25.3699 9.19422 25.7358C10.2363 26.0984 12.6043 26.8256 12.6043 26.8256L12.5958 26.8228Z" fill="#5B73FF"/>
<path d="M35.2277 16.3349C35.4674 17.9389 36.6966 18.4152 37.9739 17.3983C39.2512 16.3814 40.0922 14.2596 39.8525 12.6556C39.6128 11.0516 38.3836 10.5753 37.1063 11.5922C35.8289 12.609 34.988 14.7308 35.2277 16.3349Z" fill="#393843"/>
<path d="M35.3804 16.2805C35.6107 17.8212 36.7927 18.2802 38.0233 17.3027C39.2499 16.3258 40.0619 14.2812 39.8317 12.7406C39.6014 11.1999 38.4194 10.7409 37.1888 11.7184C35.9622 12.6953 35.1502 14.7399 35.3804 16.2805Z" fill="#2D2C37"/>
<path d="M35.6943 16.0371C35.8908 17.352 36.8962 17.7402 37.942 16.9078C38.9878 16.0753 39.6754 14.3368 39.4789 13.0219C39.2824 11.707 38.2769 11.3187 37.2312 12.1512C36.1854 12.9836 35.4978 14.7222 35.6943 16.0371Z" fill="#504F58"/>
<path d="M35.7423 15.8876C35.9281 17.1312 36.8825 17.5028 37.8742 16.7148C38.8658 15.9269 39.5184 14.2786 39.332 13.0311C39.1455 11.7835 38.1917 11.4159 37.2001 12.2038C36.2084 12.9917 35.5558 14.64 35.7423 15.8876Z" fill="#BABABE"/>
<path d="M39.2502 13.4317C39.2736 14.1571 39.039 15.0262 38.5697 15.7604C38.0999 16.4906 37.5113 16.9146 36.9917 16.9598C36.7636 16.9777 36.5492 16.9247 36.3671 16.79C36.3085 16.7501 36.2521 16.6978 36.2025 16.6364C36.1928 16.6257 36.1831 16.615 36.1728 16.6004C36.1379 16.557 36.1025 16.5097 36.0744 16.4572C36.0361 16.39 36.0011 16.3183 35.97 16.246C35.9176 16.1121 35.8793 15.964 35.8556 15.8056C35.8449 15.7343 35.8337 15.6591 35.8343 15.582C35.8284 15.5424 35.831 15.5056 35.8297 15.4694C35.8261 15.4456 35.8299 15.4167 35.8303 15.3923C35.8267 15.3686 35.8311 15.3436 35.8315 15.3193C35.8327 15.2462 35.834 15.1731 35.8431 15.0989C35.8457 15.0621 35.8489 15.0292 35.8555 14.9918C35.8586 14.9589 35.8624 14.93 35.8662 14.9011C35.8716 14.8557 35.8769 14.8104 35.8869 14.7684C35.894 14.735 35.8972 14.7021 35.9043 14.6686C35.9317 14.5269 35.971 14.3833 36.0143 14.2392C36.022 14.2097 36.0337 14.1796 36.0415 14.1501C36.0754 14.0519 36.1099 13.9577 36.1517 13.8583C36.16 13.8328 36.1729 13.8106 36.1813 13.7851C36.1991 13.7419 36.2209 13.6982 36.2427 13.6544C36.3192 13.4891 36.4122 13.3254 36.5103 13.1691C36.5596 13.0928 36.6129 13.0161 36.6635 12.9478C36.6865 12.9119 36.714 12.8795 36.7376 12.8476C36.7443 12.8385 36.755 12.8288 36.7618 12.8197C36.782 12.7924 36.8028 12.769 36.8236 12.7457C37.0788 12.4484 37.3504 12.2337 37.6225 12.104C38.099 11.8789 38.5604 11.9314 38.8782 12.2969C38.8879 12.3076 38.8976 12.3183 38.9073 12.329C38.9672 12.4051 39.0204 12.4903 39.0624 12.5812C39.1795 12.8228 39.2391 13.1135 39.2508 13.4357L39.2502 13.4317Z" fill="url(#paint0_linear_25400_1152)"/>
<path d="M36.7258 13.1981L36.7882 13.7516C36.5799 13.7665 36.371 13.7775 36.1767 13.7782C36.1946 13.735 36.2164 13.6913 36.2382 13.6475C36.3147 13.4822 36.4077 13.3185 36.5058 13.1622C36.5551 13.086 36.6084 13.0092 36.659 12.9409C36.682 12.905 36.7095 12.8726 36.7331 12.8407C36.7398 12.8316 36.7505 12.8219 36.7573 12.8128C36.7775 12.7855 36.7983 12.7621 36.8191 12.7388C37.0743 12.4415 37.3459 12.2268 37.618 12.0971C38.0945 11.872 38.5559 11.9245 38.8737 12.29C37.3745 12.012 36.7297 13.1975 36.7297 13.1975L36.7258 13.1981Z" fill="#393843"/>
<path d="M39.1287 13.4426C39.1287 13.4426 38.7475 14.1433 38.2813 14.383C37.8151 14.6228 37.0395 15.9088 37.0395 15.9088L36.79 13.7516C37.9193 13.6678 39.1242 13.4392 39.1242 13.4392L39.1287 13.4426Z" fill="#393843"/>
<path d="M38.0868 13.2179C38.1073 13.8424 37.9031 14.5896 37.5034 15.2202C37.2802 15.5694 37.0243 15.8344 36.7666 16.0065C36.5574 16.1512 36.3467 16.2312 36.1508 16.2483C36.135 16.2507 36.1191 16.2531 36.1067 16.2509C36.0591 16.258 36.0138 16.2526 35.9684 16.2473C35.916 16.1134 35.8777 15.9652 35.854 15.8068C35.8434 15.7355 35.8321 15.6603 35.8328 15.5833C35.8269 15.5437 35.8295 15.5068 35.8281 15.4706C35.8245 15.4468 35.8283 15.4179 35.8287 15.3936C35.8252 15.3698 35.8295 15.3448 35.83 15.3205C35.8312 15.2474 35.8324 15.1744 35.8416 15.1001C35.8442 15.0633 35.8473 15.0304 35.8539 14.993C35.8571 14.9601 35.8609 14.9312 35.8646 14.9023C35.87 14.857 35.8754 14.8116 35.8853 14.7697C35.8924 14.7362 35.8956 14.7033 35.9028 14.6699C35.9302 14.5281 35.9695 14.3846 36.0127 14.2405C36.0205 14.211 36.0322 14.1809 36.0399 14.1514C36.0738 14.0532 36.1083 13.9589 36.1501 13.8596C36.1763 13.7909 36.211 13.7249 36.2411 13.6557C36.3177 13.4904 36.4106 13.3267 36.5087 13.1703C36.5581 13.0941 36.6114 13.0173 36.6619 12.949C36.6849 12.9132 36.7124 12.8807 36.736 12.8488C36.7428 12.8397 36.7535 12.83 36.7602 12.8209C36.7804 12.7936 36.8012 12.7703 36.822 12.7469C37.0772 12.4496 37.3488 12.235 37.6209 12.1052C37.6847 12.1524 37.7456 12.208 37.8004 12.2768C37.8507 12.3422 37.8976 12.4121 37.9338 12.4917C37.9872 12.6052 38.0265 12.7329 38.0557 12.8743C38.0763 12.9846 38.0901 13.104 38.0965 13.2286L38.0868 13.2179Z" fill="url(#paint1_linear_25400_1152)"/>
<path d="M36.8321 14.4581L36.4664 14.3144L36.1463 13.8521C36.1725 13.7834 36.2072 13.7174 36.2373 13.6482C36.3138 13.4829 36.4068 13.3192 36.5049 13.1628C36.5542 13.0866 36.6075 13.0098 36.6581 12.9415C36.6811 12.9057 36.7086 12.8732 36.7322 12.8413C36.7389 12.8322 36.7496 12.8225 36.7564 12.8134C36.8296 12.843 36.8858 12.867 36.8904 12.8703L36.5428 13.4163L36.8321 14.4581Z" fill="url(#paint2_linear_25400_1152)"/>
<path d="M36.8367 14.4591L36.9488 14.8837L36.7765 16.0067L36.7021 16.5118C36.6666 16.6264 36.8526 16.8415 36.7835 16.8397C36.6691 16.8325 36.3676 16.7116 36.2063 16.6345C36.1966 16.6238 36.1869 16.6131 36.1766 16.5984C36.1417 16.555 36.1063 16.5077 36.0782 16.4552C36.0747 16.4314 36.0824 16.4019 36.0902 16.3724L36.1114 16.2437L36.451 14.371L36.4705 14.3114L36.8361 14.4551L36.8367 14.4591Z" fill="url(#paint3_linear_25400_1152)"/>
<path d="M38.6193 12.5548C38.5892 12.5431 38.5502 12.553 38.5141 12.5827L37.0079 13.5042L36.9685 13.5384L37.0975 14.4018L37.4232 14.1426L38.6758 13.421C38.7519 13.361 38.8021 13.2361 38.7912 13.1365C38.7707 12.9452 39.0579 12.8618 38.998 12.7047C38.9853 12.6742 38.6448 12.5632 38.6193 12.5548Z" fill="url(#paint4_linear_25400_1152)"/>
<path d="M37.2677 15.0958L36.3564 13.7662C36.3118 13.7121 36.319 13.5977 36.37 13.505C36.4237 13.4039 36.478 13.3067 36.5408 13.2123C36.6036 13.1179 36.6671 13.0274 36.7311 12.9409C36.7917 12.859 36.8743 12.8426 36.9148 12.8973L37.8261 14.2268L37.2683 15.0997L37.2677 15.0958Z" fill="#DFDFE3"/>
<path d="M37.4492 14.5459L37.3201 13.6825L37.3635 13.6476L38.8697 12.7261C38.9345 12.6719 39.0014 12.6862 39.0279 12.7551C39.0878 12.9122 39.1263 13.0886 39.1468 13.2799C39.1576 13.3795 39.1075 13.5044 39.0314 13.5644L37.7788 14.286L37.4531 14.5453L37.4492 14.5459Z" fill="#DFDFE3"/>
<path d="M36.4867 16.7432C36.4338 16.7147 36.4202 16.6236 36.4496 16.522L36.811 14.5245L36.8305 14.4649L37.4546 14.5498L37.3082 15.0332L37.0615 16.6613C37.026 16.776 36.945 16.8569 36.8719 16.8557C36.7371 16.8475 36.6066 16.8143 36.4873 16.7472L36.4867 16.7432Z" fill="#DFDFE3"/>
<path d="M36.8386 16.639C36.8386 16.639 36.8515 16.6168 36.8565 16.5958L37.1114 14.9422L37.6199 14.1455L38.9019 13.4032C38.9199 13.3884 38.9445 13.3361 38.9397 13.3045C38.9271 13.193 38.9072 13.0866 38.8845 12.9888L37.331 13.9457L36.8336 13.1374C36.7898 13.1965 36.7506 13.2591 36.7074 13.3222C36.6519 13.4115 36.597 13.5047 36.5466 13.6013C36.5338 13.6235 36.5327 13.6439 36.5306 13.6564L37.0428 14.4828L36.6491 16.5903C36.7099 16.6177 36.7729 16.6326 36.8386 16.639Z" fill="#4B4A4B"/>
<path d="M18.5402 29.6102C18.7799 31.2143 20.0091 31.6906 21.2864 30.6737C22.5637 29.6568 23.4047 27.535 23.165 25.931C22.9253 24.327 21.6961 23.8507 20.4188 24.8676C19.1414 25.8844 18.3005 28.0062 18.5402 29.6102Z" fill="#393843"/>
<path d="M18.6851 29.5593C18.9154 31.1 20.0974 31.559 21.328 30.5815C22.5546 29.6046 23.3666 27.56 23.1364 26.0194C22.9061 24.4787 21.7241 24.0197 20.4935 24.9972C19.2669 25.9741 18.4549 28.0187 18.6851 29.5593Z" fill="#2D2C37"/>
<path d="M19.0068 29.3164C19.2033 30.6313 20.2087 31.0195 21.2545 30.1871C22.3003 29.3546 22.9879 27.6161 22.7914 26.3012C22.5949 24.9863 21.5894 24.598 20.5437 25.4305C19.4979 26.2629 18.8103 28.0015 19.0068 29.3164Z" fill="#504F58"/>
<path d="M19.0548 29.1693C19.2406 30.4129 20.195 30.7845 21.1867 29.9966C22.1783 29.2087 22.8309 27.5604 22.6445 26.3128C22.458 25.0653 21.5042 24.6976 20.5126 25.4855C19.5209 26.2735 18.8683 27.9217 19.0548 29.1693Z" fill="#BABABE"/>
<path d="M22.5394 26.7132C22.5627 27.4385 22.3282 28.3076 21.8589 29.0418C21.389 29.772 20.8005 30.196 20.2809 30.2412C20.0528 30.2591 19.8384 30.2062 19.6563 30.0714C19.5977 30.0316 19.5413 29.9793 19.4916 29.9179C19.4819 29.9072 19.4722 29.8965 19.4619 29.8818C19.4271 29.8384 19.3917 29.7911 19.3636 29.7386C19.3252 29.6714 19.2902 29.5997 19.2592 29.5275C19.2068 29.3936 19.1684 29.2454 19.1448 29.087C19.1341 29.0157 19.1229 28.9405 19.1235 28.8635C19.1176 28.8238 19.1202 28.787 19.1188 28.7508C19.1153 28.727 19.119 28.6981 19.1194 28.6738C19.1159 28.65 19.1203 28.625 19.1207 28.6007C19.1219 28.5276 19.1231 28.4546 19.1323 28.3803C19.1349 28.3435 19.1381 28.3106 19.1446 28.2732C19.1478 28.2403 19.1516 28.2114 19.1554 28.1825C19.1607 28.1372 19.1661 28.0918 19.176 28.0499C19.1832 28.0164 19.1864 27.9835 19.1935 27.9501C19.2209 27.8083 19.2602 27.6648 19.3034 27.5206C19.3112 27.4911 19.3229 27.4611 19.3306 27.4316C19.3645 27.3334 19.399 27.2391 19.4409 27.1398C19.4492 27.1142 19.4621 27.092 19.4704 27.0665C19.4883 27.0233 19.5101 26.9796 19.5319 26.9359C19.6084 26.7706 19.7013 26.6069 19.7994 26.4505C19.8488 26.3743 19.9021 26.2975 19.9526 26.2292C19.9756 26.1934 20.0032 26.1609 20.0267 26.129C20.0335 26.1199 20.0442 26.1102 20.0509 26.1011C20.0711 26.0738 20.0919 26.0505 20.1127 26.0271C20.3679 25.7298 20.6395 25.5152 20.9117 25.3854C21.3882 25.1603 21.8489 25.2089 22.1673 25.5784C22.177 25.5891 22.1867 25.5998 22.1964 25.6105C22.2564 25.6865 22.3096 25.7717 22.3515 25.8626C22.4686 26.1042 22.5283 26.395 22.54 26.7171L22.5394 26.7132Z" fill="url(#paint5_linear_25400_1152)"/>
<path d="M20.0384 26.4761L20.1008 27.0296C19.8925 27.0445 19.6836 27.0555 19.4893 27.0562C19.5072 27.013 19.529 26.9693 19.5508 26.9255C19.6273 26.7602 19.7203 26.5965 19.8184 26.4402C19.8677 26.364 19.921 26.2872 19.9716 26.2189C19.9946 26.183 20.0221 26.1506 20.0457 26.1187C20.0524 26.1096 20.0631 26.0999 20.0699 26.0908C20.0901 26.0635 20.1109 26.0401 20.1317 26.0168C20.3869 25.7195 20.6585 25.5048 20.9306 25.3751C21.4071 25.15 21.8679 25.1986 22.1863 25.5681C20.6871 25.29 20.0423 26.4755 20.0423 26.4755L20.0384 26.4761Z" fill="#393843"/>
<path d="M22.4412 26.7189C22.4412 26.7189 22.06 27.4197 21.5938 27.6594C21.1276 27.8991 20.352 29.1852 20.352 29.1852L20.1025 27.0279C21.2318 26.9442 22.4367 26.7156 22.4367 26.7156L22.4412 26.7189Z" fill="#393843"/>
<path d="M21.3993 26.4996C21.4198 27.1242 21.2156 27.8713 20.8159 28.502C20.5927 28.8511 20.3368 29.1161 20.0791 29.2883C19.8699 29.4329 19.6592 29.513 19.4633 29.5301C19.4475 29.5325 19.4316 29.5348 19.4192 29.5326C19.3716 29.5397 19.3263 29.5344 19.2809 29.529C19.2285 29.3951 19.1902 29.247 19.1665 29.0886C19.1559 29.0173 19.1446 28.942 19.1453 28.865C19.1394 28.8254 19.142 28.7886 19.1406 28.7523C19.137 28.7286 19.1408 28.6997 19.1412 28.6753C19.1377 28.6515 19.142 28.6266 19.1425 28.6022C19.1437 28.5292 19.1449 28.4561 19.1541 28.3819C19.1567 28.345 19.1598 28.3122 19.1664 28.2747C19.1696 28.2419 19.1734 28.213 19.1771 28.1841C19.1825 28.1387 19.1879 28.0934 19.1978 28.0514C19.205 28.0179 19.2081 27.9851 19.2153 27.9516C19.2427 27.8099 19.282 27.6663 19.3252 27.5222C19.333 27.4927 19.3447 27.4626 19.3524 27.4331C19.3863 27.3349 19.4208 27.2407 19.4626 27.1413C19.4888 27.0726 19.5235 27.0067 19.5536 26.9374C19.6302 26.7721 19.7231 26.6084 19.8212 26.452C19.8706 26.3758 19.9239 26.299 19.9744 26.2307C19.9974 26.1949 20.0249 26.1624 20.0485 26.1306C20.0553 26.1215 20.066 26.1118 20.0727 26.1027C20.0929 26.0754 20.1137 26.052 20.1345 26.0287C20.3897 25.7314 20.6613 25.5167 20.9334 25.3869C20.9972 25.4341 21.0581 25.4898 21.1129 25.5585C21.1632 25.6239 21.2101 25.6938 21.2463 25.7734C21.2997 25.8869 21.339 26.0147 21.3682 26.1561C21.3888 26.2664 21.4026 26.3858 21.409 26.5103L21.3993 26.4996Z" fill="url(#paint6_linear_25400_1152)"/>
<path d="M20.1368 27.7399L19.7711 27.5961L19.451 27.1338C19.4772 27.0651 19.5119 26.9992 19.542 26.9299C19.6185 26.7646 19.7115 26.6009 19.8096 26.4445C19.8589 26.3683 19.9122 26.2915 19.9628 26.2232C19.9857 26.1874 20.0133 26.1549 20.0369 26.1231C20.0436 26.114 20.0543 26.1043 20.061 26.0952C20.1343 26.1247 20.1905 26.1487 20.1951 26.1521L19.8474 26.698L20.1368 27.7399Z" fill="url(#paint7_linear_25400_1152)"/>
<path d="M20.1336 27.7403L20.2456 28.1649L20.0733 29.2879L19.999 29.793C19.9635 29.9077 20.1495 30.1228 20.0804 30.121C19.966 30.1138 19.6645 29.9928 19.5031 29.9157C19.4934 29.905 19.4837 29.8943 19.4734 29.8797C19.4386 29.8363 19.4032 29.7889 19.3751 29.7364C19.3716 29.7127 19.3793 29.6832 19.387 29.6537L19.4083 29.525L19.7479 27.6522L19.7674 27.5926L20.133 27.7364L20.1336 27.7403Z" fill="url(#paint8_linear_25400_1152)"/>
<path d="M21.924 25.8375C21.8939 25.8258 21.8549 25.8357 21.8188 25.8654L20.3126 26.7869L20.2732 26.8211L20.4022 27.6845L20.7279 27.4253L21.9805 26.7037C22.0566 26.6437 22.1067 26.5188 22.0959 26.4192C22.0754 26.2279 22.3626 26.1445 22.3027 25.9875C22.29 25.9569 21.9495 25.8459 21.924 25.8375Z" fill="url(#paint9_linear_25400_1152)"/>
<path d="M20.588 28.3672L19.6767 27.0377C19.6322 26.9836 19.6394 26.8692 19.6903 26.7765C19.744 26.6754 19.7983 26.5782 19.8611 26.4838C19.924 26.3894 19.9874 26.2989 20.0514 26.2124C20.112 26.1305 20.1946 26.1141 20.2352 26.1687L21.1465 27.4983L20.5886 28.3712L20.588 28.3672Z" fill="#DFDFE3"/>
<path d="M20.7617 27.8256L20.6326 26.9622L20.676 26.9274L22.1822 26.0059C22.247 25.9517 22.3139 25.966 22.3404 26.0349C22.4003 26.192 22.4388 26.3684 22.4593 26.5597C22.4701 26.6593 22.42 26.7842 22.3439 26.8442L21.0913 27.5658L20.7656 27.825L20.7617 27.8256Z" fill="#DFDFE3"/>
<path d="M19.7914 30.0181C19.7385 29.9896 19.7249 29.8985 19.7543 29.7969L20.1157 27.7994L20.1352 27.7398L20.7593 27.8247L20.6129 28.3081L20.3662 29.9362C20.3307 30.0509 20.2497 30.1318 20.1766 30.1306C20.0418 30.1224 19.9113 30.0892 19.792 30.0221L19.7914 30.0181Z" fill="#DFDFE3"/>
<path d="M20.1589 29.9124C20.1589 29.9124 20.1718 29.8902 20.1768 29.8692L20.4317 28.2156L20.9403 27.4189L22.2222 26.6767C22.2402 26.6618 22.2648 26.6096 22.2601 26.5779C22.2474 26.4664 22.2275 26.3601 22.2048 26.2622L20.6513 27.2191L20.1539 26.4108C20.1101 26.47 20.0709 26.5325 20.0277 26.5957C19.9722 26.6849 19.9173 26.7782 19.8669 26.8748C19.8541 26.8969 19.8531 26.9173 19.8509 26.9298L20.3631 27.7562L19.9695 29.8638C20.0302 29.8911 20.0932 29.906 20.1589 29.9124Z" fill="#4B4A4B"/>
<path d="M40.4926 6.24543C40.5284 6.26842 40.5642 6.29141 40.5961 6.31499C40.8793 6.50345 41.5294 7.27684 41.5636 7.31626C41.5636 7.31626 40.9738 6.75656 40.6591 6.52016C40.3444 6.28376 39.4375 5.63379 39.4375 5.63379C39.8336 5.84588 40.1883 6.052 40.4931 6.24939L40.4926 6.24543Z" fill="#F7FBFF"/>
<g style="mix-blend-mode:screen">
<path d="M40.1433 7.01322C40.1748 6.8182 40.1718 6.60811 40.0899 6.3855C40.0187 6.23418 39.5703 5.72624 39.4219 5.62695C39.818 5.83904 40.1727 6.04517 40.4775 6.24255C40.5003 6.2594 40.5225 6.27228 40.5452 6.28912C40.6602 6.46225 40.7343 6.63337 40.6806 6.73452C40.5373 6.99483 40.1438 7.01718 40.1438 7.01718L40.1433 7.01322Z" fill="#565E66"/>
</g>
<path d="M39.7734 5.9502C39.7734 5.9502 39.8084 5.98702 39.8285 6.00923C39.809 5.99113 39.793 5.9683 39.7734 5.9502Z" fill="#9BACBF"/>
<path d="M41.1338 8.15333C41.0784 8.16162 41.0251 8.15743 40.9712 8.14928L40.9241 8.13203L40.6632 7.98476L40.8105 7.72387L41.0447 7.85488C41.0775 7.85807 41.1421 7.85652 41.1492 7.82306L41.1598 7.78505C41.2096 7.6035 41.3292 7.18477 40.9221 6.33053L41.1903 6.20138C41.645 7.15782 41.5044 7.65257 41.4474 7.86758C41.401 8.04457 41.2718 8.12866 41.1372 8.14878L41.1338 8.15333Z" fill="white"/>
<path d="M11.8723 24.6122C12.0402 24.6519 12.7462 24.7974 13.9307 24.7581C14.3056 24.7466 15.5132 24.4285 15.9927 24.1422C16.4683 23.8565 17.9129 22.9564 17.9129 22.9564L17.8821 23.455C17.8821 23.455 16.5439 24.3352 16.0689 24.6248C15.5933 24.9105 14.3817 25.2292 14.0069 25.2407C12.6327 25.2841 11.9065 25.0849 11.9065 25.0849L11.8723 24.6122Z" fill="#FF3838"/>
<path d="M3.76671 20.4003C3.75492 20.5923 3.75424 20.7503 3.75734 20.8795C3.79767 20.9868 3.85107 21.1003 3.92942 21.2181C3.93575 21.2334 3.94544 21.2441 3.95573 21.2588C4.08434 21.442 4.15039 21.586 4.31505 21.7395C4.53156 21.942 4.8938 22.1713 5.54205 22.5805C5.55393 22.5788 5.51082 22.1277 5.51082 22.1277C5.07616 21.8201 4.75431 21.6172 4.54708 21.4498C4.45485 21.3745 4.37965 21.3047 4.32147 21.2405C4.16236 21.07 4.08324 20.9198 3.95345 20.7287C3.8757 20.6148 3.81437 20.5025 3.7673 20.4042L3.76671 20.4003Z" fill="#FF3838"/>
<g style="mix-blend-mode:screen">
<path d="M12.0691 16.3703C12.0939 16.3463 12.122 16.3178 12.1468 16.2939C12.7045 15.7449 13.3812 15.1255 14.174 14.4969C16.692 12.4888 22.5164 7.67883 25.4172 6.63395C26.8772 6.10805 28.943 5.81554 30.7634 5.75001C31.1297 5.73576 31.4813 5.7318 31.8217 5.73357C31.8904 5.75974 31.9512 5.7871 32.0165 5.81783C34.0923 6.73041 34.8831 7.28033 35.0412 7.4713C35.8582 8.49506 35.9492 9.07667 35.9504 9.08459C35.9504 9.08459 35.9254 9.08022 35.8801 9.07485C35.1453 8.95385 32.6939 8.72499 31.1593 8.83285C31.028 8.84842 30.8888 8.86517 30.7535 8.88133C30.4824 8.9097 30.2171 8.94935 29.9693 8.99852C29.7475 9.03166 29.5784 9.06503 29.519 9.07391L29.4616 9.12299C29.2021 9.20224 28.9694 9.29775 28.7804 9.41507C26.2635 10.9694 17.6803 17.5036 17.1356 18.2207C17.1221 18.2389 17.1126 18.2565 17.1031 18.2741L16.9958 18.2335C15.8522 19.0886 15.1303 19.4597 14.6372 19.4929C14.0881 19.5304 12.0835 19.0404 10.2776 18.3628C10.2776 18.3628 10.8935 17.5258 12.06 16.3635L12.0691 16.3703Z" fill="#131317"/>
</g>
<g style="mix-blend-mode:screen">
<path d="M14.1895 14.4979C16.0274 13.0329 19.6261 10.0738 22.5656 8.17694C23.8302 8.70058 25.0253 9.24675 25.8396 9.68381C26.2494 9.90601 26.4961 10.2295 26.2326 10.4713C26.2326 10.4713 26.2326 10.4713 26.2287 10.4719L24.9052 11.4511C23.563 12.4129 21.4409 13.9002 18.3687 16.1287C17.8428 16.5109 17.1881 16.6817 16.5408 16.6043C16.3306 16.579 16.1361 16.5514 16.0181 16.5204C15.2234 16.3234 14.1009 15.9647 12.9452 15.5463C13.323 15.2024 13.7358 14.8492 14.1883 14.49L14.1895 14.4979Z" fill="#131317"/>
</g>
<defs>
<linearGradient id="paint0_linear_25400_1152" x1="36.5746" y1="16.9047" x2="38.5009" y2="12.0213" gradientUnits="userSpaceOnUse">
<stop offset="0.27" stop-color="#ECEEF7"/>
<stop offset="0.77" stop-color="#9C9AA8"/>
</linearGradient>
<linearGradient id="paint1_linear_25400_1152" x1="37.6907" y1="15.2813" x2="36.08" y2="13.2546" gradientUnits="userSpaceOnUse">
<stop offset="0.26" stop-color="#393843"/>
<stop offset="0.78" stop-color="#23222E"/>
</linearGradient>
<linearGradient id="paint2_linear_25400_1152" x1="37.2523" y1="13.6665" x2="36.2664" y2="14.1135" gradientUnits="userSpaceOnUse">
<stop stop-color="#ADAEB8"/>
<stop offset="0.08" stop-color="#BABBC5"/>
<stop offset="0.2" stop-color="#C9CBD3"/>
<stop offset="0.34" stop-color="#D2D4DC"/>
<stop offset="0.55" stop-color="#D5D7DF"/>
<stop offset="0.66" stop-color="#C0C1CA"/>
<stop offset="1" stop-color="#868490"/>
</linearGradient>
<linearGradient id="paint3_linear_25400_1152" x1="37.0689" y1="15.6877" x2="36.1869" y2="15.4753" gradientUnits="userSpaceOnUse">
<stop stop-color="#ADAEB8"/>
<stop offset="0.08" stop-color="#BABBC5"/>
<stop offset="0.2" stop-color="#C9CBD3"/>
<stop offset="0.34" stop-color="#D2D4DC"/>
<stop offset="0.55" stop-color="#D5D7DF"/>
<stop offset="0.66" stop-color="#C0C1CA"/>
<stop offset="1" stop-color="#868490"/>
</linearGradient>
<linearGradient id="paint4_linear_25400_1152" x1="38.2228" y1="13.7761" x2="37.6193" y2="13.016" gradientUnits="userSpaceOnUse">
<stop stop-color="#ADAEB8"/>
<stop offset="0.08" stop-color="#BABBC5"/>
<stop offset="0.2" stop-color="#C9CBD3"/>
<stop offset="0.34" stop-color="#D2D4DC"/>
<stop offset="0.55" stop-color="#D5D7DF"/>
<stop offset="0.66" stop-color="#C0C1CA"/>
<stop offset="1" stop-color="#868490"/>
</linearGradient>
<linearGradient id="paint5_linear_25400_1152" x1="19.8677" y1="30.1856" x2="21.7901" y2="25.3027" gradientUnits="userSpaceOnUse">
<stop offset="0.27" stop-color="#ECEEF7"/>
<stop offset="0.77" stop-color="#9C9AA8"/>
</linearGradient>
<linearGradient id="paint6_linear_25400_1152" x1="21.0026" y1="28.5591" x2="19.3919" y2="26.5324" gradientUnits="userSpaceOnUse">
<stop offset="0.26" stop-color="#393843"/>
<stop offset="0.78" stop-color="#23222E"/>
</linearGradient>
<linearGradient id="paint7_linear_25400_1152" x1="20.5564" y1="26.9443" x2="19.571" y2="27.3952" gradientUnits="userSpaceOnUse">
<stop stop-color="#ADAEB8"/>
<stop offset="0.08" stop-color="#BABBC5"/>
<stop offset="0.2" stop-color="#C9CBD3"/>
<stop offset="0.34" stop-color="#D2D4DC"/>
<stop offset="0.55" stop-color="#D5D7DF"/>
<stop offset="0.66" stop-color="#C0C1CA"/>
<stop offset="1" stop-color="#868490"/>
</linearGradient>
<linearGradient id="paint8_linear_25400_1152" x1="20.3652" y1="28.965" x2="19.4838" y2="28.7566" gradientUnits="userSpaceOnUse">
<stop stop-color="#ADAEB8"/>
<stop offset="0.08" stop-color="#BABBC5"/>
<stop offset="0.2" stop-color="#C9CBD3"/>
<stop offset="0.34" stop-color="#D2D4DC"/>
<stop offset="0.55" stop-color="#D5D7DF"/>
<stop offset="0.66" stop-color="#C0C1CA"/>
<stop offset="1" stop-color="#868490"/>
</linearGradient>
<linearGradient id="paint9_linear_25400_1152" x1="21.5275" y1="27.0589" x2="20.9239" y2="26.2988" gradientUnits="userSpaceOnUse">
<stop stop-color="#ADAEB8"/>
<stop offset="0.08" stop-color="#BABBC5"/>
<stop offset="0.2" stop-color="#C9CBD3"/>
<stop offset="0.34" stop-color="#D2D4DC"/>
<stop offset="0.55" stop-color="#D5D7DF"/>
<stop offset="0.66" stop-color="#C0C1CA"/>
<stop offset="1" stop-color="#868490"/>
</linearGradient>
</defs>
</svg>
