<svg width="40" height="34" viewBox="0 0 40 34" fill="none" xmlns="http://www.w3.org/2000/svg">
<g style="mix-blend-mode:multiply">
<path d="M24.3239 12.2346L4.8068 18.8249C3.12046 19.3964 2.00004 20.3995 1.75776 21.6398C1.69765 21.9396 1.68824 22.2109 1.76911 22.4007C2.44444 24.0178 6.04548 27.1859 8.40282 28.2372C8.68026 28.3603 9.12644 28.4755 9.64555 28.5796C11.79 29.0096 13.9402 28.9137 15.6266 28.3422L35.1406 21.7513C35.1406 21.7513 37.0949 20.4846 36.9957 19.8733C36.6495 17.7532 31.5651 13.2784 28.2332 12.1667C27.2753 11.8461 24.3239 12.2346 24.3239 12.2346Z" fill="#D9DEE6"/>
</g>
<path d="M33.7864 19.9309L31.7396 18.3088L27.7013 20.6071L17.7421 25.3277L16.307 24.0532L11.1334 26.2589L13.3109 13.9255L35.5391 14.1079L33.7864 19.9309Z" fill="#292929"/>
<path d="M15.65 21.8646L17.2377 23.2597L13.4265 27.5193L11.8364 26.1205L13.074 23.0419L15.65 21.8646Z" fill="#333333"/>
<path d="M31.6657 16.4549L33.2534 17.8501L29.4638 22.13L27.8736 20.7312L29.2541 17.6299L31.6657 16.4549Z" fill="#333333"/>
<path d="M11.1277 12.2973C11.1116 12.3776 11.0905 12.4506 11.0646 12.5C11.0646 12.5 11.0639 12.5031 11.0633 12.5062C11.0528 12.5266 11.0404 12.5402 11.0256 12.55C11.0145 12.5575 11.0002 12.5642 10.9823 12.5735C10.9143 12.6081 10.8006 12.6463 10.6763 12.6407C10.6318 12.6382 10.5849 12.632 10.5391 12.6196C10.5391 12.6196 10.5237 12.6165 10.5144 12.6147C10.4662 12.5986 10.4168 12.5726 10.3723 12.538C10.3643 12.5299 10.3532 12.5213 10.342 12.5126C10.342 12.5126 10.3198 12.4953 10.3093 12.4835C10.1091 12.2956 9.89361 11.9759 9.82637 11.7182C9.81773 11.6811 9.80972 11.6409 9.80727 11.605C9.80358 11.5593 9.80299 11.5142 9.80919 11.4672C9.81105 11.4579 9.81353 11.4456 9.81539 11.4363C9.81973 11.3986 9.82408 11.3609 9.83089 11.3269C9.83647 11.2991 9.84143 11.2744 9.84638 11.2497C9.84948 11.2342 9.85258 11.2188 9.85877 11.2039C9.87177 11.1551 9.89095 11.1075 9.9157 11.0643C9.96149 10.9642 10.0246 10.8901 10.0901 10.8518C10.1476 10.8215 10.2069 10.8141 10.2792 10.8383C10.4269 10.8872 10.6197 11.064 10.9403 11.3887C11.0737 11.5247 11.1824 11.7361 11.1959 11.9092C11.1953 11.9123 11.194 11.9185 11.1965 11.9222C11.1977 11.9481 11.1952 11.9766 11.1903 12.0013C11.1835 12.0353 11.1748 12.0785 11.1698 12.1193C11.158 12.178 11.1456 12.2398 11.1339 12.2985L11.1277 12.2973Z" fill="#5B73FF"/>
<path d="M10.8466 12.0941L10.8367 12.1436C10.8367 12.1436 10.8355 12.1498 10.8342 12.1559C10.8119 12.2672 10.7723 12.3685 10.7191 12.4414C10.677 12.5069 10.6233 12.5508 10.5596 12.5637C10.4922 12.5791 10.415 12.5636 10.3272 12.5043C10.3272 12.5043 10.305 12.487 10.2908 12.4777C10.0529 12.2853 9.86828 11.988 9.80785 11.7123C9.79922 11.6752 9.7912 11.635 9.78875 11.5992C9.78444 11.5565 9.78385 11.5114 9.78881 11.4706L9.79067 11.4613C9.79067 11.4613 9.79501 11.4397 9.79687 11.4304C9.80121 11.3927 9.80556 11.355 9.81237 11.3211C9.81795 11.2932 9.82291 11.2685 9.82786 11.2438C9.83034 11.2314 9.83344 11.216 9.83592 11.2036C9.8514 11.1425 9.87367 11.0955 9.89347 11.0609C9.92873 10.9973 9.97016 10.967 10.0054 10.9676C10.0239 10.9713 10.0486 10.9763 10.0795 10.9825C10.2019 11.0295 10.4027 11.1662 10.5256 11.3227C10.6769 11.5137 10.9098 11.7468 10.8466 12.0941Z" fill="#5B84FF"/>
<path d="M27.9567 11.7598C27.501 12.2533 27.0161 12.844 26.2335 13.1081L26.0097 13.1821L26.1882 12.2922C26.4825 10.8245 25.5651 10.0299 24.1384 10.5087C22.7141 10.9913 21.3178 12.5691 21.0241 14.0338L20.8456 14.9237L9.99571 18.5882L10.1742 17.6983C10.4685 16.2306 9.55169 15.4328 8.12436 15.9148C6.69703 16.3968 5.30376 17.9752 5.00944 19.4429L4.70397 20.9663C4.33493 21.0915 4.35828 21.3598 4.35828 21.3598C4.35828 21.3598 3.2532 21.3568 2.78118 21.0178C2.69159 20.9517 2.67025 19.1506 2.92517 18.6007C3.18009 18.0508 3.32562 17.4692 4.51711 16.4803C5.49961 15.6681 9.17679 13.6798 9.17679 13.6798C9.17679 13.6798 13.8339 9.78597 15.9216 8.8482C18.322 7.77709 26.5814 4.76949 27.0999 4.78026C28.1277 4.79994 28.821 6.45606 28.9394 6.98764C28.9449 7.00804 28.8434 8.60442 28.8538 8.69652C28.8914 9.02225 29.0358 9.44013 29.0573 9.68551C29.0757 9.93026 28.4094 11.2655 27.9561 11.7628L27.9567 11.7598Z" fill="#2E2F35"/>
<path d="M2.92755 18.6045C3.2475 17.7783 3.63585 17.3644 3.63585 17.3644C3.63585 17.3644 4.59116 16.5435 5.09078 16.0715C5.59041 15.5996 9.88281 13.1079 9.88281 13.1079L8.80048 17.0147L2.93064 18.6051L2.92755 18.6045Z" fill="#5B73FF"/>
<path d="M29.0568 9.68325C29.0353 9.43787 28.894 9.02061 28.8533 8.69426C28.8441 8.61205 28.9201 7.36733 28.9376 7.05584C28.0178 7.36317 25.808 7.8361 24.6625 8.27496C23.1369 8.86257 18.697 10.8072 17.821 11.1844C16.942 11.561 11.3479 14.2287 9.20229 14.8463C7.05301 15.4664 5.13675 17.2646 4.76019 17.5876C4.38302 17.9138 3.80865 18.2936 2.92715 18.6022C2.67224 19.1521 2.69358 20.9531 2.78316 21.0193C3.25147 21.3607 4.36026 21.3612 4.36026 21.3612C4.36026 21.3612 4.33691 21.093 4.70595 20.9677L5.01142 19.4444C5.30574 17.9766 6.69901 16.3982 8.12634 15.9162C9.55367 15.4343 10.4705 16.232 10.1761 17.6997L9.99769 18.5897L20.8476 14.9251L21.0261 14.0352C21.3204 12.5675 22.7137 10.9891 24.1404 10.5102C25.5677 10.0282 26.4845 10.826 26.1902 12.2937L26.0117 13.1836L26.2355 13.1095C27.0181 12.8454 27.5029 12.2548 27.9587 11.7612C28.4151 11.2645 29.0326 9.91624 29.0599 9.68387L29.0568 9.68325Z" fill="#495DCF"/>
<path d="M9.80382 17.8239C9.55102 19.0846 8.35317 20.4418 7.12921 20.8553C5.90526 21.2688 5.11696 20.5836 5.36977 19.3229C5.62257 18.0622 6.82043 16.7049 8.04438 16.2914C9.26834 15.878 10.0566 16.5632 9.80382 17.8239Z" fill="#1F2024"/>
<path d="M25.8194 12.4176C25.5666 13.6783 24.3688 15.0356 23.1448 15.4491C21.9209 15.8625 21.1326 15.1773 21.3854 13.9166C21.6382 12.6559 22.8361 11.2987 24.06 10.8852C25.284 10.4717 26.0723 11.1569 25.8194 12.4176Z" fill="#1F2024"/>
<path d="M28.8497 8.69325C28.8122 8.36752 29.0536 7.51596 28.9352 6.98438C28.8168 6.45279 28.1205 4.79605 27.0958 4.77699C26.9097 4.77505 25.7377 5.15394 24.1991 5.69396C24.2022 5.69458 26.7144 4.948 26.9547 5.04763C27.1951 5.14726 28.4182 6.37286 28.479 7.20788C28.5367 8.04228 28.3413 8.24738 28.3608 8.66272C28.3798 9.08115 28.9613 9.22669 28.9613 9.22669C28.9169 9.04743 28.8712 8.85828 28.8503 8.69016L28.8497 8.69325Z" fill="#2E2F35"/>
<path d="M10.5043 17.5881L10.3258 18.478L9.99139 18.5909L10.1698 17.701C10.4642 16.2333 9.54737 15.4355 8.12004 15.9175C6.69271 16.3995 5.29944 17.9779 5.00512 19.4457L4.69965 20.969L4.36522 21.0819L4.67069 19.5586C5.00281 17.9024 6.57851 16.1195 8.18881 15.5745C9.79912 15.0296 10.8364 15.9319 10.5043 17.5881Z" fill="#5B73FF"/>
<path d="M26.5193 12.1825L26.3414 13.0693C26.3062 13.0847 26.2685 13.0965 26.2302 13.1113L26.0064 13.1853L26.1848 12.2954C26.4792 10.8277 25.5618 10.033 24.135 10.5119C22.7108 10.9945 21.3144 12.5723 21.0207 14.037L20.8423 14.9269L20.5079 15.0398L20.6863 14.1499C21.0184 12.4937 22.5941 10.7108 24.2044 10.1659C25.8147 9.62092 26.852 10.5232 26.5199 12.1794L26.5193 12.1825Z" fill="#5B73FF"/>
<path d="M28.9089 7.52307C28.9158 7.40873 28.9214 7.30058 28.9264 7.21158C28.9295 7.14792 28.9339 7.09415 28.9351 7.05584C28.7837 7.10582 28.6007 7.16877 28.3973 7.23727C28.2731 7.27985 28.1346 7.32923 27.9794 7.38169C27.721 7.46808 27.4311 7.56744 27.1659 7.65569C26.8964 7.7495 26.3934 7.64541 26.1239 7.73922C26.1393 7.77446 26.2233 7.96486 26.2727 7.99084C26.4049 8.05271 27.7517 7.92422 28.0138 7.83535C28.2172 7.76685 28.6987 7.59342 28.9095 7.51998L28.9089 7.52307Z" fill="#FF4566"/>
<path d="M27.279 12.4508C27.5232 12.2266 27.7366 11.9801 27.945 11.7583C28.4013 11.2617 29.0188 9.91338 29.0461 9.681C28.5051 10.1671 28.0457 10.4543 27.7971 10.8769C27.5768 11.2538 27.3998 11.8644 27.279 12.4508Z" fill="#2E2F35"/>
<path d="M9.79579 13.4808C9.79579 13.4808 12.3374 13.1162 12.6545 13.0095C12.9716 12.9027 21.667 9.24329 21.667 9.24329L24.8146 7.10703C24.8146 7.10703 24.8783 5.82769 24.4994 5.88993C24.1737 5.94353 17.4783 8.39691 15.547 9.29211C13.6243 10.4815 9.79888 13.4815 9.79888 13.4815L9.79579 13.4808Z" fill="#1F2024"/>
<path d="M19.2733 7.78264L17.6369 10.9258L18.4233 10.595L19.625 7.64746L19.2733 7.78264Z" fill="#2E2F35"/>
<path d="M15.3938 9.38637L11.686 13.1942L12.4488 13.0771L15.7109 9.21533L15.3938 9.38637Z" fill="#2E2F35"/>
<path d="M27.6396 4.95257C27.6396 4.95257 28.7505 5.64783 28.9933 5.81544C30.4144 6.80752 33.0937 9.05797 34.1981 10.3948C34.4254 10.6718 35.6983 12.4666 35.6983 12.4666L22.8897 14.9991C22.8897 14.9991 22.1426 14.7657 21.9183 14.634C19.6897 13.3257 16.6088 10.7536 16.0278 9.45108C15.9661 9.31013 15.9008 8.85027 15.9008 8.85027C15.9008 8.85027 24.0575 5.87352 26.6105 5.00335C26.8862 4.91078 27.495 4.92036 27.6371 4.94886L27.6396 4.95257Z" fill="#2E2F35"/>
<path d="M9.16384 13.6852L16.9423 20.5291C16.9423 20.5291 10.441 25.3324 10.1944 25.344C10.1165 25.3477 8.9053 26.2909 7.89402 25.3552C6.52196 24.0869 4.70761 22.3635 3.56353 21.2727C2.90809 20.6462 2.91283 18.603 2.91283 18.603L4.94921 16.366L9.16384 13.6852Z" fill="#5B73FF"/>
<path d="M2.77789 21.0209C2.77789 21.0209 2.82534 21.2971 2.93281 21.4344C4.06372 22.9115 7.50604 25.8453 8.06516 26.2628C8.96842 26.9357 10.1419 27.4313 10.1419 27.4313C10.1419 27.4313 11.5227 24.7769 10.9225 24.8526C9.08555 25.0853 3.55859 19.6121 3.0818 18.9122C3.00213 18.7966 2.91879 18.6031 2.91879 18.6031L2.7748 21.0202L2.77789 21.0209Z" fill="#495DCF"/>
<path d="M16.1395 20.2392C14.5632 20.7266 12.5092 22.33 11.4152 22.6089C10.3211 22.8877 10.0965 24.5044 8.31474 23.1153C5.31527 20.7782 4.29184 19.4223 4.29184 19.4223C4.29184 19.4223 4.49965 17.9051 4.94505 17.1265C5.39106 16.3449 9.45649 14.1517 9.45649 14.1517C9.45649 14.1517 11.2026 17.6742 16.1389 20.2422L16.1395 20.2392Z" fill="#5B84FF"/>
<path d="M9.82149 13.1492C9.5989 13.3295 9.33545 13.6335 9.29252 14.2002C9.22555 14.6464 9.2438 15.2126 9.71079 15.7209C10.6775 16.7825 11.9606 18.078 13.3278 19.0657C13.9425 19.5104 14.8985 19.7921 15.4763 20.1008C15.6795 20.2091 16.9458 20.5305 16.9458 20.5305L22.8979 15.0032L15.9115 8.85803C15.9115 8.85803 12.142 11.2746 9.82087 13.1523L9.82149 13.1492Z" fill="#2E2F35"/>
<path d="M20.9994 15.361C22.0764 14.5099 26.5113 12.6542 31.5511 11.0678C31.7538 11.0024 31.8485 10.7706 31.7479 10.5833C31.6447 10.3923 31.5231 10.1815 31.4428 10.085C30.4903 8.92011 28.1761 6.94859 26.9268 6.10987C26.8478 6.05545 26.7112 5.98306 26.5592 5.90758C26.0976 5.67682 25.5643 5.62772 25.0691 5.77271C20.0881 7.21026 16.2497 9.1212 15.7168 9.3904C15.1585 9.6738 14.8284 9.9258 14.8284 9.9258L15.204 13.855L21.0037 15.3554L20.9994 15.361Z" fill="#3D3C51"/>
<path d="M9.91472 25.6732C9.90167 25.8024 9.8911 25.9353 9.88361 26.0688C9.88299 26.0719 9.88176 26.078 9.88052 26.0842C9.8549 26.6287 9.87626 27.1633 9.91885 27.2876C9.92255 27.3012 9.92687 27.3117 9.93305 27.3129C9.97506 27.3439 10.0214 27.3692 10.0708 27.3952C10.0801 27.3971 10.0881 27.4051 10.0943 27.4063C10.1036 27.4082 10.1091 27.4125 10.1147 27.4169C10.124 27.4187 10.1326 27.4237 10.1357 27.4243C10.1419 27.4255 10.145 27.4261 10.145 27.4261C10.1746 27.4385 10.2074 27.4515 10.2371 27.4639C10.2463 27.4658 10.2587 27.4682 10.2673 27.4732C10.297 27.4856 10.3242 27.4942 10.3582 27.501C10.4002 27.5159 10.4435 27.5246 10.4892 27.537C10.5294 27.545 10.5664 27.5524 10.6066 27.5605C11.0577 27.651 11.5108 27.6518 11.5108 27.6518C11.5108 27.6518 11.5818 27.65 11.6863 27.642C11.6993 27.6414 11.716 27.6383 11.7351 27.6389C11.7809 27.6353 11.8334 27.6297 11.8859 27.6242C11.9088 27.6223 11.9354 27.618 11.9613 27.6168C12.0436 27.6076 12.1295 27.5959 12.2129 27.5805C12.3291 27.562 12.4435 27.5367 12.5405 27.5015L12.7847 26.2841C13.079 24.8164 14.4722 23.2379 15.8996 22.756C17.3269 22.274 18.2406 23.0711 17.9463 24.5388L17.7561 25.3268L18.0906 25.2138L28.6061 21.6622L28.7956 20.8774C29.0899 19.4097 30.4832 17.8313 31.9105 17.3493C33.3378 16.8673 34.2546 17.665 33.9603 19.1328L33.8004 19.93C34.0551 19.8139 34.7253 19.5015 34.9238 19.3292C35.1661 19.1142 35.7202 18.5632 35.8792 18.1708C36.0377 17.7815 36.388 16.7879 36.4259 16.3905C36.4675 15.9906 36.255 15.6877 36.2268 15.3317C36.2022 15.0053 36.1471 14.0139 36.1023 13.4521C36.0998 13.4002 36.093 13.3538 36.0894 13.3081C36.0715 13.1084 35.9184 12.7981 35.7084 12.4667C35.3768 11.9406 34.8981 11.3625 34.604 11.1139C34.604 11.1139 34.6016 11.1101 34.5991 11.1064C34.588 11.0978 34.5837 11.0873 34.5824 11.0774C34.5219 11.0427 34.4632 11.0149 34.4063 10.9939C34.3767 10.9815 34.3495 10.9728 34.3192 10.9635C34.2617 10.9456 34.2061 10.9344 34.1493 10.9294C34.1338 10.9264 34.1184 10.9233 34.1017 10.9263C34.0955 10.9251 34.0893 10.9239 34.0831 10.9226C34.0739 10.9208 34.064 10.922 34.0541 10.9232C34.051 10.9226 34.0442 10.9245 34.0374 10.9263C34.0238 10.93 34.0108 10.9306 33.9941 10.9337C33.9879 10.9325 33.9774 10.9368 33.9706 10.9386C33.9706 10.9386 33.9645 10.9374 33.9638 10.9405C33.9539 10.9417 33.9434 10.946 33.9335 10.9473C33.9131 10.9528 33.8927 10.9584 33.8693 10.9633C33.8346 10.9756 33.7945 10.9837 33.75 10.9972C33.7197 11.004 33.6888 11.0139 33.6579 11.0238C33.6103 11.0367 33.559 11.0521 33.5039 11.07C33.4767 11.0774 33.4489 11.0879 33.4217 11.0953C33.3908 11.1052 33.3636 11.1126 33.3327 11.1225C33.2919 11.1336 33.2505 11.1478 33.206 11.1614C33.151 11.1793 33.096 11.1972 33.0378 11.2144C32.9797 11.2317 32.921 11.2521 32.8586 11.2749C32.7832 11.2984 32.7071 11.3249 32.628 11.3508C32.5211 11.3872 32.411 11.423 32.2973 11.4613C32.2701 11.4687 32.2423 11.4792 32.2108 11.4921C32.1242 11.523 32.0346 11.5532 31.9419 11.5829C31.9109 11.5927 31.88 11.6026 31.8485 11.6156C31.8003 11.6316 31.7515 11.6507 31.7002 11.6662C31.7002 11.6662 31.7002 11.6662 31.6971 11.6655C31.6 11.7007 31.4968 11.7347 31.3929 11.7717C31.3929 11.7717 31.3867 11.7705 31.383 11.7729C31.3342 11.7921 31.286 11.8081 31.2341 11.8266C31.231 11.826 31.2242 11.8279 31.2205 11.8303C31.2205 11.8303 31.2143 11.8291 31.2106 11.8316C28.4375 12.8054 24.4608 14.2997 22.9104 14.9949C22.6241 15.1239 22.3014 15.3228 21.9595 15.5692C21.9335 15.5865 21.907 15.6069 21.881 15.6242C21.7907 15.6896 21.7029 15.7588 21.6114 15.8305C21.6034 15.8385 21.596 15.8434 21.5848 15.8508C21.5391 15.8867 21.4933 15.9225 21.4469 15.9614C21.4123 15.9898 21.374 16.0207 21.3394 16.0491C21.301 16.08 21.2627 16.1109 21.2237 16.1449C21.1848 16.1788 21.1427 16.2122 21.1001 16.2486C21.0487 16.2962 20.9943 16.3431 20.9399 16.3901C20.8818 16.4395 20.8262 16.4926 20.768 16.542C20.7167 16.5896 20.6623 16.6365 20.611 16.6841C20.4885 16.7978 20.3618 16.917 20.235 17.0362C20.1515 17.1159 20.0718 17.1931 19.9883 17.2728C19.8646 17.3926 19.744 17.5131 19.6241 17.6305C19.4472 17.8071 19.2735 17.9844 19.1065 18.1599C19.0502 18.2161 18.9964 18.276 18.9402 18.3322C18.8629 18.4131 18.7856 18.4941 18.712 18.5725C18.712 18.5725 18.7114 18.5756 18.7083 18.575C18.6718 18.6127 18.6384 18.651 18.6019 18.6887C18.532 18.7647 18.4628 18.8376 18.3935 18.9104C18.3607 18.9457 18.3273 18.984 18.2946 19.0192C18.122 19.2064 17.965 19.3806 17.8203 19.5412C17.7504 19.6172 17.6836 19.6938 17.6211 19.7648C17.6131 19.7729 17.605 19.7809 17.6001 19.7895C17.5754 19.8167 17.5506 19.8439 17.529 19.8717C17.529 19.8717 17.5253 19.8742 17.5247 19.8773C17.4919 19.9125 17.4622 19.9483 17.4325 19.9841C17.3119 20.1207 17.2117 20.2356 17.1363 20.3233C17.1103 20.3567 17.0856 20.3838 17.0646 20.4086C17.0015 20.4827 16.9675 20.5241 16.9675 20.5241C16.9675 20.5241 13.4499 22.1651 12.5986 22.6276C11.3789 23.2926 10.5354 24.1488 10.1909 24.7129C10.1519 24.779 10.1172 24.8396 10.0931 24.8958C10.0145 25.0633 9.96371 25.3488 9.93203 25.6671L9.91472 25.6732Z" fill="#546AEB"/>
<path d="M9.90773 25.6689C9.89715 25.8018 9.88967 25.9353 9.88528 26.0694C9.88466 26.0725 9.88342 26.0787 9.88218 26.0849C9.86088 26.6399 9.88102 27.1646 9.92051 27.2882C9.92421 27.3018 9.92853 27.3123 9.93471 27.3136C9.98228 27.3488 10.0373 27.3791 10.096 27.407C10.1052 27.4089 10.1108 27.4132 10.1164 27.4175C10.1256 27.4194 10.1343 27.4243 10.1374 27.4249C10.1374 27.4249 10.1436 27.4262 10.1466 27.4268C10.1763 27.4392 10.2091 27.4522 10.2387 27.4645C10.248 27.4664 10.2603 27.4689 10.269 27.4738C10.2987 27.4862 10.3258 27.4949 10.3598 27.5017C10.4019 27.5165 10.4451 27.5252 10.4908 27.5376C10.531 27.5457 10.5681 27.5531 10.6083 27.5611C11.0594 27.6516 11.5124 27.6525 11.5124 27.6525C11.5124 27.6525 11.5835 27.6506 11.688 27.6427C11.7009 27.642 11.7176 27.639 11.7368 27.6396C11.7825 27.6359 11.8351 27.6304 11.8876 27.6248C11.9105 27.623 11.937 27.6187 11.963 27.6175C12.0452 27.6082 12.1311 27.5965 12.2146 27.5811C12.3308 27.5626 12.4451 27.5374 12.5422 27.5022L12.7863 26.2847C13.0806 24.817 14.4739 23.2386 15.9012 22.7566C17.3286 22.2746 18.2423 23.0718 17.9479 24.5395L17.7578 25.3274L18.0922 25.2145L28.6077 21.6629L28.7972 20.8781C29.0916 19.4103 30.4848 17.8319 31.9122 17.3499C33.3395 16.8679 34.2563 17.6657 33.962 19.1334L33.8021 19.9306C34.0568 19.8146 34.7269 19.5022 34.9254 19.3298C35.1678 19.1149 35.7219 18.5639 35.8809 18.1715C36.0393 17.7822 36.3896 16.7885 36.4275 16.3911C36.4691 15.9913 36.2567 15.6883 36.2284 15.3323C36.2039 15.006 36.1488 14.0146 36.1039 13.4527C36.1015 13.4008 36.0947 13.3545 36.091 13.3087C36.0694 13.3205 36.044 13.3347 36.0224 13.3464C34.1121 14.3937 33.5687 14.6832 32.4368 15.1184C30.9111 15.706 26.4713 17.6506 25.5953 18.0278C24.7163 18.4044 21.208 20.0794 19.042 20.6383C15.5737 21.537 12.5396 24.101 12.1599 24.4235C11.7951 24.736 10.9823 24.9105 10.1734 24.7129C10.1425 24.7067 10.1116 24.7005 10.0819 24.6882C9.99156 24.8822 9.93637 25.2536 9.90588 25.6621L9.90773 25.6689Z" fill="#495DCF"/>
<path d="M2.74073 19.622C2.65445 20.3569 2.71347 20.9762 2.78143 21.022C2.78143 21.022 2.82888 21.2982 2.93635 21.4355C4.06726 22.9126 7.50957 25.8464 8.0687 26.2639C8.86322 26.8539 9.86486 27.3087 10.0984 27.4101C10.1077 27.412 10.1133 27.4163 10.1188 27.4207C10.1281 27.4225 10.1367 27.4275 10.1398 27.4281C10.146 27.4293 10.1491 27.4299 10.1491 27.4299C10.1788 27.4423 10.2115 27.4553 10.2412 27.4677C10.2504 27.4696 10.2628 27.472 10.2715 27.477C10.3011 27.4894 10.3283 27.498 10.3623 27.5048C10.4043 27.5197 10.4476 27.5284 10.4933 27.5408C10.5335 27.5488 10.5705 27.5562 10.6107 27.5643C11.0619 27.6548 11.5149 27.6556 11.5149 27.6556C11.5149 27.6556 11.586 27.6538 11.6904 27.6458C11.7034 27.6452 11.7201 27.6421 11.7392 27.6427C11.785 27.6391 11.8375 27.6335 11.8901 27.628C11.9129 27.6261 11.9395 27.6218 11.9655 27.6206C12.0477 27.6114 12.1336 27.5997 12.217 27.5843C12.3332 27.5658 12.4476 27.5405 12.5446 27.5053L12.7888 26.2879C13.0831 24.8202 14.4764 23.2417 15.9037 22.7598C17.331 22.2778 18.2447 23.0749 17.9504 24.5426L17.7603 25.3306L18.0947 25.2176L28.2758 21.779L28.6102 21.666L28.7997 20.8812C29.094 19.4135 30.4873 17.8351 31.9146 17.3531C33.342 16.8711 34.2587 17.6689 33.9644 19.1366L33.8046 19.9338C33.8855 19.8986 34.0098 19.8399 34.1489 19.7714C34.4407 19.6306 34.7955 19.4479 34.9285 19.3299C35.1709 19.1149 35.7249 18.5639 35.884 18.1715C36.0424 17.7822 36.3927 16.7886 36.4306 16.3912C36.3068 16.6878 35.4438 17.1929 35.2071 17.2355C34.6384 17.25 34.3449 15.9408 32.1486 16.5707C29.9518 17.2038 28.8769 18.5246 28.4957 19.5924C28.1144 20.6602 27.9002 21.3919 27.4087 21.6308C26.9179 21.8667 19.6193 24.1541 18.5599 24.4206C18.5483 23.9972 18.5151 23.7141 18.422 23.329C18.0135 21.9839 16.9486 21.9247 16.0591 22.2091C12.9287 23.2657 12.4306 25.6857 12.3291 25.9354C12.2344 26.1671 11.4476 26.3564 10.6874 26.2201C10.6225 26.2071 9.26632 25.3887 8.9839 25.3224C8.64586 25.245 5.73661 22.9388 4.26829 21.3651C3.8396 20.9063 3.53632 20.5273 3.37141 20.3078C2.90448 19.687 2.76667 19.653 2.73702 19.6245L2.74073 19.622Z" fill="#4052B5"/>
<path d="M12.5484 26.0116C13.505 22.716 15.524 21.8802 16.7033 21.7535C17.7516 21.639 18.8265 22.5296 18.3263 24.2067C18.0638 22.6145 17.2821 22.3613 16.4823 22.4227C15.6825 22.4841 13.7512 23.54 12.5478 26.0147L12.5484 26.0116Z" fill="#5B73FF"/>
<path d="M28.4703 20.9548C29.0329 18.1492 30.6917 16.9133 32.0486 16.3818C33.4024 15.8497 34.5761 17.0494 34.3469 18.1926C33.767 17.3178 32.9366 16.7945 32.133 17.0673C31.3324 17.3407 29.573 18.2125 28.4703 20.9548Z" fill="#5B73FF"/>
<path d="M27.934 20.9945C27.7255 21.3127 27.417 21.553 27.0579 21.677C25.2881 22.296 19.6034 24.2771 19.4619 24.2455C18.6567 24.0615 24.0533 21.9777 25.1623 21.6408C25.8911 21.4205 28.2785 20.4625 27.9309 20.9939L27.934 20.9945Z" fill="#5B73FF"/>
<path d="M16.9405 20.5297L17.5698 20.3249L32.5862 13.9473C32.5862 13.9473 34.0482 13.3405 35.3848 12.6379C35.4923 12.5823 35.5968 12.5261 35.7013 12.4699C35.3697 11.9438 34.891 11.3657 34.5969 11.117C34.5969 11.117 34.5944 11.1133 34.592 11.1096C34.414 11.0032 34.241 10.9364 34.0945 10.9295C34.0883 10.9283 34.0822 10.927 34.076 10.9258C34.0667 10.9239 34.0568 10.9252 34.0469 10.9264C34.0272 10.9289 33.9969 10.9357 33.9635 10.9418C33.9635 10.9418 33.9573 10.9406 33.9567 10.9437C33.8825 10.9609 33.7774 10.9881 33.6482 11.0232C33.5524 11.0522 33.443 11.0849 33.32 11.1213C33.2792 11.1325 33.2378 11.1466 33.1933 11.1602C33.0863 11.1966 32.9664 11.2337 32.8428 11.2731C32.7674 11.2966 32.6913 11.3231 32.6122 11.349C32.5053 11.3855 32.3952 11.4213 32.2815 11.4595C32.2543 11.4669 32.2265 11.4774 32.195 11.4904C32.1084 11.5212 32.0188 11.5515 31.9261 11.5811C31.8952 11.591 31.8642 11.6008 31.8327 11.6138C31.6361 11.6805 31.4315 11.7551 31.2176 11.828C31.2146 11.8273 31.2078 11.8292 31.204 11.8317C31.204 11.8317 31.1979 11.8304 31.1942 11.8329C28.4211 12.8068 24.4444 14.3011 22.894 14.9962C22.6077 15.1252 22.285 15.3241 21.9431 15.5705C21.9171 15.5878 21.8905 15.6082 21.8646 15.6255C21.7743 15.691 21.6865 15.7601 21.595 15.8318C21.587 15.8398 21.5795 15.8448 21.5684 15.8522C21.5227 15.888 21.4769 15.9238 21.4305 15.9627C21.3959 15.9911 21.3576 16.022 21.3229 16.0504C21.2846 16.0813 21.2463 16.1122 21.2073 16.1462C21.1684 16.1802 21.1263 16.2135 21.0837 16.25C21.0323 16.2975 20.9779 16.3445 20.9235 16.3914C20.8654 16.4408 20.8097 16.4939 20.7516 16.5434C20.7003 16.5909 20.6459 16.6379 20.5946 16.6854C20.4721 16.7991 20.3454 16.9183 20.2186 17.0375C20.1351 17.1172 20.0554 17.1944 19.9719 17.2741C19.8482 17.394 19.7276 17.5144 19.6077 17.6318C19.3739 17.8678 19.1433 18.1044 18.9237 18.3336C18.8464 18.4145 18.7691 18.4954 18.6956 18.5739C18.6956 18.5739 18.6949 18.577 18.6919 18.5763C18.6554 18.614 18.622 18.6523 18.5855 18.69C18.5156 18.766 18.4464 18.8389 18.3771 18.9118C18.3443 18.947 18.3109 18.9853 18.2781 19.0205C18.1056 19.2077 17.9485 19.3819 17.8038 19.5425C17.7333 19.6216 17.6672 19.6951 17.6047 19.7662C17.5967 19.7742 17.5886 19.7822 17.5837 19.7909C17.5589 19.818 17.5342 19.8452 17.5126 19.873C17.5126 19.873 17.5089 19.8755 17.5082 19.8786C17.4755 19.9138 17.4458 19.9496 17.4161 19.9855C17.2955 20.122 17.1953 20.2369 17.1199 20.3246C17.0908 20.3574 17.0692 20.3852 17.0481 20.4099C16.9851 20.484 16.951 20.5254 16.951 20.5254L16.9405 20.5297Z" fill="#5B84FF"/>
<path d="M17.5851 24.6691C17.3323 25.9298 16.1344 27.287 14.9105 27.7005C13.6865 28.114 12.8982 27.4288 13.151 26.1681C13.4038 24.9074 14.6017 23.5501 15.8256 23.1367C17.0496 22.7232 17.8379 23.4084 17.5851 24.6691Z" fill="#1F2024"/>
<path d="M33.6007 19.2599C33.3479 20.5206 32.15 21.8779 30.9261 22.2913C29.7021 22.7048 28.9138 22.0196 29.1666 20.7589C29.4194 19.4982 30.6173 18.141 31.8413 17.7275C33.0652 17.314 33.8535 17.9992 33.6007 19.2599Z" fill="#1F2024"/>
<path d="M18.8469 24.6764C19.1435 24.7359 25.4253 22.5659 28.131 21.6235L28.1619 21.6137L28.1687 21.5797C28.1712 21.5513 28.5775 18.6757 31.189 16.8562C31.6614 16.5202 32.3869 15.4668 32.5008 15.1393C32.7094 14.5318 31.7369 12.6494 31.6949 12.5702L31.5979 12.6215C31.6071 12.6394 32.592 14.5404 32.3988 15.1028C32.3004 15.3852 31.6132 16.4238 31.1298 16.7672C28.6338 18.507 28.1232 21.1977 28.0692 21.5308C24.6032 22.7386 19.4286 24.5005 18.9162 24.5713C18.8805 24.2363 18.7809 22.0243 19.0663 20.9533C19.1177 20.7611 19.8853 19.5297 20.1767 19.0707L20.0852 19.0138C20.0426 19.0824 19.0275 20.682 18.9619 20.9292C18.6597 22.0675 18.7728 24.4526 18.8191 24.6387L18.824 24.6621L18.8469 24.6764C18.8469 24.6764 18.85 24.677 18.8531 24.6776L18.8469 24.6764Z" fill="#4255BA"/>
<path d="M25.2491 22.5415L25.3585 22.5409C25.3585 22.5409 25.3594 21.9915 25.5302 21.5565C25.8019 20.8588 26.184 18.1359 26.1699 17.8534C26.1534 17.5512 26.1636 15.7854 26.1642 15.7662L26.0548 15.7668C26.0529 15.8403 26.0434 17.5548 26.0593 17.8602C26.0746 18.1364 25.6962 20.8248 25.4289 21.5169C25.2507 21.9729 25.2504 22.5192 25.2522 22.5421L25.2491 22.5415Z" fill="#4255BA"/>
<path d="M31.2129 11.8346C31.2129 11.8346 31.2228 11.8333 31.2265 11.8309C31.5096 11.7494 33.3504 11.2089 33.5723 11.3049C33.762 11.3847 34.5189 11.7454 35.401 12.6358C35.6037 12.8436 35.8168 13.0792 36.0299 13.3469C36.0509 13.3704 36.0682 13.3964 36.0885 13.423C36.096 13.4341 36.104 13.4421 36.1114 13.4533C36.1089 13.4013 36.1022 13.355 36.0985 13.3092C36.0807 13.1096 35.9275 12.7993 35.7176 12.4679C35.3859 11.9417 34.9072 11.3636 34.6132 11.115C34.6132 11.115 34.6107 11.1113 34.6082 11.1076C34.5971 11.0989 34.5928 11.0884 34.5916 11.0785C34.531 11.0439 34.4723 11.0161 34.4155 10.995C34.3858 10.9826 34.3586 10.974 34.3283 10.9647C34.295 10.9548 34.2647 10.9455 34.2338 10.9393C34.1874 10.93 34.1411 10.9207 34.0929 10.9207C34.0836 10.9188 34.0737 10.9201 34.0632 10.9244C34.0601 10.9238 34.0533 10.9256 34.0465 10.9275C34.0335 10.9281 34.0199 10.9318 34.0032 10.9349C33.9971 10.9336 33.9866 10.9379 33.9798 10.9398C33.9798 10.9398 33.9736 10.9386 33.973 10.9416C33.9631 10.9429 33.9526 10.9472 33.9427 10.9484C33.9223 10.954 33.9019 10.9595 33.8784 10.9645C33.8444 10.9737 33.8036 10.9848 33.7591 10.9984C33.7288 11.0052 33.6979 11.0151 33.667 11.0249C33.6194 11.0379 33.5681 11.0533 33.5131 11.0712C33.4859 11.0786 33.458 11.0891 33.4309 11.0965C33.3999 11.1064 33.3727 11.1138 33.3418 11.1237C33.301 11.1348 33.2596 11.1489 33.2151 11.1625C33.1601 11.1804 33.1051 11.1983 33.047 11.2156C32.9889 11.2329 32.9301 11.2532 32.8677 11.2761C32.7923 11.2995 32.7163 11.3261 32.6371 11.352C32.5302 11.3884 32.4202 11.4242 32.3064 11.4624C32.2792 11.4698 32.2514 11.4803 32.2199 11.4933C32.1333 11.5242 32.0437 11.5544 31.951 11.584C31.9201 11.5939 31.8892 11.6038 31.8576 11.6167C31.8094 11.6328 31.7606 11.6519 31.7093 11.6673C31.7093 11.6673 31.7093 11.6673 31.7062 11.6667C31.6091 11.7019 31.5059 11.7358 31.4021 11.7729C31.4021 11.7729 31.3959 11.7716 31.3922 11.7741C31.3402 11.7926 31.2852 11.8105 31.2296 11.8315L31.2129 11.8346Z" fill="#2E2F35"/>
<path d="M12.4557 26.4013L12.2183 27.5848C12.3345 27.5663 12.4489 27.541 12.5459 27.5058L12.7901 26.2884C13.0844 24.8207 14.4777 23.2423 15.905 22.7603C17.3323 22.2783 18.246 23.0754 17.9517 24.5432L17.7616 25.3311L18.096 25.2181L18.2855 24.4333C18.6176 22.7771 17.5835 21.8755 15.9732 22.4204C14.3628 22.9653 12.7871 24.7482 12.455 26.4044L12.4557 26.4013Z" fill="#495DCF"/>
<path d="M28.4604 20.994L28.2702 21.7819L28.6047 21.669L28.7942 20.8841C29.0885 19.4164 30.4818 17.838 31.9091 17.356C33.3364 16.874 34.2532 17.6718 33.9589 19.1395L33.799 19.9367C33.88 19.9015 34.0043 19.8429 34.1434 19.7743L34.2933 19.0266C34.6254 17.3704 33.5882 16.4681 31.9779 17.013C30.3676 17.5579 28.7919 19.3409 28.4598 20.9971L28.4604 20.994Z" fill="#495DCF"/>
<path d="M17.5782 20.3254C17.5782 20.3254 20.1198 19.9608 20.4369 19.8541C20.7404 19.751 20.6372 19.801 29.2202 15.8844L32.5945 13.9479C32.5945 13.9479 31.8656 11.9729 31.4867 12.0351C31.161 12.0887 24.4656 14.5421 22.5343 15.4373C20.6116 16.6267 17.5757 20.3217 17.5757 20.3217L17.5782 20.3254Z" fill="#2E2F35"/>
<path d="M18.0154 20.0821C18.9926 19.9374 20.1905 19.7501 20.3803 19.6853L20.3939 19.6816C20.5802 19.6182 23.4962 18.3002 29.142 15.7274L32.3784 13.8693C32.0556 13.0267 31.6722 12.2941 31.5053 12.2125C31.0683 12.3241 24.5949 14.6806 22.6216 15.5931C21.0908 16.5429 18.82 19.1313 18.0154 20.0821Z" fill="#3D3C51"/>
<path d="M25.9516 14.1492L25.6341 17.3994L26.4235 17.0691L26.3064 14.0146L25.9516 14.1492Z" fill="#2E2F35"/>
<path d="M22.0807 15.8065L19.4679 20.0363L20.23 19.9224L22.3984 15.6323L22.0807 15.8065Z" fill="#2E2F35"/>
<path d="M8.74899 22.6313C9.20522 22.4239 9.70836 22.3352 10.2077 22.3774C11.0798 22.4527 12.4048 22.577 12.5803 22.6314C12.8436 22.7131 12.5545 23.5616 12.3256 23.9014C12.0968 24.2412 10.6487 24.2658 10.1667 24.121C9.78477 24.0058 8.76092 23.4694 8.31425 23.1163C8.2086 23.034 8.22846 22.8709 8.3521 22.8153L8.75208 22.632L8.74899 22.6313Z" fill="#B7C8D9"/>
<path d="M8.27462 23.073C8.2178 22.9877 8.24629 22.8616 8.34891 22.8147L8.74889 22.6313C9.20511 22.4239 9.70826 22.3351 10.2076 22.3774C11.0797 22.4527 12.4047 22.5769 12.5802 22.6314C12.7347 22.6785 12.6981 22.9893 12.599 23.3069C12.2893 23.4248 12.1249 23.4754 11.9011 23.5174C11.5031 23.595 11.3696 23.5393 11.0254 23.4125C10.2079 23.1135 10.203 23.0579 9.74006 22.994C9.43971 22.9531 8.64486 23.0219 8.27833 23.0705L8.27462 23.073Z" fill="#9BACBF"/>
<path d="M5.08836 16.0747L5.03879 16.3219C5.03879 16.3219 4.90383 16.7545 4.96142 17.7657C4.98653 18.2175 4.90472 18.6736 4.72218 19.087C4.67516 19.1932 4.63308 19.2909 4.59472 19.37C4.54213 19.488 4.38884 19.5151 4.29803 19.423C3.8619 18.9852 3.42408 18.2352 3.39454 17.9979C3.35945 17.7241 3.53014 17.498 3.53014 17.498C3.53014 17.498 4.25191 16.5113 5.09145 16.0754L5.08836 16.0747Z" fill="#B7C8D9"/>
<path d="M5.08836 16.0747L5.03879 16.3219C5.03879 16.3219 4.90383 16.7545 4.96142 17.7657C4.98653 18.2175 4.90472 18.6736 4.72218 19.087C4.67516 19.1932 4.63308 19.2909 4.59472 19.37C4.58235 19.3996 4.56194 19.4212 4.53906 19.4391C4.6414 18.7204 4.38093 18.0318 4.40471 17.4483C4.41785 17.1424 4.72654 16.5807 5.01973 16.1124C5.04137 16.1007 5.06363 16.0859 5.08836 16.0747Z" fill="#9BACBF"/>
<path d="M3.05672 21.4238C2.96295 21.074 2.9808 20.0072 3.18091 20.2756C3.2013 20.3021 3.46661 21.191 3.52096 21.2726C4.12061 22.2093 7.68391 25.4373 8.33461 25.6546C9.00076 25.875 9.23392 25.5778 9.31605 25.7132C9.39819 25.8486 9.21427 26.5574 9.33839 26.7719C9.46251 26.9865 8.47269 26.3926 7.67569 25.815C7.54656 25.7216 4.36678 23.0654 3.05734 21.4207L3.05672 21.4238Z" fill="#2E2F35"/>
<path d="M21.5208 15.4084L16.7749 19.953C16.7749 19.953 15.7057 19.9154 14.4934 19.293C14.3272 19.2082 15.5153 19.9993 15.5153 19.9993L16.8124 20.5037C16.8124 20.5037 20.8722 15.9983 21.8545 15.4753C21.8398 15.3245 21.5208 15.4084 21.5208 15.4084Z" fill="#2E2F35"/>
<path d="M26.1058 5.04873C27.6889 4.5112 28.71 4.50059 29.1722 4.63186C29.6344 4.76312 30.9894 5.70015 32.2119 6.80029C33.4382 7.89795 34.6928 9.20701 34.9138 9.70774C35.1385 10.206 34.9215 10.4228 34.5147 10.6402C34.1079 10.8575 33.075 11.2 33.075 11.2C33.075 11.2 32.7189 10.1226 31.9999 9.31628C31.2809 8.50997 29.0248 6.55331 28.5632 6.25826C28.1011 5.96631 27.2997 5.44241 26.9469 5.31059C26.594 5.17877 26.1064 5.04564 26.1064 5.04564L26.1058 5.04873Z" fill="#2E2F35"/>
<path d="M9.92556 13.5712C9.92556 13.5712 9.63567 14.8405 9.92349 15.2164C11.0853 16.748 12.7124 18.3471 14.82 19.4736C15.0116 19.5763 16.3958 19.9985 16.3958 19.9985L20.9958 15.3636C20.9958 15.3636 20.2211 14.8514 20.0487 14.7333C18.5511 13.6905 15.9576 11.5408 15.1145 10.3915C14.9706 10.1955 14.8663 9.89812 14.8663 9.89812C14.8663 9.89812 12.0773 11.7688 9.92803 13.5749L9.92556 13.5712Z" fill="#3D3C51"/>
<path d="M16.6036 12.7279L16.9094 12.9982C17.0817 13.1484 17.2448 13.3129 17.4061 13.4867C17.4586 13.5454 17.4746 13.6418 17.4405 13.7154L17.357 13.9076C17.3261 13.9817 17.2575 14.0033 17.1975 13.9656C17.0165 13.8425 16.8386 13.704 16.6693 13.5543L16.3635 13.2841C16.1911 13.1338 16.0281 12.9693 15.8668 12.7955C15.8143 12.7368 15.7983 12.6404 15.8323 12.5668L15.9159 12.3747C15.9468 12.3005 16.0154 12.2789 16.0754 12.3167C16.2564 12.4397 16.4343 12.5783 16.6036 12.7279Z" fill="#585775"/>
<path d="M16.4714 12.9674C16.4944 12.869 16.5706 12.6011 16.5706 12.6011L16.9128 12.6761C16.9128 12.6761 16.7981 13.0554 16.7889 13.0696C16.7579 13.1278 16.6601 13.1822 16.6236 13.1717C16.5419 13.1456 16.4435 13.0744 16.4677 12.9698L16.4714 12.9674Z" fill="#585775"/>
<path d="M16.6166 12.5247C16.5497 12.5854 16.5521 12.6858 16.6202 12.7478C16.6915 12.8104 16.8011 12.8098 16.8687 12.746C16.9356 12.6854 16.9332 12.585 16.8651 12.523C16.797 12.461 16.6842 12.4609 16.6166 12.5247Z" fill="#626082"/>
<path d="M19.6719 7.75879L19.5992 7.78585C19.6232 7.77786 19.6478 7.76678 19.6719 7.75879Z" fill="#1F2024"/>
<path d="M15.4869 9.47882L11.7798 13.2835C10.9459 13.4185 9.89023 13.57 9.89023 13.57C9.89023 13.57 13.7156 10.57 15.6384 9.38062C15.6916 9.35593 15.7447 9.33123 15.8047 9.30469L15.4875 9.47573L15.4869 9.47882Z" fill="#626082"/>
<path d="M15.8118 9.30784C16.5957 8.95718 17.9538 8.41955 19.3738 7.87823L17.7411 11.019L18.5275 10.6881L19.7286 7.74367C22.0461 6.86165 24.4112 6.01487 24.601 5.98221C24.9799 5.91998 24.9162 7.19932 24.9162 7.19932L21.7686 9.33558C21.7686 9.33558 13.0732 12.995 12.7561 13.1018C12.7215 13.1141 12.6572 13.1301 12.5707 13.1449L15.8124 9.30475L15.8118 9.30784Z" fill="#626082"/>
<path d="M21.0017 15.3608C21.0017 15.3608 20.2269 14.8487 20.0545 14.7306C18.5569 13.6878 15.9634 11.5381 15.1203 10.3887C14.9764 10.1927 14.8721 9.89537 14.8721 9.89537C14.8721 9.89537 14.7126 10.0016 14.4437 10.1887L14.2003 9.976L17.9595 8.26775L24.427 13.9553L20.7346 15.6351L21.0042 15.3645L21.0017 15.3608Z" fill="#2E2F35"/>
<path d="M25.7066 13.1199L24.9153 13.4433C24.464 13.626 23.948 13.5386 23.6867 13.2227L18.5826 8.73425C18.2675 8.5425 18.3246 8.19394 18.5873 8.08592L19.7408 7.60689L18.9719 7.72269L17.3621 8.42523L24.216 14.0456L26.078 13.2554L25.7066 13.1199Z" fill="#2E2F35"/>
<path d="M6.48936 21.2416C6.25727 21.195 6.10685 20.9691 6.15339 20.7371C6.19993 20.505 6.4258 20.3545 6.65789 20.4011C6.88998 20.4476 7.0404 20.6735 6.99386 20.9056C6.94732 21.1377 6.72144 21.2881 6.48936 21.2416Z" fill="#495DCF"/>
<path d="M34.4884 14.1738L34.9395 14.3767C34.9395 14.3767 35.8038 14.01 35.9861 13.902C36.1685 13.7939 36.1371 13.5819 36.1471 13.436C36.157 13.2902 35.8582 12.7288 35.8582 12.7288C35.8582 12.7288 36.0322 13.1591 35.9011 13.3803C35.77 13.6015 34.4915 14.1744 34.4915 14.1744L34.4884 14.1738Z" fill="#FF4566"/>
<path d="M29.1588 20.7565C28.906 22.0172 29.6943 22.7024 30.9183 22.2889C32.1422 21.8754 33.3401 20.5182 33.5929 19.2575C33.8457 17.9968 33.0574 17.3116 31.8334 17.725C30.6095 18.1385 29.4116 19.4958 29.1588 20.7565Z" fill="#393843"/>
<path d="M29.2649 20.7569C29.022 21.9682 29.7801 22.628 30.9589 22.2312C32.1377 21.8344 33.2898 20.5291 33.5333 19.3147C33.7768 18.1003 33.0182 17.4436 31.8394 17.8404C30.6605 18.2372 29.5084 19.5426 29.2649 20.7569Z" fill="#2D2C37"/>
<path d="M29.5649 20.6587C29.3579 21.6908 30.0035 22.2542 31.0068 21.9153C32.0101 21.5765 32.9915 20.4652 33.1984 19.4331C33.4054 18.4011 32.7598 17.8377 31.7565 18.1765C30.7532 18.5153 29.7718 19.6267 29.5649 20.6587Z" fill="#504F58"/>
<path d="M29.6382 20.5623C29.4418 21.5418 30.0552 22.073 31.0066 21.7527C31.9579 21.4324 32.8892 20.3785 33.0856 19.399C33.2821 18.4195 32.6686 17.8883 31.7173 18.2085C30.7659 18.5288 29.8346 19.5828 29.6382 20.5623Z" fill="#BABABE"/>
<path d="M32.9153 19.6727C32.7376 20.222 32.3282 20.8053 31.781 21.2259C31.2338 21.6465 30.6818 21.8026 30.2826 21.6936C30.1059 21.6453 29.9613 21.5488 29.8631 21.3974C29.8304 21.3522 29.8026 21.2984 29.7822 21.2397C29.7779 21.2292 29.7736 21.2187 29.7699 21.2051C29.7557 21.1637 29.7421 21.1192 29.7353 21.0728C29.7248 21.0129 29.7181 20.9504 29.715 20.8855C29.7126 20.7693 29.7238 20.6494 29.7486 20.5258C29.7597 20.4702 29.7715 20.4115 29.7925 20.3547C29.7987 20.3238 29.8105 20.2972 29.8198 20.2669C29.8235 20.2484 29.834 20.228 29.8408 20.2101C29.8445 20.1915 29.8544 20.1742 29.8612 20.1563C29.8817 20.1025 29.9021 20.0488 29.9293 19.9932C29.9411 19.9666 29.9528 19.94 29.9677 19.9141C29.9788 19.8906 29.9893 19.8702 29.9998 19.8498C30.0159 19.8177 30.032 19.7856 30.0506 19.7571C30.0648 19.7343 30.0759 19.7108 30.0902 19.6879C30.1489 19.5872 30.2163 19.4915 30.2899 19.3969C30.3035 19.3772 30.3202 19.358 30.3338 19.3382C30.3852 19.2746 30.4365 19.211 30.4934 19.1517C30.5064 19.135 30.5218 19.122 30.5348 19.1053C30.5596 19.0782 30.588 19.0485 30.6152 19.025C30.7191 18.9237 30.8292 18.8237 30.9436 18.7341C31.0011 18.6878 31.0604 18.6482 31.1198 18.6087C31.1463 18.5883 31.1754 18.5717 31.2014 18.5544C31.2088 18.5494 31.2193 18.5451 31.2267 18.5402C31.249 18.5253 31.2706 18.5136 31.2923 18.5019C31.5612 18.3469 31.8258 18.2617 32.0588 18.2377C32.4747 18.199 32.8059 18.3586 32.9423 18.7203C32.9467 18.7308 32.951 18.7413 32.9553 18.7518C32.9794 18.8241 32.996 18.9014 33.0028 18.9799C33.0249 19.19 32.9908 19.4243 32.9128 19.669L32.9153 19.6727Z" fill="url(#paint0_linear_25400_194)"/>
<path d="M31.1075 18.8218L31.0053 19.2513C30.844 19.2061 30.6864 19.1584 30.5393 19.1064C30.5641 19.0792 30.5925 19.0496 30.6197 19.0261C30.7236 18.9248 30.8337 18.8247 30.9481 18.7352C31.0056 18.6889 31.0649 18.6493 31.1243 18.6098C31.1509 18.5894 31.1799 18.5728 31.2059 18.5555C31.2133 18.5505 31.2238 18.5462 31.2312 18.5413C31.2535 18.5264 31.2751 18.5147 31.2968 18.503C31.5657 18.348 31.8303 18.2628 32.0633 18.2388C32.4793 18.2001 32.8104 18.3597 32.9469 18.7214C31.902 18.1133 31.1044 18.8212 31.1044 18.8212L31.1075 18.8218Z" fill="#393843"/>
<path d="M32.8304 19.6484C32.8304 19.6484 32.3573 20.0678 31.9475 20.1239C31.5384 20.1768 30.6128 20.9298 30.6128 20.9298L31.0067 19.2538C31.8712 19.4947 32.8304 19.6484 32.8304 19.6484Z" fill="#393843"/>
<path d="M32.1218 19.2042C31.9695 19.6751 31.6182 20.1767 31.147 20.5387C30.8886 20.7376 30.6246 20.8678 30.3879 20.9264C30.1944 20.9776 30.017 20.9806 29.8644 20.9404C29.852 20.9379 29.8396 20.9354 29.8279 20.9299C29.7908 20.9224 29.7556 20.9057 29.7235 20.8896C29.7211 20.7734 29.7322 20.6535 29.757 20.5299C29.7682 20.4743 29.78 20.4156 29.801 20.3588C29.8072 20.3279 29.819 20.3013 29.8282 20.271C29.832 20.2525 29.8425 20.2321 29.8493 20.2142C29.853 20.1956 29.8629 20.1783 29.8697 20.1604C29.8901 20.1066 29.9105 20.0529 29.9378 19.9973C29.9495 19.9707 29.9613 19.9441 29.9761 19.9182C29.9873 19.8947 29.9978 19.8743 30.0083 19.8539C30.0244 19.8218 30.0405 19.7897 30.059 19.7612C30.0733 19.7384 30.0844 19.7149 30.0986 19.692C30.1574 19.5913 30.2248 19.4956 30.2984 19.401C30.312 19.3813 30.3287 19.3621 30.3423 19.3423C30.3936 19.2787 30.445 19.2151 30.5019 19.1558C30.5396 19.1119 30.5835 19.0693 30.6237 19.0291C30.7276 18.9278 30.8376 18.8277 30.952 18.7382C31.0095 18.6919 31.0689 18.6523 31.1282 18.6128C31.1548 18.5924 31.1839 18.5758 31.2098 18.5585C31.2173 18.5535 31.2278 18.5492 31.2352 18.5443C31.2574 18.5294 31.2791 18.5177 31.3007 18.506C31.5696 18.351 31.8342 18.2658 32.0672 18.2418C32.1018 18.2938 32.1321 18.3513 32.1543 18.4168C32.174 18.4786 32.1901 18.5429 32.195 18.6146C32.2042 18.7129 32.2017 18.8216 32.1831 18.9304C32.1682 19.0206 32.1465 19.1127 32.1187 19.2036L32.1218 19.2042Z" fill="url(#paint1_linear_25400_194)"/>
<path d="M30.8364 19.7887L30.6041 19.5847L30.4912 19.1538C30.5289 19.11 30.5728 19.0673 30.613 19.0272C30.7169 18.9259 30.827 18.8258 30.9414 18.7362C30.9989 18.6899 31.0582 18.6504 31.1176 18.6109C31.1442 18.5905 31.1732 18.5738 31.1992 18.5565C31.2066 18.5516 31.2171 18.5473 31.2245 18.5423C31.2709 18.5837 31.3061 18.6165 31.3085 18.6202L30.9017 18.934L30.8364 19.7887Z" fill="url(#paint2_linear_25400_194)"/>
<path d="M30.8388 19.79L30.8077 20.1373L30.379 20.9288L30.1854 21.2853C30.1285 21.3607 30.2081 21.5727 30.1574 21.5529C30.0746 21.517 29.8837 21.347 29.7818 21.2462C29.7775 21.2357 29.7732 21.2252 29.7695 21.2116C29.7553 21.1702 29.7417 21.1256 29.7349 21.0793C29.7386 21.0607 29.7523 21.041 29.7659 21.0212L29.816 20.9316L30.5725 19.6273L30.6034 19.5853L30.8357 19.7893L30.8388 19.79Z" fill="url(#paint3_linear_25400_194)"/>
<path d="M32.6899 18.8522C32.6708 18.8355 32.6392 18.8324 32.6046 18.8447L31.2336 19.1259L31.1953 19.1407L31.0596 19.8174L31.3699 19.7125L32.4998 19.5116C32.5722 19.4875 32.6427 19.4084 32.6643 19.3324C32.7003 19.1853 32.9351 19.2003 32.9333 19.0649C32.9321 19.039 32.7066 18.8652 32.693 18.8528L32.6899 18.8522Z" fill="url(#paint4_linear_25400_194)"/>
<path d="M30.9923 20.3803L30.6684 19.1421C30.6499 19.0902 30.6858 19.0074 30.7489 18.9494C30.8157 18.8888 30.8849 18.832 30.9542 18.7752C31.0259 18.7221 31.0976 18.6689 31.1675 18.6251C31.2373 18.5812 31.3004 18.5875 31.3183 18.6425L31.6421 19.8806L30.9923 20.3803Z" fill="#DFDFE3"/>
<path d="M31.2952 20.0214L31.4309 19.3447L31.4724 19.3305L32.8433 19.0493C32.9058 19.0265 32.9546 19.0556 32.9558 19.1137C32.9582 19.2459 32.939 19.3899 32.903 19.537C32.8845 19.6136 32.814 19.6927 32.7386 19.7161L31.6086 19.9171L31.2952 20.0214Z" fill="#DFDFE3"/>
<path d="M29.9736 21.3968C29.9421 21.3615 29.957 21.2874 30.0053 21.2231L30.8119 19.8292L30.8428 19.7872L31.2852 20.0173L31.044 20.3386L30.4217 21.4866C30.3648 21.562 30.2826 21.6033 30.2294 21.5798C30.1287 21.5371 30.041 21.4778 29.9736 21.3968Z" fill="#DFDFE3"/>
<path d="M30.2652 21.418C30.2652 21.418 30.2807 21.405 30.293 21.3914L30.9284 20.2267L31.5213 19.7703L32.6753 19.5613C32.6926 19.5552 32.7248 19.523 32.7297 19.4983C32.7502 19.4124 32.7638 19.3284 32.7737 19.2468L31.3576 19.5446L31.2029 18.8097C31.1547 18.8418 31.1058 18.877 31.0601 18.9128C30.992 18.9634 30.9265 19.0178 30.8634 19.0759C30.848 19.0888 30.8387 19.103 30.8368 19.1123L30.9947 19.8639L30.1318 21.3302C30.1694 21.3666 30.2121 21.3945 30.259 21.4167L30.2652 21.418Z" fill="#4B4A4B"/>
<path d="M13.1432 26.1681C12.8904 27.4288 13.6787 28.114 14.9026 27.7005C16.1266 27.287 17.3245 25.9298 17.5773 24.6691C17.8301 23.4084 17.0418 22.7232 15.8178 23.1367C14.5939 23.5501 13.396 24.9074 13.1432 26.1681Z" fill="#393843"/>
<path d="M13.2727 26.1695C13.0299 27.3808 13.7879 28.0406 14.9667 27.6438C16.1455 27.247 17.2976 25.9417 17.5411 24.7273C17.7846 23.5129 17.026 22.8562 15.8472 23.253C14.6683 23.6498 13.5163 24.9552 13.2727 26.1695Z" fill="#2D2C37"/>
<path d="M13.5727 26.0748C13.3657 27.1068 14.0113 27.6702 15.0146 27.3314C16.0179 26.9926 16.9993 25.8812 17.2062 24.8491C17.4132 23.8171 16.7676 23.2537 15.7643 23.5925C14.7611 23.9313 13.7796 25.0427 13.5727 26.0748Z" fill="#504F58"/>
<path d="M13.6538 25.9783C13.4574 26.9578 14.0708 27.489 15.0222 27.1687C15.9735 26.8485 16.9048 25.7945 17.1013 24.815C17.2977 23.8355 16.6842 23.3043 15.7329 23.6246C14.7815 23.9449 13.8502 24.9988 13.6538 25.9783Z" fill="#BABABE"/>
<path d="M16.9278 25.0881C16.7502 25.6374 16.3407 26.2207 15.7935 26.6413C15.2463 27.0619 14.6943 27.218 14.2951 27.109C14.1184 27.0607 13.9738 26.9642 13.8756 26.8128C13.8429 26.7676 13.8151 26.7138 13.7947 26.6551C13.7904 26.6446 13.7861 26.6341 13.7824 26.6205C13.7682 26.5791 13.7546 26.5346 13.7478 26.4882C13.7374 26.4283 13.7306 26.3658 13.7275 26.3009C13.7251 26.1847 13.7363 26.0648 13.7611 25.9412C13.7723 25.8856 13.784 25.8269 13.8051 25.7701C13.8113 25.7392 13.823 25.7126 13.8323 25.6823C13.836 25.6638 13.8465 25.6434 13.8534 25.6255C13.8571 25.6069 13.867 25.5896 13.8738 25.5717C13.8942 25.5179 13.9146 25.4642 13.9418 25.4086C13.9536 25.382 13.9654 25.3554 13.9802 25.3295C13.9913 25.306 14.0019 25.2856 14.0124 25.2652C14.0285 25.2331 14.0445 25.201 14.0631 25.1725C14.0773 25.1497 14.0885 25.1262 14.1027 25.1033C14.1615 25.0026 14.2289 24.9069 14.3025 24.8123C14.3161 24.7926 14.3328 24.7734 14.3464 24.7536C14.3977 24.69 14.449 24.6264 14.5059 24.5671C14.5189 24.5504 14.5344 24.5374 14.5474 24.5207C14.5721 24.4936 14.6005 24.4639 14.6278 24.4404C14.7316 24.3391 14.8417 24.2391 14.9561 24.1495C15.0136 24.1032 15.0729 24.0636 15.1323 24.0241C15.1589 24.0037 15.1879 23.9871 15.2139 23.9698C15.2213 23.9648 15.2318 23.9605 15.2393 23.9556C15.2615 23.9407 15.2831 23.929 15.3048 23.9173C15.5737 23.7623 15.8383 23.6771 16.0713 23.6531C16.4873 23.6144 16.8185 23.774 16.9549 24.1357C16.9592 24.1462 16.9635 24.1567 16.9678 24.1672C16.9919 24.2395 17.0086 24.3168 17.0184 24.3959C17.0406 24.6061 17.0064 24.8403 16.9284 25.085L16.9278 25.0881Z" fill="url(#paint5_linear_25400_194)"/>
<path d="M15.1231 24.2373L15.0209 24.6668C14.8596 24.6216 14.702 24.5739 14.555 24.522C14.5797 24.4948 14.6081 24.4651 14.6354 24.4416C14.7392 24.3403 14.8493 24.2403 14.9637 24.1507C15.0212 24.1044 15.0805 24.0649 15.1399 24.0253C15.1665 24.005 15.1955 23.9883 15.2215 23.971C15.2289 23.966 15.2394 23.9617 15.2469 23.9568C15.2691 23.942 15.2908 23.9302 15.3124 23.9185C15.5813 23.7635 15.8459 23.6783 16.0789 23.6544C16.4949 23.6156 16.8261 23.7753 16.9625 24.1369C15.9177 23.5288 15.12 24.2367 15.12 24.2367L15.1231 24.2373Z" fill="#393843"/>
<path d="M16.846 25.0654C16.846 25.0654 16.373 25.4848 15.9632 25.5409C15.554 25.5938 14.6284 26.3467 14.6284 26.3467L15.0223 24.6708C15.8868 24.9116 16.846 25.0654 16.846 25.0654Z" fill="#393843"/>
<path d="M16.1296 24.6202C15.9773 25.0911 15.626 25.5927 15.1548 25.9547C14.8964 26.1536 14.6324 26.2838 14.3957 26.3424C14.2022 26.3936 14.0248 26.3966 13.8722 26.3564C13.8598 26.3539 13.8475 26.3514 13.8357 26.3459C13.7986 26.3384 13.7634 26.3217 13.7313 26.3056C13.7289 26.1894 13.7401 26.0695 13.7648 25.946C13.776 25.8903 13.7878 25.8316 13.8088 25.7748C13.815 25.7439 13.8268 25.7173 13.836 25.687C13.8398 25.6685 13.8503 25.6481 13.8571 25.6302C13.8608 25.6116 13.8707 25.5943 13.8775 25.5764C13.8979 25.5227 13.9184 25.4689 13.9456 25.4133C13.9573 25.3867 13.9691 25.3601 13.9839 25.3342C13.9951 25.3107 14.0056 25.2903 14.0161 25.2699C14.0322 25.2378 14.0483 25.2057 14.0668 25.1772C14.0811 25.1544 14.0922 25.1309 14.1064 25.108C14.1652 25.0073 14.2326 24.9116 14.3062 24.817C14.3198 24.7973 14.3365 24.7781 14.3501 24.7583C14.4015 24.6947 14.4528 24.6311 14.5097 24.5718C14.5474 24.5279 14.5913 24.4853 14.6315 24.4451C14.7354 24.3438 14.8454 24.2438 14.9598 24.1542C15.0173 24.1079 15.0767 24.0683 15.136 24.0288C15.1626 24.0084 15.1917 23.9918 15.2176 23.9745C15.2251 23.9695 15.2356 23.9652 15.243 23.9603C15.2653 23.9455 15.2869 23.9337 15.3085 23.922C15.5775 23.767 15.842 23.6818 16.075 23.6578C16.1096 23.7098 16.1399 23.7673 16.1621 23.8328C16.1819 23.8946 16.1979 23.9589 16.2028 24.0306C16.212 24.1289 16.2095 24.2377 16.1909 24.3464C16.176 24.4366 16.1543 24.5287 16.1265 24.6196L16.1296 24.6202Z" fill="url(#paint6_linear_25400_194)"/>
<path d="M14.8598 25.2067L14.6275 25.0026L14.5146 24.5718C14.5524 24.5279 14.5963 24.4853 14.6365 24.4451C14.7403 24.3438 14.8504 24.2438 14.9648 24.1542C15.0223 24.1079 15.0816 24.0684 15.141 24.0288C15.1676 24.0085 15.1966 23.9918 15.2226 23.9745C15.23 23.9695 15.2405 23.9652 15.248 23.9603C15.2943 24.0017 15.3295 24.0345 15.332 24.0382L14.9251 24.352L14.8598 25.2067Z" fill="url(#paint7_linear_25400_194)"/>
<path d="M14.8544 25.2055L14.8234 25.5528L14.3946 26.3443L14.201 26.7009C14.1441 26.7762 14.2237 26.9883 14.1731 26.9685C14.0903 26.9326 13.8994 26.7625 13.7974 26.6617C13.7931 26.6512 13.7888 26.6407 13.7851 26.6271C13.7709 26.5857 13.7573 26.5412 13.7506 26.4948C13.7543 26.4763 13.7679 26.4565 13.7815 26.4367L13.8316 26.3471L14.5881 25.0428L14.6191 25.0008L14.8513 25.2049L14.8544 25.2055Z" fill="url(#paint8_linear_25400_194)"/>
<path d="M16.6977 24.2648C16.6786 24.2481 16.6471 24.245 16.6124 24.2573L15.2415 24.5385L15.2031 24.5533L15.0674 25.23L15.3777 25.1251L16.5076 24.9242C16.58 24.9001 16.6505 24.821 16.6721 24.745C16.7081 24.5979 16.9429 24.6129 16.9411 24.4775C16.9399 24.4516 16.7144 24.2778 16.7008 24.2654L16.6977 24.2648Z" fill="url(#paint9_linear_25400_194)"/>
<path d="M15.0157 25.7934L14.6919 24.5552C14.6734 24.5033 14.7093 24.4205 14.7723 24.3624C14.8391 24.3019 14.9084 24.2451 14.9776 24.1883C15.0493 24.1351 15.121 24.082 15.1909 24.0382C15.2608 23.9943 15.3238 24.0005 15.3417 24.0556L15.6656 25.2937L15.0157 25.7934Z" fill="#DFDFE3"/>
<path d="M15.2952 25.4359L15.4309 24.7592L15.4724 24.745L16.8433 24.4639C16.9058 24.441 16.9546 24.4701 16.9558 24.5282C16.9582 24.6605 16.939 24.8045 16.903 24.9515C16.8845 25.0282 16.814 25.1072 16.7386 25.1307L15.6086 25.3316L15.2952 25.4359Z" fill="#DFDFE3"/>
<path d="M13.9815 26.8118C13.95 26.7765 13.9648 26.7024 14.0131 26.6381L14.8197 25.2442L14.8506 25.2022L15.293 25.4323L15.0518 25.7536L14.4295 26.9016C14.3726 26.977 14.2904 27.0184 14.2372 26.9949C14.1365 26.9522 14.0488 26.8928 13.9815 26.8118Z" fill="#DFDFE3"/>
<path d="M14.2652 26.8272C14.2652 26.8272 14.2807 26.8142 14.293 26.8006L14.9284 25.6359L15.5213 25.1794L16.6753 24.9705C16.6926 24.9643 16.7248 24.9322 16.7297 24.9075C16.7502 24.8216 16.7638 24.7376 16.7738 24.656L15.3576 24.9538L15.2029 24.2188C15.1547 24.2509 15.1058 24.2862 15.0601 24.322C14.992 24.3726 14.9265 24.427 14.8634 24.485C14.848 24.498 14.8387 24.5122 14.8368 24.5215L14.9947 25.2731L14.1318 26.7393C14.1694 26.7758 14.2121 26.8037 14.259 26.8259L14.2652 26.8272Z" fill="#4B4A4B"/>
<path d="M3.44135 17.6288C3.47724 17.546 3.51682 17.4929 3.51682 17.4929C3.51682 17.4929 4.23859 16.5062 5.07812 16.0703C5.07812 16.0703 4.81584 16.5288 4.65815 16.69C4.50171 16.8451 3.93173 17.1068 3.44135 17.6288Z" fill="#F7FBFF"/>
<g style="mix-blend-mode:screen">
<path d="M4.94068 17.1227C4.93688 17.3019 4.93924 17.5145 4.95086 17.7611C4.97597 18.213 4.89416 18.669 4.71162 19.0824C4.6646 19.1887 4.62252 19.2863 4.58416 19.3654C4.53219 19.4804 4.38199 19.5081 4.28994 19.4221C4.04785 19.0586 3.8719 18.6698 3.88745 18.48C3.91419 18.1543 4.26168 17.864 4.94068 17.1227Z" fill="#565E66"/>
</g>
<g style="mix-blend-mode:screen">
<path d="M8.26356 23.0481C8.26356 23.0481 8.26109 23.0444 8.25862 23.0407C8.22714 22.9572 8.25995 22.8577 8.35206 22.8151L8.75204 22.6318C9.20826 22.4243 9.71141 22.3356 10.2108 22.3779C10.6656 22.4176 11.2435 22.4692 11.7188 22.5195C11.5259 22.648 10.5261 23.3057 10.1521 23.52C9.73788 23.7583 8.57801 23.3233 8.3173 23.1167C8.30371 23.1043 8.29012 23.092 8.28086 23.074C8.27592 23.0666 8.27159 23.0561 8.26665 23.0487L8.26356 23.0481Z" fill="#565E66"/>
</g>
<path d="M9.75754 22.9559L9.78294 22.8292C9.80711 22.7087 9.92334 22.6259 10.0451 22.6439L11.4949 22.8511C11.6321 22.8722 11.7223 22.9995 11.695 23.1355L11.6585 23.3178C11.6114 23.5526 11.374 23.6947 11.1466 23.6266L9.94095 23.2594C9.81056 23.2204 9.73089 23.0888 9.75754 22.9559Z" fill="white"/>
<path d="M4.67879 18.4685L4.74503 18.2503C4.80322 18.0563 4.82496 17.8517 4.80467 17.6484L4.74079 16.8609C4.73219 16.7596 4.60181 16.6884 4.55171 16.778C4.33394 17.1908 4.23423 17.6079 4.32361 18.0597L4.39944 18.451C4.42779 18.5981 4.63731 18.6112 4.67941 18.4654L4.67879 18.4685Z" fill="white"/>
<path d="M10.4893 24.0045C10.7921 24.0653 12.0122 23.9756 12.1476 23.8292C12.2917 23.6717 12.392 23.3157 12.4032 23.2762L12.1745 23.2143C12.1386 23.3453 12.0519 23.585 11.974 23.6691C11.8739 23.7197 10.8695 23.8397 10.5389 23.7734C10.5389 23.7734 10.5389 23.7734 10.5358 23.7728C10.0451 23.6712 8.95268 23.0439 8.81739 22.9171L8.65475 23.087C8.82711 23.2534 9.96215 23.8924 10.4868 24.0008L10.4899 24.0014L10.4893 24.0045Z" fill="white"/>
<path d="M4.29363 19.2685L4.47974 19.1259C4.18883 18.7493 3.78497 18.0544 3.73069 17.8443C3.70726 17.7367 3.95536 17.2208 4.27824 16.7166L4.07867 16.5898C3.88197 16.8975 3.43474 17.6371 3.50321 17.9047C3.57291 18.1823 4.03298 18.9334 4.29301 19.2716L4.29363 19.2685Z" fill="white"/>
<path d="M36.1993 14.9788C36.1993 14.9788 36.5456 15.7039 36.4242 16.3899C36.136 16.705 35.906 16.9224 35.5055 16.8839C36.0607 16.4713 36.1474 16.0869 36.1494 15.7723C36.1515 15.4577 36.2024 14.9794 36.2024 14.9794L36.1993 14.9788Z" fill="#5B73FF"/>
<path d="M18.6137 20.0352C18.6137 20.0352 18.4549 19.9776 18.3981 19.9083C18.3412 19.8391 18.4322 19.642 18.5639 19.5945C18.6962 19.5438 18.9878 19.7727 19.0459 19.7554C19.104 19.7381 19.4067 19.9435 19.4067 19.9435L19.2515 20.1566L18.6119 20.0284L18.6137 20.0352Z" fill="#5B73FF"/>
<path d="M19.4374 19.3064C19.1469 19.1678 18.8144 19.2072 18.7018 19.5446C18.5674 19.958 18.7398 20.0601 18.8399 20.138C18.9406 20.2128 19.3243 20.4794 19.8545 20.5922C20.3848 20.7049 20.5066 20.4336 20.5444 20.2452C20.55 20.2173 20.5494 20.2204 20.5544 20.1957C20.5928 19.9238 20.5131 19.8242 20.342 19.7321C19.9762 19.5366 19.4405 19.307 19.4405 19.307L19.4374 19.3064Z" fill="#5B73FF"/>
<path d="M18.8594 19.3753C19.0467 19.355 19.397 19.4992 19.74 19.6483C20.0829 19.7974 20.353 19.8451 20.3108 20.1999C20.2686 20.5546 20.1406 20.6158 19.9842 20.6101C19.8316 20.602 19.5473 20.545 19.1488 20.3365C18.7471 20.1274 18.7027 20.0446 18.6613 19.9141C18.62 19.7837 18.6721 19.3956 18.8594 19.3753Z" fill="#5B84FF"/>
<path d="M16.4027 19.9959C16.4027 19.9959 15.0216 19.5743 14.8269 19.471C12.7224 18.3451 11.0916 16.7485 9.93039 15.2139C9.64319 14.8349 9.93246 13.5686 9.93246 13.5686C10.0524 13.4673 10.1717 13.3691 10.2948 13.2684L11.4413 13.209L14.2638 15.8996L14.514 17.3287L16.9994 19.3924L16.4033 19.9928L16.4027 19.9959Z" fill="#4A4963"/>
<g style="mix-blend-mode:screen">
<path d="M12.5167 18.4408C12.7817 18.6578 13.0517 18.8663 13.3242 19.0623C13.9389 19.507 14.8949 19.7887 15.4726 20.0974C15.6759 20.2057 16.9421 20.5271 16.9421 20.5271C16.9502 20.5191 16.9805 20.4801 17.0386 20.4147C17.0596 20.3899 17.0813 20.3621 17.1104 20.3294C17.1858 20.2417 17.286 20.1268 17.4066 19.9902C17.4356 19.9575 17.4684 19.9223 17.4987 19.8834C17.4987 19.8834 17.4993 19.8803 17.503 19.8778C17.5278 19.8506 17.5494 19.8228 17.5742 19.7956C17.5791 19.787 17.5871 19.779 17.5952 19.7709C17.6576 19.6999 17.7238 19.6264 17.7943 19.5473C17.939 19.3867 18.0998 19.21 18.2686 19.0253C18.3014 18.9901 18.3342 18.9548 18.3676 18.9165C18.4337 18.843 18.503 18.7701 18.576 18.6948C18.6124 18.6571 18.6489 18.6194 18.6823 18.5811L18.686 18.5786C18.7602 18.4971 18.8369 18.4192 18.9142 18.3383C19.1337 18.1091 19.3644 17.8725 19.5981 17.6366C19.7187 17.5161 19.8393 17.3956 19.9624 17.2789L20.2091 17.0423C20.3358 16.9231 20.462 16.8069 20.585 16.6902C20.6394 16.6433 20.6908 16.5957 20.7421 16.5481C20.8002 16.4987 20.8559 16.4456 20.914 16.3962C20.9684 16.3492 21.0228 16.3023 21.0741 16.2547C21.1162 16.2214 21.1558 16.1843 21.1978 16.1509C21.2368 16.117 21.2751 16.0861 21.3134 16.0552C21.3518 16.0243 21.3864 15.9959 21.421 15.9675C21.4674 15.9286 21.5131 15.8928 21.5589 15.8569C21.57 15.8495 21.5781 15.8415 21.5855 15.8366C21.677 15.7649 21.7648 15.6957 21.8551 15.6303C21.881 15.613 21.9076 15.5926 21.9336 15.5753C22.2755 15.3289 22.5982 15.13 22.8844 15.001C24.4318 14.3052 28.4085 12.8109 31.1846 11.8377C31.1846 11.8377 31.1914 11.8358 31.1945 11.8364C31.1976 11.837 31.2044 11.8352 31.2081 11.8327C31.4195 11.7562 31.6266 11.6852 31.8232 11.6186C31.8547 11.6056 31.8856 11.5957 31.9165 11.5859C32.0093 11.5562 32.0964 11.5223 32.1854 11.4951C32.2163 11.4853 32.2442 11.4748 32.272 11.4643C32.3857 11.426 32.4995 11.3878 32.6027 11.3538C32.6818 11.3279 32.7609 11.302 32.8333 11.2779C32.9155 11.2526 32.9915 11.2261 33.0669 11.2026C33.0811 11.1958 33.0978 11.1928 33.1114 11.1891C33.1355 11.181 33.1566 11.1724 33.1807 11.1644C33.4601 11.0693 34.1827 10.8157 34.5067 10.6428C34.9141 10.4223 35.1274 10.208 34.9058 9.71034C34.7502 9.36415 34.1004 8.62958 33.3097 7.84425C32.7664 7.92494 31.99 8.12603 31.0665 8.40369C27.7884 9.39525 22.6959 11.3729 20.0019 12.4655C19.0363 12.8569 18.3791 13.1365 18.2184 13.2168C17.5365 13.5557 13.8854 16.6324 12.5099 18.4426L12.5167 18.4408Z" fill="#131317"/>
</g>
<g style="mix-blend-mode:screen">
<path d="M21.9419 11.6905L23.6822 13.2223C23.9255 13.5154 24.3816 13.6133 24.8069 13.48C25.0906 13.3633 25.388 13.2429 25.6946 13.1244L25.7051 13.1201C27.4076 12.4522 29.4246 11.7382 31.5455 11.0674C31.7483 11.002 31.8429 10.7703 31.7423 10.583C31.6392 10.3919 31.5144 10.1805 31.4403 10.0853C31.1204 9.69326 30.6453 9.20909 30.1066 8.70572C27.6006 9.51781 24.3979 10.727 21.9481 11.6917L21.9419 11.6905Z" fill="#131317"/>
</g>
<g style="mix-blend-mode:screen">
<path d="M12.7804 18.1295C13.405 18.6211 14.0884 19.0764 14.8286 19.4723C15.0201 19.575 16.4044 19.9972 16.4044 19.9972L21.0044 15.3623C21.0044 15.3623 20.2296 14.8501 20.0542 14.7314C19.516 14.3535 18.8327 13.834 18.142 13.2712C17.8824 13.428 17.3976 13.7937 16.8121 14.2773C15.5378 15.3267 13.7761 16.9309 12.7767 18.1319L12.7804 18.1295Z" fill="#131317"/>
</g>
<path d="M8.74118 22.6313C9.1974 22.4239 9.70054 22.3352 10.1999 22.3774C11.0719 22.4527 12.397 22.577 12.5725 22.6314C12.8357 22.7131 12.5467 23.5616 12.3178 23.9014C12.089 24.2412 10.6409 24.2658 10.1589 24.121C9.77695 24.0058 8.75311 23.4694 8.30644 23.1163C8.20079 23.034 8.22065 22.8709 8.34429 22.8153L8.74427 22.632L8.74118 22.6313Z" fill="#B7C8D9"/>
<path d="M8.2668 23.0735C8.2106 22.9851 8.23848 22.8621 8.3411 22.8152L8.74107 22.6318C9.1973 22.4244 9.70044 22.3356 10.1998 22.3779C11.0718 22.4531 12.3969 22.5774 12.5724 22.6319C12.7269 22.6789 12.6903 22.9898 12.5912 23.3074C12.2815 23.4253 12.1171 23.4759 11.8933 23.5178C11.4953 23.5955 11.3618 23.5398 11.0176 23.4129C10.2001 23.114 10.1951 23.0584 9.73225 22.9945C9.43189 22.9536 8.63704 23.0224 8.27051 23.071L8.2668 23.0735Z" fill="#9BACBF"/>
<path d="M5.07273 16.0708L5.02316 16.318C5.02316 16.318 4.88821 16.7506 4.9458 17.7618C4.97091 18.2136 4.88909 18.6697 4.70656 19.083C4.65953 19.1893 4.61745 19.287 4.5791 19.366C4.5265 19.4841 4.37321 19.5112 4.2824 19.4191C3.84628 18.9812 3.40846 18.2313 3.37891 17.994C3.34382 17.7202 3.51452 17.494 3.51452 17.494C3.51452 17.494 4.23629 16.5074 5.07582 16.0715L5.07273 16.0708Z" fill="#B7C8D9"/>
<path d="M3.44135 17.6293C3.47724 17.5465 3.51682 17.4934 3.51682 17.4934C3.51682 17.4934 4.23859 16.5067 5.07812 16.0708C5.07812 16.0708 4.81584 16.5293 4.65815 16.6905C4.50171 16.8455 3.93173 17.1073 3.44135 17.6293Z" fill="#F7FBFF"/>
<g style="mix-blend-mode:screen">
<path d="M4.93286 17.1237C4.92906 17.3029 4.93143 17.5155 4.94305 17.7621C4.96816 18.2139 4.88635 18.67 4.70381 19.0834C4.65679 19.1897 4.61471 19.2873 4.57635 19.3664C4.52438 19.4813 4.37417 19.5091 4.28213 19.4231C4.04003 19.0596 3.86409 18.6707 3.87963 18.481C3.90637 18.1553 4.25387 17.865 4.93286 17.1237Z" fill="#565E66"/>
</g>
<g style="mix-blend-mode:screen">
<path d="M8.25575 23.0451C8.25575 23.0451 8.25328 23.0414 8.25081 23.0377C8.21933 22.9543 8.25214 22.8548 8.34425 22.8122L8.74423 22.6288C9.20045 22.4214 9.70359 22.3326 10.203 22.3749C10.6578 22.4147 11.2357 22.4663 11.7109 22.5166C11.518 22.6451 10.5183 23.3028 10.1443 23.5171C9.73007 23.7554 8.5702 23.3203 8.30949 23.1138C8.2959 23.1014 8.28231 23.089 8.27304 23.0711C8.2681 23.0637 8.26378 23.0532 8.25884 23.0458L8.25575 23.0451Z" fill="#565E66"/>
</g>
<path d="M9.74973 22.9564L9.77513 22.8297C9.79929 22.7092 9.91553 22.6264 10.0373 22.6444L11.4871 22.8516C11.6243 22.8727 11.7145 23 11.6872 23.136L11.6507 23.3183C11.6036 23.5531 11.3662 23.6951 11.1388 23.627L9.93313 23.2599C9.80274 23.2209 9.72308 23.0892 9.74973 22.9564Z" fill="white"/>
<path d="M4.67879 18.4699L4.74503 18.2518C4.80322 18.0577 4.82496 17.8532 4.80467 17.6498L4.74079 16.8624C4.73218 16.761 4.60181 16.6899 4.5517 16.7795C4.33394 17.1922 4.23422 17.6094 4.32361 18.0612L4.39943 18.4525C4.42779 18.5996 4.63731 18.6127 4.67941 18.4668L4.67879 18.4699Z" fill="white"/>
<path d="M10.4887 24.0062C10.7915 24.0669 12.0116 23.9773 12.1476 23.8278C12.2911 23.6733 12.3914 23.3174 12.4032 23.2747L12.1745 23.2128C12.1386 23.3438 12.0519 23.5836 11.974 23.6676C11.8739 23.7182 10.8695 23.8382 10.5389 23.7719C10.5389 23.7719 10.5358 23.7713 10.5327 23.7707C10.042 23.6691 8.9465 23.0412 8.8143 22.9151L8.65166 23.0849C8.82402 23.2513 9.95906 23.8903 10.4831 24.0018L10.4862 24.0024L10.4887 24.0062Z" fill="white"/>
<path d="M4.28582 19.2666L4.47193 19.1239C4.18101 18.7474 3.77716 18.0525 3.72288 17.8423C3.69944 17.7348 3.94754 17.2188 4.27042 16.7146L4.07085 16.5878C3.87416 16.8955 3.42693 17.6351 3.49602 17.8997C3.56572 18.1772 4.02579 18.9284 4.28582 19.2666Z" fill="white"/>
<defs>
<linearGradient id="paint0_linear_25400_194" x1="29.9909" y1="21.5451" x2="32.7392" y2="18.4192" gradientUnits="userSpaceOnUse">
<stop offset="0.27" stop-color="#ECEEF7"/>
<stop offset="0.77" stop-color="#9C9AA8"/>
</linearGradient>
<linearGradient id="paint1_linear_25400_194" x1="31.2724" y1="20.6345" x2="30.6146" y2="18.6898" gradientUnits="userSpaceOnUse">
<stop offset="0.26" stop-color="#393843"/>
<stop offset="0.78" stop-color="#23222E"/>
</linearGradient>
<linearGradient id="paint2_linear_25400_194" x1="31.3663" y1="19.31" x2="30.5102" y2="19.3794" gradientUnits="userSpaceOnUse">
<stop stop-color="#ADAEB8"/>
<stop offset="0.08" stop-color="#BABBC5"/>
<stop offset="0.2" stop-color="#C9CBD3"/>
<stop offset="0.34" stop-color="#D2D4DC"/>
<stop offset="0.55" stop-color="#D5D7DF"/>
<stop offset="0.66" stop-color="#C0C1CA"/>
<stop offset="1" stop-color="#868490"/>
</linearGradient>
<linearGradient id="paint3_linear_25400_194" x1="30.6844" y1="20.7683" x2="30.0857" y2="20.3718" gradientUnits="userSpaceOnUse">
<stop stop-color="#ADAEB8"/>
<stop offset="0.08" stop-color="#BABBC5"/>
<stop offset="0.2" stop-color="#C9CBD3"/>
<stop offset="0.34" stop-color="#D2D4DC"/>
<stop offset="0.55" stop-color="#D5D7DF"/>
<stop offset="0.66" stop-color="#C0C1CA"/>
<stop offset="1" stop-color="#868490"/>
</linearGradient>
<linearGradient id="paint4_linear_25400_194" x1="32.069" y1="19.6566" x2="31.8227" y2="18.929" gradientUnits="userSpaceOnUse">
<stop stop-color="#ADAEB8"/>
<stop offset="0.08" stop-color="#BABBC5"/>
<stop offset="0.2" stop-color="#C9CBD3"/>
<stop offset="0.34" stop-color="#D2D4DC"/>
<stop offset="0.55" stop-color="#D5D7DF"/>
<stop offset="0.66" stop-color="#C0C1CA"/>
<stop offset="1" stop-color="#868490"/>
</linearGradient>
<linearGradient id="paint5_linear_25400_194" x1="14.0041" y1="26.9574" x2="16.7517" y2="23.8346" gradientUnits="userSpaceOnUse">
<stop offset="0.27" stop-color="#ECEEF7"/>
<stop offset="0.77" stop-color="#9C9AA8"/>
</linearGradient>
<linearGradient id="paint6_linear_25400_194" x1="15.2803" y1="26.0506" x2="14.6255" y2="24.1064" gradientUnits="userSpaceOnUse">
<stop offset="0.26" stop-color="#393843"/>
<stop offset="0.78" stop-color="#23222E"/>
</linearGradient>
<linearGradient id="paint7_linear_25400_194" x1="15.3866" y1="24.7274" x2="14.5337" y2="24.7974" gradientUnits="userSpaceOnUse">
<stop stop-color="#ADAEB8"/>
<stop offset="0.08" stop-color="#BABBC5"/>
<stop offset="0.2" stop-color="#C9CBD3"/>
<stop offset="0.34" stop-color="#D2D4DC"/>
<stop offset="0.55" stop-color="#D5D7DF"/>
<stop offset="0.66" stop-color="#C0C1CA"/>
<stop offset="1" stop-color="#868490"/>
</linearGradient>
<linearGradient id="paint8_linear_25400_194" x1="14.7" y1="26.1838" x2="14.0983" y2="25.7867" gradientUnits="userSpaceOnUse">
<stop stop-color="#ADAEB8"/>
<stop offset="0.08" stop-color="#BABBC5"/>
<stop offset="0.2" stop-color="#C9CBD3"/>
<stop offset="0.34" stop-color="#D2D4DC"/>
<stop offset="0.55" stop-color="#D5D7DF"/>
<stop offset="0.66" stop-color="#C0C1CA"/>
<stop offset="1" stop-color="#868490"/>
</linearGradient>
<linearGradient id="paint9_linear_25400_194" x1="16.0762" y1="25.0723" x2="15.8306" y2="24.3416" gradientUnits="userSpaceOnUse">
<stop stop-color="#ADAEB8"/>
<stop offset="0.08" stop-color="#BABBC5"/>
<stop offset="0.2" stop-color="#C9CBD3"/>
<stop offset="0.34" stop-color="#D2D4DC"/>
<stop offset="0.55" stop-color="#D5D7DF"/>
<stop offset="0.66" stop-color="#C0C1CA"/>
<stop offset="1" stop-color="#868490"/>
</linearGradient>
</defs>
</svg>
