<svg width="40" height="35" viewBox="0 0 40 35" fill="none" xmlns="http://www.w3.org/2000/svg">
<path d="M33.6186 22.7534L31.7219 20.9581L27.4977 22.8936L17.163 26.7229L15.8452 25.3275L10.4981 27.0712L13.7484 14.9762L35.875 17.1064L33.6186 22.7534Z" fill="#292929"/>
<path d="M15.3838 23.089L16.8431 24.6179L12.6732 28.527L11.2118 26.9941L12.7145 24.036L15.3838 23.089Z" fill="#333333"/>
<path d="M31.8135 19.1046L33.2728 20.6336L29.1226 24.5648L27.6612 23.032L29.3082 20.0636L31.8135 19.1046Z" fill="#333333"/>
<path d="M11.7153 13.1623C11.6922 13.2409 11.6648 13.3117 11.6346 13.3586C11.6346 13.3586 11.6337 13.3617 11.6328 13.3647C11.6206 13.3841 11.6071 13.3965 11.5914 13.4051C11.5797 13.4115 11.5649 13.417 11.5462 13.4246C11.4755 13.4531 11.3588 13.4813 11.2356 13.4648C11.1914 13.4584 11.1452 13.4481 11.1007 13.4318C11.1007 13.4318 11.0856 13.4273 11.0765 13.4246C11.0299 13.4044 10.983 13.3742 10.9417 13.3358C10.9344 13.3271 10.9241 13.3175 10.9138 13.3079C10.9138 13.3079 10.8931 13.2887 10.8837 13.276C10.7008 13.0712 10.5141 12.7339 10.4697 12.4713C10.4644 12.4336 10.4599 12.3928 10.4606 12.3569C10.461 12.311 10.4643 12.266 10.4746 12.2198C10.4773 12.2107 10.4808 12.1986 10.4835 12.1895C10.4911 12.1524 10.4988 12.1152 10.5085 12.0819C10.5165 12.0547 10.5236 12.0305 10.5307 12.0063C10.5352 11.9912 10.5396 11.9761 10.5471 11.9619C10.5643 11.9144 10.5876 11.8687 10.616 11.8278C10.6704 11.732 10.7397 11.6637 10.8084 11.6313C10.8683 11.6062 10.9281 11.6041 10.998 11.6345C11.1408 11.6961 11.3173 11.8892 11.6082 12.2407C11.7292 12.3879 11.8189 12.608 11.8172 12.7816C11.8163 12.7847 11.8146 12.7907 11.8167 12.7946C11.8156 12.8206 11.8107 12.8487 11.8036 12.8729C11.7938 12.9061 11.7814 12.9485 11.7728 12.9887C11.756 13.0461 11.7382 13.1066 11.7213 13.164L11.7153 13.1623Z" fill="#5B73FF"/>
<path d="M11.4541 12.9353L11.4399 12.9836C11.4399 12.9836 11.4381 12.9897 11.4363 12.9957C11.4044 13.1046 11.356 13.2021 11.2966 13.27C11.249 13.3316 11.1916 13.3705 11.127 13.3779C11.0586 13.3873 10.983 13.3651 10.9008 13.2983C10.9008 13.2983 10.8801 13.2791 10.8668 13.2686C10.6467 13.0561 10.4888 12.7437 10.4528 12.4638C10.4475 12.4261 10.443 12.3854 10.4437 12.3494C10.4432 12.3066 10.4465 12.2616 10.455 12.2214L10.4577 12.2123C10.4577 12.2123 10.4639 12.1912 10.4666 12.1821C10.4742 12.1449 10.4818 12.1077 10.4916 12.0745C10.4996 12.0473 10.5067 12.0231 10.5138 11.9989C10.5174 11.9868 10.5218 11.9717 10.5254 11.9596C10.5461 11.9 10.5725 11.8552 10.5952 11.8224C10.6359 11.7621 10.6798 11.7356 10.7149 11.7393C10.733 11.7447 10.7572 11.7518 10.7874 11.7606C10.9052 11.8182 11.0932 11.972 11.202 12.1386C11.336 12.3422 11.5475 12.5948 11.4541 12.9353Z" fill="#5B84FF"/>
<path d="M28.5338 14.1029C28.0365 14.5546 27.5018 15.1005 26.699 15.295L26.4696 15.3491L26.7254 14.4783C27.1473 13.042 26.3031 12.17 24.8399 12.522C23.3788 12.8779 21.8495 14.3272 21.4285 15.7604L21.1728 16.6313L10.0434 19.3306L10.2991 18.4597C10.721 17.0234 9.87766 16.1484 8.41357 16.5034C6.94949 16.8584 5.42321 18.3086 5.00136 19.7449L4.56353 21.2356C4.18493 21.328 4.18467 21.5973 4.18467 21.5973C4.18467 21.5973 3.08411 21.4974 2.64362 21.1184C2.56018 21.0446 2.69681 19.2487 2.99895 18.7232C3.30109 18.1977 3.49704 17.6312 4.77063 16.7505C5.82055 16.0276 9.65788 14.3693 9.65788 14.3693C9.65788 14.3693 14.6384 10.8987 16.8002 10.1475C19.2853 9.29096 27.7765 7.01896 28.2921 7.07515C29.3143 7.18485 29.8597 8.89536 29.931 9.43528C29.9347 9.45609 29.6936 11.0374 29.696 11.1301C29.7048 11.4578 29.8121 11.8868 29.812 12.1331C29.8089 12.3785 29.0281 13.6503 28.5329 14.1059L28.5338 14.1029Z" fill="#2E2F35"/>
<path d="M2.99593 18.727C3.38707 17.9321 3.81021 17.5538 3.81021 17.5538C3.81021 17.5538 4.8338 16.8198 5.37287 16.3935C5.91195 15.9671 10.4062 13.8613 10.4062 13.8613L8.98561 17.6582L2.99895 18.7279L2.99593 18.727Z" fill="#5B73FF"/>
<path d="M29.816 12.1307C29.816 11.8844 29.7118 11.4564 29.7 11.1277C29.698 11.045 29.8828 9.81177 29.9275 9.50301C28.9843 9.72852 26.7416 10.0059 25.5621 10.3427C23.9908 10.7943 19.3975 12.3422 18.4919 12.6412C17.5832 12.9392 11.7768 15.1063 9.5853 15.5335C7.38993 15.9627 5.32342 17.586 4.91999 17.8748C4.51568 18.1666 3.91023 18.4946 3.00507 18.7248C2.70293 19.2502 2.56631 21.0462 2.64974 21.12C3.08632 21.5011 4.19079 21.5989 4.19079 21.5989C4.19079 21.5989 4.19105 21.3296 4.56965 21.2372L5.00748 19.7464C5.42933 18.3102 6.95561 16.86 8.41969 16.505C9.88378 16.15 10.7271 17.025 10.3053 18.4613L10.0495 19.3321L21.1789 16.6328L21.4347 15.762C21.8565 14.3257 23.3828 12.8755 24.846 12.5235C26.3101 12.1685 27.1534 13.0436 26.7315 14.4799L26.4758 15.3507L26.7052 15.2965C27.5079 15.102 28.0427 14.5562 28.5399 14.1044C29.0381 13.6497 29.7714 12.3607 29.819 12.1316L29.816 12.1307Z" fill="#495DCF"/>
<path d="M9.91596 18.5525C9.55361 19.7862 8.24139 21.0332 6.9859 21.3378C5.73041 21.6424 5.00522 20.8907 5.36756 19.6571C5.72991 18.4234 7.04213 17.1763 8.29762 16.8717C9.55311 16.5672 10.2783 17.3188 9.91596 18.5525Z" fill="#1F2024"/>
<path d="M26.3456 14.5706C25.9833 15.8043 24.6711 17.0513 23.4156 17.3559C22.1601 17.6605 21.4349 16.9088 21.7973 15.6751C22.1596 14.4414 23.4718 13.1944 24.7273 12.8898C25.9828 12.5852 26.708 13.3369 26.3456 14.5706Z" fill="#1F2024"/>
<path d="M29.6879 11.1261C29.6791 10.7984 29.9943 9.97126 29.9229 9.43134C29.8516 8.89143 29.3032 7.18003 28.2841 7.07121C28.0989 7.05296 26.8982 7.32766 25.3182 7.73072C25.3212 7.73161 27.8891 7.20813 28.1198 7.32844C28.3506 7.44876 29.4615 8.77686 29.4489 9.61399C29.4332 10.4502 29.2205 10.6374 29.2036 11.0529C29.1858 11.4714 29.7523 11.6673 29.7523 11.6673C29.7238 11.4848 29.6949 11.2924 29.6888 11.1231L29.6879 11.1261Z" fill="#2E2F35"/>
<path d="M10.6327 18.379L10.3769 19.2499L10.0339 19.3331L10.2896 18.4622C10.7115 17.026 9.86816 16.1509 8.40408 16.5059C6.93999 16.8609 5.41372 18.3111 4.99187 19.7474L4.55404 21.2381L4.211 21.3213L4.64883 19.8306C5.12485 18.2099 6.85078 16.5719 8.50266 16.1703C10.1545 15.7686 11.1087 16.7583 10.6327 18.379Z" fill="#5B73FF"/>
<path d="M27.0615 14.3977L26.8066 15.2655C26.7701 15.2778 26.7315 15.2862 26.6921 15.2976L26.4627 15.3517L26.7184 14.4809C27.1403 13.0446 26.2961 12.1726 24.8329 12.5246C23.3718 12.8804 21.8425 14.3298 21.4216 15.763L21.1658 16.6339L20.8227 16.717L21.0785 15.8462C21.5545 14.2255 23.2805 12.5876 24.9323 12.1859C26.5842 11.7842 27.5384 12.7739 27.0624 14.3947L27.0615 14.3977Z" fill="#5B73FF"/>
<path d="M29.8538 9.96597C29.8707 9.85268 29.8858 9.74543 29.8985 9.65721C29.9072 9.59408 29.9163 9.5409 29.9209 9.50283C29.7656 9.53935 29.5778 9.58602 29.3692 9.63643C29.2417 9.66795 29.0995 9.705 28.9403 9.74365C28.6753 9.80707 28.3778 9.88063 28.1059 9.94529C27.8292 10.0151 27.3372 9.86733 27.0605 9.93715C27.0728 9.9736 27.1398 10.1706 27.1867 10.2008C27.313 10.2741 28.6659 10.2641 28.9348 10.1986C29.1434 10.1482 29.6383 10.0176 29.8547 9.96295L29.8538 9.96597Z" fill="#FF4566"/>
<path d="M27.8008 14.732C28.0637 14.53 28.2979 14.3032 28.5249 14.1005C29.0231 13.6458 29.7564 12.3568 29.804 12.1277C29.2224 12.5646 28.7396 12.8103 28.4549 13.2095C28.2025 13.5657 27.9725 14.1584 27.8008 14.732Z" fill="#2E2F35"/>
<path d="M10.2914 14.2251C10.2914 14.2251 12.8552 14.0847 13.1804 14.0062C13.5057 13.9276 22.4884 11.0445 22.4884 11.0445L25.8111 9.19243C25.8111 9.19243 25.9867 7.92359 25.6038 7.95237C25.2746 7.97722 18.39 9.83422 16.3877 10.5567C14.3681 11.573 10.2944 14.226 10.2944 14.226L10.2914 14.2251Z" fill="#1F2024"/>
<path d="M20.2315 9.3797L18.3259 12.3674L19.1382 12.1067L20.5938 9.27588L20.2315 9.3797Z" fill="#2E2F35"/>
<path d="M16.2238 10.6372L12.1965 14.1053L12.9665 14.0556L16.5547 10.4946L16.2238 10.6372Z" fill="#2E2F35"/>
<path d="M28.813 7.29363C28.813 7.29363 29.8586 8.08359 30.0858 8.27185C31.4144 9.38467 33.8862 11.8613 34.8691 13.2898C35.0713 13.5857 36.1819 15.4852 36.1819 15.4852L23.2007 16.8851C23.2007 16.8851 22.4769 16.5871 22.265 16.4362C20.1596 14.9376 17.316 12.1054 16.8515 10.7569C16.8024 10.6111 16.7777 10.1473 16.7777 10.1473C16.7777 10.1473 25.1639 7.89702 27.7834 7.254C28.0661 7.18596 28.6717 7.24887 28.8108 7.28972L28.813 7.29363Z" fill="#2E2F35"/>
<path d="M9.6414 14.3734L16.79 21.8729C16.79 21.8729 9.89267 26.0878 9.64599 26.0778C9.56809 26.0746 8.27883 26.9079 7.35346 25.8873C6.09787 24.5035 4.44158 22.6277 3.39752 21.4408C2.79952 20.7593 2.98336 18.7243 2.98336 18.7243L5.208 16.6745L9.6414 14.3734Z" fill="#5B73FF"/>
<path d="M2.63642 21.1204C2.63642 21.1204 2.65947 21.3998 2.75449 21.5459C3.75156 23.1165 6.92344 26.3407 7.44382 26.8056C8.28461 27.5551 9.41008 28.1517 9.41008 28.1517C9.41008 28.1517 11.0183 25.6285 10.4138 25.6513C8.5635 25.7221 3.5376 19.7855 3.12401 19.0465C3.05478 18.9244 2.98872 18.7243 2.98872 18.7243L2.63339 21.1195L2.63642 21.1204Z" fill="#495DCF"/>
<path d="M16.0164 21.5129C14.4035 21.8604 12.2168 23.2776 11.1025 23.4594C9.98817 23.6412 9.62276 25.232 7.96962 23.6921C5.18657 21.101 4.28594 19.6606 4.28594 19.6606C4.28594 19.6606 4.62596 18.1675 5.13788 17.431C5.6507 16.6915 9.89274 14.863 9.89274 14.863C9.89274 14.863 11.3233 18.5251 16.0155 21.516L16.0164 21.5129Z" fill="#5B84FF"/>
<path d="M10.3412 13.8967C10.1037 14.0568 9.81457 14.3365 9.72213 14.8973C9.61629 15.3359 9.58485 15.9015 10.0055 16.4487C10.8754 17.5911 12.04 18.994 13.3154 20.0978C13.8888 20.5947 14.8164 20.9591 15.3648 21.3172C15.5578 21.4429 16.791 21.8741 16.791 21.8741L23.2048 16.8898L16.7839 10.1559C16.7839 10.1559 12.8171 12.2327 10.3403 13.8997L10.3412 13.8967Z" fill="#2E2F35"/>
<path d="M21.2825 17.08C22.43 16.3266 27.0105 14.8669 32.17 13.7283C32.3777 13.6809 32.4923 13.4584 32.4085 13.263C32.3225 13.0636 32.2198 12.843 32.1482 12.7399C31.3016 11.4959 29.1691 9.32914 27.9981 8.38415C27.9241 8.323 27.7944 8.23892 27.6496 8.15041C27.2101 7.88007 26.6831 7.78441 26.1771 7.88544C21.0893 8.88081 17.0981 10.4479 16.5437 10.6694C15.9627 10.9027 15.6117 11.1248 15.6117 11.1248L15.6415 15.0718L21.2873 17.0749L21.2825 17.08Z" fill="#3D3C51"/>
<path d="M9.33944 26.3806C9.31512 26.5081 9.29294 26.6396 9.27378 26.7719C9.27289 26.7749 9.27112 26.781 9.26934 26.787C9.1961 27.3272 9.17051 27.8616 9.20204 27.9891C9.20453 28.003 9.20791 28.0138 9.21396 28.0156C9.2531 28.0501 9.29704 28.0794 9.344 28.1096C9.35308 28.1123 9.36037 28.121 9.36642 28.1228C9.37549 28.1254 9.38065 28.1302 9.38581 28.135C9.39488 28.1377 9.40306 28.1434 9.40609 28.1443C9.41213 28.1461 9.41516 28.1469 9.41516 28.1469C9.44362 28.1619 9.4751 28.1777 9.50356 28.1926C9.51264 28.1953 9.52473 28.1988 9.53291 28.2045C9.56137 28.2195 9.5877 28.2305 9.62096 28.2402C9.66152 28.2587 9.70385 28.2712 9.74832 28.2875C9.78763 28.299 9.82391 28.3097 9.86322 28.3212C10.3047 28.4509 10.7559 28.4915 10.7559 28.4915C10.7559 28.4915 10.8269 28.4959 10.9316 28.4971C10.9446 28.4976 10.9615 28.496 10.9805 28.4983C11.0264 28.4987 11.0792 28.4978 11.1321 28.4968C11.155 28.497 11.1818 28.495 11.2078 28.4961C11.2905 28.4941 11.3771 28.49 11.4616 28.482C11.579 28.4737 11.6951 28.4586 11.7949 28.432L12.1448 27.2407C12.5666 25.8044 14.0929 24.3542 15.557 23.9992C17.0211 23.6442 17.8614 24.5183 17.4395 25.9546L17.181 26.7228L17.5241 26.6397L28.3104 24.0236L28.568 23.2584C28.9899 21.8221 30.5162 20.3719 31.9802 20.0169C33.4443 19.6619 34.2877 20.5369 33.8658 21.9732L33.6367 22.7533C33.9006 22.66 34.5955 22.4076 34.8083 22.2533C35.0686 22.0604 35.6689 21.5601 35.8617 21.1832C36.0536 20.8092 36.4897 19.8501 36.5623 19.4576C36.6388 19.0629 36.4537 18.7425 36.4568 18.3854C36.4609 18.0581 36.4929 17.0657 36.4975 16.5021C36.4996 16.4502 36.4969 16.4034 36.4973 16.3576C36.497 16.1571 36.3717 15.8346 36.1916 15.486C35.9073 14.9329 35.4812 14.315 35.21 14.0416C35.21 14.0416 35.2079 14.0377 35.2057 14.0338C35.1954 14.0242 35.192 14.0133 35.1917 14.0033C35.1344 13.9635 35.0784 13.9306 35.0236 13.9047C34.9951 13.8898 34.9688 13.8788 34.9394 13.8669C34.8838 13.8439 34.8293 13.8279 34.7731 13.818C34.758 13.8136 34.7429 13.8091 34.726 13.8107C34.72 13.809 34.7139 13.8072 34.7079 13.8054C34.6988 13.8027 34.6888 13.8031 34.6789 13.8035C34.6759 13.8026 34.6689 13.8038 34.662 13.8051C34.6481 13.8076 34.6351 13.807 34.6182 13.8086C34.6122 13.8069 34.6013 13.8102 34.5944 13.8115C34.5944 13.8115 34.5884 13.8097 34.5875 13.8127C34.5775 13.8131 34.5667 13.8165 34.5567 13.8168C34.5359 13.8206 34.5151 13.8243 34.4913 13.8272C34.4557 13.8364 34.415 13.8409 34.3694 13.8505C34.3387 13.8546 34.307 13.8618 34.2754 13.8689C34.2268 13.8776 34.1744 13.8885 34.118 13.9015C34.0902 13.9065 34.0616 13.9145 34.0339 13.9195C34.0022 13.9266 33.9745 13.9316 33.9428 13.9387C33.9012 13.9462 33.8587 13.9567 33.8132 13.9663C33.7568 13.9793 33.7004 13.9923 33.641 14.0045C33.5816 14.0166 33.5214 14.0317 33.4572 14.049C33.38 14.0657 33.3019 14.0855 33.2208 14.1044C33.1111 14.1313 32.9984 14.1573 32.8817 14.1854C32.854 14.1904 32.8253 14.1984 32.7928 14.2086C32.7039 14.2317 32.6119 14.254 32.517 14.2754C32.4853 14.2825 32.4537 14.2896 32.4211 14.2998C32.3717 14.3115 32.3213 14.3263 32.2689 14.3372C32.2689 14.3372 32.2689 14.3372 32.2659 14.3363C32.1661 14.3628 32.0603 14.3876 31.9536 14.4154C31.9536 14.4154 31.9475 14.4136 31.9436 14.4158C31.8933 14.4305 31.8439 14.4423 31.7905 14.4562C31.7875 14.4553 31.7806 14.4565 31.7767 14.4587C31.7767 14.4587 31.7706 14.4569 31.7667 14.459C28.9189 15.1861 24.8265 16.326 23.2211 16.8826C22.9247 16.986 22.5858 17.1558 22.2236 17.3713C22.1962 17.3863 22.1679 17.4042 22.1406 17.4192C22.0449 17.4765 21.9514 17.5377 21.8539 17.6011C21.8452 17.6084 21.8374 17.6126 21.8257 17.619C21.777 17.6507 21.7282 17.6824 21.6786 17.7171C21.6416 17.7424 21.6007 17.7698 21.5638 17.795C21.5229 17.8224 21.482 17.8498 21.4402 17.8803C21.3984 17.9107 21.3536 17.9402 21.3079 17.9728C21.2526 18.0157 21.1943 18.0577 21.136 18.0997C21.0737 18.1438 21.0137 18.1918 20.9514 18.236C20.8961 18.2788 20.8378 18.3208 20.7825 18.3637C20.6506 18.4662 20.5139 18.5739 20.3771 18.6815C20.287 18.7536 20.2008 18.8235 20.1106 18.8956C19.9769 19.0041 19.8463 19.1135 19.7165 19.2199C19.5248 19.3804 19.3362 19.5418 19.1545 19.7019C19.0935 19.753 19.0346 19.808 18.9737 19.859C18.8896 19.9329 18.8055 20.0067 18.7253 20.0784C18.7253 20.0784 18.7244 20.0814 18.7214 20.0805C18.6817 20.1149 18.6451 20.1501 18.6055 20.1845C18.5292 20.254 18.4538 20.3206 18.3784 20.3871C18.3427 20.4193 18.3061 20.4545 18.2703 20.4867C18.0821 20.6581 17.9103 20.8179 17.7521 20.9652C17.6758 21.0347 17.6026 21.1052 17.5341 21.1705C17.5254 21.1778 17.5167 21.1851 17.511 21.1933C17.484 21.2182 17.457 21.2431 17.433 21.2689C17.433 21.2689 17.4291 21.271 17.4282 21.274C17.3924 21.3062 17.3597 21.3393 17.327 21.3724C17.1949 21.4979 17.085 21.6035 17.0022 21.6843C16.9734 21.7153 16.9464 21.7402 16.9233 21.763C16.8539 21.8313 16.8164 21.8695 16.8164 21.8695C16.8164 21.8695 13.1685 23.1959 12.28 23.5819C11.0066 24.1375 10.0914 24.9165 9.6987 25.4482C9.65408 25.5106 9.61426 25.5679 9.5853 25.6218C9.49234 25.7817 9.41668 26.0617 9.35722 26.376L9.33944 26.3806Z" fill="#546AEB"/>
<path d="M9.32764 26.3756C9.30546 26.5071 9.2863 26.6394 9.27017 26.7726C9.26928 26.7756 9.2675 26.7817 9.26572 26.7877C9.19586 27.3387 9.16991 27.8632 9.19842 27.9898C9.20091 28.0037 9.2043 28.0145 9.21034 28.0163C9.25464 28.0556 9.30676 28.0906 9.3628 28.1235C9.37187 28.1262 9.37703 28.131 9.38219 28.1358C9.39126 28.1384 9.39944 28.1441 9.40246 28.145C9.40246 28.145 9.40851 28.1468 9.41154 28.1477C9.44 28.1626 9.47149 28.1784 9.49994 28.1933C9.50902 28.196 9.52111 28.1996 9.52929 28.2052C9.55776 28.2202 9.58408 28.2312 9.61734 28.241C9.6579 28.2594 9.70023 28.2719 9.7447 28.2882C9.78401 28.2998 9.82029 28.3104 9.8596 28.322C10.3011 28.4516 10.7523 28.4922 10.7523 28.4922C10.7523 28.4922 10.8232 28.4966 10.928 28.4978C10.941 28.4983 10.9579 28.4967 10.9769 28.499C11.0228 28.4994 11.0756 28.4985 11.1284 28.4976C11.1514 28.4977 11.1782 28.4958 11.2042 28.4968C11.2869 28.4948 11.3735 28.4907 11.458 28.4827C11.5754 28.4745 11.6915 28.4593 11.7912 28.4328L12.1412 27.2414C12.563 25.8051 14.0893 24.3549 15.5534 23.9999C17.0175 23.6449 17.8578 24.5191 17.4359 25.9553L17.1774 26.7236L17.5205 26.6404L28.3068 24.0243L28.5644 23.2591C28.9863 21.8228 30.5125 20.3726 31.9766 20.0176C33.4407 19.6626 34.284 20.5376 33.8622 21.9739L33.6331 22.754C33.8969 22.6607 34.5919 22.4083 34.8047 22.254C35.065 22.0611 35.6652 21.5608 35.8581 21.1839C36.05 20.81 36.4861 19.8509 36.5587 19.4583C36.6352 19.0636 36.4501 18.7432 36.4531 18.3861C36.4573 18.0589 36.4893 17.0665 36.4939 16.5029C36.496 16.4509 36.4933 16.4042 36.4936 16.3583C36.4711 16.3681 36.4446 16.38 36.422 16.3898C34.4272 17.2655 33.8605 17.5064 32.6948 17.8406C31.1236 18.2923 26.5303 19.8402 25.6247 20.1391C24.716 20.4372 21.0743 21.7982 18.8678 22.1651C15.334 22.7563 12.0868 25.0445 11.6803 25.3324C11.2895 25.6117 10.4645 25.7143 9.67605 25.4466C9.64581 25.4377 9.61557 25.4288 9.58711 25.4139C9.48012 25.5993 9.39258 25.9644 9.32639 26.3687L9.32764 26.3756Z" fill="#495DCF"/>
<path d="M2.72016 19.7241C2.5698 20.4485 2.5743 21.0706 2.63799 21.1222C2.63799 21.1222 2.66104 21.4015 2.75606 21.5477C3.75313 23.1182 6.92501 26.3425 7.44539 26.8074C8.18513 27.4648 9.14304 28.0056 9.36682 28.1272C9.37589 28.1298 9.38105 28.1346 9.38621 28.1394C9.39528 28.1421 9.40347 28.1478 9.40649 28.1487C9.41254 28.1504 9.41556 28.1513 9.41556 28.1513C9.44402 28.1663 9.47551 28.1821 9.50397 28.197C9.51304 28.1997 9.52514 28.2032 9.53332 28.2089C9.56178 28.2238 9.5881 28.2349 9.62136 28.2446C9.66192 28.2631 9.70425 28.2755 9.74872 28.2919C9.78803 28.3034 9.82432 28.3141 9.86363 28.3256C10.3051 28.4553 10.7563 28.4959 10.7563 28.4959C10.7563 28.4959 10.8273 28.5003 10.932 28.5015C10.945 28.502 10.9619 28.5004 10.9809 28.5027C11.0268 28.503 11.0796 28.5021 11.1325 28.5012C11.1554 28.5014 11.1823 28.4994 11.2082 28.5005C11.2909 28.4985 11.3775 28.4944 11.462 28.4863C11.5794 28.4781 11.6955 28.463 11.7953 28.4364L12.1452 27.2451C12.567 25.8088 14.0933 24.3586 15.5574 24.0036C17.0215 23.6486 17.8618 24.5227 17.4399 25.959L17.1815 26.7272L17.5245 26.6441L27.9678 24.1111L28.3108 24.0279L28.5684 23.2627C28.9903 21.8265 30.5166 20.3763 31.9806 20.0213C33.4447 19.6663 34.2881 20.5413 33.8662 21.9776L33.6371 22.7577C33.7208 22.7298 33.8498 22.6822 33.9943 22.6261C34.2973 22.5115 34.6668 22.3605 34.8096 22.2547C35.0699 22.0618 35.6701 21.5615 35.863 21.1845C36.0549 20.8106 36.491 19.8515 36.5636 19.459C36.4143 19.7436 35.5103 20.1711 35.2707 20.1927C34.703 20.1574 34.5254 18.8275 32.2823 19.2624C30.0384 19.7004 28.8519 20.922 28.3785 21.9523C27.9051 22.9825 27.6276 23.6926 27.1171 23.8875C26.6074 24.0794 19.1365 25.7183 18.0577 25.8908C18.0834 25.4681 18.0751 25.1832 18.0161 24.7914C17.7271 23.4157 16.6715 23.2633 15.7605 23.4687C12.5495 24.2468 11.8412 26.6138 11.7182 26.8536C11.6036 27.0761 10.8031 27.1958 10.0579 26.9933C9.99437 26.9747 8.71512 26.0406 8.43959 25.9498C8.10965 25.843 5.41376 23.2907 4.08905 21.5943C3.70222 21.0997 3.43334 20.6955 3.28831 20.4624C2.87759 19.8031 2.7433 19.7571 2.71625 19.7262L2.72016 19.7241Z" fill="#4052B5"/>
<path d="M11.9316 26.9486C13.1733 23.7495 15.2578 23.0939 16.4437 23.071C17.498 23.0489 18.4907 24.0303 17.8454 25.6571C17.7235 24.048 16.967 23.7273 16.1649 23.7183C15.3628 23.7094 13.3464 24.5919 11.9307 26.9516L11.9316 26.9486Z" fill="#5B73FF"/>
<path d="M28.2305 23.3073C29.0369 20.5617 30.7977 19.476 32.196 19.0655C33.5912 18.6542 34.6552 19.9521 34.3266 21.0709C33.8256 20.1486 33.0443 19.5545 32.2199 19.7558C31.3985 19.9579 29.5694 20.6721 28.2305 23.3073Z" fill="#5B73FF"/>
<path d="M27.6956 23.2993C27.4601 23.598 27.1317 23.8103 26.763 23.9024C24.9458 24.3639 19.1094 25.839 18.9712 25.7951C18.1852 25.5413 23.7437 23.9386 24.8779 23.7002C25.6232 23.5447 28.0854 22.7996 27.6926 23.2984L27.6956 23.2993Z" fill="#5B73FF"/>
<path d="M16.7898 21.8733L17.4346 21.7244L32.9522 16.6878C32.9522 16.6878 34.4618 16.2115 35.8549 15.6287C35.9669 15.5827 36.0759 15.5359 36.1849 15.4891C35.9007 14.9359 35.4745 14.3181 35.2033 14.0446C35.2033 14.0446 35.2012 14.0407 35.1991 14.0368C35.0311 13.9152 34.8646 13.8335 34.7193 13.8138C34.7133 13.812 34.7072 13.8102 34.7012 13.8085C34.6921 13.8058 34.6822 13.8062 34.6722 13.8065C34.6523 13.8072 34.6215 13.8113 34.5877 13.8146C34.5877 13.8146 34.5817 13.8128 34.5808 13.8158C34.5054 13.8265 34.3983 13.8443 34.2665 13.868C34.1686 13.8885 34.0567 13.9115 33.931 13.937C33.8894 13.9445 33.8469 13.955 33.8013 13.9646C33.6916 13.9915 33.5689 14.0179 33.4423 14.0464C33.3651 14.0631 33.287 14.0829 33.206 14.1018C33.0962 14.1287 32.9835 14.1547 32.8668 14.1828C32.8391 14.1878 32.8105 14.1958 32.7779 14.206C32.689 14.2291 32.5971 14.2514 32.5021 14.2728C32.4704 14.2799 32.4388 14.287 32.4062 14.2972C32.2046 14.3463 31.9942 14.4028 31.7748 14.4566C31.7717 14.4557 31.7648 14.4569 31.7609 14.4591C31.7609 14.4591 31.7548 14.4573 31.7509 14.4594C28.9032 15.1865 24.8108 16.3264 23.2054 16.883C22.909 16.9864 22.57 17.1562 22.2078 17.3717C22.1805 17.3867 22.1522 17.4046 22.1248 17.4196C22.0291 17.4769 21.9356 17.5381 21.8382 17.6015C21.8295 17.6088 21.8217 17.613 21.8099 17.6194C21.7612 17.6511 21.7125 17.6828 21.6629 17.7175C21.6259 17.7428 21.585 17.7702 21.548 17.7954C21.5071 17.8228 21.4662 17.8502 21.4244 17.8807C21.3827 17.9111 21.3379 17.9406 21.2922 17.9732C21.2369 18.0161 21.1785 18.0581 21.1202 18.1001C21.058 18.1442 20.9979 18.1922 20.9357 18.2364C20.8804 18.2792 20.8221 18.3212 20.7668 18.3641C20.6348 18.4666 20.4981 18.5743 20.3614 18.6819C20.2712 18.754 20.185 18.8239 20.0949 18.896C19.9612 19.0045 19.8305 19.1139 19.7007 19.2203C19.4472 19.4349 19.1967 19.6504 18.9579 19.8594C18.8738 19.9333 18.7897 20.0071 18.7095 20.0788C18.7095 20.0788 18.7086 20.0818 18.7056 20.0809C18.666 20.1153 18.6294 20.1505 18.5897 20.1848C18.5134 20.2544 18.4381 20.321 18.3627 20.3875C18.3269 20.4197 18.2903 20.4549 18.2546 20.4871C18.0663 20.6585 17.8946 20.8182 17.7363 20.9656C17.6592 21.0382 17.5868 21.1056 17.5184 21.1709C17.5097 21.1782 17.5009 21.1855 17.4953 21.1937C17.4682 21.2186 17.4412 21.2435 17.4172 21.2693C17.4172 21.2693 17.4133 21.2714 17.4124 21.2744C17.3767 21.3066 17.344 21.3397 17.3113 21.3728C17.1792 21.4983 17.0693 21.6039 16.9864 21.6847C16.9546 21.7148 16.9306 21.7406 16.9075 21.7633C16.8382 21.8317 16.8007 21.8699 16.8007 21.8699L16.7898 21.8733Z" fill="#5B84FF"/>
<path d="M17.0644 26.0525C16.702 27.2862 15.3898 28.5332 14.1343 28.8378C12.8788 29.1424 12.1537 28.3907 12.516 27.1571C12.8783 25.9234 14.1906 24.6763 15.4461 24.3717C16.7015 24.0672 17.4267 24.8188 17.0644 26.0525Z" fill="#1F2024"/>
<path d="M33.4863 22.0676C33.1239 23.3013 31.8117 24.5484 30.5562 24.8529C29.3007 25.1575 28.5755 24.4059 28.9379 23.1722C29.3002 21.9385 30.6124 20.6915 31.8679 20.3869C33.1234 20.0823 33.8486 20.834 33.4863 22.0676Z" fill="#1F2024"/>
<path d="M18.3155 26.1701C18.6058 26.2554 25.0536 24.6445 27.8315 23.9429L27.8631 23.9358L27.8729 23.9026C27.8779 23.8744 28.5347 21.0455 31.2957 19.462C31.7957 19.1687 32.6108 18.183 32.7529 17.8667C33.014 17.2799 32.2102 15.3194 32.1753 15.2369L32.0742 15.2795C32.0818 15.2981 32.8962 17.2782 32.6545 17.8214C32.5318 18.0941 31.7562 19.0684 31.2444 19.3681C28.6056 20.8824 27.861 23.518 27.7781 23.8451C24.2195 24.7444 18.9104 26.046 18.3937 26.0716C18.3876 25.7347 18.4822 23.5225 18.8605 22.4807C18.9285 22.2937 19.8012 21.1344 20.1316 20.7026L20.0455 20.6379C19.997 20.7025 18.8456 22.207 18.7586 22.4475C18.3578 23.5549 18.2614 25.9407 18.2912 26.1301L18.294 26.154L18.3155 26.1701C18.3155 26.1701 18.3186 26.171 18.3216 26.1719L18.3155 26.1701Z" fill="#4255BA"/>
<path d="M24.8894 24.6053L24.9984 24.6143C24.9984 24.6143 25.0474 24.067 25.2557 23.6487C25.5875 22.9775 26.2068 20.2986 26.2176 20.016C26.2276 19.7134 26.3925 17.9553 26.3948 17.9363L26.2858 17.9273C26.2775 18.0004 26.1177 19.7074 26.1068 20.013C26.0978 20.2895 25.4852 22.9344 25.1582 23.6003C24.9407 24.039 24.8926 24.5832 24.8924 24.6062L24.8894 24.6053Z" fill="#4255BA"/>
<path d="M31.7576 14.4616C31.7576 14.4616 31.7676 14.4612 31.7715 14.4591C32.0606 14.4028 33.9418 14.0258 34.1543 14.1408C34.3363 14.2369 35.0587 14.6626 35.8594 15.6269C36.043 15.8516 36.2347 16.105 36.4235 16.3904C36.4423 16.4156 36.4573 16.443 36.4752 16.4713C36.4816 16.483 36.4889 16.4917 36.4954 16.5035C36.4975 16.4515 36.4948 16.4048 36.4951 16.3589C36.4949 16.1584 36.3695 15.8359 36.1894 15.4874C35.9052 14.9342 35.479 14.3163 35.2079 14.0429C35.2079 14.0429 35.2057 14.039 35.2036 14.0351C35.1933 14.0255 35.1899 14.0146 35.1895 14.0047C35.1323 13.9648 35.0762 13.932 35.0214 13.906C34.993 13.8911 34.9667 13.8801 34.9373 13.8682C34.9049 13.8554 34.8756 13.8435 34.8453 13.8346C34.8 13.8213 34.7546 13.808 34.7066 13.8037C34.6975 13.801 34.6876 13.8014 34.6767 13.8048C34.6737 13.8039 34.6668 13.8051 34.6598 13.8064C34.6469 13.8059 34.633 13.8084 34.6161 13.81C34.61 13.8082 34.5992 13.8116 34.5923 13.8128C34.5923 13.8128 34.5862 13.811 34.5853 13.8141C34.5754 13.8144 34.5645 13.8178 34.5546 13.8182C34.5338 13.8219 34.5129 13.8256 34.4891 13.8285C34.4544 13.8347 34.4128 13.8422 34.3673 13.8518C34.3365 13.8559 34.3049 13.8631 34.2732 13.8702C34.2247 13.8789 34.1722 13.8898 34.1158 13.9028C34.0881 13.9078 34.0595 13.9158 34.0317 13.9208C34.0001 13.9279 33.9723 13.9329 33.9407 13.94C33.8991 13.9475 33.8566 13.958 33.811 13.9677C33.7547 13.9807 33.6983 13.9937 33.6389 14.0058C33.5795 14.0179 33.5192 14.033 33.455 14.0503C33.3778 14.0671 33.2998 14.0868 33.2187 14.1057C33.109 14.1326 32.9962 14.1586 32.8795 14.1868C32.8518 14.1918 32.8232 14.1998 32.7906 14.2099C32.7017 14.2331 32.6098 14.2553 32.5148 14.2767C32.4832 14.2838 32.4515 14.291 32.419 14.3011C32.3695 14.3129 32.3192 14.3276 32.2667 14.3385C32.2667 14.3385 32.2667 14.3385 32.2637 14.3376C32.164 14.3642 32.0581 14.3889 31.9515 14.4167C31.9515 14.4167 31.9454 14.4149 31.9415 14.4171C31.8881 14.431 31.8318 14.444 31.7745 14.46L31.7576 14.4616Z" fill="#2E2F35"/>
<path d="M11.8012 27.3289L11.461 28.487C11.5784 28.4788 11.6945 28.4636 11.7943 28.4371L12.1442 27.2457C12.5661 25.8095 14.0923 24.3593 15.5564 24.0043C17.0205 23.6493 17.8608 24.5234 17.439 25.9597L17.1805 26.7279L17.5235 26.6447L17.7811 25.8795C18.2571 24.2588 17.306 23.27 15.6541 23.6716C14.0022 24.0733 12.2763 25.7112 11.8003 27.332L11.8012 27.3289Z" fill="#495DCF"/>
<path d="M28.22 23.3446L27.9616 24.1129L28.3046 24.0297L28.5622 23.2645C28.984 21.8282 30.5103 20.378 31.9744 20.023C33.4385 19.668 34.2818 20.543 33.86 21.9793L33.6308 22.7594C33.7146 22.7315 33.8435 22.684 33.9881 22.6279L34.203 21.8961C34.679 20.2754 33.7248 19.2857 32.073 19.6874C30.4211 20.089 28.6952 21.7269 28.2191 23.3477L28.22 23.3446Z" fill="#495DCF"/>
<path d="M17.4351 21.7249C17.4351 21.7249 19.9989 21.5845 20.3241 21.506C20.6355 21.4299 20.5283 21.4707 29.4216 18.3216L32.9527 16.6883C32.9527 16.6883 32.3997 14.657 32.0168 14.6858C31.6876 14.7106 24.8029 16.5676 22.8006 17.2901C20.781 18.3063 17.4329 21.721 17.4329 21.721L17.4351 21.7249Z" fill="#2E2F35"/>
<path d="M17.8945 21.521C18.8807 21.4625 20.0903 21.381 20.2851 21.3331L20.2989 21.3306C20.49 21.2838 23.5104 20.2264 29.36 18.1584L32.7468 16.5912C32.4991 15.7236 32.1814 14.9602 32.0223 14.8642C31.5772 14.9371 24.9221 16.717 22.8764 17.453C21.2683 18.265 18.7793 20.6445 17.8945 21.521Z" fill="#3D3C51"/>
<path d="M26.3234 16.3066L25.7222 19.5164L26.5375 19.2567L26.6886 16.2037L26.3234 16.3066Z" fill="#2E2F35"/>
<path d="M22.3166 17.6183L19.3431 21.6028L20.1123 21.5561L22.6484 17.4727L22.3166 17.6183Z" fill="#2E2F35"/>
<path d="M8.44674 23.2487C8.9194 23.0821 9.42838 23.0378 9.92212 23.1237C10.7842 23.275 12.0933 23.515 12.2633 23.5846C12.5184 23.6891 12.1561 24.509 11.8983 24.8274C11.6405 25.1458 10.1958 25.0434 9.72838 24.8568C9.35805 24.7087 8.38517 24.0846 7.97117 23.6937C7.87314 23.6025 7.90723 23.4417 8.03526 23.3972L8.44977 23.2496L8.44674 23.2487Z" fill="#B7C8D9"/>
<path d="M7.93548 23.6471C7.88636 23.5571 7.9258 23.434 8.03214 23.3963L8.44664 23.2487C8.9193 23.082 9.42829 23.0377 9.92202 23.1236C10.7841 23.275 12.0932 23.515 12.2632 23.5846C12.413 23.645 12.3492 23.9515 12.2227 24.2592C11.9039 24.3495 11.7357 24.3855 11.5091 24.4076C11.1057 24.4501 10.9777 24.3829 10.6459 24.2264C9.85774 23.8569 9.85772 23.8011 9.40221 23.6968C9.1066 23.6297 8.30878 23.6286 7.9394 23.6449L7.93548 23.6471Z" fill="#9BACBF"/>
<path d="M5.36811 16.3958L5.29706 16.6377C5.29706 16.6377 5.1247 17.0568 5.09343 18.0691C5.07883 18.5214 4.95736 18.9686 4.73929 19.3644C4.68312 19.4661 4.63265 19.5597 4.58751 19.6351C4.52477 19.748 4.36969 19.7616 4.28731 19.6619C3.89124 19.1875 3.52085 18.4021 3.51222 18.1631C3.50127 17.8873 3.69113 17.677 3.69113 17.677C3.69113 17.677 4.49661 16.7574 5.37113 16.3967L5.36811 16.3958Z" fill="#B7C8D9"/>
<path d="M5.36811 16.3958L5.29706 16.6377C5.29706 16.6377 5.1247 17.0568 5.09343 18.0691C5.07883 18.5214 4.95736 18.9686 4.73929 19.3644C4.68312 19.4661 4.63265 19.5597 4.58751 19.6351C4.57258 19.6636 4.55035 19.6833 4.526 19.6991C4.69095 18.9921 4.49185 18.2833 4.56668 17.7042C4.60658 17.4006 4.96332 16.8682 5.29644 16.4273C5.31903 16.4176 5.3425 16.4047 5.36811 16.3958Z" fill="#9BACBF"/>
<path d="M2.87355 21.5465C2.81081 21.1898 2.9221 20.1287 3.09792 20.4135C3.11589 20.4418 3.30226 21.3505 3.34925 21.4366C3.86449 22.4222 7.1311 25.9502 7.76025 26.2236C8.40451 26.5016 8.66282 26.226 8.73277 26.3681C8.80272 26.5101 8.55737 27.2001 8.66221 27.4247C8.76704 27.6493 7.83309 26.9709 7.0898 26.3256C6.96936 26.2213 4.03466 23.2966 2.87444 21.5435L2.87355 21.5465Z" fill="#2E2F35"/>
<path d="M21.7959 17.1724L16.6699 21.2835C16.6699 21.2835 15.6081 21.1523 14.455 20.4261C14.2969 20.3271 15.4111 21.2193 15.4111 21.2193L16.6589 21.8354C16.6589 21.8354 21.0981 17.7032 22.1225 17.2684C22.121 17.1168 21.7959 17.1724 21.7959 17.1724Z" fill="#2E2F35"/>
<path d="M27.2704 7.25447C28.8945 6.85779 29.9125 6.93673 30.3615 7.10801C30.8104 7.27928 32.078 8.33148 33.1994 9.53456C34.3248 10.7355 35.4598 12.1495 35.6361 12.6677C35.8162 13.1837 35.581 13.3807 35.1567 13.5615C34.7325 13.7424 33.6735 13.993 33.6735 13.993C33.6735 13.993 33.4132 12.8885 32.7677 12.0223C32.1221 11.156 30.0462 9.00914 29.6123 8.67477C29.1775 8.34343 28.4252 7.7513 28.0852 7.58905C27.7453 7.4268 27.2713 7.25145 27.2713 7.25145L27.2704 7.25447Z" fill="#2E2F35"/>
<path d="M10.4121 14.326C10.4121 14.326 10.012 15.5651 10.2658 15.9648C11.2888 17.5922 12.7695 19.3278 14.7703 20.6348C14.9521 20.7539 16.294 21.2958 16.294 21.2958L21.2826 17.082C21.2826 17.082 20.5557 16.5039 20.3943 16.3711C18.9939 15.201 16.5988 12.8323 15.8598 11.6134C15.7336 11.4056 15.6558 11.1002 15.6558 11.1002C15.6558 11.1002 12.7135 12.7192 10.4142 14.33L10.4121 14.326Z" fill="#3D3C51"/>
<path d="M17.1379 14.0721L17.4188 14.3681C17.5773 14.5329 17.7254 14.711 17.8707 14.8983C17.9179 14.9614 17.9254 15.0588 17.8851 15.1291L17.785 15.3132C17.7477 15.3844 17.6774 15.3999 17.621 15.357C17.4515 15.2185 17.2864 15.0649 17.1309 14.901L16.85 14.605C16.6914 14.4402 16.5434 14.2621 16.398 14.0748C16.3509 14.0117 16.3434 13.9143 16.3837 13.844L16.4838 13.6599C16.5211 13.5887 16.5913 13.5732 16.6477 13.6161C16.8173 13.7546 16.9824 13.9082 17.1379 14.0721Z" fill="#585775"/>
<path d="M16.9861 14.2985C17.0176 14.2025 17.1171 13.9423 17.1171 13.9423L17.4513 14.0471C17.4513 14.0471 17.3039 14.4148 17.2934 14.4282C17.2574 14.4834 17.1552 14.529 17.1198 14.5153C17.0407 14.4823 16.949 14.4027 16.9822 14.3006L16.9861 14.2985Z" fill="#585775"/>
<path d="M17.1638 13.8699C17.0918 13.9245 17.0854 14.0247 17.1478 14.0924C17.2133 14.161 17.3226 14.1701 17.3955 14.1125C17.4675 14.0579 17.4739 13.9577 17.4115 13.8899C17.349 13.8222 17.2367 13.8123 17.1638 13.8699Z" fill="#626082"/>
<path d="M20.625 9.39062L20.5502 9.41121C20.5748 9.40536 20.6004 9.39648 20.625 9.39062Z" fill="#1F2024"/>
<path d="M16.3088 10.7369L12.2824 14.202C11.44 14.2633 10.375 14.3217 10.375 14.3217C10.375 14.3217 14.4487 11.6686 16.4683 10.6524C16.5234 10.6324 16.5786 10.6125 16.6406 10.5913L16.3097 10.7339L16.3088 10.7369Z" fill="#626082"/>
<path d="M16.6507 10.5948C17.4623 10.3142 18.8623 9.89772 20.3243 9.48296L18.4226 12.4685L19.2349 12.2078L20.6895 9.38003C23.0755 8.70456 25.5057 8.06837 25.6976 8.05247C26.0805 8.02369 25.9049 9.29252 25.9049 9.29252L22.5821 11.1446C22.5821 11.1446 13.5994 14.0277 13.2742 14.1063C13.2386 14.1155 13.1732 14.1259 13.0857 14.133L16.6516 10.5918L16.6507 10.5948Z" fill="#626082"/>
<path d="M21.2827 17.0799C21.2827 17.0799 20.5558 16.5019 20.3945 16.3691C18.994 15.199 16.5989 12.8303 15.8599 11.6114C15.7337 11.4035 15.6559 11.0982 15.6559 11.0982C15.6559 11.0982 15.4877 11.19 15.2033 11.3529L14.9795 11.1196L18.874 9.74748L24.8181 15.98L20.9926 17.3297L21.2849 17.0838L21.2827 17.0799Z" fill="#2E2F35"/>
<path d="M26.1667 15.2598L25.3501 15.5127C24.8846 15.6551 24.3782 15.5228 24.1456 15.1852L19.4546 10.2666C19.1576 10.048 19.2449 9.70578 19.5161 9.6212L20.7072 9.24514L19.9311 9.29309L18.2659 9.85181L24.6007 16.0513L26.5248 15.4274L26.1667 15.2598Z" fill="#2E2F35"/>
<path d="M6.30815 21.6655C6.08103 21.5988 5.95099 21.3606 6.0177 21.1335C6.0844 20.9064 6.32259 20.7764 6.54971 20.8431C6.77682 20.9098 6.90686 21.148 6.84016 21.3751C6.77345 21.6022 6.53526 21.7322 6.30815 21.6655Z" fill="#495DCF"/>
<path d="M34.8298 17.0801L35.2613 17.3218C35.2613 17.3218 36.1543 17.0323 36.3455 16.9407C36.5366 16.849 36.5239 16.635 36.5466 16.4906C36.5694 16.3462 36.3209 15.7608 36.3209 15.7608C36.3209 15.7608 36.4565 16.2047 36.3065 16.4135C36.1565 16.6224 34.8328 17.081 34.8328 17.081L34.8298 17.0801Z" fill="#FF4566"/>
<path d="M28.9379 23.1693C28.5755 24.4029 29.3007 25.1546 30.5562 24.85C31.8117 24.5454 33.1239 23.2984 33.4863 22.0647C33.8486 20.831 33.1234 20.0794 31.8679 20.384C30.6124 20.6885 29.3002 21.9356 28.9379 23.1693Z" fill="#393843"/>
<path d="M29.0452 23.1798C28.697 24.3651 29.3943 25.0888 30.6034 24.7969C31.8124 24.5049 33.0745 23.3056 33.4235 22.1172C33.7726 20.9289 33.0744 20.2082 31.8654 20.5001C30.6563 20.7921 29.3942 21.9914 29.0452 23.1798Z" fill="#2D2C37"/>
<path d="M29.3478 23.1077C29.0511 24.1176 29.6449 24.7354 30.674 24.4858C31.7031 24.2363 32.7781 23.2152 33.0748 22.2053C33.3714 21.1953 32.7777 20.5776 31.7486 20.8271C30.7195 21.0767 29.6444 22.0977 29.3478 23.1077Z" fill="#504F58"/>
<path d="M29.4311 23.0188C29.1496 23.9773 29.7141 24.5603 30.6899 24.3246C31.6656 24.089 32.6858 23.1207 32.9673 22.1622C33.2488 21.2037 32.6843 20.6207 31.7085 20.8564C30.7328 21.0921 29.7126 22.0603 29.4311 23.0188Z" fill="#BABABE"/>
<path d="M32.7745 22.4195C32.5493 22.9512 32.0903 23.4963 31.5084 23.8673C30.9264 24.2384 30.3629 24.3455 29.9747 24.2019C29.8029 24.1383 29.6674 24.0295 29.5828 23.87C29.5542 23.8222 29.5312 23.7662 29.5161 23.7059C29.5127 23.6951 29.5093 23.6842 29.5068 23.6703C29.4963 23.6278 29.4867 23.5823 29.484 23.5355C29.4788 23.4749 29.4775 23.4121 29.4802 23.3472C29.488 23.2312 29.5096 23.1128 29.5451 22.9918C29.5611 22.9374 29.578 22.88 29.604 22.8252C29.6128 22.7949 29.6269 22.7695 29.6388 22.7401C29.6441 22.722 29.6564 22.7026 29.6647 22.6854C29.6701 22.6672 29.6814 22.6508 29.6898 22.6336C29.7148 22.5818 29.7399 22.5301 29.7719 22.4771C29.7859 22.4516 29.8 22.4262 29.817 22.4016C29.8302 22.3792 29.8424 22.3598 29.8547 22.3404C29.8736 22.3098 29.8924 22.2792 29.9134 22.2526C29.9295 22.231 29.9427 22.2086 29.9589 22.1871C30.0262 22.0919 30.1018 22.0024 30.1834 21.9147C30.1987 21.8962 30.217 21.8786 30.2323 21.8601C30.289 21.8012 30.3457 21.7423 30.4076 21.6882C30.422 21.6728 30.4385 21.6612 30.4529 21.6457C30.4799 21.6208 30.5109 21.5938 30.54 21.5728C30.6524 21.481 30.7708 21.3909 30.8926 21.3117C30.9539 21.2706 31.0165 21.2365 31.0791 21.2023C31.1074 21.1843 31.1378 21.1702 31.1652 21.1553C31.173 21.151 31.1839 21.1476 31.1917 21.1434C31.2151 21.1306 31.2377 21.1208 31.2603 21.111C31.5418 20.9802 31.8128 20.9185 32.047 20.9151C32.4648 20.9129 32.7807 21.101 32.8849 21.4732C32.8883 21.484 32.8917 21.4949 32.8951 21.5057C32.9127 21.5799 32.9225 21.6583 32.9224 21.7371C32.926 21.9484 32.8715 22.1787 32.7723 22.4156L32.7745 22.4195Z" fill="url(#paint0_linear_25400_612)"/>
<path d="M31.0447 21.4131L30.9053 21.832C30.7485 21.7728 30.5958 21.7115 30.4538 21.6468C30.4808 21.6219 30.5118 21.5949 30.5409 21.5739C30.6533 21.482 30.7717 21.392 30.8935 21.3128C30.9548 21.2717 31.0174 21.2375 31.08 21.2034C31.1083 21.1854 31.1387 21.1713 31.1661 21.1564C31.1739 21.1521 31.1848 21.1487 31.1926 21.1445C31.216 21.1316 31.2386 21.1219 31.2612 21.1121C31.5427 20.9812 31.8137 20.9196 32.0479 20.9161C32.4657 20.914 32.7816 21.1021 32.8858 21.4743C31.8983 20.7769 31.0417 21.4122 31.0417 21.4122L31.0447 21.4131Z" fill="#393843"/>
<path d="M32.6873 22.3876C32.6873 22.3876 32.1794 22.7639 31.7662 22.7838C31.354 22.8007 30.3659 23.4696 30.3659 23.4696L30.9053 21.8346C31.7453 22.1503 32.6873 22.3876 32.6873 22.3876Z" fill="#393843"/>
<path d="M32.019 21.8827C31.826 22.3384 31.4321 22.8073 30.931 23.1266C30.6562 23.302 30.3818 23.4087 30.1408 23.4463C29.9436 23.4803 29.7666 23.4678 29.6181 23.4143C29.606 23.4108 29.5939 23.4072 29.5827 23.4006C29.5464 23.39 29.5128 23.3702 29.4822 23.3514C29.49 23.2354 29.5116 23.117 29.5472 22.996C29.5631 22.9416 29.58 22.8842 29.606 22.8294C29.6148 22.7991 29.6289 22.7737 29.6408 22.7443C29.6461 22.7262 29.6584 22.7068 29.6667 22.6896C29.6721 22.6714 29.6834 22.655 29.6918 22.6378C29.7169 22.586 29.7419 22.5343 29.7739 22.4813C29.7879 22.4558 29.802 22.4304 29.819 22.4058C29.8322 22.3834 29.8445 22.364 29.8567 22.3446C29.8756 22.314 29.8944 22.2834 29.9154 22.2568C29.9316 22.2352 29.9447 22.2128 29.9609 22.1913C30.0283 22.0961 30.1038 22.0066 30.1854 21.9189C30.2007 21.9004 30.219 21.8828 30.2343 21.8643C30.291 21.8054 30.3477 21.7465 30.4096 21.6924C30.451 21.6521 30.4985 21.6134 30.542 21.577C30.6544 21.4852 30.7728 21.3951 30.8946 21.3159C30.956 21.2748 31.0185 21.2407 31.0811 21.2065C31.1094 21.1885 31.1398 21.1745 31.1672 21.1595C31.175 21.1552 31.1859 21.1518 31.1937 21.1476C31.2172 21.1348 31.2397 21.125 31.2623 21.1152C31.5438 20.9844 31.8148 20.9227 32.0491 20.9193C32.079 20.974 32.1041 21.0339 32.1204 21.1012C32.1347 21.1645 32.145 21.2299 32.1436 21.3018C32.1442 21.4005 32.1322 21.5086 32.1041 21.6153C32.0814 21.7039 32.0517 21.7937 32.016 21.8818L32.019 21.8827Z" fill="url(#paint1_linear_25400_612)"/>
<path d="M30.6916 22.3529L30.4781 22.1293L30.4034 21.6902C30.4448 21.6498 30.4923 21.6112 30.5359 21.5747C30.6482 21.4829 30.7666 21.3929 30.8884 21.3137C30.9498 21.2726 31.0124 21.2384 31.075 21.2042C31.1032 21.1863 31.1336 21.1722 31.161 21.1572C31.1688 21.153 31.1797 21.1496 31.1875 21.1453C31.23 21.1907 31.2622 21.2264 31.2644 21.2303L30.8316 21.5072L30.6916 22.3529Z" fill="url(#paint2_linear_25400_612)"/>
<path d="M30.6936 22.3548L30.6322 22.6981L30.1358 23.4489L29.9116 23.7871C29.8484 23.8572 29.9091 24.0754 29.8603 24.0512C29.781 24.0082 29.6058 23.8221 29.5131 23.7127C29.5097 23.7019 29.5063 23.6911 29.5038 23.6772C29.4933 23.6347 29.4837 23.5892 29.481 23.5424C29.4863 23.5242 29.5016 23.5057 29.5169 23.4872L29.5747 23.4024L30.4426 22.1694L30.4771 22.1303L30.6906 22.3539L30.6936 22.3548Z" fill="url(#paint3_linear_25400_612)"/>
<path d="M32.6171 21.5823C32.5995 21.564 32.5683 21.5582 32.5328 21.5674L31.1424 21.7273L31.103 21.7387L30.9085 22.4009L31.2268 22.3236L32.3699 22.2225C32.4441 22.2049 32.5213 22.1323 32.5495 22.0585C32.5982 21.9151 32.8308 21.9506 32.8409 21.8156C32.842 21.7896 32.6326 21.5967 32.6201 21.5832L32.6171 21.5823Z" fill="url(#paint4_linear_25400_612)"/>
<path d="M30.8032 22.9557L30.5891 21.6939C30.5752 21.6406 30.6183 21.5612 30.6862 21.5089C30.758 21.4545 30.832 21.4039 30.9059 21.3534C30.982 21.3068 31.0581 21.2602 31.1316 21.2226C31.205 21.1851 31.2673 21.1968 31.2803 21.2531L31.4943 22.5149L30.8032 22.9557Z" fill="#DFDFE3"/>
<path d="M31.1319 22.6241L31.3264 21.9619L31.3689 21.9514L32.7592 21.7915C32.8234 21.7742 32.8695 21.8075 32.8656 21.8654C32.8564 21.9974 32.8246 22.1392 32.7759 22.2825C32.7507 22.3572 32.6735 22.4298 32.5964 22.4466L31.4532 22.5477L31.1319 22.6241Z" fill="#DFDFE3"/>
<path d="M29.6975 23.879C29.6692 23.8412 29.6905 23.7686 29.7442 23.7088L30.67 22.391L30.7045 22.3518L31.125 22.6199L30.8565 22.9187L30.136 24.0078C30.0727 24.0779 29.9871 24.1119 29.9363 24.0838C29.8397 24.0325 29.7575 23.9656 29.6975 23.879Z" fill="#DFDFE3"/>
<path d="M29.9807 23.9263C29.9807 23.9263 29.9973 23.9147 30.0108 23.9023L30.7458 22.7978L31.3764 22.3951L32.5443 22.2881C32.5621 22.2835 32.597 22.2543 32.6041 22.2301C32.632 22.1463 32.6529 22.0638 32.67 21.9834L31.2332 22.1559L31.1435 21.4102C31.0926 21.438 31.0409 21.4688 30.9921 21.5004C30.9199 21.5449 30.8499 21.5933 30.782 21.6456C30.7654 21.6572 30.755 21.6706 30.7523 21.6796L30.8436 22.4422L29.8555 23.8271C29.8898 23.8668 29.9299 23.8982 29.9747 23.9245L29.9807 23.9263Z" fill="#4B4A4B"/>
<path d="M12.516 27.1566C12.1537 28.3902 12.8788 29.1419 14.1343 28.8373C15.3898 28.5327 16.702 27.2857 17.0644 26.052C17.4267 24.8183 16.7015 24.0667 15.4461 24.3713C14.1906 24.6758 12.8783 25.9229 12.516 27.1566Z" fill="#393843"/>
<path d="M12.6467 27.1695C12.2986 28.3548 12.9958 29.0786 14.2049 28.7866C15.414 28.4947 16.6761 27.2953 17.0251 26.107C17.3741 24.9187 16.676 24.1979 15.4669 24.4899C14.2578 24.7818 12.9957 25.9812 12.6467 27.1695Z" fill="#2D2C37"/>
<path d="M12.9493 27.1013C12.6527 28.1112 13.2464 28.729 14.2755 28.4795C15.3046 28.2299 16.3797 27.2089 16.6763 26.1989C16.973 25.189 16.3792 24.5712 15.3501 24.8208C14.321 25.0703 13.246 26.0914 12.9493 27.1013Z" fill="#504F58"/>
<path d="M13.0405 27.012C12.759 27.9705 13.3235 28.5534 14.2993 28.3178C15.275 28.0821 16.2951 27.1139 16.5767 26.1554C16.8582 25.1968 16.2937 24.6139 15.3179 24.8496C14.3421 25.0852 13.322 26.0534 13.0405 27.012Z" fill="#BABABE"/>
<path d="M16.3808 26.4123C16.1557 26.944 15.6967 27.4891 15.1147 27.8601C14.5328 28.2311 13.9692 28.3382 13.5811 28.1947C13.4093 28.1311 13.2737 28.0223 13.1892 27.8628C13.1605 27.815 13.1376 27.7589 13.1224 27.6987C13.119 27.6878 13.1157 27.677 13.1132 27.6631C13.1027 27.6206 13.093 27.5751 13.0903 27.5283C13.0852 27.4677 13.0839 27.4049 13.0865 27.34C13.0943 27.224 13.116 27.1055 13.1515 26.9846C13.1675 26.9302 13.1844 26.8727 13.2103 26.8179C13.2192 26.7877 13.2332 26.7623 13.2451 26.7329C13.2505 26.7148 13.2627 26.6954 13.2711 26.6781C13.2764 26.66 13.2878 26.6436 13.2961 26.6264C13.3212 26.5746 13.3462 26.5228 13.3782 26.4698C13.3923 26.4444 13.4063 26.4189 13.4234 26.3944C13.4365 26.372 13.4488 26.3526 13.4611 26.3332C13.4799 26.3026 13.4987 26.272 13.5197 26.2453C13.5359 26.2238 13.549 26.2014 13.5652 26.1799C13.6326 26.0847 13.7081 25.9952 13.7897 25.9075C13.805 25.889 13.8233 25.8714 13.8386 25.8529C13.8953 25.794 13.9521 25.7351 14.0139 25.681C14.0283 25.6655 14.0449 25.654 14.0593 25.6385C14.0863 25.6136 14.1172 25.5865 14.1464 25.5655C14.2587 25.4737 14.3772 25.3837 14.499 25.3045C14.5603 25.2634 14.6229 25.2292 14.6855 25.195C14.7137 25.1771 14.7441 25.163 14.7715 25.1481C14.7794 25.1438 14.7902 25.1404 14.798 25.1361C14.8215 25.1233 14.8441 25.1135 14.8667 25.1037C15.1481 24.9729 15.4192 24.9113 15.6534 24.9078C16.0712 24.9057 16.3871 25.0937 16.4913 25.4659C16.4946 25.4768 16.498 25.4876 16.5014 25.4985C16.519 25.5726 16.5289 25.6511 16.5317 25.7307C16.5354 25.942 16.4809 26.1724 16.3817 26.4093L16.3808 26.4123Z" fill="url(#paint5_linear_25400_612)"/>
<path d="M14.6541 25.4062L14.5146 25.8251C14.3579 25.766 14.2051 25.7047 14.0632 25.64C14.0902 25.6151 14.1211 25.588 14.1503 25.567C14.2627 25.4752 14.3811 25.3852 14.5029 25.306C14.5642 25.2649 14.6268 25.2307 14.6894 25.1965C14.7177 25.1786 14.7481 25.1645 14.7755 25.1496C14.7833 25.1453 14.7941 25.1419 14.8019 25.1376C14.8254 25.1248 14.848 25.115 14.8706 25.1052C15.1521 24.9744 15.4231 24.9128 15.6573 24.9093C16.0751 24.9072 16.391 25.0952 16.4952 25.4674C15.5077 24.7701 14.6511 25.4053 14.6511 25.4053L14.6541 25.4062Z" fill="#393843"/>
<path d="M16.2967 26.3822C16.2967 26.3822 15.7887 26.7585 15.3756 26.7784C14.9633 26.7953 13.9753 27.4642 13.9753 27.4642L14.5146 25.8292C15.3547 26.1449 16.2967 26.3822 16.2967 26.3822Z" fill="#393843"/>
<path d="M15.6206 25.8763C15.4276 26.332 15.0337 26.801 14.5326 27.1202C14.2577 27.2957 13.9833 27.4023 13.7424 27.4399C13.5452 27.474 13.3682 27.4614 13.2197 27.408C13.2076 27.4044 13.1955 27.4008 13.1843 27.3943C13.148 27.3836 13.1144 27.3639 13.0838 27.345C13.0915 27.2291 13.1132 27.1106 13.1487 26.9897C13.1647 26.9353 13.1816 26.8778 13.2075 26.823C13.2164 26.7928 13.2305 26.7673 13.2424 26.738C13.2477 26.7199 13.2599 26.7005 13.2683 26.6832C13.2736 26.6651 13.285 26.6487 13.2934 26.6314C13.3184 26.5797 13.3435 26.5279 13.3755 26.4749C13.3895 26.4495 13.4035 26.424 13.4206 26.3995C13.4338 26.3771 13.446 26.3577 13.4583 26.3383C13.4771 26.3077 13.496 26.2771 13.5169 26.2504C13.5331 26.2289 13.5463 26.2065 13.5625 26.1849C13.6298 26.0898 13.7054 26.0003 13.787 25.9126C13.8023 25.8941 13.8206 25.8765 13.8359 25.858C13.8926 25.7991 13.9493 25.7402 14.0112 25.6861C14.0526 25.6457 14.1 25.6071 14.1436 25.5706C14.256 25.4788 14.3744 25.3888 14.4962 25.3096C14.5575 25.2685 14.6201 25.2343 14.6827 25.2001C14.711 25.1822 14.7414 25.1681 14.7688 25.1532C14.7766 25.1489 14.7874 25.1455 14.7953 25.1412C14.8187 25.1284 14.8413 25.1186 14.8639 25.1088C15.1454 24.978 15.4164 24.9164 15.6506 24.9129C15.6805 24.9677 15.7056 25.0276 15.722 25.0948C15.7363 25.1581 15.7466 25.2236 15.7452 25.2954C15.7458 25.3941 15.7337 25.5023 15.7057 25.609C15.6829 25.6976 15.6533 25.7874 15.6175 25.8754L15.6206 25.8763Z" fill="url(#paint6_linear_25400_612)"/>
<path d="M14.3088 26.349L14.0953 26.1254L14.0206 25.6863C14.062 25.6459 14.1095 25.6073 14.1531 25.5708C14.2654 25.479 14.3838 25.389 14.5056 25.3098C14.567 25.2687 14.6296 25.2345 14.6921 25.2003C14.7204 25.1824 14.7508 25.1683 14.7782 25.1533C14.786 25.1491 14.7969 25.1457 14.8047 25.1414C14.8472 25.1867 14.8794 25.2225 14.8816 25.2264L14.4488 25.5033L14.3088 26.349Z" fill="url(#paint7_linear_25400_612)"/>
<path d="M14.303 26.3475L14.2416 26.6907L13.7452 27.4416L13.521 27.7798C13.4577 27.8499 13.5185 28.0681 13.4697 28.0439C13.3904 28.0009 13.2151 27.8148 13.1224 27.7054C13.1191 27.6946 13.1157 27.6837 13.1132 27.6699C13.1027 27.6274 13.093 27.5818 13.0904 27.5351C13.0957 27.5169 13.111 27.4984 13.1263 27.4799L13.184 27.3951L14.052 26.1621L14.0865 26.1229L14.3 26.3466L14.303 26.3475Z" fill="url(#paint8_linear_25400_612)"/>
<path d="M16.2265 25.5721C16.2088 25.5538 16.1777 25.5479 16.1422 25.5572L14.7518 25.717L14.7123 25.7284L14.5178 26.3906L14.8362 26.3133L15.9793 26.2122C16.0535 26.1946 16.1306 26.122 16.1589 26.0482C16.2076 25.9048 16.4402 25.9403 16.4503 25.8053C16.4513 25.7794 16.2419 25.5865 16.2295 25.573L16.2265 25.5721Z" fill="url(#paint9_linear_25400_612)"/>
<path d="M14.4126 26.9464L14.1985 25.6847C14.1846 25.6313 14.2276 25.552 14.2955 25.4997C14.3674 25.4452 14.4413 25.3947 14.5153 25.3441C14.5914 25.2975 14.6675 25.2509 14.7409 25.2133C14.8144 25.1758 14.8766 25.1875 14.8896 25.2439L15.1037 26.5056L14.4126 26.9464Z" fill="#DFDFE3"/>
<path d="M14.7256 26.6153L14.9201 25.9531L14.9626 25.9426L16.353 25.7827C16.4172 25.7654 16.4632 25.7987 16.4593 25.8567C16.4501 25.9886 16.4184 26.1304 16.3697 26.2737C16.3445 26.3484 16.2673 26.421 16.1901 26.4378L15.0469 26.5389L14.7256 26.6153Z" fill="#DFDFE3"/>
<path d="M13.2913 27.8707C13.263 27.8329 13.2843 27.7603 13.338 27.7005L14.2637 26.3827L14.2982 26.3435L14.7187 26.6116L14.4503 26.9104L13.7297 27.9995C13.6664 28.0696 13.5809 28.1036 13.53 28.0755C13.4334 28.0242 13.3512 27.9573 13.2913 27.8707Z" fill="#DFDFE3"/>
<path d="M13.5745 27.9112C13.5745 27.9112 13.591 27.8996 13.6045 27.8872L14.3395 26.7826L14.9702 26.3799L16.1381 26.2729C16.1559 26.2683 16.1907 26.2391 16.1978 26.2149C16.2257 26.1312 16.2467 26.0486 16.2637 25.9682L14.8269 26.1408L14.7372 25.3951C14.6863 25.4228 14.6346 25.4536 14.5859 25.4853C14.5137 25.5298 14.4436 25.5782 14.3757 25.6305C14.3592 25.6421 14.3487 25.6554 14.346 25.6645L14.4374 26.4271L13.4493 27.812C13.4836 27.8516 13.5236 27.8831 13.5684 27.9094L13.5745 27.9112Z" fill="#4B4A4B"/>
<path d="M3.60009 17.8002C3.6431 17.7208 3.68719 17.6714 3.68719 17.6714C3.68719 17.6714 4.49267 16.7518 5.36719 16.3911C5.36719 16.3911 5.06572 16.8248 4.89451 16.9716C4.72507 17.1123 4.13434 17.3231 3.60009 17.8002Z" fill="#F7FBFF"/>
<g style="mix-blend-mode:screen">
<path d="M5.13296 17.427C5.11347 17.6052 5.09719 17.8172 5.08714 18.0639C5.07255 18.5162 4.95107 18.9633 4.733 19.3591C4.67684 19.4609 4.62636 19.5544 4.58122 19.6299C4.51937 19.7398 4.36732 19.7543 4.28316 19.6606C4.07387 19.2772 3.93268 18.8744 3.9648 18.6868C4.01999 18.3647 4.3916 18.106 5.13296 17.427Z" fill="#565E66"/>
</g>
<g style="mix-blend-mode:screen">
<path d="M7.92585 23.6211C7.92585 23.6211 7.92371 23.6172 7.92157 23.6133C7.89753 23.5274 7.93893 23.4311 8.03443 23.3968L8.44893 23.2492C8.92159 23.0825 9.43057 23.0382 9.92431 23.1241C10.3739 23.2036 10.945 23.3057 11.4141 23.3975C11.2106 23.5085 10.1571 24.0761 9.76574 24.2567C9.33222 24.4579 8.21496 23.9228 7.97336 23.6942C7.9609 23.6806 7.94845 23.6671 7.9408 23.6485C7.93652 23.6406 7.93314 23.6298 7.92887 23.622L7.92585 23.6211Z" fill="#565E66"/>
</g>
<path d="M9.41656 23.6601L9.45297 23.5361C9.48761 23.4182 9.61065 23.346 9.73036 23.3746L11.1565 23.708C11.2913 23.741 11.3699 23.8758 11.3309 24.0089L11.2785 24.1873C11.211 24.4171 10.962 24.5377 10.7415 24.45L9.57266 23.9786C9.44619 23.9283 9.37837 23.7901 9.41656 23.6601Z" fill="white"/>
<path d="M4.7544 18.7445L4.83951 18.533C4.91449 18.3448 4.95408 18.1429 4.95169 17.9386L4.95708 17.1486C4.9574 17.0469 4.83376 16.9646 4.776 17.0494C4.52289 17.4415 4.38699 17.8483 4.43643 18.3062L4.47766 18.7026C4.49301 18.8517 4.70057 18.8831 4.75529 18.7415L4.7544 18.7445Z" fill="white"/>
<path d="M10.0487 24.7687C10.345 24.8557 11.5682 24.8734 11.716 24.7394C11.8733 24.5951 12.0044 24.2493 12.019 24.2109L11.7967 24.1292C11.7494 24.2565 11.6421 24.4878 11.5571 24.5647C11.4529 24.6063 10.4418 24.6378 10.1183 24.5428C10.1183 24.5428 10.1183 24.5428 10.1153 24.5419C9.63538 24.3977 8.60217 23.6771 8.47851 23.5389L8.30161 23.6939C8.45872 23.8747 9.53337 24.6108 10.0465 24.7648L10.0495 24.7657L10.0487 24.7687Z" fill="white"/>
<path d="M4.29547 19.5072L4.49337 19.3814C4.23658 18.9808 3.8952 18.2532 3.85955 18.0391C3.84563 17.9299 4.13801 17.4377 4.50384 16.9638L4.31616 16.82C4.09324 17.1092 3.5829 17.8068 3.62765 18.0794C3.67275 18.362 4.0652 19.1506 4.29458 19.5103L4.29547 19.5072Z" fill="white"/>
<path d="M36.4519 18.0311C36.4519 18.0311 36.7334 18.7838 36.5522 19.4565C36.2376 19.7451 35.9894 19.9415 35.5938 19.868C36.1831 19.5057 36.3031 19.1304 36.3327 18.8172C36.3623 18.504 36.455 18.032 36.455 18.032L36.4519 18.0311Z" fill="#5B73FF"/>
<path d="M18.4982 21.5271C18.4982 21.5271 18.3451 21.4558 18.2946 21.3819C18.244 21.3079 18.3519 21.1195 18.4872 21.0837C18.6234 21.0449 18.8939 21.2984 18.9533 21.2863C19.0127 21.2742 19.2962 21.5053 19.2962 21.5053L19.1229 21.704L18.497 21.5201L18.4982 21.5271Z" fill="#5B73FF"/>
<path d="M19.3838 20.873C19.1067 20.7094 18.772 20.7195 18.6302 21.0458C18.4601 21.4458 18.6229 21.5626 18.7157 21.649C18.8095 21.7324 19.1683 22.0315 19.6866 22.1903C20.2049 22.3491 20.3502 22.0896 20.4043 21.9052C20.4123 21.8779 20.4114 21.881 20.4185 21.8568C20.4807 21.5893 20.41 21.4831 20.2476 21.3763C19.9004 21.1495 19.3868 20.8739 19.3868 20.8739L19.3838 20.873Z" fill="#5B73FF"/>
<path d="M18.8051 20.8913C18.9934 20.8875 19.3298 21.0618 19.6584 21.2404C19.9869 21.4191 20.2518 21.4903 20.1786 21.84C20.1055 22.1896 19.9727 22.2393 19.8174 22.22C19.666 22.1985 19.3878 22.1168 19.0091 21.8742C18.6274 21.6307 18.5903 21.5443 18.5606 21.4107C18.5308 21.2772 18.6168 20.8951 18.8051 20.8913Z" fill="#5B84FF"/>
<path d="M16.2881 21.2934C16.2881 21.2934 14.9492 20.7524 14.7644 20.6324C12.7667 19.3263 11.282 17.5929 10.2599 15.9624C10.007 15.5597 10.4062 14.3237 10.4062 14.3237C10.5345 14.2333 10.662 14.1459 10.7934 14.0564L11.9407 14.0977L14.5165 17.0254L14.6405 18.4709L16.9354 20.7445L16.289 21.2904L16.2881 21.2934Z" fill="#4A4963"/>
<g style="mix-blend-mode:screen">
<path d="M12.5635 19.4043C12.8085 19.6438 13.0591 19.8751 13.3134 20.0943C13.8868 20.5911 14.8144 20.9556 15.3628 21.3137C15.5558 21.4394 16.789 21.8705 16.789 21.8705C16.7977 21.8633 16.8313 21.8271 16.895 21.767C16.9181 21.7442 16.9421 21.7184 16.9739 21.6884C17.0567 21.6076 17.1666 21.5019 17.2987 21.3765C17.3305 21.3464 17.3663 21.3142 17.3999 21.2781C17.3999 21.2781 17.4008 21.2751 17.4047 21.2729C17.4317 21.248 17.4557 21.2222 17.4827 21.1973C17.4884 21.1891 17.4971 21.1818 17.5058 21.1745C17.5743 21.1092 17.6466 21.0418 17.7238 20.9692C17.882 20.8219 18.0577 20.66 18.242 20.4908C18.2778 20.4586 18.3135 20.4264 18.3501 20.3912C18.4225 20.3237 18.4979 20.2572 18.5772 20.1885C18.6168 20.1542 18.6565 20.1198 18.6931 20.0846L18.697 20.0825C18.7781 20.0077 18.8613 19.9369 18.9454 19.8631C19.1841 19.654 19.4346 19.4386 19.6882 19.224C19.8188 19.1145 19.9495 19.0051 20.0823 18.8996L20.3488 18.6856C20.4856 18.5779 20.6214 18.4733 20.7542 18.3678C20.8125 18.3258 20.8678 18.2829 20.9231 18.24C20.9854 18.1959 21.0455 18.1478 21.1077 18.1037C21.166 18.0617 21.2243 18.0197 21.2796 17.9768C21.3244 17.9473 21.3671 17.9138 21.4119 17.8843C21.4537 17.8539 21.4946 17.8265 21.5355 17.7991C21.5764 17.7717 21.6133 17.7464 21.6503 17.7211C21.6999 17.6864 21.7487 17.6548 21.7974 17.6231C21.8091 17.6167 21.8178 17.6094 21.8256 17.6051C21.9231 17.5418 22.0166 17.4805 22.1123 17.4232C22.1396 17.4083 22.1679 17.3903 22.1953 17.3754C22.5575 17.1599 22.8964 16.9901 23.1928 16.8866C24.7952 16.3292 28.8876 15.1892 31.7384 14.4631C31.7384 14.4631 31.7453 14.4618 31.7484 14.4627C31.7514 14.4636 31.7583 14.4624 31.7622 14.4602C31.9795 14.4025 32.192 14.35 32.3937 14.3008C32.4262 14.2907 32.4579 14.2835 32.4896 14.2764C32.5845 14.255 32.6743 14.2289 32.7654 14.2096C32.797 14.2025 32.8257 14.1945 32.8543 14.1865C32.9709 14.1583 33.0876 14.1302 33.1934 14.1054C33.2745 14.0865 33.3556 14.0677 33.4297 14.05C33.5139 14.032 33.5919 14.0123 33.6691 13.9955C33.6839 13.99 33.7008 13.9884 33.7146 13.9859C33.7394 13.98 33.761 13.9732 33.7858 13.9674C34.0724 13.8972 34.8145 13.7078 35.1524 13.564C35.5775 13.3801 35.8088 13.1853 35.6317 12.6702C35.5071 12.3117 34.9241 11.523 34.2053 10.6713C33.657 10.7041 32.866 10.8363 31.9217 11.032C28.5694 11.7324 23.3231 13.256 20.5436 14.1082C19.5475 14.4134 18.8683 14.6344 18.7012 14.7003C17.9922 14.9781 14.0854 17.7229 12.5566 19.4056L12.5635 19.4043Z" fill="#131317"/>
</g>
<g style="mix-blend-mode:screen">
<path d="M22.5438 13.5059L24.1431 15.1843C24.3598 15.4976 24.8056 15.6351 25.2409 15.5396C25.5338 15.4483 25.8405 15.3544 26.1564 15.2632L26.1672 15.2599C27.9217 14.7438 29.9936 14.2093 32.1651 13.727C32.3728 13.6797 32.4874 13.4571 32.4036 13.2617C32.3176 13.0624 32.2119 12.8408 32.1464 12.7395C31.862 12.3209 31.4313 11.797 30.9388 11.2483C28.3712 11.8376 25.0748 12.7613 22.5498 13.5076L22.5438 13.5059Z" fill="#131317"/>
</g>
<g style="mix-blend-mode:screen">
<path d="M12.849 19.1166C13.4281 19.6612 14.0689 20.1745 14.7716 20.6338C14.9534 20.7529 16.2953 21.2949 16.2953 21.2949L21.2839 17.081C21.2839 17.081 20.557 16.5029 20.3927 16.3692C19.8897 15.9456 19.2546 15.3682 18.6159 14.7471C18.3435 14.8805 17.8285 15.2023 17.2029 15.6327C15.8414 16.5664 13.9459 18.01 12.8451 19.1188L12.849 19.1166Z" fill="#131317"/>
</g>
<path d="M8.43112 23.2467C8.90378 23.0801 9.41276 23.0358 9.90649 23.1217C10.7686 23.2731 12.0776 23.513 12.2477 23.5827C12.5027 23.6872 12.1404 24.507 11.8827 24.8254C11.6249 25.1439 10.1802 25.0415 9.71276 24.8549C9.34242 24.7067 8.36954 24.0827 7.95554 23.6917C7.85752 23.6005 7.8916 23.4397 8.01963 23.3952L8.43414 23.2476L8.43112 23.2467Z" fill="#B7C8D9"/>
<path d="M7.92767 23.6461C7.87944 23.5531 7.91799 23.433 8.02432 23.3953L8.43883 23.2477C8.91149 23.0811 9.42047 23.0368 9.91421 23.1226C10.7763 23.274 12.0853 23.514 12.2554 23.5836C12.4052 23.644 12.3414 23.9505 12.2149 24.2582C11.8961 24.3485 11.7278 24.3845 11.5013 24.4066C11.0979 24.4491 10.9699 24.3819 10.6381 24.2254C9.84993 23.8559 9.8499 23.8001 9.3944 23.6959C9.09879 23.6288 8.30096 23.6276 7.93158 23.644L7.92767 23.6461Z" fill="#9BACBF"/>
<path d="M5.35248 16.3905L5.28143 16.6324C5.28143 16.6324 5.10908 17.0514 5.0778 18.0638C5.06321 18.516 4.94173 18.9632 4.72366 19.359C4.6675 19.4607 4.61702 19.5543 4.57188 19.6297C4.50914 19.7427 4.35406 19.7563 4.27168 19.6565C3.87562 19.1822 3.50522 18.3967 3.49659 18.1577C3.48564 17.8819 3.6755 17.6716 3.6755 17.6716C3.6755 17.6716 4.48099 16.752 5.3555 16.3914L5.35248 16.3905Z" fill="#B7C8D9"/>
<path d="M3.58447 17.7997C3.62747 17.7203 3.67156 17.6709 3.67156 17.6709C3.67156 17.6709 4.47704 16.7513 5.35156 16.3906C5.35156 16.3906 5.0501 16.8243 4.87888 16.9711C4.70945 17.1119 4.11872 17.3227 3.58447 17.7997Z" fill="#F7FBFF"/>
<g style="mix-blend-mode:screen">
<path d="M5.12515 17.4275C5.10565 17.6057 5.08937 17.8177 5.07933 18.0644C5.06474 18.5167 4.94326 18.9638 4.72519 19.3596C4.66903 19.4614 4.61855 19.5549 4.57341 19.6303C4.51156 19.7403 4.3595 19.7547 4.27534 19.661C4.06605 19.2777 3.92487 18.8749 3.95699 18.6873C4.01218 18.3652 4.38378 18.1064 5.12515 17.4275Z" fill="#565E66"/>
</g>
<g style="mix-blend-mode:screen">
<path d="M7.91803 23.6172C7.91803 23.6172 7.9159 23.6133 7.91376 23.6094C7.88972 23.5235 7.93112 23.4272 8.02661 23.3929L8.44112 23.2453C8.91378 23.0786 9.42276 23.0343 9.9165 23.1202C10.3661 23.1997 10.9372 23.3018 11.4062 23.3936C11.2028 23.5046 10.1493 24.0722 9.75793 24.2528C9.32441 24.454 8.20715 23.9189 7.96555 23.6903C7.95309 23.6767 7.94064 23.6632 7.93298 23.6446C7.92871 23.6367 7.92533 23.6259 7.92106 23.6181L7.91803 23.6172Z" fill="#565E66"/>
</g>
<path d="M9.40875 23.6596L9.44516 23.5357C9.4798 23.4177 9.60284 23.3455 9.72255 23.3741L11.1487 23.7075C11.2835 23.7406 11.3621 23.8753 11.3231 24.0084L11.2707 24.1868C11.2032 24.4166 10.9542 24.5373 10.7337 24.4495L9.56484 23.9781C9.43837 23.9278 9.37056 23.7896 9.40875 23.6596Z" fill="white"/>
<path d="M4.74659 18.7455L4.8317 18.534C4.90668 18.3458 4.94626 18.1439 4.94387 17.9396L4.94927 17.1496C4.94959 17.0478 4.82595 16.9655 4.76818 17.0504C4.51507 17.4425 4.37918 17.8493 4.42861 18.3072L4.46984 18.7036C4.48519 18.8526 4.69275 18.884 4.74748 18.7424L4.74659 18.7455Z" fill="white"/>
<path d="M10.0556 24.7702C10.3519 24.8573 11.5752 24.875 11.7238 24.738C11.8802 24.5967 12.0114 24.2509 12.0268 24.2095L11.8045 24.1277C11.7572 24.2551 11.6499 24.4863 11.5649 24.5632C11.4607 24.6048 10.4496 24.6363 10.1261 24.5413C10.1261 24.5413 10.1231 24.5404 10.1201 24.5395C9.64017 24.3953 8.60393 23.6738 8.4833 23.5366L8.3064 23.6915C8.46351 23.8724 9.53816 24.6084 10.0504 24.7654L10.0534 24.7663L10.0556 24.7702Z" fill="white"/>
<path d="M4.28766 19.5043L4.48555 19.3785C4.22877 18.9779 3.88738 18.2503 3.85173 18.0362C3.83782 17.927 4.1302 17.4348 4.49603 16.9608L4.30834 16.817C4.08543 17.1063 3.5751 17.8038 3.62073 18.0734C3.66583 18.356 4.05828 19.1446 4.28766 19.5043Z" fill="white"/>
<defs>
<linearGradient id="paint0_linear_25400_612" x1="29.6972" y1="24.0284" x2="32.7089" y2="21.1554" gradientUnits="userSpaceOnUse">
<stop offset="0.27" stop-color="#ECEEF7"/>
<stop offset="0.77" stop-color="#9C9AA8"/>
</linearGradient>
<linearGradient id="paint1_linear_25400_612" x1="31.0476" y1="23.2331" x2="30.5627" y2="21.2382" gradientUnits="userSpaceOnUse">
<stop offset="0.26" stop-color="#393843"/>
<stop offset="0.78" stop-color="#23222E"/>
</linearGradient>
<linearGradient id="paint2_linear_25400_612" x1="31.2614" y1="21.9225" x2="30.4026" y2="21.9166" gradientUnits="userSpaceOnUse">
<stop stop-color="#ADAEB8"/>
<stop offset="0.08" stop-color="#BABBC5"/>
<stop offset="0.2" stop-color="#C9CBD3"/>
<stop offset="0.34" stop-color="#D2D4DC"/>
<stop offset="0.55" stop-color="#D5D7DF"/>
<stop offset="0.66" stop-color="#C0C1CA"/>
<stop offset="1" stop-color="#868490"/>
</linearGradient>
<linearGradient id="paint3_linear_25400_612" x1="30.4541" y1="23.3158" x2="29.8924" y2="22.8684" gradientUnits="userSpaceOnUse">
<stop stop-color="#ADAEB8"/>
<stop offset="0.08" stop-color="#BABBC5"/>
<stop offset="0.2" stop-color="#C9CBD3"/>
<stop offset="0.34" stop-color="#D2D4DC"/>
<stop offset="0.55" stop-color="#D5D7DF"/>
<stop offset="0.66" stop-color="#C0C1CA"/>
<stop offset="1" stop-color="#868490"/>
</linearGradient>
<linearGradient id="paint4_linear_25400_612" x1="31.928" y1="22.3292" x2="31.7465" y2="21.5828" gradientUnits="userSpaceOnUse">
<stop stop-color="#ADAEB8"/>
<stop offset="0.08" stop-color="#BABBC5"/>
<stop offset="0.2" stop-color="#C9CBD3"/>
<stop offset="0.34" stop-color="#D2D4DC"/>
<stop offset="0.55" stop-color="#D5D7DF"/>
<stop offset="0.66" stop-color="#C0C1CA"/>
<stop offset="1" stop-color="#868490"/>
</linearGradient>
<linearGradient id="paint5_linear_25400_612" x1="13.3045" y1="28.0182" x2="16.3152" y2="25.1482" gradientUnits="userSpaceOnUse">
<stop offset="0.27" stop-color="#ECEEF7"/>
<stop offset="0.77" stop-color="#9C9AA8"/>
</linearGradient>
<linearGradient id="paint6_linear_25400_612" x1="14.6491" y1="27.2267" x2="14.1673" y2="25.2327" gradientUnits="userSpaceOnUse">
<stop offset="0.26" stop-color="#393843"/>
<stop offset="0.78" stop-color="#23222E"/>
</linearGradient>
<linearGradient id="paint7_linear_25400_612" x1="14.8756" y1="25.9177" x2="14.0198" y2="25.9127" gradientUnits="userSpaceOnUse">
<stop stop-color="#ADAEB8"/>
<stop offset="0.08" stop-color="#BABBC5"/>
<stop offset="0.2" stop-color="#C9CBD3"/>
<stop offset="0.34" stop-color="#D2D4DC"/>
<stop offset="0.55" stop-color="#D5D7DF"/>
<stop offset="0.66" stop-color="#C0C1CA"/>
<stop offset="1" stop-color="#868490"/>
</linearGradient>
<linearGradient id="paint8_linear_25400_612" x1="14.0635" y1="27.3085" x2="13.4988" y2="26.8601" gradientUnits="userSpaceOnUse">
<stop stop-color="#ADAEB8"/>
<stop offset="0.08" stop-color="#BABBC5"/>
<stop offset="0.2" stop-color="#C9CBD3"/>
<stop offset="0.34" stop-color="#D2D4DC"/>
<stop offset="0.55" stop-color="#D5D7DF"/>
<stop offset="0.66" stop-color="#C0C1CA"/>
<stop offset="1" stop-color="#868490"/>
</linearGradient>
<linearGradient id="paint9_linear_25400_612" x1="15.5365" y1="26.322" x2="15.3559" y2="25.5726" gradientUnits="userSpaceOnUse">
<stop stop-color="#ADAEB8"/>
<stop offset="0.08" stop-color="#BABBC5"/>
<stop offset="0.2" stop-color="#C9CBD3"/>
<stop offset="0.34" stop-color="#D2D4DC"/>
<stop offset="0.55" stop-color="#D5D7DF"/>
<stop offset="0.66" stop-color="#C0C1CA"/>
<stop offset="1" stop-color="#868490"/>
</linearGradient>
</defs>
</svg>
