<svg width="43" height="40" viewBox="0 0 43 40" fill="none" xmlns="http://www.w3.org/2000/svg">
<path d="M32.7306 27.6231L31.3259 25.4214L26.7584 26.2748L15.8036 27.4836L14.8635 25.8103L9.25319 26.2052L15.3395 15.2594L36.2891 22.6919L32.7306 27.6231Z" fill="#292929"/>
<path d="M14.952 23.526L15.997 25.3632L11.0035 28.1444L9.95747 26.3029L12.1327 23.7974L14.952 23.526Z" fill="#333333"/>
<path d="M31.8583 23.6452L32.9032 25.4823L27.9236 28.2899L26.8775 26.4484L29.1952 23.968L31.8583 23.6452Z" fill="#333333"/>
<path d="M13.7991 13.0053C13.7577 13.076 13.7139 13.1381 13.6732 13.1763C13.6732 13.1763 13.6717 13.179 13.6701 13.1817C13.6535 13.1976 13.6373 13.2064 13.6201 13.2109C13.6071 13.2142 13.5915 13.216 13.5715 13.2189C13.4959 13.2294 13.3759 13.2284 13.2604 13.1825C13.2191 13.1656 13.1768 13.1444 13.1376 13.1178C13.1376 13.1178 13.124 13.1098 13.1158 13.105C13.0755 13.0741 13.0373 13.0333 13.0066 12.9861C13.0016 12.9759 12.9939 12.964 12.9862 12.9522C12.9862 12.9522 12.9709 12.9286 12.9648 12.9141C12.837 12.671 12.7377 12.2985 12.7583 12.0329C12.7623 11.995 12.7678 11.9545 12.7772 11.9198C12.7887 11.8753 12.8028 11.8325 12.8241 11.7901C12.8288 11.782 12.8352 11.7711 12.84 11.763C12.8564 11.7287 12.8728 11.6945 12.8904 11.6646C12.9047 11.6402 12.9175 11.6184 12.9303 11.5967C12.9382 11.5831 12.9462 11.5695 12.9569 11.5575C12.9851 11.5156 13.0188 11.4769 13.0563 11.4441C13.1323 11.3644 13.2161 11.315 13.2906 11.3002C13.3548 11.2904 13.4133 11.3028 13.4737 11.3492C13.5974 11.4437 13.7218 11.6738 13.9188 12.0853C14.0004 12.2575 14.0341 12.4928 13.9903 12.6608C13.9887 12.6635 13.9855 12.6689 13.9867 12.6733C13.9793 12.6982 13.9677 12.7243 13.955 12.746C13.9374 12.7759 13.9151 12.814 13.8971 12.8509C13.8668 12.9025 13.8349 12.9569 13.8046 13.0085L13.7991 13.0053Z" fill="#5B73FF"/>
<path d="M13.6107 12.7231L13.5852 12.7666C13.5852 12.7666 13.582 12.772 13.5788 12.7774C13.5214 12.8753 13.4508 12.9581 13.3767 13.0097C13.3156 13.0578 13.2504 13.0817 13.186 13.0732C13.1173 13.0657 13.0494 13.0259 12.9858 12.9411C12.9858 12.9411 12.9705 12.9175 12.9601 12.904C12.7981 12.6446 12.7207 12.3032 12.7536 12.0229C12.7576 11.985 12.7631 11.9444 12.7725 11.9097C12.7824 11.868 12.7965 11.8252 12.8145 11.7883L12.8193 11.7801C12.8193 11.7801 12.8305 11.7611 12.8353 11.7529C12.8517 11.7187 12.8681 11.6845 12.8857 11.6546C12.9 11.6301 12.9128 11.6084 12.9255 11.5866C12.9319 11.5758 12.9399 11.5622 12.9463 11.5513C12.9809 11.4985 13.0173 11.4614 13.0473 11.4352C13.1014 11.3866 13.1504 11.3715 13.1835 11.3836C13.1998 11.3932 13.2216 11.4059 13.2488 11.4219C13.349 11.5063 13.4942 11.7011 13.5593 11.8891C13.6399 12.1191 13.7839 12.4155 13.6107 12.7231Z" fill="#5B84FF"/>
<path d="M29.8883 17.9962C29.2963 18.3139 28.6452 18.7137 27.8192 18.7078L27.5835 18.7047L28.0429 17.9219C28.8004 16.6308 28.1929 15.58 26.688 15.5667C25.1842 15.5576 23.3491 16.5928 22.5932 17.8812L22.1338 18.6641L10.6821 18.5839L11.1414 17.801C11.8989 16.5099 11.293 15.4565 9.78651 15.4459C8.28004 15.4352 6.44765 16.472 5.69009 17.7631L4.90383 19.1032C4.5141 19.101 4.44856 19.3622 4.44856 19.3622C4.44856 19.3622 3.40508 18.9984 3.06964 18.5239C3.00659 18.4321 3.57465 16.7229 3.99521 16.2863C4.41576 15.8498 4.74324 15.3477 6.19238 14.8022C7.38628 14.3554 11.5112 13.6772 11.5112 13.6772C11.5112 13.6772 17.1847 11.518 19.4642 11.3135C22.0828 11.0851 30.8715 10.9401 31.3581 11.1196C32.3231 11.4739 32.4374 13.2657 32.3757 13.8068C32.3743 13.8278 31.7569 15.3035 31.7367 15.394C31.6658 15.7141 31.6658 16.1562 31.606 16.3952C31.5435 16.6325 30.4776 17.6769 29.8867 17.9989L29.8883 17.9962Z" fill="#2E2F35"/>
<path d="M3.99812 16.2906C4.57037 15.6142 5.0726 15.3499 5.0726 15.3499C5.0726 15.3499 6.24364 14.886 6.87 14.6031C7.49637 14.3203 12.3672 13.3672 12.3672 13.3672L10.0682 16.7062L4.00084 16.2922L3.99812 16.2906Z" fill="#5B73FF"/>
<path d="M31.611 16.394C31.6709 16.1551 31.6736 15.7146 31.7418 15.3928C31.7599 15.3121 32.2383 14.1605 32.3565 13.8718C31.3868 13.8618 29.1437 13.5871 27.9177 13.6278C26.2838 13.6848 21.4523 14.0727 20.5012 14.1431C19.5474 14.2119 13.3887 14.9063 11.1591 14.7892C8.92516 14.6733 6.52668 15.747 6.06526 15.9293C5.60225 16.1144 4.93533 16.2858 4.00138 16.2895C3.58083 16.726 3.01276 18.4352 3.07582 18.5271C3.40694 19.0027 4.45474 19.3654 4.45474 19.3654C4.45474 19.3654 4.52028 19.1042 4.91 19.1063L5.69626 17.7663C6.45382 16.4752 8.28622 15.4384 9.79269 15.449C11.2992 15.4597 11.9051 16.5131 11.1476 17.8042L10.6882 18.587L22.14 18.6672L22.5993 17.8844C23.3569 16.5933 25.1893 15.5565 26.6942 15.5699C28.2006 15.5805 28.8066 16.6339 28.049 17.925L27.5897 18.7079L27.8254 18.711C28.6513 18.7169 29.3025 18.3171 29.8945 17.9994C30.4881 17.679 31.5121 16.6063 31.6138 16.3956L31.611 16.394Z" fill="#495DCF"/>
<path d="M10.7504 17.7991C10.0997 18.9081 8.52425 19.7997 7.23238 19.7907C5.9405 19.7818 5.41924 18.8767 6.06994 17.7677C6.72064 16.6587 8.2961 15.7671 9.58798 15.7761C10.8799 15.785 11.4011 16.6901 10.7504 17.7991Z" fill="#1F2024"/>
<path d="M27.6489 17.9197C26.9982 19.0287 25.4227 19.9203 24.1308 19.9113C22.8389 19.9024 22.3177 18.9973 22.9684 17.8883C23.6191 16.7793 25.1945 15.8877 26.4864 15.8967C27.7783 15.9056 28.2996 16.8107 27.6489 17.9197Z" fill="#1F2024"/>
<path d="M31.734 15.39C31.8049 15.0699 32.3112 14.3439 32.3729 13.8028C32.4347 13.2617 32.3176 11.4684 31.3553 11.1157C31.1801 11.0531 29.9486 11.0284 28.318 11.0362C28.3208 11.0378 30.939 11.1527 31.1336 11.3254C31.3283 11.4981 32.084 13.0559 31.8687 13.865C31.6507 14.6725 31.399 14.8025 31.2819 15.2015C31.1631 15.6031 31.6652 15.9306 31.6652 15.9306C31.6818 15.7467 31.7004 15.553 31.7356 15.3873L31.734 15.39Z" fill="#2E2F35"/>
<path d="M11.491 17.8056L11.0317 18.5884L10.6788 18.5859L11.1381 17.8031C11.8956 16.512 11.2897 15.4585 9.78321 15.4479C8.27674 15.4372 6.44434 16.474 5.68679 17.7651L4.90052 19.1052L4.54755 19.1027L5.33382 17.7627C6.18866 16.3057 8.26027 15.1353 9.96024 15.1462C11.6602 15.1571 12.3459 16.3486 11.491 17.8056Z" fill="#5B73FF"/>
<path d="M28.3957 17.9259L27.938 18.706C27.8996 18.7091 27.8602 18.7079 27.8191 18.7094L27.5834 18.7063L28.0427 17.9235C28.8003 16.6324 28.1927 15.5816 26.6879 15.5683C25.1841 15.5592 23.349 16.5944 22.593 17.8828L22.1337 18.6656L21.7807 18.6632L22.2401 17.8803C23.0949 16.4234 25.1665 15.2529 26.8665 15.2638C28.5665 15.2748 29.2521 16.4663 28.3973 17.9232L28.3957 17.9259Z" fill="#5B73FF"/>
<path d="M32.1796 14.3039C32.2234 14.198 32.2641 14.0976 32.2979 14.0152C32.3216 13.956 32.3433 13.9066 32.357 13.8708C32.1975 13.8686 32.004 13.8683 31.7894 13.8666C31.6581 13.8663 31.5111 13.8677 31.3473 13.8666C31.0749 13.8639 30.7684 13.8631 30.4889 13.8599C30.2035 13.8606 29.7621 13.5979 29.4767 13.5985C29.4798 13.6369 29.4969 13.8442 29.5352 13.8849C29.64 13.9866 30.9549 14.3051 31.2316 14.3067C31.4462 14.3083 31.958 14.3017 32.1812 14.3011L32.1796 14.3039Z" fill="#FF4566"/>
<path d="M29.026 18.4295C29.3301 18.2974 29.6122 18.1341 29.8816 17.9925C30.4752 17.6721 31.4992 16.5995 31.6009 16.3888C30.9308 16.6715 30.4028 16.7929 30.0297 17.1111C29.6985 17.3955 29.3317 17.9147 29.026 18.4295Z" fill="#2E2F35"/>
<path d="M12.161 13.6918C12.161 13.6918 14.6823 14.1774 15.0169 14.18C15.3515 14.1827 24.7652 13.564 24.7652 13.564L28.4379 12.5729C28.4379 12.5729 28.916 11.3846 28.5375 11.3196C28.2122 11.2639 21.0827 11.3959 18.9649 11.6113C16.7592 12.1074 12.1637 13.6934 12.1637 13.6934L12.161 13.6918Z" fill="#1F2024"/>
<path d="M22.9828 11.402L20.4096 13.8384L21.2608 13.7825L23.3594 11.3892L22.9828 11.402Z" fill="#2E2F35"/>
<path d="M18.7928 11.6508L14.0447 14.0388L14.8038 14.1773L19.1484 11.5928L18.7928 11.6508Z" fill="#2E2F35"/>
<path d="M31.8155 11.4591C31.8155 11.4591 32.6384 12.479 32.8132 12.7168C33.8322 14.1185 35.6296 17.1207 36.2369 18.7449C36.3612 19.0809 36.9781 21.1931 36.9781 21.1931L24.0448 19.4033C24.0448 19.4033 23.4149 18.9386 23.246 18.7409C21.5668 16.7764 19.4949 13.3391 19.3713 11.9183C19.359 11.7649 19.4475 11.3089 19.4475 11.3089C19.4475 11.3089 28.1291 11.1595 30.8263 11.1709C31.1171 11.1735 31.6894 11.3814 31.8144 11.4548L31.8155 11.4591Z" fill="#2E2F35"/>
<path d="M11.4959 13.6782L16.6124 22.6873C16.6124 22.6873 8.89889 25.1038 8.66201 25.0343C8.5872 25.0123 7.13434 25.5081 6.48411 24.2935C5.60155 22.6466 4.44959 20.4251 3.72453 19.0204C3.30964 18.2143 3.98148 16.2846 3.98148 16.2846L6.6368 14.8355L11.4959 13.6782Z" fill="#5B73FF"/>
<path d="M3.05938 18.5244C3.05938 18.5244 3.01399 18.801 3.07073 18.9658C3.65718 20.7313 5.95249 24.6285 6.34461 25.2057C6.97855 26.1367 7.92574 26.9884 7.92574 26.9884C7.92574 26.9884 10.0978 24.9305 9.50585 24.8061C7.69362 24.426 4.25738 17.4478 4.03534 16.6306C3.9978 16.4953 3.98223 16.2852 3.98223 16.2852L3.05666 18.5228L3.05938 18.5244Z" fill="#495DCF"/>
<path d="M15.9491 22.1499C14.3 22.0958 11.835 22.9404 10.7098 22.8466C9.58468 22.7528 8.84441 24.2075 7.61404 22.3127C5.54241 19.124 5.01796 17.5082 5.01796 17.5082C5.01796 17.5082 5.70993 16.1421 6.38517 15.5517C7.062 14.9587 11.6208 14.2135 11.6208 14.2135C11.6208 14.2135 12.1206 18.1132 15.9475 22.1526L15.9491 22.1499Z" fill="#5B84FF"/>
<path d="M12.2906 13.3852C12.0214 13.483 11.6731 13.6842 11.4474 14.2058C11.2384 14.6057 11.0707 15.1467 11.3461 15.7797C11.913 17.0989 12.7026 18.7423 13.6722 20.1225C14.108 20.7436 14.9196 21.322 15.3648 21.8025C15.5216 21.9712 16.6134 22.6886 16.6134 22.6886L24.0444 19.4084L19.4482 11.3184C19.4482 11.3184 15.0962 12.3713 12.2891 13.3879L12.2906 13.3852Z" fill="#2E2F35"/>
<path d="M22.1388 19.1274C23.4348 18.6748 28.2325 18.3694 33.5141 18.516C33.7271 18.5204 33.8923 18.3323 33.8583 18.1224C33.8232 17.9082 33.7771 17.6692 33.7327 17.5518C33.213 16.1397 31.6696 13.5204 30.7628 12.3197C30.7058 12.2424 30.6004 12.1294 30.4813 12.0084C30.1205 11.6395 29.6324 11.4189 29.1171 11.3942C23.9397 11.1261 19.6876 11.6785 19.096 11.7589C18.4758 11.8445 18.0815 11.9748 18.0815 11.9748L17.1532 15.8112L22.1447 19.1236L22.1388 19.1274Z" fill="#3D3C51"/>
<path d="M8.28644 25.2541C8.23192 25.3719 8.17853 25.4941 8.12786 25.6178C8.12626 25.6205 8.12307 25.626 8.11988 25.6314C7.91783 26.1377 7.76341 26.65 7.76307 26.7813C7.76213 26.7954 7.76278 26.8067 7.76822 26.8099C7.79782 26.8528 7.83334 26.8919 7.87157 26.9327C7.87973 26.9374 7.88469 26.9477 7.89013 26.9508C7.89828 26.9556 7.90213 26.9615 7.90597 26.9674C7.91412 26.9722 7.92068 26.9797 7.9234 26.9813C7.92884 26.9845 7.93155 26.9861 7.93155 26.9861C7.95554 27.0075 7.98225 27.0305 8.00624 27.0519C8.0144 27.0566 8.02527 27.063 8.03183 27.0705C8.05582 27.0919 8.07869 27.109 8.10859 27.1265C8.14345 27.1543 8.18151 27.1766 8.22069 27.2033C8.25602 27.224 8.28864 27.2431 8.32397 27.2639C8.72082 27.4967 9.14873 27.6455 9.14873 27.6455C9.14873 27.6455 9.2165 27.667 9.31784 27.6936C9.3303 27.6972 9.34709 27.6998 9.36499 27.7066C9.40942 27.7181 9.46089 27.73 9.51235 27.7419C9.53457 27.7476 9.5611 27.7522 9.58603 27.7596C9.66674 27.7777 9.75177 27.7947 9.83567 27.8074C9.95154 27.8279 10.0679 27.8413 10.1711 27.8398L10.7995 26.7688C11.557 25.4777 13.3894 24.4409 14.8959 24.4516C16.4024 24.4622 17.0056 25.5141 16.248 26.8052L15.811 27.4878L16.164 27.4903L27.2628 27.568L27.6982 26.8881C28.4558 25.597 30.2882 24.5602 31.7947 24.5708C33.3011 24.5814 33.9071 25.6349 33.1495 26.926L32.738 27.6273C33.0167 27.6007 33.7521 27.5244 33.996 27.4263C34.2953 27.3023 34.9989 26.9625 35.2774 26.6435C35.5543 26.3273 36.2099 25.5026 36.3755 25.1394C36.5455 24.775 36.4436 24.4193 36.5332 24.0736C36.6166 23.7571 36.8883 22.8021 37.0294 22.2564C37.044 22.2066 37.0528 22.1605 37.0642 22.1161C37.1126 21.9216 37.0692 21.5783 36.979 21.1965C36.8374 20.5909 36.5738 19.8881 36.377 19.5571C36.377 19.5571 36.3759 19.5528 36.3748 19.5485C36.3671 19.5367 36.3665 19.5253 36.3685 19.5156C36.3226 19.463 36.2762 19.4176 36.2294 19.3791C36.2054 19.3577 36.1825 19.3406 36.1569 19.322C36.1085 19.2862 36.0595 19.2575 36.0074 19.2343C35.9938 19.2263 35.9802 19.2183 35.9635 19.2158C35.958 19.2126 35.9526 19.2094 35.9472 19.2062C35.939 19.2014 35.9293 19.1993 35.9195 19.1973C35.9168 19.1957 35.9098 19.1952 35.9027 19.1947C35.8887 19.1938 35.8762 19.1901 35.8594 19.1876C35.854 19.1844 35.8426 19.1851 35.8356 19.1846C35.8356 19.1846 35.8302 19.1814 35.8286 19.1841C35.8188 19.1821 35.8075 19.1827 35.7977 19.1806C35.7766 19.1792 35.7555 19.1778 35.7317 19.1748C35.695 19.1752 35.6544 19.1696 35.6079 19.1679C35.577 19.1644 35.5446 19.1637 35.5122 19.1629C35.463 19.1596 35.4094 19.1574 35.3516 19.1564C35.3235 19.1545 35.2937 19.1553 35.2656 19.1534C35.2332 19.1527 35.205 19.1508 35.1726 19.15C35.1304 19.1472 35.0866 19.1471 35.0401 19.1454C34.9823 19.1443 34.9245 19.1433 34.8639 19.1406C34.8033 19.138 34.7412 19.138 34.6747 19.1392C34.5958 19.1367 34.5152 19.137 34.432 19.1356C34.319 19.1351 34.2033 19.133 34.0833 19.132C34.0552 19.1302 34.0255 19.131 33.9915 19.1329C33.8996 19.1338 33.805 19.1331 33.7077 19.1309C33.6752 19.1301 33.6428 19.1293 33.6088 19.1313C33.558 19.1307 33.5055 19.1328 33.452 19.1307C33.452 19.1307 33.452 19.1307 33.4493 19.1291C33.3461 19.1306 33.2374 19.129 33.1272 19.1301C33.1272 19.1301 33.1217 19.1269 33.1174 19.128C33.065 19.1301 33.0142 19.1295 32.9591 19.1301C32.9564 19.1285 32.9493 19.128 32.945 19.1291C32.945 19.1291 32.9396 19.126 32.9353 19.1271C29.9962 19.1418 25.7495 19.2553 24.0571 19.406C23.7444 19.4344 23.3744 19.517 22.9708 19.6382C22.9406 19.6461 22.9088 19.6567 22.8786 19.6645C22.7719 19.6969 22.6663 19.7336 22.5564 19.7715C22.5462 19.7764 22.5376 19.7787 22.5247 19.782C22.4697 19.8009 22.4148 19.8199 22.3582 19.8415C22.3162 19.857 22.2699 19.8737 22.2279 19.8893C22.1816 19.9059 22.1353 19.9226 22.0873 19.942C22.0394 19.9614 21.9888 19.9792 21.9366 19.9997C21.8725 20.0279 21.8058 20.0545 21.739 20.0811C21.6679 20.1088 21.598 20.1408 21.5269 20.1685C21.4629 20.1967 21.3961 20.2233 21.3321 20.2515C21.1792 20.319 21.0205 20.3902 20.8617 20.4615C20.7568 20.5096 20.6562 20.5565 20.5513 20.6046C20.3952 20.6774 20.2419 20.7519 20.0902 20.8236C19.8653 20.9329 19.6432 21.0437 19.4281 21.155C19.3565 21.1897 19.2861 21.2288 19.2146 21.2635C19.1151 21.3148 19.0156 21.366 18.9204 21.4161C18.9204 21.4161 18.9188 21.4189 18.9161 21.4173C18.8693 21.441 18.8252 21.4663 18.7785 21.49C18.6876 21.539 18.5983 21.5852 18.5091 21.6315C18.4666 21.6541 18.4225 21.6794 18.38 21.702C18.1558 21.8225 17.9505 21.9359 17.7612 22.0404C17.6704 22.0894 17.5822 22.14 17.5 22.1868C17.4898 22.1917 17.4795 22.1967 17.472 22.2033C17.4398 22.2209 17.4075 22.2385 17.378 22.2577C17.378 22.2577 17.3737 22.2588 17.3721 22.2615C17.3296 22.2841 17.2898 22.3083 17.2501 22.3324C17.0915 22.4221 16.9593 22.498 16.8593 22.5563C16.8239 22.5793 16.7916 22.5969 16.7637 22.6134C16.6798 22.6629 16.6342 22.6909 16.6342 22.6909C16.6342 22.6909 12.7736 23.093 11.8179 23.2521C10.4478 23.4823 9.37098 24.016 8.86109 24.4367C8.80266 24.4864 8.75014 24.5323 8.70897 24.5776C8.58 24.7102 8.43872 24.9635 8.30482 25.2539L8.28644 25.2541Z" fill="#546AEB"/>
<path d="M8.28512 25.2475C8.23172 25.3697 8.18105 25.4934 8.13309 25.6187C8.1315 25.6214 8.12831 25.6269 8.12512 25.6323C7.92372 26.1499 7.77136 26.6525 7.76831 26.7822C7.76736 26.7963 7.76802 26.8076 7.77345 26.8108C7.8069 26.8597 7.84898 26.9063 7.89536 26.9518C7.90352 26.9565 7.90736 26.9624 7.9112 26.9684C7.91935 26.9731 7.92591 26.9806 7.92863 26.9822C7.92863 26.9822 7.93407 26.9854 7.93679 26.987C7.96078 27.0084 7.98749 27.0314 8.01148 27.0528C8.01963 27.0576 8.03051 27.0639 8.03707 27.0714C8.06106 27.0928 8.08393 27.1099 8.11383 27.1274C8.14869 27.1552 8.18674 27.1775 8.22592 27.2042C8.26126 27.2249 8.29387 27.244 8.32921 27.2648C8.72605 27.4976 9.15397 27.6464 9.15397 27.6464C9.15397 27.6464 9.22174 27.6679 9.32307 27.6945C9.33554 27.6981 9.35232 27.7007 9.37022 27.7075C9.41465 27.719 9.46612 27.7309 9.51758 27.7428C9.5398 27.7485 9.56633 27.7532 9.59126 27.7605C9.67198 27.7786 9.757 27.7956 9.8409 27.8083C9.95677 27.8288 10.0731 27.8422 10.1763 27.8407L10.8047 26.7697C11.5623 25.4786 13.3947 24.4418 14.9011 24.4525C16.4076 24.4631 17.0108 25.515 16.2533 26.8061L15.8162 27.4887L16.1692 27.4912L27.268 27.5689L27.7035 26.889C28.461 25.5979 30.2934 24.5611 31.7999 24.5717C33.3064 24.5823 33.9123 25.6358 33.1548 26.9269L32.7433 27.6282C33.0219 27.6017 33.7573 27.5253 34.0012 27.4272C34.3005 27.3032 35.0042 26.9634 35.2826 26.6444C35.5595 26.3282 36.2152 25.5035 36.3808 25.1403C36.5507 24.7759 36.4488 24.4202 36.5384 24.0745C36.6218 23.758 36.8935 22.803 37.0346 22.2573C37.0493 22.2075 37.058 22.1614 37.0695 22.117C37.0452 22.121 37.0166 22.1262 36.9923 22.1302C34.8447 22.4961 34.2365 22.5923 33.0246 22.6339C31.3907 22.691 26.5592 23.0789 25.6081 23.1493C24.6542 23.2181 20.7912 23.6554 18.5615 23.4761C14.9899 23.1928 11.2847 24.6252 10.8206 24.806C10.3737 24.9822 9.54846 24.8817 8.84842 24.4307C8.82124 24.4148 8.79406 24.3988 8.77006 24.3774C8.62131 24.5313 8.44783 24.8643 8.28559 25.2405L8.28512 25.2475Z" fill="#495DCF"/>
<path d="M3.47925 17.1911C3.1577 17.8574 3.01121 18.462 3.06049 18.5275C3.06049 18.5275 3.0151 18.8041 3.07185 18.969C3.65829 20.7344 5.95361 24.6316 6.34572 25.2088C6.90396 26.026 7.70212 26.783 7.88974 26.9552C7.8979 26.96 7.90174 26.9659 7.90558 26.9718C7.91373 26.9766 7.92029 26.9841 7.92301 26.9856C7.92845 26.9888 7.93117 26.9904 7.93117 26.9904C7.95516 27.0118 7.98187 27.0348 8.00586 27.0562C8.01401 27.061 8.02489 27.0673 8.03145 27.0749C8.05544 27.0962 8.0783 27.1133 8.1082 27.1309C8.14307 27.1586 8.18112 27.1809 8.2203 27.2076C8.25563 27.2283 8.28825 27.2475 8.32359 27.2682C8.72043 27.501 9.14834 27.6498 9.14834 27.6498C9.14834 27.6498 9.21612 27.6713 9.31745 27.6979C9.32992 27.7015 9.3467 27.7041 9.3646 27.7109C9.40903 27.7224 9.4605 27.7343 9.51196 27.7462C9.53418 27.752 9.56071 27.7566 9.58564 27.7639C9.66636 27.782 9.75138 27.799 9.83528 27.8117C9.95115 27.8322 10.0675 27.8456 10.1707 27.8441L10.7991 26.7732C11.5566 25.482 13.389 24.4453 14.8955 24.4559C16.402 24.4665 17.0052 25.5184 16.2477 26.8095L15.8106 27.4921L16.1636 27.4946L26.9094 27.5698L27.2624 27.5723L27.6978 26.8924C28.4554 25.6013 30.2878 24.5645 31.7943 24.5751C33.3007 24.5858 33.9067 25.6392 33.1491 26.9303L32.7377 27.6316C32.8257 27.6248 32.9623 27.6099 33.1162 27.5906C33.4379 27.5528 33.833 27.496 33.9972 27.4279C34.2965 27.3039 35.0001 26.9641 35.2786 26.6451C35.5555 26.3289 36.2111 25.5042 36.3767 25.141C36.1629 25.3809 35.1822 25.5764 34.9446 25.5393C34.4024 25.3673 34.5525 24.0341 32.271 23.9121C29.9878 23.7929 28.5405 24.6902 27.8314 25.575C27.1223 26.4597 26.6809 27.0813 26.1383 27.1466C25.5973 27.2092 17.952 26.9874 16.8636 26.8932C16.9909 26.4892 17.052 26.2108 17.0898 25.8164C17.143 24.4117 16.1559 24.0079 15.2222 23.9862C11.9185 23.9624 10.6572 26.087 10.4798 26.2898C10.3146 26.4779 9.50904 26.3999 8.83512 26.0227C8.77804 25.9892 7.7635 24.7728 7.51822 24.6179C7.22401 24.4343 5.22754 21.3044 4.35374 19.3375C4.0984 18.7638 3.93556 18.3065 3.85138 18.0452C3.6128 17.306 3.49368 17.2287 3.47494 17.1922L3.47925 17.1911Z" fill="#4052B5"/>
<path d="M10.6627 26.4333C12.6432 23.6309 14.8244 23.5003 15.9805 23.7657C17.0086 24 17.7338 25.1927 16.7132 26.6145C16.9851 25.0239 16.329 24.5293 15.553 24.3261C14.777 24.1229 12.6067 24.4901 10.6611 26.436L10.6627 26.4333Z" fill="#5B73FF"/>
<path d="M27.3677 26.8548C28.8158 24.3867 30.7874 23.7604 32.2434 23.7013C33.6968 23.6406 34.4143 25.1577 33.8242 26.1634C33.5618 25.1472 32.9479 24.3813 32.0992 24.3767C31.2533 24.3736 29.3057 24.623 27.3677 26.8548Z" fill="#5B73FF"/>
<path d="M26.8448 26.7172C26.5439 26.9499 26.1738 27.0762 25.7938 27.0762C23.9189 27.0832 17.899 27.0989 17.7756 27.0229C17.0746 26.586 22.8559 26.3791 24.0141 26.4229C24.7748 26.4527 27.3442 26.327 26.8421 26.7157L26.8448 26.7172Z" fill="#5B73FF"/>
<path d="M16.6136 22.6876L17.2753 22.6995L33.5511 21.5763C33.5511 21.5763 35.1312 21.4802 36.6239 21.2527C36.7438 21.2353 36.8609 21.2163 36.978 21.1973C36.8364 20.5917 36.5727 19.8889 36.376 19.5579C36.376 19.5579 36.3749 19.5536 36.3738 19.5493C36.2403 19.3906 36.0986 19.2709 35.9624 19.2166C35.957 19.2134 35.9515 19.2102 35.9461 19.207C35.938 19.2022 35.9282 19.2002 35.9185 19.1981C35.899 19.194 35.8681 19.1905 35.8346 19.1854C35.8346 19.1854 35.8291 19.1822 35.8275 19.185C35.7518 19.177 35.6436 19.1684 35.51 19.1594C35.41 19.1555 35.2959 19.1507 35.1677 19.1449C35.1255 19.1421 35.0818 19.142 35.0353 19.1403C34.9223 19.1398 34.7969 19.1356 34.6671 19.1325C34.5882 19.1301 34.5076 19.1303 34.4244 19.129C34.3114 19.1285 34.1957 19.1264 34.0757 19.1254C34.0476 19.1235 34.0179 19.1243 33.9839 19.1263C33.892 19.1272 33.7974 19.1265 33.7001 19.1242C33.6676 19.1234 33.6352 19.1227 33.6012 19.1246C33.3936 19.1234 33.1758 19.1272 32.9499 19.1261C32.9472 19.1245 32.9401 19.1241 32.9358 19.1252C32.9358 19.1252 32.9304 19.122 32.9261 19.1231C29.987 19.1379 25.7403 19.2514 24.0479 19.402C23.7352 19.4305 23.3652 19.513 22.9616 19.6343C22.9314 19.6421 22.8996 19.6527 22.8694 19.6606C22.7627 19.693 22.6571 19.7297 22.5473 19.7675C22.537 19.7725 22.5284 19.7747 22.5155 19.7781C22.4605 19.797 22.4056 19.8159 22.349 19.8375C22.307 19.8531 22.2607 19.8698 22.2187 19.8853C22.1724 19.902 22.1261 19.9186 22.0781 19.938C22.0302 19.9574 21.9796 19.9752 21.9274 19.9957C21.8633 20.0239 21.7966 20.0505 21.7298 20.0771C21.6587 20.1048 21.5888 20.1369 21.5177 20.1646C21.4537 20.1928 21.3869 20.2194 21.3229 20.2476C21.17 20.315 21.0113 20.3863 20.8525 20.4576C20.7476 20.5056 20.647 20.5525 20.5421 20.6006C20.386 20.6735 20.2327 20.7479 20.081 20.8197C19.783 20.9664 19.4877 21.1147 19.2054 21.2596C19.1059 21.3108 19.0064 21.3621 18.9112 21.4122C18.9112 21.4122 18.9096 21.4149 18.9069 21.4133C18.8601 21.437 18.816 21.4623 18.7693 21.486C18.6784 21.535 18.5891 21.5813 18.4999 21.6276C18.4574 21.6501 18.4133 21.6754 18.3708 21.698C18.1466 21.8186 17.9413 21.9319 17.752 22.0365C17.6596 22.0882 17.573 22.1361 17.4908 22.1828C17.4806 22.1878 17.4703 22.1927 17.4628 22.1993C17.4306 22.2169 17.3983 22.2345 17.3688 22.2537C17.3688 22.2537 17.3645 22.2549 17.3629 22.2576C17.3204 22.2802 17.2806 22.3043 17.2409 22.3285C17.0823 22.4181 16.9501 22.494 16.8501 22.5523C16.812 22.5738 16.7824 22.593 16.7545 22.6095C16.6706 22.6589 16.625 22.6869 16.625 22.6869L16.6136 22.6876Z" fill="#5B84FF"/>
<path d="M15.8676 26.8094C15.2169 27.9183 13.6414 28.8099 12.3496 28.801C11.0577 28.792 10.5364 27.8869 11.1871 26.7779C11.8378 25.6689 13.4133 24.7773 14.7052 24.7863C15.997 24.7953 16.5183 25.7004 15.8676 26.8094Z" fill="#1F2024"/>
<path d="M32.766 26.927C32.1153 28.036 30.5399 28.9276 29.248 28.9186C27.9561 28.9097 27.4349 28.0046 28.0856 26.8956C28.7363 25.7866 30.3117 24.895 31.6036 24.904C32.8955 24.9129 33.4167 25.818 32.766 26.927Z" fill="#1F2024"/>
<path d="M17.0555 27.2275C17.3164 27.3806 23.9624 27.3814 26.8275 27.3744L26.8599 27.3752L26.8775 27.3453C26.8891 27.3193 28.2123 24.7341 31.2749 23.8674C31.8311 23.7041 32.8609 22.9454 33.0755 22.673C33.471 22.167 33.1667 20.0702 33.1529 19.9817L33.0444 19.9984C33.0473 20.0184 33.3572 22.1368 32.9911 22.6052C32.8058 22.84 31.8171 23.5972 31.248 23.7638C28.3206 24.593 26.9592 26.9694 26.7994 27.2666C23.129 27.2761 17.6627 27.2513 17.1552 27.1509C17.2309 26.8226 17.8593 24.6993 18.4789 23.7803C18.5902 23.6155 19.7179 22.7023 20.1432 22.3636L20.0754 22.2799C20.0126 22.3308 18.5308 23.5112 18.388 23.7234C17.7306 24.7006 17.0585 26.9918 17.0415 27.1828L17.0385 27.2066L17.0555 27.2275C17.0555 27.2275 17.0582 27.2291 17.0609 27.2307L17.0555 27.2275Z" fill="#4255BA"/>
<path d="M23.8094 27.3025L23.913 27.3377C23.913 27.3377 24.0933 26.8187 24.3968 26.4633C24.8815 25.8926 26.132 23.4438 26.2109 23.1722C26.294 22.8812 26.8803 21.2156 26.8872 21.1977L26.7836 21.1625C26.7578 21.2314 26.1888 22.8487 26.1041 23.1425C26.0284 23.4086 24.7927 25.8259 24.314 26.3927C23.9966 26.7655 23.8179 27.2819 23.8121 27.3041L23.8094 27.3025Z" fill="#4255BA"/>
<path d="M32.932 19.1289C32.932 19.1289 32.9418 19.131 32.9461 19.1298C33.2403 19.1453 35.1567 19.2357 35.335 19.3988C35.4882 19.5362 36.0858 20.1244 36.6288 21.2541C36.7524 21.5167 36.8769 21.8089 36.9908 22.1316C37.003 22.1606 37.0109 22.1908 37.0215 22.2226C37.0248 22.2356 37.0298 22.2458 37.0332 22.2587C37.0478 22.2089 37.0566 22.1628 37.068 22.1184C37.1164 21.9239 37.073 21.5805 36.9828 21.1988C36.8412 20.5932 36.5776 19.8904 36.3808 19.5594C36.3808 19.5594 36.3797 19.5551 36.3786 19.5508C36.3709 19.5389 36.3702 19.5276 36.3723 19.5178C36.3264 19.4653 36.28 19.4198 36.2331 19.3814C36.2091 19.36 36.1863 19.3429 36.1607 19.3243C36.1324 19.304 36.1068 19.2853 36.0796 19.2694C36.0389 19.2455 35.9981 19.2215 35.9525 19.2058C35.9444 19.201 35.9346 19.1989 35.9233 19.1996C35.9206 19.198 35.9135 19.1975 35.9065 19.197C35.894 19.1934 35.88 19.1924 35.8632 19.1899C35.8577 19.1867 35.8464 19.1874 35.8394 19.1869C35.8394 19.1869 35.8339 19.1837 35.8323 19.1864C35.8226 19.1843 35.8112 19.185 35.8015 19.1829C35.7804 19.1815 35.7593 19.1801 35.7355 19.1771C35.7003 19.1747 35.6582 19.1719 35.6117 19.1702C35.5808 19.1667 35.5484 19.166 35.5159 19.1652C35.4667 19.1619 35.4132 19.1597 35.3554 19.1587C35.3272 19.1568 35.2975 19.1576 35.2694 19.1557C35.2369 19.1549 35.2088 19.1531 35.1764 19.1523C35.1342 19.1495 35.0904 19.1494 35.0439 19.1477C34.9861 19.1466 34.9282 19.1455 34.8677 19.1429C34.8071 19.1402 34.7449 19.1403 34.6785 19.1415C34.5995 19.139 34.519 19.1393 34.4358 19.1379C34.3228 19.1374 34.2071 19.1353 34.0871 19.1343C34.059 19.1324 34.0293 19.1333 33.9952 19.1352C33.9034 19.1361 33.8088 19.1354 33.7114 19.1331C33.679 19.1324 33.6466 19.1316 33.6125 19.1336C33.5617 19.133 33.5093 19.1351 33.4558 19.1329C33.4558 19.1329 33.4558 19.1329 33.4531 19.1314C33.3499 19.1329 33.2412 19.1313 33.1309 19.1323C33.1309 19.1323 33.1255 19.1292 33.1212 19.1303C33.0661 19.1308 33.0082 19.1298 32.9488 19.1314L32.932 19.1289Z" fill="#2E2F35"/>
<path d="M10.4553 26.7718L9.84449 27.8128C9.96036 27.8333 10.0767 27.8468 10.1799 27.8452L10.8083 26.7743C11.5658 25.4832 13.3982 24.4464 14.9047 24.457C16.4112 24.4677 17.0144 25.5195 16.2569 26.8106L15.8198 27.4932L16.1728 27.4957L16.6082 26.8158C17.4631 25.3589 16.7801 24.1689 15.0801 24.158C13.3802 24.1471 11.3086 25.3176 10.4537 26.7745L10.4553 26.7718Z" fill="#495DCF"/>
<path d="M27.3432 26.8879L26.9062 27.5705L27.2591 27.573L27.6946 26.8931C28.4522 25.602 30.2846 24.5652 31.791 24.5758C33.2975 24.5865 33.9034 25.6399 33.1459 26.931L32.7344 27.6323C32.8225 27.6255 32.9591 27.6106 33.1129 27.5913L33.4989 26.9335C34.3537 25.4766 33.668 24.285 31.9681 24.2741C30.2681 24.2632 28.1965 25.4337 27.3416 26.8906L27.3432 26.8879Z" fill="#495DCF"/>
<path d="M17.28 22.7018C17.28 22.7018 19.8013 23.1874 20.1359 23.19C20.4565 23.1917 20.3426 23.2053 29.7341 22.3068L33.5558 21.5786C33.5558 21.5786 33.512 19.4738 33.1335 19.4089C32.8081 19.3531 25.6786 19.4852 23.5609 19.7005C21.3552 20.1967 17.2789 22.6975 17.2789 22.6975L17.28 22.7018Z" fill="#2E2F35"/>
<path d="M17.7697 22.6147C18.7406 22.797 19.9339 23.0113 20.1344 23.012L20.1485 23.0129C20.3453 23.0139 23.5319 22.7205 29.7083 22.1328L33.3741 21.4337C33.3442 20.5319 33.2211 19.7143 33.0901 19.5826C32.6406 19.5454 25.7525 19.6583 23.5894 19.8762C21.8323 20.274 18.8406 21.9788 17.7697 22.6147Z" fill="#3D3C51"/>
<path d="M27.2068 19.5994L25.8452 22.5677L26.6992 22.5134L27.5861 19.5882L27.2068 19.5994Z" fill="#2E2F35"/>
<path d="M23.01 19.9016L19.1589 23.0461L19.9165 23.1874L23.3672 19.8408L23.01 19.9016Z" fill="#2E2F35"/>
<path d="M8.18116 21.9977C8.68011 21.9507 9.18465 22.0312 9.64282 22.2342C10.4425 22.5901 11.6542 23.1404 11.8023 23.2492C12.0244 23.4124 11.4741 24.1199 11.1468 24.3663C10.8195 24.6128 9.44282 24.163 9.03456 23.8687C8.71121 23.6351 7.91871 22.7938 7.61187 22.3141C7.53888 22.2019 7.61094 22.0541 7.74595 22.042L8.18387 21.9993L8.18116 21.9977Z" fill="#B7C8D9"/>
<path d="M7.58855 22.2602C7.56272 22.161 7.63082 22.0512 7.74314 22.0404L8.18107 21.9977C8.68003 21.9506 9.18456 22.0311 9.64273 22.2342C10.4424 22.5901 11.6542 23.1403 11.8022 23.2491C11.9329 23.3441 11.7967 23.6259 11.5994 23.8938C11.2682 23.904 11.0962 23.8982 10.871 23.8647C10.4694 23.8081 10.3615 23.7119 10.0776 23.4795C9.40254 22.93 9.41606 22.8758 8.99943 22.6642C8.72892 22.5274 7.95518 22.3329 7.59286 22.2591L7.58855 22.2602Z" fill="#9BACBF"/>
<path d="M6.86598 14.6039L6.73839 14.8213C6.73839 14.8213 6.46955 15.1861 6.19372 16.1606C6.06989 16.5958 5.8436 17.0002 5.53606 17.3313C5.4569 17.4164 5.38524 17.4949 5.32315 17.5571C5.2349 17.6515 5.08115 17.6271 5.02542 17.5103C4.75621 16.9541 4.58733 16.1023 4.63693 15.8683C4.69319 15.5981 4.92838 15.4401 4.92838 15.4401C4.92838 15.4401 5.93282 14.7433 6.8687 14.6055L6.86598 14.6039Z" fill="#B7C8D9"/>
<path d="M6.86598 14.6039L6.73839 14.8213C6.73839 14.8213 6.46955 15.1861 6.19372 16.1606C6.06989 16.5958 5.8436 17.0002 5.53606 17.3313C5.4569 17.4164 5.38524 17.4949 5.32315 17.5571C5.30177 17.5811 5.27542 17.5949 5.24795 17.6044C5.57943 16.9585 5.55816 16.2225 5.77119 15.6788C5.88353 15.394 6.35874 14.964 6.78882 14.6171C6.8131 14.613 6.83898 14.6063 6.86598 14.6039Z" fill="#9BACBF"/>
<path d="M3.19231 18.9962C3.21795 18.6349 3.58323 17.6325 3.68473 17.9515C3.69531 17.9833 3.65575 18.9101 3.68046 19.005C3.94131 20.0861 6.25487 24.3009 6.79892 24.7188C7.35656 25.1447 7.67399 24.9399 7.7074 25.0947C7.74081 25.2495 7.33546 25.8594 7.38271 26.1027C7.42996 26.346 6.68837 25.4615 6.12376 24.6552C6.03221 24.5247 3.89436 20.9757 3.1939 18.9935L3.19231 18.9962Z" fill="#2E2F35"/>
<path d="M22.6113 19.3418L16.6414 22.0871C16.6414 22.0871 15.6431 21.7024 14.7006 20.7182C14.5712 20.5838 15.4357 21.7195 15.4357 21.7195L16.4969 22.6199C16.4969 22.6199 21.8056 19.6875 22.9049 19.5141C22.9402 19.3667 22.6113 19.3418 22.6113 19.3418Z" fill="#2E2F35"/>
<path d="M30.329 11.0469C32.0008 11.0559 32.9693 11.3794 33.3633 11.6544C33.7573 11.9294 34.7319 13.2576 35.5281 14.6967C36.3286 16.1347 37.0869 17.7818 37.1322 18.3272C37.1819 18.8716 36.9059 19.0056 36.4504 19.0782C35.995 19.1507 34.9068 19.1371 34.9068 19.1371C34.9068 19.1371 34.9222 18.0024 34.506 17.0055C34.0897 16.0086 32.5964 13.4223 32.2565 12.9927C31.9151 12.5658 31.3288 11.8089 31.0384 11.5691C30.7479 11.3293 30.3306 11.0442 30.3306 11.0442L30.329 11.0469Z" fill="#2E2F35"/>
<path d="M12.2546 13.8186C12.2546 13.8186 11.566 14.9236 11.7153 15.3729C12.3131 17.1999 13.3288 19.2428 14.9528 20.9959C15.1003 21.1555 16.2708 22.0067 16.2708 22.0067L22.1324 19.1284C22.1324 19.1284 21.5673 18.3913 21.443 18.2233C20.3681 16.7486 18.6189 13.8697 18.1975 12.508C18.1255 12.2758 18.124 11.9607 18.124 11.9607C18.124 11.9607 14.877 12.8178 12.2557 13.8229L12.2546 13.8186Z" fill="#3D3C51"/>
<path d="M18.8397 15.2037L19.0405 15.559C19.1543 15.7573 19.2547 15.966 19.3503 16.1829C19.3808 16.2556 19.3644 16.3519 19.3082 16.4103L19.1665 16.5647C19.1131 16.6247 19.0412 16.6227 18.9968 16.5674C18.8659 16.392 18.743 16.2029 18.6319 16.0062L18.4311 15.6509C18.3173 15.4525 18.2169 15.2438 18.1213 15.0269C18.0908 14.9543 18.1072 14.8579 18.1634 14.7995L18.3051 14.6452C18.3585 14.5852 18.4304 14.5872 18.4748 14.6424C18.6057 14.8179 18.7286 15.0069 18.8397 15.2037Z" fill="#585775"/>
<path d="M18.6329 15.3856C18.6868 15.3001 18.8463 15.0718 18.8463 15.0718L19.1452 15.2545C19.1452 15.2545 18.913 15.5755 18.8995 15.5859C18.8513 15.6308 18.7411 15.6502 18.71 15.6284C18.6413 15.5771 18.5716 15.4776 18.6286 15.3867L18.6329 15.3856Z" fill="#585775"/>
<path d="M18.9201 15.0144C18.837 15.0499 18.8065 15.1456 18.8507 15.2264C18.8975 15.3089 19.0014 15.3441 19.0861 15.3059C19.1692 15.2704 19.1997 15.1748 19.1555 15.0939C19.1114 15.0131 19.0048 14.9762 18.9201 15.0144Z" fill="#626082"/>
<path d="M23.3594 11.5073L23.2818 11.5092C23.3071 11.5095 23.3341 11.507 23.3594 11.5073Z" fill="#1F2024"/>
<path d="M18.8537 11.7668L14.1072 14.1521C13.275 14.0073 12.2277 13.8057 12.2277 13.8057C12.2277 13.8057 16.8232 12.2197 19.029 11.7235C19.0873 11.7175 19.1456 11.7116 19.2109 11.7061L18.8553 11.7641L18.8537 11.7668Z" fill="#626082"/>
<path d="M19.2145 11.7104C20.0699 11.635 21.5292 11.5704 23.048 11.5225L20.4791 13.9578L21.3304 13.9019L23.4274 11.5113C25.9059 11.4345 28.4178 11.4067 28.6079 11.4378C28.9863 11.5027 28.5083 12.6911 28.5083 12.6911L24.8355 13.6822C24.8355 13.6822 15.4218 14.3009 15.0872 14.2982C15.0505 14.2985 14.9845 14.2927 14.8979 14.2784L19.2161 11.7077L19.2145 11.7104Z" fill="#626082"/>
<path d="M22.1405 19.1273C22.1405 19.1273 21.5755 18.3902 21.4511 18.2222C20.3762 16.7475 18.6271 13.8686 18.2056 12.5069C18.1336 12.2746 18.1322 11.9596 18.1322 11.9596C18.1322 11.9596 17.9467 12.0079 17.6314 12.0969L17.4708 11.8163L21.5818 11.4296L25.8371 18.9175L21.7984 19.2993L22.1416 19.1316L22.1405 19.1273Z" fill="#2E2F35"/>
<path d="M27.3179 18.5454L26.4644 18.5927C25.9782 18.618 25.519 18.3669 25.3753 17.9829L22.0171 12.0736C21.7819 11.7894 21.9496 11.4786 22.2332 11.4623L23.48 11.3863L22.7154 11.2446L20.9645 11.3829L25.6067 18.9335L27.6247 18.7949L27.3179 18.5454Z" fill="#2E2F35"/>
<path d="M6.50122 19.9443C6.29706 19.8245 6.22867 19.5619 6.34846 19.3577C6.46825 19.1536 6.73086 19.0852 6.93502 19.205C7.13918 19.3248 7.20758 19.5874 7.08779 19.7915C6.968 19.9957 6.70538 20.0641 6.50122 19.9443Z" fill="#495DCF"/>
<path d="M35.2782 22.411L35.6382 22.7501C35.6382 22.7501 36.5748 22.6858 36.7825 22.6433C36.9902 22.6007 37.0297 22.3901 37.0868 22.2554C37.1438 22.1208 37.0447 21.4927 37.0447 21.4927C37.0447 21.4927 37.0687 21.9562 36.8725 22.1224C36.6763 22.2887 35.2809 22.4126 35.2809 22.4126L35.2782 22.411Z" fill="#FF4566"/>
<path d="M28.0856 26.8888C27.4349 27.9978 27.9561 28.9029 29.248 28.9118C30.5399 28.9208 32.1153 28.0292 32.766 26.9202C33.4167 25.8112 32.8955 24.9061 31.6036 24.8971C30.3117 24.8882 28.7363 25.7798 28.0856 26.8888Z" fill="#393843"/>
<path d="M28.1868 26.9256C27.5616 27.9911 28.0625 28.8623 29.3063 28.8723C30.5501 28.8822 32.0654 28.0248 32.6921 26.9565C33.3189 25.8883 32.8164 25.0198 31.5726 25.0098C30.3288 24.9999 28.8136 25.8573 28.1868 26.9256Z" fill="#2D2C37"/>
<path d="M28.4998 26.9295C27.9672 27.8374 28.3933 28.5807 29.4522 28.5882C30.5111 28.5956 31.8017 27.8658 32.3344 26.9579C32.8671 26.0501 32.4409 25.3067 31.382 25.2993C30.3231 25.2918 29.0325 26.0217 28.4998 26.9295Z" fill="#504F58"/>
<path d="M28.6025 26.8651C28.097 27.7267 28.5033 28.4292 29.5071 28.4372C30.5108 28.4452 31.7353 27.7532 32.2409 26.8916C32.7464 26.0299 32.3401 25.3275 31.3364 25.3195C30.3326 25.3115 29.1081 26.0034 28.6025 26.8651Z" fill="#BABABE"/>
<path d="M31.9943 27.0948C31.647 27.556 31.0695 27.9735 30.4149 28.1923C29.7604 28.4112 29.1877 28.3784 28.8459 28.145C28.6947 28.0416 28.5895 27.9032 28.5462 27.728C28.53 27.6746 28.5213 27.6147 28.5212 27.5526C28.5206 27.5412 28.5199 27.5299 28.5209 27.5158C28.521 27.472 28.5227 27.4255 28.5314 27.3795C28.5411 27.3194 28.5551 27.2582 28.5734 27.1959C28.6091 27.0852 28.6588 26.9756 28.7226 26.8669C28.7513 26.8179 28.7816 26.7663 28.8201 26.7194C28.836 26.6922 28.8558 26.671 28.8745 26.6454C28.884 26.6291 28.9006 26.6132 28.9129 26.5985C28.9225 26.5822 28.9375 26.5691 28.9498 26.5544C28.9867 26.5102 29.0235 26.4661 29.0674 26.4224C29.0872 26.4012 29.107 26.3799 29.1295 26.3602C29.1477 26.3417 29.1643 26.3258 29.1809 26.31C29.2066 26.2849 29.2323 26.2597 29.2591 26.2389C29.28 26.222 29.2982 26.2034 29.3191 26.1865C29.4076 26.1105 29.5026 26.042 29.603 25.9767C29.6223 25.9624 29.6444 25.9498 29.6637 25.9355C29.733 25.8922 29.8023 25.8488 29.8754 25.8113C29.8931 25.7998 29.912 25.7926 29.9297 25.7811C29.962 25.7634 29.9985 25.7447 30.0319 25.7314C30.1632 25.6696 30.2999 25.611 30.4373 25.5637C30.5067 25.5387 30.5758 25.5207 30.6448 25.5027C30.6765 25.4921 30.7095 25.4859 30.7396 25.478C30.7483 25.4758 30.7596 25.4751 30.7682 25.4729C30.7941 25.4661 30.8184 25.4621 30.8427 25.4581C31.1475 25.3994 31.4254 25.4053 31.6534 25.4588C32.0592 25.558 32.3201 25.8171 32.331 26.2034C32.3316 26.2148 32.3323 26.2261 32.3329 26.2375C32.332 26.3137 32.3225 26.3922 32.3033 26.4685C32.2556 26.6744 32.1468 26.8846 31.9932 27.0905L31.9943 27.0948Z" fill="url(#paint0_linear_26722_7)"/>
<path d="M30.5595 25.6987L30.3226 26.0712C30.1849 25.9758 30.0516 25.8793 29.9296 25.7821C29.9618 25.7645 29.9984 25.7458 30.0318 25.7325C30.163 25.6707 30.2998 25.612 30.4371 25.5647C30.5066 25.5397 30.5756 25.5218 30.6446 25.5038C30.6764 25.4932 30.7093 25.4869 30.7395 25.4791C30.7481 25.4768 30.7595 25.4762 30.7681 25.4739C30.794 25.4672 30.8183 25.4632 30.8425 25.4592C31.1473 25.4005 31.4252 25.4064 31.6533 25.4599C32.0591 25.5591 32.32 25.8182 32.3308 26.2045C31.5419 25.2885 30.5568 25.6971 30.5568 25.6971L30.5595 25.6987Z" fill="#393843"/>
<path d="M31.9153 27.043C31.9153 27.043 31.3313 27.2849 30.9256 27.2041C30.5216 27.1205 29.4008 27.5298 29.4008 27.5298L30.3206 26.0744C31.059 26.5844 31.9153 27.043 31.9153 27.043Z" fill="#393843"/>
<path d="M31.3887 26.3906C31.0909 26.7859 30.595 27.1454 30.0315 27.3336C29.7223 27.4371 29.4302 27.4741 29.1873 27.4521C28.9878 27.4373 28.8191 27.3822 28.688 27.2943C28.6771 27.2879 28.6662 27.2816 28.657 27.2725C28.6244 27.2533 28.5965 27.226 28.5714 27.2003C28.6071 27.0897 28.6568 26.9801 28.7206 26.8713C28.7493 26.8224 28.7796 26.7708 28.8181 26.7239C28.834 26.6967 28.8538 26.6754 28.8725 26.6499C28.882 26.6335 28.8986 26.6177 28.9109 26.603C28.9205 26.5867 28.9355 26.5736 28.9478 26.5589C28.9847 26.5147 29.0215 26.4706 29.0654 26.4269C29.0852 26.4056 29.105 26.3844 29.1275 26.3647C29.1457 26.3461 29.1623 26.3303 29.1789 26.3144C29.2046 26.2893 29.2303 26.2642 29.2571 26.2434C29.278 26.2265 29.2962 26.2079 29.3171 26.1909C29.4056 26.1149 29.5006 26.0464 29.601 25.9811C29.6203 25.9669 29.6424 25.9543 29.6617 25.94C29.731 25.8966 29.8003 25.8533 29.8734 25.8158C29.9234 25.7866 29.9788 25.7607 30.0299 25.7359C30.1612 25.6741 30.2979 25.6154 30.4353 25.5681C30.5047 25.5431 30.5737 25.5252 30.6428 25.5072C30.6745 25.4966 30.7075 25.4903 30.7376 25.4825C30.7463 25.4802 30.7576 25.4796 30.7662 25.4773C30.7921 25.4706 30.8164 25.4666 30.8407 25.4625C31.1455 25.4039 31.4234 25.4098 31.6514 25.4633C31.6672 25.5236 31.677 25.5879 31.6766 25.657C31.6751 25.7219 31.6692 25.7879 31.6504 25.8573C31.6271 25.9532 31.5891 26.0552 31.536 26.1519C31.4925 26.2323 31.4419 26.3123 31.3859 26.389L31.3887 26.3906Z" fill="url(#paint1_linear_26722_7)"/>
<path d="M29.9855 26.5243L29.8326 26.2556L29.8667 25.8115C29.9166 25.7823 29.9721 25.7564 30.0232 25.7316C30.1544 25.6697 30.2911 25.6111 30.4285 25.5638C30.498 25.5388 30.567 25.5208 30.636 25.5029C30.6678 25.4923 30.7007 25.486 30.7309 25.4782C30.7395 25.4759 30.7509 25.4753 30.7595 25.473C30.7897 25.5273 30.8123 25.5698 30.8134 25.5741L30.3264 25.7378L29.9855 26.5243Z" fill="url(#paint2_linear_26722_7)"/>
<path d="M29.9908 26.5271L29.848 26.8453L29.1843 27.4533L28.8848 27.7271C28.8064 27.7797 28.8124 28.0061 28.771 27.9709C28.7045 27.9099 28.5796 27.6868 28.5162 27.5583C28.5155 27.5469 28.5149 27.5356 28.5158 27.5215C28.5159 27.4777 28.5176 27.4312 28.5263 27.3852C28.5359 27.3689 28.5552 27.3547 28.5746 27.3404L28.6512 27.2721L29.7922 26.2864L29.8352 26.2568L29.9881 26.5255L29.9908 26.5271Z" fill="url(#paint3_linear_26722_7)"/>
<path d="M32.0413 26.2442C32.0286 26.2222 31.9998 26.209 31.9631 26.2093L30.5755 26.0273L30.5344 26.0287L30.1851 26.624L30.5127 26.6262L31.6463 26.8054C31.7225 26.8062 31.8149 26.7545 31.8602 26.6898C31.9422 26.5625 32.1593 26.6533 32.2018 26.5248C32.2092 26.4999 32.0528 26.262 32.044 26.2458L32.0413 26.2442Z" fill="url(#paint4_linear_26722_7)"/>
<path d="M29.9435 27.1347L30.0418 25.8587C30.0413 25.8035 30.1022 25.737 30.1808 25.7027C30.2637 25.6673 30.3477 25.6362 30.4317 25.6051C30.5168 25.5784 30.602 25.5516 30.6823 25.533C30.7627 25.5143 30.8202 25.5408 30.8192 25.5986L30.7209 26.8746L29.9435 27.1347Z" fill="#DFDFE3"/>
<path d="M30.3413 26.8925L30.6906 26.2972L30.7344 26.2973L32.122 26.4794C32.1885 26.4782 32.2251 26.5216 32.2073 26.5769C32.1664 26.7027 32.1012 26.8325 32.0192 26.9598C31.9766 27.0262 31.8841 27.0779 31.8052 27.0754L30.6716 26.8963L30.3413 26.8925Z" fill="#DFDFE3"/>
<path d="M28.6459 27.7626C28.6276 27.719 28.6659 27.6538 28.7325 27.6088L29.9501 26.5548L29.9931 26.5252L30.3361 26.8872L30.0032 27.112L29.04 27.9938C28.9616 28.0465 28.8704 28.0587 28.8278 28.0192C28.7466 27.9459 28.683 27.8611 28.6459 27.7626Z" fill="#DFDFE3"/>
<path d="M28.9153 27.8787C28.9153 27.8787 28.9341 27.8714 28.9503 27.8626L29.9312 26.9693L30.6407 26.7316L31.7996 26.911C31.818 26.9108 31.8589 26.891 31.8716 26.8692C31.919 26.7947 31.9594 26.7197 31.9954 26.6459L30.5597 26.4648L30.6534 25.7196C30.5974 25.7342 30.5397 25.7515 30.4848 25.7705C30.4039 25.7961 30.3242 25.8261 30.2457 25.8604C30.2268 25.8676 30.2134 25.878 30.2086 25.8861L30.1123 26.6481L28.8178 27.7521C28.8415 27.7988 28.8727 27.8391 28.9098 27.8755L28.9153 27.8787Z" fill="#4B4A4B"/>
<path d="M11.1871 26.775C10.5364 27.884 11.0577 28.7891 12.3496 28.798C13.6414 28.807 15.2169 27.9154 15.8676 26.8064C16.5183 25.6974 15.997 24.7923 14.7052 24.7834C13.4133 24.7744 11.8378 25.666 11.1871 26.775Z" fill="#393843"/>
<path d="M11.3118 26.8201C10.6866 27.8856 11.1875 28.7568 12.4313 28.7668C13.6751 28.7768 15.1904 27.9193 15.8171 26.8511C16.4439 25.7829 15.9414 24.9143 14.6976 24.9044C13.4538 24.8944 11.9386 25.7519 11.3118 26.8201Z" fill="#2D2C37"/>
<path d="M11.6248 26.828C11.0922 27.7358 11.5183 28.4792 12.5772 28.4866C13.6361 28.4941 14.9267 27.7642 15.4594 26.8563C15.9921 25.9485 15.5659 25.2052 14.507 25.1977C13.4481 25.1902 12.1575 25.9201 11.6248 26.828Z" fill="#504F58"/>
<path d="M11.7275 26.762C11.222 27.6237 11.6283 28.3261 12.6321 28.3341C13.6358 28.3421 14.8603 27.6502 15.3659 26.7885C15.8714 25.9269 15.4651 25.2244 14.4614 25.2164C13.4576 25.2084 12.2331 25.9004 11.7275 26.762Z" fill="#BABABE"/>
<path d="M15.1088 26.9897C14.7614 27.4509 14.184 27.8684 13.5294 28.0872C12.8748 28.306 12.3021 28.2733 11.9604 28.0399C11.8091 27.9365 11.704 27.7981 11.6607 27.6229C11.6445 27.5695 11.6358 27.5096 11.6357 27.4474C11.635 27.4361 11.6344 27.4248 11.6353 27.4107C11.6355 27.3669 11.6372 27.3204 11.6459 27.2744C11.6556 27.2143 11.6696 27.1531 11.6879 27.0907C11.7235 26.9801 11.7733 26.8705 11.8371 26.7617C11.8658 26.7128 11.8961 26.6612 11.9345 26.6143C11.9505 26.5871 11.9703 26.5659 11.9889 26.5403C11.9985 26.524 12.0151 26.5081 12.0274 26.4934C12.037 26.4771 12.052 26.464 12.0643 26.4493C12.1011 26.4051 12.138 26.361 12.1819 26.3173C12.2017 26.296 12.2215 26.2748 12.244 26.2551C12.2622 26.2365 12.2788 26.2207 12.2954 26.2049C12.3211 26.1798 12.3468 26.1546 12.3736 26.1338C12.3945 26.1169 12.4127 26.0983 12.4336 26.0814C12.522 26.0054 12.617 25.9369 12.7175 25.8716C12.7368 25.8573 12.7588 25.8447 12.7781 25.8304C12.8474 25.7871 12.9167 25.7437 12.9899 25.7062C13.0076 25.6947 13.0265 25.6875 13.0442 25.6759C13.0764 25.6583 13.113 25.6396 13.1464 25.6263C13.2777 25.5645 13.4144 25.5058 13.5517 25.4586C13.6212 25.4336 13.6902 25.4156 13.7592 25.3976C13.791 25.387 13.8239 25.3808 13.8541 25.3729C13.8627 25.3706 13.8741 25.37 13.8827 25.3678C13.9086 25.361 13.9329 25.357 13.9572 25.353C14.262 25.2943 14.5398 25.3002 14.7679 25.3537C15.1737 25.4529 15.4346 25.712 15.4454 26.0983C15.4461 26.1097 15.4467 26.121 15.4474 26.1324C15.4465 26.2086 15.437 26.287 15.4205 26.365C15.3728 26.5709 15.264 26.7811 15.1104 26.9869L15.1088 26.9897Z" fill="url(#paint5_linear_26722_7)"/>
<path d="M13.6845 25.5971L13.4476 25.9697C13.3099 25.8743 13.1766 25.7777 13.0546 25.6806C13.0868 25.663 13.1234 25.6442 13.1568 25.6309C13.288 25.5691 13.4248 25.5105 13.5621 25.4632C13.6316 25.4382 13.7006 25.4202 13.7696 25.4022C13.8014 25.3916 13.8343 25.3854 13.8645 25.3775C13.8731 25.3753 13.8845 25.3746 13.8931 25.3724C13.919 25.3656 13.9433 25.3616 13.9675 25.3576C14.2723 25.2989 14.5502 25.3049 14.7783 25.3583C15.1841 25.4575 15.445 25.7166 15.4558 26.1029C14.6669 25.187 13.6818 25.5955 13.6818 25.5955L13.6845 25.5971Z" fill="#393843"/>
<path d="M15.0403 26.9424C15.0403 26.9424 14.4563 27.1844 14.0506 27.1035C13.6466 27.0199 12.5258 27.4292 12.5258 27.4292L13.4456 25.9738C14.184 26.4838 15.0403 26.9424 15.0403 26.9424Z" fill="#393843"/>
<path d="M14.5058 26.2871C14.2081 26.6824 13.7122 27.0418 13.1487 27.2301C12.8395 27.3336 12.5474 27.3705 12.3045 27.3486C12.1049 27.3338 11.9363 27.2787 11.8052 27.1908C11.7943 27.1844 11.7834 27.178 11.7742 27.1689C11.7415 27.1498 11.7137 27.1225 11.6886 27.0968C11.7243 26.9862 11.774 26.8765 11.8378 26.7678C11.8665 26.7189 11.8968 26.6672 11.9353 26.6204C11.9512 26.5932 11.971 26.5719 11.9897 26.5463C11.9992 26.53 12.0158 26.5142 12.0281 26.4995C12.0377 26.4832 12.0527 26.4701 12.065 26.4553C12.1018 26.4112 12.1387 26.3671 12.1826 26.3234C12.2024 26.3021 12.2222 26.2808 12.2447 26.2612C12.2629 26.2426 12.2795 26.2268 12.2961 26.2109C12.3218 26.1858 12.3475 26.1607 12.3743 26.1399C12.3952 26.1229 12.4134 26.1044 12.4343 26.0874C12.5228 26.0114 12.6178 25.9429 12.7182 25.8776C12.7375 25.8634 12.7595 25.8507 12.7789 25.8365C12.8482 25.7931 12.9175 25.7497 12.9906 25.7123C13.0406 25.6831 13.096 25.6572 13.1471 25.6324C13.2784 25.5705 13.4151 25.5119 13.5525 25.4646C13.6219 25.4396 13.6909 25.4216 13.7599 25.4037C13.7917 25.3931 13.8246 25.3868 13.8548 25.379C13.8635 25.3767 13.8748 25.3761 13.8834 25.3738C13.9093 25.3671 13.9336 25.3631 13.9579 25.359C14.2627 25.3004 14.5406 25.3063 14.7686 25.3597C14.7843 25.4201 14.7942 25.4843 14.7938 25.5535C14.7922 25.6184 14.7864 25.6844 14.7676 25.7538C14.7442 25.8497 14.7063 25.9517 14.6532 26.0484C14.6097 26.1288 14.5591 26.2087 14.5031 26.2855L14.5058 26.2871Z" fill="url(#paint6_linear_26722_7)"/>
<path d="M13.1183 26.4266L12.9654 26.1579L12.9995 25.7138C13.0495 25.6847 13.1049 25.6587 13.156 25.6339C13.2872 25.5721 13.424 25.5135 13.5613 25.4662C13.6308 25.4412 13.6998 25.4232 13.7688 25.4052C13.8006 25.3946 13.8335 25.3884 13.8637 25.3805C13.8723 25.3783 13.8837 25.3776 13.8923 25.3754C13.9226 25.4297 13.9451 25.4721 13.9463 25.4764L13.4593 25.6401L13.1183 26.4266Z" fill="url(#paint7_linear_26722_7)"/>
<path d="M13.108 26.4231L12.9652 26.7413L12.3015 27.3493L12.002 27.6231C11.9236 27.6757 11.9296 27.9021 11.8882 27.8669C11.8216 27.8059 11.6968 27.5828 11.6333 27.4543C11.6327 27.4429 11.632 27.4316 11.633 27.4175C11.6331 27.3737 11.6348 27.3272 11.6435 27.2812C11.6531 27.2649 11.6724 27.2506 11.6917 27.2364L11.7684 27.1681L12.9094 26.1824L12.9524 26.1528L13.1053 26.4215L13.108 26.4231Z" fill="url(#paint8_linear_26722_7)"/>
<path d="M15.1663 26.1373C15.1536 26.1153 15.1248 26.102 15.0881 26.1024L13.7005 25.9203L13.6594 25.9218L13.3101 26.5171L13.6377 26.5193L14.7713 26.6984C14.8475 26.6993 14.9399 26.6476 14.9852 26.5828C15.0672 26.4555 15.2843 26.5464 15.3268 26.4179C15.3342 26.3929 15.1778 26.155 15.169 26.1389L15.1663 26.1373Z" fill="url(#paint9_linear_26722_7)"/>
<path d="M13.0685 27.0302L13.1668 25.7542C13.1663 25.699 13.2272 25.6325 13.3058 25.5982C13.3887 25.5628 13.4727 25.5317 13.5567 25.5006C13.6418 25.4739 13.727 25.4471 13.8073 25.4285C13.8877 25.4098 13.9452 25.4363 13.9442 25.4941L13.8459 26.7701L13.0685 27.0302Z" fill="#DFDFE3"/>
<path d="M13.4507 26.7855L13.8 26.1903L13.8438 26.1904L15.2314 26.3724C15.2979 26.3712 15.3345 26.4147 15.3167 26.47C15.2757 26.5958 15.2105 26.7256 15.1285 26.8529C15.086 26.9192 14.9935 26.9709 14.9146 26.9685L13.781 26.7893L13.4507 26.7855Z" fill="#DFDFE3"/>
<path d="M11.7631 27.6561C11.7448 27.6125 11.7831 27.5473 11.8497 27.5023L13.0673 26.4483L13.1103 26.4187L13.4533 26.7807L13.1204 27.0056L12.1572 27.8874C12.0788 27.9401 11.9876 27.9523 11.945 27.9127C11.8638 27.8395 11.8002 27.7547 11.7631 27.6561Z" fill="#DFDFE3"/>
<path d="M12.0325 27.7649C12.0325 27.7649 12.0513 27.7577 12.0674 27.7489L13.0483 26.8555L13.7579 26.6178L14.9168 26.7972C14.9352 26.7971 14.9761 26.7772 14.9888 26.7554C15.0362 26.6809 15.0766 26.606 15.1126 26.5321L13.6769 26.351L13.7706 25.6059C13.7146 25.6205 13.6569 25.6378 13.602 25.6567C13.5211 25.6823 13.4414 25.7123 13.3629 25.7466C13.344 25.7538 13.3306 25.7642 13.3258 25.7724L13.2295 26.5343L11.935 27.6383C11.9587 27.6851 11.9899 27.7253 12.027 27.7617L12.0325 27.7649Z" fill="#4B4A4B"/>
<path d="M4.80333 15.5366C4.86429 15.4701 4.91906 15.4328 4.91906 15.4328C4.91906 15.4328 5.9235 14.736 6.85938 14.5981C6.85938 14.5981 6.46173 14.9458 6.26003 15.0467C6.06152 15.1421 5.43731 15.2034 4.80333 15.5366Z" fill="#F7FBFF"/>
<g style="mix-blend-mode:screen">
<path d="M6.38162 15.5473C6.31949 15.7155 6.25228 15.9172 6.18272 16.1541C6.05889 16.5893 5.8326 16.9936 5.52505 17.3247C5.44589 17.4098 5.37424 17.4884 5.31215 17.5506C5.22549 17.6422 5.07446 17.6194 5.01554 17.5081C4.90546 17.0854 4.86616 16.6604 4.94283 16.4862C5.07448 16.1871 5.49774 16.0262 6.38162 15.5473Z" fill="#565E66"/>
</g>
<g style="mix-blend-mode:screen">
<path d="M7.59293 22.2333C7.59293 22.2333 7.5918 22.229 7.59068 22.2247C7.58818 22.1356 7.65169 22.0522 7.75266 22.0421L8.19058 21.9994C8.68954 21.9524 9.19408 22.0328 9.65225 22.2359C10.0692 22.422 10.5985 22.6595 11.0312 22.8623C10.807 22.9207 9.64726 23.2158 9.22375 23.2962C8.7544 23.3862 7.80025 22.5962 7.6213 22.3158C7.61249 22.2996 7.60369 22.2835 7.60079 22.2635C7.59854 22.2549 7.59789 22.2436 7.59564 22.2349L7.59293 22.2333Z" fill="#565E66"/>
</g>
<path d="M9.02794 22.6342L9.09333 22.5228C9.15553 22.4168 9.29242 22.3765 9.40162 22.4333L10.7043 23.1026C10.8271 23.1674 10.8707 23.3172 10.8005 23.4368L10.7064 23.5972C10.5852 23.8037 10.3145 23.8604 10.1218 23.7218L9.10215 22.981C8.99165 22.9016 8.95936 22.7511 9.02794 22.6342Z" fill="white"/>
<path d="M5.69914 16.733L5.833 16.5485C5.95138 16.3841 6.03874 16.1979 6.08597 15.999L6.28278 15.2339C6.30776 15.1353 6.20777 15.0255 6.13115 15.0938C5.79052 15.4128 5.56003 15.7745 5.49694 16.2307L5.44081 16.6253C5.41956 16.7736 5.61331 16.8544 5.70074 16.7303L5.69914 16.733Z" fill="white"/>
<path d="M9.37493 23.8625C9.6413 24.0188 10.8237 24.3326 10.9996 24.2385C11.1872 24.1366 11.3983 23.833 11.4217 23.7992L11.2258 23.666C11.1491 23.7781 10.9889 23.9764 10.8878 24.0304C10.7766 24.0455 9.7881 23.8309 9.49726 23.6603C9.49726 23.6603 9.49726 23.6603 9.49454 23.6587C9.06395 23.4024 8.23634 22.4527 8.14987 22.2887L7.94067 22.3962C8.04924 22.6097 8.91332 23.5844 9.3738 23.8582L9.37652 23.8598L9.37493 23.8625Z" fill="white"/>
<path d="M5.06684 17.3621L5.28934 17.2881C5.13737 16.8372 4.98262 16.0485 4.99996 15.8321C5.01294 15.7228 5.41595 15.3162 5.88579 14.9451L5.73858 14.7601C5.45218 14.9867 4.78792 15.5396 4.76522 15.8149C4.74044 16.1 4.92994 16.9603 5.06525 17.3649L5.06684 17.3621Z" fill="white"/>
<path d="M36.6252 23.7285C36.6252 23.7285 36.7157 24.527 36.3769 25.1357C36.0016 25.3393 35.7132 25.4697 35.3472 25.3025C36.0068 25.0939 36.2143 24.7589 36.3189 24.4622C36.4236 24.1656 36.6279 23.7301 36.6279 23.7301L36.6252 23.7285Z" fill="#5B73FF"/>
<path d="M18.3556 22.7665C18.3556 22.7665 18.2243 22.6602 18.1932 22.5762C18.1621 22.4922 18.3124 22.3356 18.4524 22.3337C18.594 22.3291 18.7948 22.6406 18.8554 22.6432C18.916 22.6459 19.135 22.9389 19.135 22.9389L18.9187 23.0896L18.356 22.7595L18.3556 22.7665Z" fill="#5B73FF"/>
<path d="M19.3686 22.3455C19.1394 22.1197 18.8122 22.0483 18.5955 22.3304C18.3335 22.6772 18.4631 22.83 18.5323 22.9364C18.603 23.04 18.8786 23.4172 19.3429 23.697C19.8072 23.9767 20.0111 23.7602 20.1083 23.5944C20.1227 23.5699 20.1211 23.5726 20.1339 23.5509C20.259 23.3064 20.2162 23.1863 20.0846 23.0433C19.8027 22.739 19.3713 22.3471 19.3713 22.3471L19.3686 22.3455Z" fill="#5B73FF"/>
<path d="M18.8063 22.2228C18.9899 22.2648 19.274 22.5155 19.5494 22.7684C19.8248 23.0214 20.0645 23.1547 19.9088 23.4762C19.753 23.7977 19.6121 23.8137 19.4661 23.7573C19.3245 23.6998 19.0744 23.553 18.7658 23.2258C18.4545 22.897 18.4396 22.8042 18.4431 22.6674C18.4466 22.5306 18.6226 22.1808 18.8063 22.2228Z" fill="#5B84FF"/>
<path d="M16.2707 22.0038C16.2707 22.0038 15.103 21.1542 14.9528 20.993C13.3314 19.2415 12.3115 17.1997 11.7152 15.3701C11.5675 14.918 12.2545 13.8157 12.2545 13.8157C12.401 13.7591 12.5458 13.7053 12.695 13.6503L13.7981 13.9687L15.587 17.4336L15.3567 18.866L17.0318 21.6283L16.2723 22.0011L16.2707 22.0038Z" fill="#4A4963"/>
<g style="mix-blend-mode:screen">
<path d="M13.1155 19.2666C13.2951 19.5584 13.4822 19.8435 13.6757 20.1178C14.1115 20.7389 14.9231 21.3174 15.3683 21.7979C15.525 21.9666 16.6169 22.6839 16.6169 22.6839C16.6271 22.679 16.6684 22.6521 16.7448 22.6092C16.7727 22.5927 16.8022 22.5735 16.8404 22.552C16.9404 22.4938 17.0726 22.4179 17.2312 22.3282C17.2693 22.3068 17.3118 22.2842 17.3532 22.2573C17.3532 22.2573 17.3547 22.2546 17.3591 22.2535C17.3913 22.2359 17.4209 22.2166 17.4531 22.199C17.4606 22.1925 17.4708 22.1875 17.4811 22.1825C17.5633 22.1358 17.6498 22.0879 17.7423 22.0362C17.9315 21.9317 18.1412 21.8172 18.3611 21.6977C18.4036 21.6752 18.4461 21.6526 18.4901 21.6273C18.5767 21.5794 18.666 21.5331 18.7595 21.4857C18.8063 21.462 18.8531 21.4383 18.8972 21.413L18.9015 21.4119C18.9983 21.3591 19.0962 21.3106 19.1957 21.2593C19.478 21.1144 19.7733 20.9661 20.0713 20.8194C20.2246 20.745 20.3779 20.6705 20.5323 20.6003L20.8428 20.4573C21.0016 20.386 21.1587 20.3175 21.3131 20.2473C21.3799 20.2207 21.4439 20.1925 21.508 20.1643C21.5791 20.1366 21.649 20.1046 21.7201 20.0768C21.7868 20.0502 21.8536 20.0236 21.9177 19.9954C21.9683 19.9777 22.0178 19.9556 22.0684 19.9378C22.1163 19.9184 22.1627 19.9017 22.209 19.885C22.2553 19.8684 22.2973 19.8528 22.3393 19.8373C22.3959 19.8156 22.4508 19.7967 22.5057 19.7778C22.5187 19.7744 22.5289 19.7695 22.5375 19.7672C22.6474 19.7294 22.753 19.6927 22.8597 19.6603C22.8899 19.6524 22.9217 19.6419 22.9519 19.634C23.3555 19.5127 23.7255 19.4302 24.0382 19.4017C25.7279 19.2495 29.9745 19.136 32.9163 19.1229C32.9163 19.1229 32.9234 19.1233 32.9261 19.1249C32.9288 19.1265 32.9358 19.127 32.9402 19.1259C33.165 19.1226 33.3839 19.1231 33.5914 19.1243C33.6255 19.1224 33.6579 19.1232 33.6903 19.1239C33.7877 19.1262 33.8811 19.1226 33.9741 19.126C34.0066 19.1268 34.0363 19.1259 34.066 19.1251C34.186 19.1261 34.306 19.1271 34.4147 19.1287C34.4979 19.1301 34.5812 19.1314 34.6574 19.1323C34.7433 19.1352 34.8239 19.135 34.9028 19.1374C34.9185 19.1357 34.9353 19.1382 34.9493 19.1391C34.9747 19.1394 34.9974 19.1381 35.0228 19.1384C35.3179 19.1399 36.0838 19.1361 36.4464 19.0785C36.9035 19.0032 37.1752 18.8703 37.1282 18.3276C37.0942 17.9496 36.72 17.043 36.2291 16.0425C35.6893 15.9413 34.8898 15.8778 33.9262 15.8386C30.5041 15.7051 25.0449 15.9111 22.1418 16.0638C21.1013 16.1183 20.3889 16.168 20.2108 16.1914C19.4556 16.2891 14.9998 18.0045 13.1085 19.2662L13.1155 19.2666Z" fill="#131317"/>
</g>
<g style="mix-blend-mode:screen">
<path d="M24.227 15.9648L25.3716 17.981C25.5059 18.3375 25.905 18.5789 26.3504 18.5919C26.6567 18.5743 26.9771 18.5576 27.3056 18.5458L27.3169 18.5451C29.1442 18.4699 31.2838 18.4538 33.5075 18.5125C33.7205 18.5169 33.8857 18.3288 33.8517 18.1189C33.8166 17.9047 33.7678 17.6641 33.7288 17.5499C33.5545 17.0749 33.2636 16.4621 32.9189 15.8104C30.2851 15.7595 26.8631 15.8562 24.2325 15.968L24.227 15.9648Z" fill="#131317"/>
</g>
<g style="mix-blend-mode:screen">
<path d="M13.4611 19.0571C13.8909 19.7258 14.388 20.3792 14.9583 20.9952C15.1058 21.1548 16.2763 22.006 16.2763 22.006L22.1379 19.1277C22.1379 19.1277 21.5728 18.3906 21.4458 18.221C21.0606 17.6881 20.5844 16.9739 20.1154 16.2164C19.8188 16.2798 19.2412 16.4671 18.5298 16.733C16.9826 17.3086 14.7936 18.2495 13.4568 19.0582L13.4611 19.0571Z" fill="#131317"/>
</g>
<path d="M8.17334 21.9924C8.6723 21.9453 9.17683 22.0258 9.635 22.2288C10.4346 22.5848 11.6464 23.135 11.7945 23.2438C12.0166 23.407 11.4663 24.1145 11.139 24.361C10.8117 24.6074 9.43501 24.1577 9.02675 23.8633C8.7034 23.6298 7.91089 22.7884 7.60406 22.3087C7.53107 22.1965 7.60313 22.0488 7.73813 22.0366L8.17606 21.994L8.17334 21.9924Z" fill="#B7C8D9"/>
<path d="M7.58855 22.2573C7.56431 22.1554 7.63082 22.0483 7.74314 22.0374L8.18107 21.9948C8.68003 21.9477 9.18456 22.0282 9.64273 22.2312C10.4424 22.5871 11.6542 23.1374 11.8022 23.2462C11.9329 23.3411 11.7967 23.623 11.5994 23.8908C11.2682 23.9011 11.0962 23.8952 10.871 23.8618C10.4694 23.8052 10.3615 23.7089 10.0776 23.4766C9.40254 22.927 9.41606 22.8729 8.99943 22.6613C8.72892 22.5245 7.95518 22.3299 7.59286 22.2562L7.58855 22.2573Z" fill="#9BACBF"/>
<path d="M6.85035 14.5951L6.72277 14.8125C6.72277 14.8125 6.45393 15.1773 6.1781 16.1518C6.05426 16.5871 5.82797 16.9914 5.52043 17.3225C5.44127 17.4076 5.36962 17.4861 5.30753 17.5484C5.21927 17.6427 5.06553 17.6183 5.00979 17.5015C4.74058 16.9453 4.57171 16.0935 4.6213 15.8595C4.67757 15.5893 4.91276 15.4313 4.91276 15.4313C4.91276 15.4313 5.9172 14.7345 6.85307 14.5967L6.85035 14.5951Z" fill="#B7C8D9"/>
<path d="M4.79552 15.5337C4.85648 15.4671 4.91125 15.4298 4.91125 15.4298C4.91125 15.4298 5.91569 14.733 6.85156 14.5952C6.85156 14.5952 6.45392 14.9429 6.25222 15.0438C6.05371 15.1392 5.4295 15.2005 4.79552 15.5337Z" fill="#F7FBFF"/>
<g style="mix-blend-mode:screen">
<path d="M6.38162 15.5449C6.31949 15.713 6.25228 15.9147 6.18272 16.1516C6.05889 16.5869 5.8326 16.9912 5.52506 17.3223C5.4459 17.4074 5.37424 17.4859 5.31215 17.5482C5.22549 17.6398 5.07446 17.617 5.01554 17.5057C4.90546 17.083 4.86616 16.658 4.94283 16.4837C5.07448 16.1846 5.49773 16.0238 6.38162 15.5449Z" fill="#565E66"/>
</g>
<g style="mix-blend-mode:screen">
<path d="M7.58511 22.227C7.58511 22.227 7.58399 22.2227 7.58287 22.2184C7.58037 22.1292 7.64387 22.0459 7.74485 22.0357L8.18277 21.9931C8.68173 21.946 9.18626 22.0265 9.64443 22.2295C10.0614 22.4157 10.5907 22.6532 11.0234 22.856C10.7992 22.9144 9.63944 23.2095 9.21594 23.2899C8.74659 23.3799 7.79244 22.5898 7.61349 22.3094C7.60468 22.2933 7.59587 22.2772 7.59297 22.2572C7.59073 22.2486 7.59008 22.2372 7.58783 22.2286L7.58511 22.227Z" fill="#565E66"/>
</g>
<path d="M9.02794 22.6313L9.09333 22.5198C9.15553 22.4138 9.29242 22.3736 9.40162 22.4303L10.7043 23.0997C10.8271 23.1644 10.8707 23.3143 10.8005 23.4339L10.7064 23.5942C10.5852 23.8008 10.3145 23.8575 10.1218 23.7189L9.10215 22.9781C8.99165 22.8987 8.95936 22.7482 9.02794 22.6313Z" fill="white"/>
<path d="M5.69914 16.733L5.833 16.5485C5.95138 16.3841 6.03873 16.1978 6.08597 15.999L6.28278 15.2339C6.30776 15.1353 6.20777 15.0255 6.13115 15.0938C5.79052 15.4128 5.56003 15.7745 5.49694 16.2307L5.44081 16.6253C5.41956 16.7736 5.61331 16.8544 5.70074 16.7303L5.69914 16.733Z" fill="white"/>
<path d="M9.38114 23.8648C9.64752 24.0211 10.83 24.3349 11.0074 24.238C11.1934 24.1389 11.4045 23.8352 11.4295 23.7987L11.2336 23.6655C11.1569 23.7776 10.9967 23.9759 10.8956 24.0299C10.7844 24.0451 9.79591 23.8304 9.50507 23.6598C9.50507 23.6598 9.50235 23.6582 9.49964 23.6566C9.06905 23.4003 8.23871 22.449 8.15496 22.2866L7.94576 22.3941C8.05433 22.6076 8.91841 23.5823 9.3773 23.8589L9.38002 23.8605L9.38114 23.8648Z" fill="white"/>
<path d="M5.06684 17.3573L5.28934 17.2832C5.13737 16.8323 4.98262 16.0436 4.99996 15.8272C5.01294 15.7179 5.41595 15.3113 5.88579 14.9402L5.73858 14.7552C5.45218 14.9818 4.78792 15.5347 4.76681 15.8073C4.74204 16.0924 4.93154 16.9527 5.06684 17.3573Z" fill="white"/>
<defs>
<linearGradient id="paint0_linear_26722_7" x1="28.6188" y1="27.9094" x2="32.2373" y2="25.8525" gradientUnits="userSpaceOnUse">
<stop offset="0.27" stop-color="#ECEEF7"/>
<stop offset="0.77" stop-color="#9C9AA8"/>
</linearGradient>
<linearGradient id="paint1_linear_26722_7" x1="30.1187" y1="27.4651" x2="30.1321" y2="25.4122" gradientUnits="userSpaceOnUse">
<stop offset="0.26" stop-color="#393843"/>
<stop offset="0.78" stop-color="#23222E"/>
</linearGradient>
<linearGradient id="paint2_linear_26722_7" x1="30.6427" y1="26.2449" x2="29.811" y2="26.0309" gradientUnits="userSpaceOnUse">
<stop stop-color="#ADAEB8"/>
<stop offset="0.08" stop-color="#BABBC5"/>
<stop offset="0.2" stop-color="#C9CBD3"/>
<stop offset="0.34" stop-color="#D2D4DC"/>
<stop offset="0.55" stop-color="#D5D7DF"/>
<stop offset="0.66" stop-color="#C0C1CA"/>
<stop offset="1" stop-color="#868490"/>
</linearGradient>
<linearGradient id="paint3_linear_26722_7" x1="29.5253" y1="27.4014" x2="29.089" y2="26.8311" gradientUnits="userSpaceOnUse">
<stop stop-color="#ADAEB8"/>
<stop offset="0.08" stop-color="#BABBC5"/>
<stop offset="0.2" stop-color="#C9CBD3"/>
<stop offset="0.34" stop-color="#D2D4DC"/>
<stop offset="0.55" stop-color="#D5D7DF"/>
<stop offset="0.66" stop-color="#C0C1CA"/>
<stop offset="1" stop-color="#868490"/>
</linearGradient>
<linearGradient id="paint4_linear_26722_7" x1="31.1917" y1="26.8017" x2="31.1966" y2="26.0336" gradientUnits="userSpaceOnUse">
<stop stop-color="#ADAEB8"/>
<stop offset="0.08" stop-color="#BABBC5"/>
<stop offset="0.2" stop-color="#C9CBD3"/>
<stop offset="0.34" stop-color="#D2D4DC"/>
<stop offset="0.55" stop-color="#D5D7DF"/>
<stop offset="0.66" stop-color="#C0C1CA"/>
<stop offset="1" stop-color="#868490"/>
</linearGradient>
<linearGradient id="paint5_linear_26722_7" x1="11.7348" y1="27.8016" x2="15.3517" y2="25.7474" gradientUnits="userSpaceOnUse">
<stop offset="0.27" stop-color="#ECEEF7"/>
<stop offset="0.77" stop-color="#9C9AA8"/>
</linearGradient>
<linearGradient id="paint6_linear_26722_7" x1="13.2359" y1="27.3616" x2="13.252" y2="25.3103" gradientUnits="userSpaceOnUse">
<stop offset="0.26" stop-color="#393843"/>
<stop offset="0.78" stop-color="#23222E"/>
</linearGradient>
<linearGradient id="paint7_linear_26722_7" x1="13.7728" y1="26.1457" x2="12.9438" y2="25.9333" gradientUnits="userSpaceOnUse">
<stop stop-color="#ADAEB8"/>
<stop offset="0.08" stop-color="#BABBC5"/>
<stop offset="0.2" stop-color="#C9CBD3"/>
<stop offset="0.34" stop-color="#D2D4DC"/>
<stop offset="0.55" stop-color="#D5D7DF"/>
<stop offset="0.66" stop-color="#C0C1CA"/>
<stop offset="1" stop-color="#868490"/>
</linearGradient>
<linearGradient id="paint8_linear_26722_7" x1="12.6425" y1="27.2974" x2="12.2035" y2="26.7255" gradientUnits="userSpaceOnUse">
<stop stop-color="#ADAEB8"/>
<stop offset="0.08" stop-color="#BABBC5"/>
<stop offset="0.2" stop-color="#C9CBD3"/>
<stop offset="0.34" stop-color="#D2D4DC"/>
<stop offset="0.55" stop-color="#D5D7DF"/>
<stop offset="0.66" stop-color="#C0C1CA"/>
<stop offset="1" stop-color="#868490"/>
</linearGradient>
<linearGradient id="paint9_linear_26722_7" x1="14.3151" y1="26.6975" x2="14.3216" y2="25.9267" gradientUnits="userSpaceOnUse">
<stop stop-color="#ADAEB8"/>
<stop offset="0.08" stop-color="#BABBC5"/>
<stop offset="0.2" stop-color="#C9CBD3"/>
<stop offset="0.34" stop-color="#D2D4DC"/>
<stop offset="0.55" stop-color="#D5D7DF"/>
<stop offset="0.66" stop-color="#C0C1CA"/>
<stop offset="1" stop-color="#868490"/>
</linearGradient>
</defs>
</svg>
