<svg width="909" height="404" viewBox="0 0 909 404" fill="none" xmlns="http://www.w3.org/2000/svg">
<path d="M1.5 9.49998C3.66667 8.33332 9.6 5.69998 16 4.49998C22.4 3.29998 58.6667 3.99998 76 4.49998C79.6667 6.16665 87.5 9.49998 89.5 9.49998C92 9.49998 113 8 113 15C113 22 111.5 31 115 33C118.5 35 176 53.5 182.5 55.5C189 57.5 198.5 60.5 204.5 70.5C209.3 78.5 214.833 90.1667 217 95C218.5 98.1667 217.3 105.2 200.5 108C183.7 110.8 157.833 115.833 147 118C136.5 120.833 121.8 127 147 129C178.5 131.5 255.5 137 269.5 137.5C283.5 138 340.5 145.5 382 155C415.2 162.6 443.5 169.167 453.5 171.5C457.5 172.5 470.3 173.9 489.5 171.5C508.7 169.1 527.5 166.833 534.5 166C542.333 164.833 560.1 164.3 568.5 171.5C576.9 178.7 685 247.167 738 280.5C741 283.167 749.4 288.2 759 287C771 285.5 784 288.5 782 299C780 309.5 780 328 785.5 331.5C789.9 334.3 872.667 381.833 907.5 401" stroke="#FF0404" stroke-width="6"/>
</svg>
